<?xml version="1.0" encoding="utf-8" standalone="no"?>
<!DOCTYPE svg PUBLIC "-//W3C//DTD SVG 1.1//EN"
  "http://www.w3.org/Graphics/SVG/1.1/DTD/svg11.dtd">
<svg xmlns:xlink="http://www.w3.org/1999/xlink" width="252pt" height="180pt" viewBox="0 0 252 180" xmlns="http://www.w3.org/2000/svg" version="1.1">
 <metadata>
  <rdf:RDF xmlns:dc="http://purl.org/dc/elements/1.1/" xmlns:cc="http://creativecommons.org/ns#" xmlns:rdf="http://www.w3.org/1999/02/22-rdf-syntax-ns#">
   <cc:Work>
    <dc:type rdf:resource="http://purl.org/dc/dcmitype/StillImage"/>
    <dc:date>2025-07-11T21:05:01.874965</dc:date>
    <dc:format>image/svg+xml</dc:format>
    <dc:creator>
     <cc:Agent>
      <dc:title>Matplotlib v3.10.3, https://matplotlib.org/</dc:title>
     </cc:Agent>
    </dc:creator>
   </cc:Work>
  </rdf:RDF>
 </metadata>
 <defs>
  <style type="text/css">*{stroke-linejoin: round; stroke-linecap: butt}</style>
 </defs>
 <g id="figure_1">
  <g id="patch_1">
   <path d="M 0 180 
L 252 180 
L 252 0 
L 0 0 
z
" style="fill: #ffffff"/>
  </g>
  <g id="axes_1">
   <g id="patch_2">
    <path d="M 31.5 160.2 
L 226.8 160.2 
L 226.8 21.6 
L 31.5 21.6 
z
" style="fill: #ffffff"/>
   </g>
   <g id="matplotlib.axis_1">
    <g id="xtick_1">
     <g id="line2d_1">
      <path d="M 40.377273 160.2 
L 40.377273 21.6 
" clip-path="url(#p73fe58fd2a)" style="fill: none; stroke-dasharray: 2.96,1.28; stroke-dashoffset: 0; stroke: #b0b0b0; stroke-opacity: 0.7; stroke-width: 0.8"/>
     </g>
     <g id="line2d_2">
      <defs>
       <path id="m663ca79dd7" d="M 0 0 
L 0 3.5 
" style="stroke: #000000; stroke-width: 0.8"/>
      </defs>
      <g>
       <use xlink:href="#m663ca79dd7" x="40.377273" y="160.2" style="stroke: #000000; stroke-width: 0.8"/>
      </g>
     </g>
     <g id="text_1">
      <!-- 0.0 -->
      <g transform="translate(32.42571 174.798438) scale(0.1 -0.1)">
       <defs>
        <path id="DejaVuSans-30" d="M 2034 4250 
Q 1547 4250 1301 3770 
Q 1056 3291 1056 2328 
Q 1056 1369 1301 889 
Q 1547 409 2034 409 
Q 2525 409 2770 889 
Q 3016 1369 3016 2328 
Q 3016 3291 2770 3770 
Q 2525 4250 2034 4250 
z
M 2034 4750 
Q 2819 4750 3233 4129 
Q 3647 3509 3647 2328 
Q 3647 1150 3233 529 
Q 2819 -91 2034 -91 
Q 1250 -91 836 529 
Q 422 1150 422 2328 
Q 422 3509 836 4129 
Q 1250 4750 2034 4750 
z
" transform="scale(0.015625)"/>
        <path id="DejaVuSans-2e" d="M 684 794 
L 1344 794 
L 1344 0 
L 684 0 
L 684 794 
z
" transform="scale(0.015625)"/>
       </defs>
       <use xlink:href="#DejaVuSans-30"/>
       <use xlink:href="#DejaVuSans-2e" transform="translate(63.623047 0)"/>
       <use xlink:href="#DejaVuSans-30" transform="translate(95.410156 0)"/>
      </g>
     </g>
    </g>
    <g id="xtick_2">
     <g id="line2d_3">
      <path d="M 75.886364 160.2 
L 75.886364 21.6 
" clip-path="url(#p73fe58fd2a)" style="fill: none; stroke-dasharray: 2.96,1.28; stroke-dashoffset: 0; stroke: #b0b0b0; stroke-opacity: 0.7; stroke-width: 0.8"/>
     </g>
     <g id="line2d_4">
      <g>
       <use xlink:href="#m663ca79dd7" x="75.886364" y="160.2" style="stroke: #000000; stroke-width: 0.8"/>
      </g>
     </g>
     <g id="text_2">
      <!-- 0.2 -->
      <g transform="translate(67.934801 174.798438) scale(0.1 -0.1)">
       <defs>
        <path id="DejaVuSans-32" d="M 1228 531 
L 3431 531 
L 3431 0 
L 469 0 
L 469 531 
Q 828 903 1448 1529 
Q 2069 2156 2228 2338 
Q 2531 2678 2651 2914 
Q 2772 3150 2772 3378 
Q 2772 3750 2511 3984 
Q 2250 4219 1831 4219 
Q 1534 4219 1204 4116 
Q 875 4013 500 3803 
L 500 4441 
Q 881 4594 1212 4672 
Q 1544 4750 1819 4750 
Q 2544 4750 2975 4387 
Q 3406 4025 3406 3419 
Q 3406 3131 3298 2873 
Q 3191 2616 2906 2266 
Q 2828 2175 2409 1742 
Q 1991 1309 1228 531 
z
" transform="scale(0.015625)"/>
       </defs>
       <use xlink:href="#DejaVuSans-30"/>
       <use xlink:href="#DejaVuSans-2e" transform="translate(63.623047 0)"/>
       <use xlink:href="#DejaVuSans-32" transform="translate(95.410156 0)"/>
      </g>
     </g>
    </g>
    <g id="xtick_3">
     <g id="line2d_5">
      <path d="M 111.395455 160.2 
L 111.395455 21.6 
" clip-path="url(#p73fe58fd2a)" style="fill: none; stroke-dasharray: 2.96,1.28; stroke-dashoffset: 0; stroke: #b0b0b0; stroke-opacity: 0.7; stroke-width: 0.8"/>
     </g>
     <g id="line2d_6">
      <g>
       <use xlink:href="#m663ca79dd7" x="111.395455" y="160.2" style="stroke: #000000; stroke-width: 0.8"/>
      </g>
     </g>
     <g id="text_3">
      <!-- 0.4 -->
      <g transform="translate(103.443892 174.798438) scale(0.1 -0.1)">
       <defs>
        <path id="DejaVuSans-34" d="M 2419 4116 
L 825 1625 
L 2419 1625 
L 2419 4116 
z
M 2253 4666 
L 3047 4666 
L 3047 1625 
L 3713 1625 
L 3713 1100 
L 3047 1100 
L 3047 0 
L 2419 0 
L 2419 1100 
L 313 1100 
L 313 1709 
L 2253 4666 
z
" transform="scale(0.015625)"/>
       </defs>
       <use xlink:href="#DejaVuSans-30"/>
       <use xlink:href="#DejaVuSans-2e" transform="translate(63.623047 0)"/>
       <use xlink:href="#DejaVuSans-34" transform="translate(95.410156 0)"/>
      </g>
     </g>
    </g>
    <g id="xtick_4">
     <g id="line2d_7">
      <path d="M 146.904545 160.2 
L 146.904545 21.6 
" clip-path="url(#p73fe58fd2a)" style="fill: none; stroke-dasharray: 2.96,1.28; stroke-dashoffset: 0; stroke: #b0b0b0; stroke-opacity: 0.7; stroke-width: 0.8"/>
     </g>
     <g id="line2d_8">
      <g>
       <use xlink:href="#m663ca79dd7" x="146.904545" y="160.2" style="stroke: #000000; stroke-width: 0.8"/>
      </g>
     </g>
     <g id="text_4">
      <!-- 0.6 -->
      <g transform="translate(138.952983 174.798438) scale(0.1 -0.1)">
       <defs>
        <path id="DejaVuSans-36" d="M 2113 2584 
Q 1688 2584 1439 2293 
Q 1191 2003 1191 1497 
Q 1191 994 1439 701 
Q 1688 409 2113 409 
Q 2538 409 2786 701 
Q 3034 994 3034 1497 
Q 3034 2003 2786 2293 
Q 2538 2584 2113 2584 
z
M 3366 4563 
L 3366 3988 
Q 3128 4100 2886 4159 
Q 2644 4219 2406 4219 
Q 1781 4219 1451 3797 
Q 1122 3375 1075 2522 
Q 1259 2794 1537 2939 
Q 1816 3084 2150 3084 
Q 2853 3084 3261 2657 
Q 3669 2231 3669 1497 
Q 3669 778 3244 343 
Q 2819 -91 2113 -91 
Q 1303 -91 875 529 
Q 447 1150 447 2328 
Q 447 3434 972 4092 
Q 1497 4750 2381 4750 
Q 2619 4750 2861 4703 
Q 3103 4656 3366 4563 
z
" transform="scale(0.015625)"/>
       </defs>
       <use xlink:href="#DejaVuSans-30"/>
       <use xlink:href="#DejaVuSans-2e" transform="translate(63.623047 0)"/>
       <use xlink:href="#DejaVuSans-36" transform="translate(95.410156 0)"/>
      </g>
     </g>
    </g>
    <g id="xtick_5">
     <g id="line2d_9">
      <path d="M 182.413636 160.2 
L 182.413636 21.6 
" clip-path="url(#p73fe58fd2a)" style="fill: none; stroke-dasharray: 2.96,1.28; stroke-dashoffset: 0; stroke: #b0b0b0; stroke-opacity: 0.7; stroke-width: 0.8"/>
     </g>
     <g id="line2d_10">
      <g>
       <use xlink:href="#m663ca79dd7" x="182.413636" y="160.2" style="stroke: #000000; stroke-width: 0.8"/>
      </g>
     </g>
     <g id="text_5">
      <!-- 0.8 -->
      <g transform="translate(174.462074 174.798438) scale(0.1 -0.1)">
       <defs>
        <path id="DejaVuSans-38" d="M 2034 2216 
Q 1584 2216 1326 1975 
Q 1069 1734 1069 1313 
Q 1069 891 1326 650 
Q 1584 409 2034 409 
Q 2484 409 2743 651 
Q 3003 894 3003 1313 
Q 3003 1734 2745 1975 
Q 2488 2216 2034 2216 
z
M 1403 2484 
Q 997 2584 770 2862 
Q 544 3141 544 3541 
Q 544 4100 942 4425 
Q 1341 4750 2034 4750 
Q 2731 4750 3128 4425 
Q 3525 4100 3525 3541 
Q 3525 3141 3298 2862 
Q 3072 2584 2669 2484 
Q 3125 2378 3379 2068 
Q 3634 1759 3634 1313 
Q 3634 634 3220 271 
Q 2806 -91 2034 -91 
Q 1263 -91 848 271 
Q 434 634 434 1313 
Q 434 1759 690 2068 
Q 947 2378 1403 2484 
z
M 1172 3481 
Q 1172 3119 1398 2916 
Q 1625 2713 2034 2713 
Q 2441 2713 2670 2916 
Q 2900 3119 2900 3481 
Q 2900 3844 2670 4047 
Q 2441 4250 2034 4250 
Q 1625 4250 1398 4047 
Q 1172 3844 1172 3481 
z
" transform="scale(0.015625)"/>
       </defs>
       <use xlink:href="#DejaVuSans-30"/>
       <use xlink:href="#DejaVuSans-2e" transform="translate(63.623047 0)"/>
       <use xlink:href="#DejaVuSans-38" transform="translate(95.410156 0)"/>
      </g>
     </g>
    </g>
    <g id="xtick_6">
     <g id="line2d_11">
      <path d="M 217.922727 160.2 
L 217.922727 21.6 
" clip-path="url(#p73fe58fd2a)" style="fill: none; stroke-dasharray: 2.96,1.28; stroke-dashoffset: 0; stroke: #b0b0b0; stroke-opacity: 0.7; stroke-width: 0.8"/>
     </g>
     <g id="line2d_12">
      <g>
       <use xlink:href="#m663ca79dd7" x="217.922727" y="160.2" style="stroke: #000000; stroke-width: 0.8"/>
      </g>
     </g>
     <g id="text_6">
      <!-- 1.0 -->
      <g transform="translate(209.971165 174.798438) scale(0.1 -0.1)">
       <defs>
        <path id="DejaVuSans-31" d="M 794 531 
L 1825 531 
L 1825 4091 
L 703 3866 
L 703 4441 
L 1819 4666 
L 2450 4666 
L 2450 531 
L 3481 531 
L 3481 0 
L 794 0 
L 794 531 
z
" transform="scale(0.015625)"/>
       </defs>
       <use xlink:href="#DejaVuSans-31"/>
       <use xlink:href="#DejaVuSans-2e" transform="translate(63.623047 0)"/>
       <use xlink:href="#DejaVuSans-30" transform="translate(95.410156 0)"/>
      </g>
     </g>
    </g>
    <g id="text_7">
     <!-- Ratio Threshold -->
     <g transform="translate(90.088281 188.476562) scale(0.1 -0.1)">
      <defs>
       <path id="DejaVuSans-52" d="M 2841 2188 
Q 3044 2119 3236 1894 
Q 3428 1669 3622 1275 
L 4263 0 
L 3584 0 
L 2988 1197 
Q 2756 1666 2539 1819 
Q 2322 1972 1947 1972 
L 1259 1972 
L 1259 0 
L 628 0 
L 628 4666 
L 2053 4666 
Q 2853 4666 3247 4331 
Q 3641 3997 3641 3322 
Q 3641 2881 3436 2590 
Q 3231 2300 2841 2188 
z
M 1259 4147 
L 1259 2491 
L 2053 2491 
Q 2509 2491 2742 2702 
Q 2975 2913 2975 3322 
Q 2975 3731 2742 3939 
Q 2509 4147 2053 4147 
L 1259 4147 
z
" transform="scale(0.015625)"/>
       <path id="DejaVuSans-61" d="M 2194 1759 
Q 1497 1759 1228 1600 
Q 959 1441 959 1056 
Q 959 750 1161 570 
Q 1363 391 1709 391 
Q 2188 391 2477 730 
Q 2766 1069 2766 1631 
L 2766 1759 
L 2194 1759 
z
M 3341 1997 
L 3341 0 
L 2766 0 
L 2766 531 
Q 2569 213 2275 61 
Q 1981 -91 1556 -91 
Q 1019 -91 701 211 
Q 384 513 384 1019 
Q 384 1609 779 1909 
Q 1175 2209 1959 2209 
L 2766 2209 
L 2766 2266 
Q 2766 2663 2505 2880 
Q 2244 3097 1772 3097 
Q 1472 3097 1187 3025 
Q 903 2953 641 2809 
L 641 3341 
Q 956 3463 1253 3523 
Q 1550 3584 1831 3584 
Q 2591 3584 2966 3190 
Q 3341 2797 3341 1997 
z
" transform="scale(0.015625)"/>
       <path id="DejaVuSans-74" d="M 1172 4494 
L 1172 3500 
L 2356 3500 
L 2356 3053 
L 1172 3053 
L 1172 1153 
Q 1172 725 1289 603 
Q 1406 481 1766 481 
L 2356 481 
L 2356 0 
L 1766 0 
Q 1100 0 847 248 
Q 594 497 594 1153 
L 594 3053 
L 172 3053 
L 172 3500 
L 594 3500 
L 594 4494 
L 1172 4494 
z
" transform="scale(0.015625)"/>
       <path id="DejaVuSans-69" d="M 603 3500 
L 1178 3500 
L 1178 0 
L 603 0 
L 603 3500 
z
M 603 4863 
L 1178 4863 
L 1178 4134 
L 603 4134 
L 603 4863 
z
" transform="scale(0.015625)"/>
       <path id="DejaVuSans-6f" d="M 1959 3097 
Q 1497 3097 1228 2736 
Q 959 2375 959 1747 
Q 959 1119 1226 758 
Q 1494 397 1959 397 
Q 2419 397 2687 759 
Q 2956 1122 2956 1747 
Q 2956 2369 2687 2733 
Q 2419 3097 1959 3097 
z
M 1959 3584 
Q 2709 3584 3137 3096 
Q 3566 2609 3566 1747 
Q 3566 888 3137 398 
Q 2709 -91 1959 -91 
Q 1206 -91 779 398 
Q 353 888 353 1747 
Q 353 2609 779 3096 
Q 1206 3584 1959 3584 
z
" transform="scale(0.015625)"/>
       <path id="DejaVuSans-20" transform="scale(0.015625)"/>
       <path id="DejaVuSans-54" d="M -19 4666 
L 3928 4666 
L 3928 4134 
L 2272 4134 
L 2272 0 
L 1638 0 
L 1638 4134 
L -19 4134 
L -19 4666 
z
" transform="scale(0.015625)"/>
       <path id="DejaVuSans-68" d="M 3513 2113 
L 3513 0 
L 2938 0 
L 2938 2094 
Q 2938 2591 2744 2837 
Q 2550 3084 2163 3084 
Q 1697 3084 1428 2787 
Q 1159 2491 1159 1978 
L 1159 0 
L 581 0 
L 581 4863 
L 1159 4863 
L 1159 2956 
Q 1366 3272 1645 3428 
Q 1925 3584 2291 3584 
Q 2894 3584 3203 3211 
Q 3513 2838 3513 2113 
z
" transform="scale(0.015625)"/>
       <path id="DejaVuSans-72" d="M 2631 2963 
Q 2534 3019 2420 3045 
Q 2306 3072 2169 3072 
Q 1681 3072 1420 2755 
Q 1159 2438 1159 1844 
L 1159 0 
L 581 0 
L 581 3500 
L 1159 3500 
L 1159 2956 
Q 1341 3275 1631 3429 
Q 1922 3584 2338 3584 
Q 2397 3584 2469 3576 
Q 2541 3569 2628 3553 
L 2631 2963 
z
" transform="scale(0.015625)"/>
       <path id="DejaVuSans-65" d="M 3597 1894 
L 3597 1613 
L 953 1613 
Q 991 1019 1311 708 
Q 1631 397 2203 397 
Q 2534 397 2845 478 
Q 3156 559 3463 722 
L 3463 178 
Q 3153 47 2828 -22 
Q 2503 -91 2169 -91 
Q 1331 -91 842 396 
Q 353 884 353 1716 
Q 353 2575 817 3079 
Q 1281 3584 2069 3584 
Q 2775 3584 3186 3129 
Q 3597 2675 3597 1894 
z
M 3022 2063 
Q 3016 2534 2758 2815 
Q 2500 3097 2075 3097 
Q 1594 3097 1305 2825 
Q 1016 2553 972 2059 
L 3022 2063 
z
" transform="scale(0.015625)"/>
       <path id="DejaVuSans-73" d="M 2834 3397 
L 2834 2853 
Q 2591 2978 2328 3040 
Q 2066 3103 1784 3103 
Q 1356 3103 1142 2972 
Q 928 2841 928 2578 
Q 928 2378 1081 2264 
Q 1234 2150 1697 2047 
L 1894 2003 
Q 2506 1872 2764 1633 
Q 3022 1394 3022 966 
Q 3022 478 2636 193 
Q 2250 -91 1575 -91 
Q 1294 -91 989 -36 
Q 684 19 347 128 
L 347 722 
Q 666 556 975 473 
Q 1284 391 1588 391 
Q 1994 391 2212 530 
Q 2431 669 2431 922 
Q 2431 1156 2273 1281 
Q 2116 1406 1581 1522 
L 1381 1569 
Q 847 1681 609 1914 
Q 372 2147 372 2553 
Q 372 3047 722 3315 
Q 1072 3584 1716 3584 
Q 2034 3584 2315 3537 
Q 2597 3491 2834 3397 
z
" transform="scale(0.015625)"/>
       <path id="DejaVuSans-6c" d="M 603 4863 
L 1178 4863 
L 1178 0 
L 603 0 
L 603 4863 
z
" transform="scale(0.015625)"/>
       <path id="DejaVuSans-64" d="M 2906 2969 
L 2906 4863 
L 3481 4863 
L 3481 0 
L 2906 0 
L 2906 525 
Q 2725 213 2448 61 
Q 2172 -91 1784 -91 
Q 1150 -91 751 415 
Q 353 922 353 1747 
Q 353 2572 751 3078 
Q 1150 3584 1784 3584 
Q 2172 3584 2448 3432 
Q 2725 3281 2906 2969 
z
M 947 1747 
Q 947 1113 1208 752 
Q 1469 391 1925 391 
Q 2381 391 2643 752 
Q 2906 1113 2906 1747 
Q 2906 2381 2643 2742 
Q 2381 3103 1925 3103 
Q 1469 3103 1208 2742 
Q 947 2381 947 1747 
z
" transform="scale(0.015625)"/>
      </defs>
      <use xlink:href="#DejaVuSans-52"/>
      <use xlink:href="#DejaVuSans-61" transform="translate(67.232422 0)"/>
      <use xlink:href="#DejaVuSans-74" transform="translate(128.511719 0)"/>
      <use xlink:href="#DejaVuSans-69" transform="translate(167.720703 0)"/>
      <use xlink:href="#DejaVuSans-6f" transform="translate(195.503906 0)"/>
      <use xlink:href="#DejaVuSans-20" transform="translate(256.685547 0)"/>
      <use xlink:href="#DejaVuSans-54" transform="translate(288.472656 0)"/>
      <use xlink:href="#DejaVuSans-68" transform="translate(349.556641 0)"/>
      <use xlink:href="#DejaVuSans-72" transform="translate(412.935547 0)"/>
      <use xlink:href="#DejaVuSans-65" transform="translate(451.798828 0)"/>
      <use xlink:href="#DejaVuSans-73" transform="translate(513.322266 0)"/>
      <use xlink:href="#DejaVuSans-68" transform="translate(565.421875 0)"/>
      <use xlink:href="#DejaVuSans-6f" transform="translate(628.800781 0)"/>
      <use xlink:href="#DejaVuSans-6c" transform="translate(689.982422 0)"/>
      <use xlink:href="#DejaVuSans-64" transform="translate(717.765625 0)"/>
     </g>
    </g>
   </g>
   <g id="matplotlib.axis_2">
    <g id="ytick_1">
     <g id="line2d_13">
      <path d="M 31.5 153.972874 
L 226.8 153.972874 
" clip-path="url(#p73fe58fd2a)" style="fill: none; stroke-dasharray: 2.96,1.28; stroke-dashoffset: 0; stroke: #b0b0b0; stroke-opacity: 0.7; stroke-width: 0.8"/>
     </g>
     <g id="line2d_14">
      <defs>
       <path id="m481d935eaf" d="M 0 0 
L -3.5 0 
" style="stroke: #000000; stroke-width: 0.8"/>
      </defs>
      <g>
       <use xlink:href="#m481d935eaf" x="31.5" y="153.972874" style="stroke: #000000; stroke-width: 0.8"/>
      </g>
     </g>
     <g id="text_8">
      <!-- 0 -->
      <g transform="translate(18.1375 157.772093) scale(0.1 -0.1)">
       <use xlink:href="#DejaVuSans-30"/>
      </g>
     </g>
    </g>
    <g id="ytick_2">
     <g id="line2d_15">
      <path d="M 31.5 128.7583 
L 226.8 128.7583 
" clip-path="url(#p73fe58fd2a)" style="fill: none; stroke-dasharray: 2.96,1.28; stroke-dashoffset: 0; stroke: #b0b0b0; stroke-opacity: 0.7; stroke-width: 0.8"/>
     </g>
     <g id="line2d_16">
      <g>
       <use xlink:href="#m481d935eaf" x="31.5" y="128.7583" style="stroke: #000000; stroke-width: 0.8"/>
      </g>
     </g>
     <g id="text_9">
      <!-- 20 -->
      <g transform="translate(11.775 132.557518) scale(0.1 -0.1)">
       <use xlink:href="#DejaVuSans-32"/>
       <use xlink:href="#DejaVuSans-30" transform="translate(63.623047 0)"/>
      </g>
     </g>
    </g>
    <g id="ytick_3">
     <g id="line2d_17">
      <path d="M 31.5 103.543725 
L 226.8 103.543725 
" clip-path="url(#p73fe58fd2a)" style="fill: none; stroke-dasharray: 2.96,1.28; stroke-dashoffset: 0; stroke: #b0b0b0; stroke-opacity: 0.7; stroke-width: 0.8"/>
     </g>
     <g id="line2d_18">
      <g>
       <use xlink:href="#m481d935eaf" x="31.5" y="103.543725" style="stroke: #000000; stroke-width: 0.8"/>
      </g>
     </g>
     <g id="text_10">
      <!-- 40 -->
      <g transform="translate(11.775 107.342943) scale(0.1 -0.1)">
       <use xlink:href="#DejaVuSans-34"/>
       <use xlink:href="#DejaVuSans-30" transform="translate(63.623047 0)"/>
      </g>
     </g>
    </g>
    <g id="ytick_4">
     <g id="line2d_19">
      <path d="M 31.5 78.32915 
L 226.8 78.32915 
" clip-path="url(#p73fe58fd2a)" style="fill: none; stroke-dasharray: 2.96,1.28; stroke-dashoffset: 0; stroke: #b0b0b0; stroke-opacity: 0.7; stroke-width: 0.8"/>
     </g>
     <g id="line2d_20">
      <g>
       <use xlink:href="#m481d935eaf" x="31.5" y="78.32915" style="stroke: #000000; stroke-width: 0.8"/>
      </g>
     </g>
     <g id="text_11">
      <!-- 60 -->
      <g transform="translate(11.775 82.128369) scale(0.1 -0.1)">
       <use xlink:href="#DejaVuSans-36"/>
       <use xlink:href="#DejaVuSans-30" transform="translate(63.623047 0)"/>
      </g>
     </g>
    </g>
    <g id="ytick_5">
     <g id="line2d_21">
      <path d="M 31.5 53.114575 
L 226.8 53.114575 
" clip-path="url(#p73fe58fd2a)" style="fill: none; stroke-dasharray: 2.96,1.28; stroke-dashoffset: 0; stroke: #b0b0b0; stroke-opacity: 0.7; stroke-width: 0.8"/>
     </g>
     <g id="line2d_22">
      <g>
       <use xlink:href="#m481d935eaf" x="31.5" y="53.114575" style="stroke: #000000; stroke-width: 0.8"/>
      </g>
     </g>
     <g id="text_12">
      <!-- 80 -->
      <g transform="translate(11.775 56.913794) scale(0.1 -0.1)">
       <use xlink:href="#DejaVuSans-38"/>
       <use xlink:href="#DejaVuSans-30" transform="translate(63.623047 0)"/>
      </g>
     </g>
    </g>
    <g id="ytick_6">
     <g id="line2d_23">
      <path d="M 31.5 27.9 
L 226.8 27.9 
" clip-path="url(#p73fe58fd2a)" style="fill: none; stroke-dasharray: 2.96,1.28; stroke-dashoffset: 0; stroke: #b0b0b0; stroke-opacity: 0.7; stroke-width: 0.8"/>
     </g>
     <g id="line2d_24">
      <g>
       <use xlink:href="#m481d935eaf" x="31.5" y="27.9" style="stroke: #000000; stroke-width: 0.8"/>
      </g>
     </g>
     <g id="text_13">
      <!-- 100 -->
      <g transform="translate(5.4125 31.699219) scale(0.1 -0.1)">
       <use xlink:href="#DejaVuSans-31"/>
       <use xlink:href="#DejaVuSans-30" transform="translate(63.623047 0)"/>
       <use xlink:href="#DejaVuSans-30" transform="translate(127.246094 0)"/>
      </g>
     </g>
    </g>
    <g id="text_14">
     <!-- Success Rate (%) -->
     <g transform="translate(-0.667188 134.320312) rotate(-90) scale(0.1 -0.1)">
      <defs>
       <path id="DejaVuSans-53" d="M 3425 4513 
L 3425 3897 
Q 3066 4069 2747 4153 
Q 2428 4238 2131 4238 
Q 1616 4238 1336 4038 
Q 1056 3838 1056 3469 
Q 1056 3159 1242 3001 
Q 1428 2844 1947 2747 
L 2328 2669 
Q 3034 2534 3370 2195 
Q 3706 1856 3706 1288 
Q 3706 609 3251 259 
Q 2797 -91 1919 -91 
Q 1588 -91 1214 -16 
Q 841 59 441 206 
L 441 856 
Q 825 641 1194 531 
Q 1563 422 1919 422 
Q 2459 422 2753 634 
Q 3047 847 3047 1241 
Q 3047 1584 2836 1778 
Q 2625 1972 2144 2069 
L 1759 2144 
Q 1053 2284 737 2584 
Q 422 2884 422 3419 
Q 422 4038 858 4394 
Q 1294 4750 2059 4750 
Q 2388 4750 2728 4690 
Q 3069 4631 3425 4513 
z
" transform="scale(0.015625)"/>
       <path id="DejaVuSans-75" d="M 544 1381 
L 544 3500 
L 1119 3500 
L 1119 1403 
Q 1119 906 1312 657 
Q 1506 409 1894 409 
Q 2359 409 2629 706 
Q 2900 1003 2900 1516 
L 2900 3500 
L 3475 3500 
L 3475 0 
L 2900 0 
L 2900 538 
Q 2691 219 2414 64 
Q 2138 -91 1772 -91 
Q 1169 -91 856 284 
Q 544 659 544 1381 
z
M 1991 3584 
L 1991 3584 
z
" transform="scale(0.015625)"/>
       <path id="DejaVuSans-63" d="M 3122 3366 
L 3122 2828 
Q 2878 2963 2633 3030 
Q 2388 3097 2138 3097 
Q 1578 3097 1268 2742 
Q 959 2388 959 1747 
Q 959 1106 1268 751 
Q 1578 397 2138 397 
Q 2388 397 2633 464 
Q 2878 531 3122 666 
L 3122 134 
Q 2881 22 2623 -34 
Q 2366 -91 2075 -91 
Q 1284 -91 818 406 
Q 353 903 353 1747 
Q 353 2603 823 3093 
Q 1294 3584 2113 3584 
Q 2378 3584 2631 3529 
Q 2884 3475 3122 3366 
z
" transform="scale(0.015625)"/>
       <path id="DejaVuSans-28" d="M 1984 4856 
Q 1566 4138 1362 3434 
Q 1159 2731 1159 2009 
Q 1159 1288 1364 580 
Q 1569 -128 1984 -844 
L 1484 -844 
Q 1016 -109 783 600 
Q 550 1309 550 2009 
Q 550 2706 781 3412 
Q 1013 4119 1484 4856 
L 1984 4856 
z
" transform="scale(0.015625)"/>
       <path id="DejaVuSans-25" d="M 4653 2053 
Q 4381 2053 4226 1822 
Q 4072 1591 4072 1178 
Q 4072 772 4226 539 
Q 4381 306 4653 306 
Q 4919 306 5073 539 
Q 5228 772 5228 1178 
Q 5228 1588 5073 1820 
Q 4919 2053 4653 2053 
z
M 4653 2450 
Q 5147 2450 5437 2106 
Q 5728 1763 5728 1178 
Q 5728 594 5436 251 
Q 5144 -91 4653 -91 
Q 4153 -91 3862 251 
Q 3572 594 3572 1178 
Q 3572 1766 3864 2108 
Q 4156 2450 4653 2450 
z
M 1428 4353 
Q 1159 4353 1004 4120 
Q 850 3888 850 3481 
Q 850 3069 1003 2837 
Q 1156 2606 1428 2606 
Q 1700 2606 1854 2837 
Q 2009 3069 2009 3481 
Q 2009 3884 1853 4118 
Q 1697 4353 1428 4353 
z
M 4250 4750 
L 4750 4750 
L 1831 -91 
L 1331 -91 
L 4250 4750 
z
M 1428 4750 
Q 1922 4750 2215 4408 
Q 2509 4066 2509 3481 
Q 2509 2891 2217 2550 
Q 1925 2209 1428 2209 
Q 931 2209 642 2551 
Q 353 2894 353 3481 
Q 353 4063 643 4406 
Q 934 4750 1428 4750 
z
" transform="scale(0.015625)"/>
       <path id="DejaVuSans-29" d="M 513 4856 
L 1013 4856 
Q 1481 4119 1714 3412 
Q 1947 2706 1947 2009 
Q 1947 1309 1714 600 
Q 1481 -109 1013 -844 
L 513 -844 
Q 928 -128 1133 580 
Q 1338 1288 1338 2009 
Q 1338 2731 1133 3434 
Q 928 4138 513 4856 
z
" transform="scale(0.015625)"/>
      </defs>
      <use xlink:href="#DejaVuSans-53"/>
      <use xlink:href="#DejaVuSans-75" transform="translate(63.476562 0)"/>
      <use xlink:href="#DejaVuSans-63" transform="translate(126.855469 0)"/>
      <use xlink:href="#DejaVuSans-63" transform="translate(181.835938 0)"/>
      <use xlink:href="#DejaVuSans-65" transform="translate(236.816406 0)"/>
      <use xlink:href="#DejaVuSans-73" transform="translate(298.339844 0)"/>
      <use xlink:href="#DejaVuSans-73" transform="translate(350.439453 0)"/>
      <use xlink:href="#DejaVuSans-20" transform="translate(402.539062 0)"/>
      <use xlink:href="#DejaVuSans-52" transform="translate(434.326172 0)"/>
      <use xlink:href="#DejaVuSans-61" transform="translate(501.558594 0)"/>
      <use xlink:href="#DejaVuSans-74" transform="translate(562.837891 0)"/>
      <use xlink:href="#DejaVuSans-65" transform="translate(602.046875 0)"/>
      <use xlink:href="#DejaVuSans-20" transform="translate(663.570312 0)"/>
      <use xlink:href="#DejaVuSans-28" transform="translate(695.357422 0)"/>
      <use xlink:href="#DejaVuSans-25" transform="translate(734.371094 0)"/>
      <use xlink:href="#DejaVuSans-29" transform="translate(829.390625 0)"/>
     </g>
    </g>
   </g>
   <g id="line2d_25">
    <path d="M 40.377273 27.9 
L 42.170661 59.381781 
L 43.96405 59.746154 
L 45.757438 60.620648 
L 47.550826 64.337247 
L 49.344215 69.365587 
L 51.137603 74.7583 
L 52.930992 80.879757 
L 54.72438 89.406073 
L 56.517769 95.600405 
L 58.311157 105.146964 
L 60.104545 110.904049 
L 61.897934 114.547773 
L 63.691322 119.430364 
L 65.484711 122.855466 
L 67.278099 128.102429 
L 69.071488 130.87166 
L 70.864876 135.389879 
L 72.658264 137.065992 
L 74.451653 138.887854 
L 76.245041 142.531579 
L 78.03843 143.770445 
L 79.831818 146.029555 
L 81.625207 146.685425 
L 83.418595 147.049798 
L 85.211983 148.87166 
L 87.005372 148.944534 
L 88.79876 149.600405 
L 90.592149 149.819028 
L 92.385537 150.620648 
L 94.178926 151.349393 
L 95.972314 151.422267 
L 97.765702 151.422267 
L 99.559091 151.78664 
L 101.352479 151.78664 
L 103.145868 151.932389 
L 104.939256 152.005263 
L 106.732645 152.005263 
L 108.526033 152.151012 
L 110.319421 152.151012 
L 112.11281 152.734008 
L 113.906198 152.734008 
L 115.699587 152.734008 
L 117.492975 152.879757 
L 119.286364 152.952632 
L 121.079752 153.025506 
L 122.87314 153.025506 
L 124.666529 153.025506 
L 126.459917 153.025506 
L 128.253306 153.025506 
L 130.046694 153.608502 
L 131.840083 153.608502 
L 133.633471 153.608502 
L 135.42686 153.608502 
L 137.220248 153.608502 
L 139.013636 153.608502 
L 140.807025 153.608502 
L 142.600413 153.681377 
L 144.393802 153.681377 
L 146.18719 153.681377 
L 147.980579 153.827126 
L 149.773967 153.827126 
L 151.567355 153.827126 
L 153.360744 153.827126 
L 155.154132 153.827126 
L 156.947521 153.827126 
L 158.740909 153.827126 
L 160.534298 153.827126 
L 162.327686 153.827126 
L 164.121074 153.827126 
L 165.914463 153.827126 
L 167.707851 153.827126 
L 169.50124 153.827126 
L 171.294628 153.827126 
L 173.088017 153.827126 
L 174.881405 153.827126 
L 176.674793 153.827126 
L 178.468182 153.827126 
L 180.26157 153.827126 
L 182.054959 153.827126 
L 183.848347 153.9 
L 185.641736 153.9 
L 187.435124 153.9 
L 189.228512 153.9 
L 191.021901 153.9 
L 192.815289 153.9 
L 194.608678 153.9 
L 196.402066 153.9 
L 198.195455 153.9 
L 199.988843 153.9 
L 201.782231 153.9 
L 203.57562 153.9 
L 205.369008 153.9 
L 207.162397 153.9 
L 208.955785 153.9 
L 210.749174 153.9 
L 212.542562 153.9 
L 214.33595 153.9 
L 216.129339 153.9 
L 217.922727 153.9 
" clip-path="url(#p73fe58fd2a)" style="fill: none; stroke: #f9c8ca; stroke-width: 1.5; stroke-linecap: square"/>
   </g>
   <g id="line2d_26">
    <path d="M 40.377273 27.9 
L 42.170661 49.033603 
L 43.96405 49.106478 
L 45.757438 49.179352 
L 47.550826 50.782591 
L 49.344215 53.624696 
L 51.137603 56.393927 
L 52.930992 60.912146 
L 54.72438 68.782591 
L 56.517769 73.738057 
L 58.311157 83.065992 
L 60.104545 88.38583 
L 61.897934 92.321053 
L 63.691322 98.223887 
L 65.484711 101.503239 
L 67.278099 108.353441 
L 69.071488 112.142915 
L 70.864876 119.35749 
L 72.658264 121.325101 
L 74.451653 124.677328 
L 76.245041 129.195547 
L 78.03843 130.87166 
L 79.831818 134.734008 
L 81.625207 136.482996 
L 83.418595 137.794737 
L 85.211983 141.511336 
L 87.005372 141.72996 
L 88.79876 143.697571 
L 90.592149 143.916194 
L 92.385537 145.810931 
L 94.178926 147.268421 
L 95.972314 147.924291 
L 97.765702 148.07004 
L 99.559091 149.381781 
L 101.352479 149.454656 
L 103.145868 149.746154 
L 104.939256 150.037652 
L 106.732645 150.256275 
L 108.526033 150.693522 
L 110.319421 150.693522 
L 112.11281 151.859514 
L 113.906198 151.859514 
L 115.699587 152.005263 
L 117.492975 152.223887 
L 119.286364 152.515385 
L 121.079752 152.515385 
L 122.87314 152.588259 
L 124.666529 152.588259 
L 126.459917 152.588259 
L 128.253306 152.588259 
L 130.046694 153.462753 
L 131.840083 153.462753 
L 133.633471 153.462753 
L 135.42686 153.462753 
L 137.220248 153.535628 
L 139.013636 153.535628 
L 140.807025 153.535628 
L 142.600413 153.608502 
L 144.393802 153.608502 
L 146.18719 153.608502 
L 147.980579 153.754251 
L 149.773967 153.754251 
L 151.567355 153.754251 
L 153.360744 153.754251 
L 155.154132 153.754251 
L 156.947521 153.754251 
L 158.740909 153.754251 
L 160.534298 153.754251 
L 162.327686 153.754251 
L 164.121074 153.754251 
L 165.914463 153.754251 
L 167.707851 153.754251 
L 169.50124 153.754251 
L 171.294628 153.754251 
L 173.088017 153.754251 
L 174.881405 153.754251 
L 176.674793 153.754251 
L 178.468182 153.754251 
L 180.26157 153.754251 
L 182.054959 153.754251 
L 183.848347 153.827126 
L 185.641736 153.827126 
L 187.435124 153.827126 
L 189.228512 153.827126 
L 191.021901 153.827126 
L 192.815289 153.827126 
L 194.608678 153.827126 
L 196.402066 153.827126 
L 198.195455 153.827126 
L 199.988843 153.827126 
L 201.782231 153.827126 
L 203.57562 153.827126 
L 205.369008 153.827126 
L 207.162397 153.827126 
L 208.955785 153.827126 
L 210.749174 153.827126 
L 212.542562 153.827126 
L 214.33595 153.827126 
L 216.129339 153.827126 
L 217.922727 153.827126 
" clip-path="url(#p73fe58fd2a)" style="fill: none; stroke: #f49fa3; stroke-width: 1.5; stroke-linecap: square"/>
   </g>
   <g id="line2d_27">
    <path d="M 40.377273 27.9 
L 42.170661 40.215789 
L 43.96405 40.288664 
L 45.757438 40.288664 
L 47.550826 41.236032 
L 49.344215 42.98502 
L 51.137603 44.515385 
L 52.930992 47.430364 
L 54.72438 53.989069 
L 56.517769 57.778543 
L 58.311157 65.430364 
L 60.104545 69.657085 
L 61.897934 72.280567 
L 63.691322 78.766397 
L 65.484711 82.264372 
L 67.278099 88.677328 
L 69.071488 92.321053 
L 70.864876 100.191498 
L 72.658264 102.81498 
L 74.451653 107.406073 
L 76.245041 113.600405 
L 78.03843 115.859514 
L 79.831818 121.980972 
L 81.625207 123.72996 
L 83.418595 125.551822 
L 85.211983 131.163158 
L 87.005372 131.746154 
L 88.79876 135.535628 
L 90.592149 136.701619 
L 92.385537 139.033603 
L 94.178926 141.219838 
L 95.972314 142.895951 
L 97.765702 143.406073 
L 99.559091 146.102429 
L 101.352479 146.102429 
L 103.145868 146.976923 
L 104.939256 147.487045 
L 106.732645 147.851417 
L 108.526033 148.288664 
L 110.319421 148.798785 
L 112.11281 150.32915 
L 113.906198 150.547773 
L 115.699587 150.693522 
L 117.492975 151.130769 
L 119.286364 151.568016 
L 121.079752 151.713765 
L 122.87314 151.859514 
L 124.666529 152.005263 
L 126.459917 152.005263 
L 128.253306 152.005263 
L 130.046694 153.24413 
L 131.840083 153.24413 
L 133.633471 153.24413 
L 135.42686 153.24413 
L 137.220248 153.317004 
L 139.013636 153.317004 
L 140.807025 153.389879 
L 142.600413 153.462753 
L 144.393802 153.462753 
L 146.18719 153.462753 
L 147.980579 153.681377 
L 149.773967 153.681377 
L 151.567355 153.681377 
L 153.360744 153.681377 
L 155.154132 153.681377 
L 156.947521 153.681377 
L 158.740909 153.681377 
L 160.534298 153.681377 
L 162.327686 153.681377 
L 164.121074 153.681377 
L 165.914463 153.681377 
L 167.707851 153.681377 
L 169.50124 153.681377 
L 171.294628 153.681377 
L 173.088017 153.681377 
L 174.881405 153.681377 
L 176.674793 153.681377 
L 178.468182 153.681377 
L 180.26157 153.681377 
L 182.054959 153.681377 
L 183.848347 153.827126 
L 185.641736 153.827126 
L 187.435124 153.827126 
L 189.228512 153.827126 
L 191.021901 153.827126 
L 192.815289 153.827126 
L 194.608678 153.827126 
L 196.402066 153.827126 
L 198.195455 153.827126 
L 199.988843 153.827126 
L 201.782231 153.827126 
L 203.57562 153.827126 
L 205.369008 153.827126 
L 207.162397 153.827126 
L 208.955785 153.827126 
L 210.749174 153.827126 
L 212.542562 153.827126 
L 214.33595 153.827126 
L 216.129339 153.827126 
L 217.922727 153.827126 
" clip-path="url(#p73fe58fd2a)" style="fill: none; stroke: #333333; stroke-width: 2; stroke-linecap: square"/>
   </g>
   <g id="patch_3">
    <path d="M 31.5 160.2 
L 31.5 21.6 
" style="fill: none; stroke: #000000; stroke-width: 0.8; stroke-linejoin: miter; stroke-linecap: square"/>
   </g>
   <g id="patch_4">
    <path d="M 226.8 160.2 
L 226.8 21.6 
" style="fill: none; stroke: #000000; stroke-width: 0.8; stroke-linejoin: miter; stroke-linecap: square"/>
   </g>
   <g id="patch_5">
    <path d="M 31.5 160.2 
L 226.8 160.2 
" style="fill: none; stroke: #000000; stroke-width: 0.8; stroke-linejoin: miter; stroke-linecap: square"/>
   </g>
   <g id="patch_6">
    <path d="M 31.5 21.6 
L 226.8 21.6 
" style="fill: none; stroke: #000000; stroke-width: 0.8; stroke-linejoin: miter; stroke-linecap: square"/>
   </g>
   <g id="legend_1">
    <g id="line2d_28">
     <path d="M 146.195312 34.698437 
L 156.195312 34.698437 
L 166.195312 34.698437 
" style="fill: none; stroke: #f9c8ca; stroke-width: 1.5; stroke-linecap: square"/>
    </g>
    <g id="text_15">
     <!-- 1 probe -->
     <g transform="translate(174.195312 38.198437) scale(0.1 -0.1)">
      <defs>
       <path id="DejaVuSans-70" d="M 1159 525 
L 1159 -1331 
L 581 -1331 
L 581 3500 
L 1159 3500 
L 1159 2969 
Q 1341 3281 1617 3432 
Q 1894 3584 2278 3584 
Q 2916 3584 3314 3078 
Q 3713 2572 3713 1747 
Q 3713 922 3314 415 
Q 2916 -91 2278 -91 
Q 1894 -91 1617 61 
Q 1341 213 1159 525 
z
M 3116 1747 
Q 3116 2381 2855 2742 
Q 2594 3103 2138 3103 
Q 1681 3103 1420 2742 
Q 1159 2381 1159 1747 
Q 1159 1113 1420 752 
Q 1681 391 2138 391 
Q 2594 391 2855 752 
Q 3116 1113 3116 1747 
z
" transform="scale(0.015625)"/>
       <path id="DejaVuSans-62" d="M 3116 1747 
Q 3116 2381 2855 2742 
Q 2594 3103 2138 3103 
Q 1681 3103 1420 2742 
Q 1159 2381 1159 1747 
Q 1159 1113 1420 752 
Q 1681 391 2138 391 
Q 2594 391 2855 752 
Q 3116 1113 3116 1747 
z
M 1159 2969 
Q 1341 3281 1617 3432 
Q 1894 3584 2278 3584 
Q 2916 3584 3314 3078 
Q 3713 2572 3713 1747 
Q 3713 922 3314 415 
Q 2916 -91 2278 -91 
Q 1894 -91 1617 61 
Q 1341 213 1159 525 
L 1159 0 
L 581 0 
L 581 4863 
L 1159 4863 
L 1159 2969 
z
" transform="scale(0.015625)"/>
      </defs>
      <use xlink:href="#DejaVuSans-31"/>
      <use xlink:href="#DejaVuSans-20" transform="translate(63.623047 0)"/>
      <use xlink:href="#DejaVuSans-70" transform="translate(95.410156 0)"/>
      <use xlink:href="#DejaVuSans-72" transform="translate(158.886719 0)"/>
      <use xlink:href="#DejaVuSans-6f" transform="translate(197.75 0)"/>
      <use xlink:href="#DejaVuSans-62" transform="translate(258.931641 0)"/>
      <use xlink:href="#DejaVuSans-65" transform="translate(322.408203 0)"/>
     </g>
    </g>
    <g id="line2d_29">
     <path d="M 146.195312 49.376562 
L 156.195312 49.376562 
L 166.195312 49.376562 
" style="fill: none; stroke: #f49fa3; stroke-width: 1.5; stroke-linecap: square"/>
    </g>
    <g id="text_16">
     <!-- 2 probes -->
     <g transform="translate(174.195312 52.876562) scale(0.1 -0.1)">
      <use xlink:href="#DejaVuSans-32"/>
      <use xlink:href="#DejaVuSans-20" transform="translate(63.623047 0)"/>
      <use xlink:href="#DejaVuSans-70" transform="translate(95.410156 0)"/>
      <use xlink:href="#DejaVuSans-72" transform="translate(158.886719 0)"/>
      <use xlink:href="#DejaVuSans-6f" transform="translate(197.75 0)"/>
      <use xlink:href="#DejaVuSans-62" transform="translate(258.931641 0)"/>
      <use xlink:href="#DejaVuSans-65" transform="translate(322.408203 0)"/>
      <use xlink:href="#DejaVuSans-73" transform="translate(383.931641 0)"/>
     </g>
    </g>
    <g id="line2d_30">
     <path d="M 146.195312 64.054687 
L 156.195312 64.054687 
L 166.195312 64.054687 
" style="fill: none; stroke: #333333; stroke-width: 2; stroke-linecap: square"/>
    </g>
    <g id="text_17">
     <!-- 3 probes -->
     <g transform="translate(174.195312 67.554687) scale(0.1 -0.1)">
      <defs>
       <path id="DejaVuSans-33" d="M 2597 2516 
Q 3050 2419 3304 2112 
Q 3559 1806 3559 1356 
Q 3559 666 3084 287 
Q 2609 -91 1734 -91 
Q 1441 -91 1130 -33 
Q 819 25 488 141 
L 488 750 
Q 750 597 1062 519 
Q 1375 441 1716 441 
Q 2309 441 2620 675 
Q 2931 909 2931 1356 
Q 2931 1769 2642 2001 
Q 2353 2234 1838 2234 
L 1294 2234 
L 1294 2753 
L 1863 2753 
Q 2328 2753 2575 2939 
Q 2822 3125 2822 3475 
Q 2822 3834 2567 4026 
Q 2313 4219 1838 4219 
Q 1578 4219 1281 4162 
Q 984 4106 628 3988 
L 628 4550 
Q 988 4650 1302 4700 
Q 1616 4750 1894 4750 
Q 2613 4750 3031 4423 
Q 3450 4097 3450 3541 
Q 3450 3153 3228 2886 
Q 3006 2619 2597 2516 
z
" transform="scale(0.015625)"/>
      </defs>
      <use xlink:href="#DejaVuSans-33"/>
      <use xlink:href="#DejaVuSans-20" transform="translate(63.623047 0)"/>
      <use xlink:href="#DejaVuSans-70" transform="translate(95.410156 0)"/>
      <use xlink:href="#DejaVuSans-72" transform="translate(158.886719 0)"/>
      <use xlink:href="#DejaVuSans-6f" transform="translate(197.75 0)"/>
      <use xlink:href="#DejaVuSans-62" transform="translate(258.931641 0)"/>
      <use xlink:href="#DejaVuSans-65" transform="translate(322.408203 0)"/>
      <use xlink:href="#DejaVuSans-73" transform="translate(383.931641 0)"/>
     </g>
    </g>
   </g>
  </g>
 </g>
 <defs>
  <clipPath id="p73fe58fd2a">
   <rect x="31.5" y="21.6" width="195.3" height="138.6"/>
  </clipPath>
 </defs>
</svg>
