<?xml version="1.0" encoding="utf-8" standalone="no"?>
<!DOCTYPE svg PUBLIC "-//W3C//DTD SVG 1.1//EN"
  "http://www.w3.org/Graphics/SVG/1.1/DTD/svg11.dtd">
<svg xmlns:xlink="http://www.w3.org/1999/xlink" width="252pt" height="180pt" viewBox="0 0 252 180" xmlns="http://www.w3.org/2000/svg" version="1.1">
 <metadata>
  <rdf:RDF xmlns:dc="http://purl.org/dc/elements/1.1/" xmlns:cc="http://creativecommons.org/ns#" xmlns:rdf="http://www.w3.org/1999/02/22-rdf-syntax-ns#">
   <cc:Work>
    <dc:type rdf:resource="http://purl.org/dc/dcmitype/StillImage"/>
    <dc:date>2025-07-10T16:18:40.737768</dc:date>
    <dc:format>image/svg+xml</dc:format>
    <dc:creator>
     <cc:Agent>
      <dc:title>Matplotlib v3.10.3, https://matplotlib.org/</dc:title>
     </cc:Agent>
    </dc:creator>
   </cc:Work>
  </rdf:RDF>
 </metadata>
 <defs>
  <style type="text/css">*{stroke-linejoin: round; stroke-linecap: butt}</style>
 </defs>
 <g id="figure_1">
  <g id="patch_1">
   <path d="M 0 180 
L 252 180 
L 252 0 
L 0 0 
z
" style="fill: #ffffff"/>
  </g>
  <g id="axes_1">
   <g id="patch_2">
    <path d="M 31.5 160.2 
L 226.8 160.2 
L 226.8 21.6 
L 31.5 21.6 
z
" style="fill: #ffffff"/>
   </g>
   <g id="patch_3">
    <path d="M 40.377273 160.2 
L 43.96405 160.2 
L 43.96405 58.619753 
L 40.377273 58.619753 
z
" clip-path="url(#p285269bc37)" style="fill: #43a3ef; opacity: 0.7"/>
   </g>
   <g id="patch_4">
    <path d="M 49.344215 160.2 
L 52.930992 160.2 
L 52.930992 103.072428 
L 49.344215 103.072428 
z
" clip-path="url(#p285269bc37)" style="fill: #43a3ef; opacity: 0.7"/>
   </g>
   <g id="patch_5">
    <path d="M 58.311157 160.2 
L 61.897934 160.2 
L 61.897934 146.438683 
L 58.311157 146.438683 
z
" clip-path="url(#p285269bc37)" style="fill: #43a3ef; opacity: 0.7"/>
   </g>
   <g id="patch_6">
    <path d="M 67.278099 160.2 
L 70.864876 160.2 
L 70.864876 151.870782 
L 67.278099 151.870782 
z
" clip-path="url(#p285269bc37)" style="fill: #43a3ef; opacity: 0.7"/>
   </g>
   <g id="patch_7">
    <path d="M 76.245041 160.2 
L 79.831818 160.2 
L 79.831818 157.755556 
L 76.245041 157.755556 
z
" clip-path="url(#p285269bc37)" style="fill: #43a3ef; opacity: 0.7"/>
   </g>
   <g id="patch_8">
    <path d="M 85.211983 160.2 
L 88.79876 160.2 
L 88.79876 159.204115 
L 85.211983 159.204115 
z
" clip-path="url(#p285269bc37)" style="fill: #43a3ef; opacity: 0.7"/>
   </g>
   <g id="patch_9">
    <path d="M 94.178926 160.2 
L 97.765702 160.2 
L 97.765702 159.928395 
L 94.178926 159.928395 
z
" clip-path="url(#p285269bc37)" style="fill: #43a3ef; opacity: 0.7"/>
   </g>
   <g id="patch_10">
    <path d="M 103.145868 160.2 
L 106.732645 160.2 
L 106.732645 159.928395 
L 103.145868 159.928395 
z
" clip-path="url(#p285269bc37)" style="fill: #43a3ef; opacity: 0.7"/>
   </g>
   <g id="patch_11">
    <path d="M 112.11281 160.2 
L 115.699587 160.2 
L 115.699587 160.01893 
L 112.11281 160.01893 
z
" clip-path="url(#p285269bc37)" style="fill: #43a3ef; opacity: 0.7"/>
   </g>
   <g id="patch_12">
    <path d="M 121.079752 160.2 
L 124.666529 160.2 
L 124.666529 160.2 
L 121.079752 160.2 
z
" clip-path="url(#p285269bc37)" style="fill: #43a3ef; opacity: 0.7"/>
   </g>
   <g id="patch_13">
    <path d="M 130.046694 160.2 
L 133.633471 160.2 
L 133.633471 160.2 
L 130.046694 160.2 
z
" clip-path="url(#p285269bc37)" style="fill: #43a3ef; opacity: 0.7"/>
   </g>
   <g id="patch_14">
    <path d="M 139.013636 160.2 
L 142.600413 160.2 
L 142.600413 160.2 
L 139.013636 160.2 
z
" clip-path="url(#p285269bc37)" style="fill: #43a3ef; opacity: 0.7"/>
   </g>
   <g id="patch_15">
    <path d="M 147.980579 160.2 
L 151.567355 160.2 
L 151.567355 160.2 
L 147.980579 160.2 
z
" clip-path="url(#p285269bc37)" style="fill: #43a3ef; opacity: 0.7"/>
   </g>
   <g id="patch_16">
    <path d="M 156.947521 160.2 
L 160.534298 160.2 
L 160.534298 160.109465 
L 156.947521 160.109465 
z
" clip-path="url(#p285269bc37)" style="fill: #43a3ef; opacity: 0.7"/>
   </g>
   <g id="patch_17">
    <path d="M 165.914463 160.2 
L 169.50124 160.2 
L 169.50124 160.2 
L 165.914463 160.2 
z
" clip-path="url(#p285269bc37)" style="fill: #43a3ef; opacity: 0.7"/>
   </g>
   <g id="patch_18">
    <path d="M 174.881405 160.2 
L 178.468182 160.2 
L 178.468182 160.2 
L 174.881405 160.2 
z
" clip-path="url(#p285269bc37)" style="fill: #43a3ef; opacity: 0.7"/>
   </g>
   <g id="patch_19">
    <path d="M 183.848347 160.2 
L 187.435124 160.2 
L 187.435124 160.2 
L 183.848347 160.2 
z
" clip-path="url(#p285269bc37)" style="fill: #43a3ef; opacity: 0.7"/>
   </g>
   <g id="patch_20">
    <path d="M 192.815289 160.2 
L 196.402066 160.2 
L 196.402066 160.2 
L 192.815289 160.2 
z
" clip-path="url(#p285269bc37)" style="fill: #43a3ef; opacity: 0.7"/>
   </g>
   <g id="patch_21">
    <path d="M 201.782231 160.2 
L 205.369008 160.2 
L 205.369008 160.109465 
L 201.782231 160.109465 
z
" clip-path="url(#p285269bc37)" style="fill: #43a3ef; opacity: 0.7"/>
   </g>
   <g id="patch_22">
    <path d="M 210.749174 160.2 
L 214.33595 160.2 
L 214.33595 160.01893 
L 210.749174 160.01893 
z
" clip-path="url(#p285269bc37)" style="fill: #43a3ef; opacity: 0.7"/>
   </g>
   <g id="patch_23">
    <path d="M 43.96405 160.2 
L 47.550826 160.2 
L 47.550826 28.2 
L 43.96405 28.2 
z
" clip-path="url(#p285269bc37)" style="fill: #ef767b; opacity: 0.7"/>
   </g>
   <g id="patch_24">
    <path d="M 52.930992 160.2 
L 56.517769 160.2 
L 56.517769 134.397531 
L 52.930992 134.397531 
z
" clip-path="url(#p285269bc37)" style="fill: #ef767b; opacity: 0.7"/>
   </g>
   <g id="patch_25">
    <path d="M 61.897934 160.2 
L 65.484711 160.2 
L 65.484711 150.693827 
L 61.897934 150.693827 
z
" clip-path="url(#p285269bc37)" style="fill: #ef767b; opacity: 0.7"/>
   </g>
   <g id="patch_26">
    <path d="M 70.864876 160.2 
L 74.451653 160.2 
L 74.451653 151.689712 
L 70.864876 151.689712 
z
" clip-path="url(#p285269bc37)" style="fill: #ef767b; opacity: 0.7"/>
   </g>
   <g id="patch_27">
    <path d="M 79.831818 160.2 
L 83.418595 160.2 
L 83.418595 157.755556 
L 79.831818 157.755556 
z
" clip-path="url(#p285269bc37)" style="fill: #ef767b; opacity: 0.7"/>
   </g>
   <g id="patch_28">
    <path d="M 88.79876 160.2 
L 92.385537 160.2 
L 92.385537 157.574486 
L 88.79876 157.574486 
z
" clip-path="url(#p285269bc37)" style="fill: #ef767b; opacity: 0.7"/>
   </g>
   <g id="patch_29">
    <path d="M 97.765702 160.2 
L 101.352479 160.2 
L 101.352479 159.204115 
L 97.765702 159.204115 
z
" clip-path="url(#p285269bc37)" style="fill: #ef767b; opacity: 0.7"/>
   </g>
   <g id="patch_30">
    <path d="M 106.732645 160.2 
L 110.319421 160.2 
L 110.319421 159.747325 
L 106.732645 159.747325 
z
" clip-path="url(#p285269bc37)" style="fill: #ef767b; opacity: 0.7"/>
   </g>
   <g id="patch_31">
    <path d="M 115.699587 160.2 
L 119.286364 160.2 
L 119.286364 158.117695 
L 115.699587 158.117695 
z
" clip-path="url(#p285269bc37)" style="fill: #ef767b; opacity: 0.7"/>
   </g>
   <g id="patch_32">
    <path d="M 124.666529 160.2 
L 128.253306 160.2 
L 128.253306 160.109465 
L 124.666529 160.109465 
z
" clip-path="url(#p285269bc37)" style="fill: #ef767b; opacity: 0.7"/>
   </g>
   <g id="patch_33">
    <path d="M 133.633471 160.2 
L 137.220248 160.2 
L 137.220248 160.2 
L 133.633471 160.2 
z
" clip-path="url(#p285269bc37)" style="fill: #ef767b; opacity: 0.7"/>
   </g>
   <g id="patch_34">
    <path d="M 142.600413 160.2 
L 146.18719 160.2 
L 146.18719 160.109465 
L 142.600413 160.109465 
z
" clip-path="url(#p285269bc37)" style="fill: #ef767b; opacity: 0.7"/>
   </g>
   <g id="patch_35">
    <path d="M 151.567355 160.2 
L 155.154132 160.2 
L 155.154132 160.01893 
L 151.567355 160.01893 
z
" clip-path="url(#p285269bc37)" style="fill: #ef767b; opacity: 0.7"/>
   </g>
   <g id="patch_36">
    <path d="M 160.534298 160.2 
L 164.121074 160.2 
L 164.121074 160.109465 
L 160.534298 160.109465 
z
" clip-path="url(#p285269bc37)" style="fill: #ef767b; opacity: 0.7"/>
   </g>
   <g id="patch_37">
    <path d="M 169.50124 160.2 
L 173.088017 160.2 
L 173.088017 159.928395 
L 169.50124 159.928395 
z
" clip-path="url(#p285269bc37)" style="fill: #ef767b; opacity: 0.7"/>
   </g>
   <g id="patch_38">
    <path d="M 178.468182 160.2 
L 182.054959 160.2 
L 182.054959 160.2 
L 178.468182 160.2 
z
" clip-path="url(#p285269bc37)" style="fill: #ef767b; opacity: 0.7"/>
   </g>
   <g id="patch_39">
    <path d="M 187.435124 160.2 
L 191.021901 160.2 
L 191.021901 160.2 
L 187.435124 160.2 
z
" clip-path="url(#p285269bc37)" style="fill: #ef767b; opacity: 0.7"/>
   </g>
   <g id="patch_40">
    <path d="M 196.402066 160.2 
L 199.988843 160.2 
L 199.988843 160.2 
L 196.402066 160.2 
z
" clip-path="url(#p285269bc37)" style="fill: #ef767b; opacity: 0.7"/>
   </g>
   <g id="patch_41">
    <path d="M 205.369008 160.2 
L 208.955785 160.2 
L 208.955785 160.01893 
L 205.369008 160.01893 
z
" clip-path="url(#p285269bc37)" style="fill: #ef767b; opacity: 0.7"/>
   </g>
   <g id="patch_42">
    <path d="M 214.33595 160.2 
L 217.922727 160.2 
L 217.922727 160.2 
L 214.33595 160.2 
z
" clip-path="url(#p285269bc37)" style="fill: #ef767b; opacity: 0.7"/>
   </g>
   <g id="matplotlib.axis_1">
    <g id="xtick_1">
     <g id="line2d_1">
      <path d="M 39.480579 160.2 
L 39.480579 21.6 
" clip-path="url(#p285269bc37)" style="fill: none; stroke-dasharray: 2.96,1.28; stroke-dashoffset: 0; stroke: #b0b0b0; stroke-opacity: 0.7; stroke-width: 0.8"/>
     </g>
     <g id="line2d_2">
      <defs>
       <path id="m18f5e5eb15" d="M 0 0 
L 0 3.5 
" style="stroke: #000000; stroke-width: 0.8"/>
      </defs>
      <g>
       <use xlink:href="#m18f5e5eb15" x="39.480579" y="160.2" style="stroke: #000000; stroke-width: 0.8"/>
      </g>
     </g>
     <g id="text_1">
      <!-- 0 -->
      <g transform="translate(36.299329 174.798438) scale(0.1 -0.1)">
       <defs>
        <path id="DejaVuSans-30" d="M 2034 4250 
Q 1547 4250 1301 3770 
Q 1056 3291 1056 2328 
Q 1056 1369 1301 889 
Q 1547 409 2034 409 
Q 2525 409 2770 889 
Q 3016 1369 3016 2328 
Q 3016 3291 2770 3770 
Q 2525 4250 2034 4250 
z
M 2034 4750 
Q 2819 4750 3233 4129 
Q 3647 3509 3647 2328 
Q 3647 1150 3233 529 
Q 2819 -91 2034 -91 
Q 1250 -91 836 529 
Q 422 1150 422 2328 
Q 422 3509 836 4129 
Q 1250 4750 2034 4750 
z
" transform="scale(0.015625)"/>
       </defs>
       <use xlink:href="#DejaVuSans-30"/>
      </g>
     </g>
    </g>
    <g id="xtick_2">
     <g id="line2d_3">
      <path d="M 90.720248 160.2 
L 90.720248 21.6 
" clip-path="url(#p285269bc37)" style="fill: none; stroke-dasharray: 2.96,1.28; stroke-dashoffset: 0; stroke: #b0b0b0; stroke-opacity: 0.7; stroke-width: 0.8"/>
     </g>
     <g id="line2d_4">
      <g>
       <use xlink:href="#m18f5e5eb15" x="90.720248" y="160.2" style="stroke: #000000; stroke-width: 0.8"/>
      </g>
     </g>
     <g id="text_2">
      <!-- 100 -->
      <g transform="translate(81.176498 174.798438) scale(0.1 -0.1)">
       <defs>
        <path id="DejaVuSans-31" d="M 794 531 
L 1825 531 
L 1825 4091 
L 703 3866 
L 703 4441 
L 1819 4666 
L 2450 4666 
L 2450 531 
L 3481 531 
L 3481 0 
L 794 0 
L 794 531 
z
" transform="scale(0.015625)"/>
       </defs>
       <use xlink:href="#DejaVuSans-31"/>
       <use xlink:href="#DejaVuSans-30" transform="translate(63.623047 0)"/>
       <use xlink:href="#DejaVuSans-30" transform="translate(127.246094 0)"/>
      </g>
     </g>
    </g>
    <g id="xtick_3">
     <g id="line2d_5">
      <path d="M 141.959917 160.2 
L 141.959917 21.6 
" clip-path="url(#p285269bc37)" style="fill: none; stroke-dasharray: 2.96,1.28; stroke-dashoffset: 0; stroke: #b0b0b0; stroke-opacity: 0.7; stroke-width: 0.8"/>
     </g>
     <g id="line2d_6">
      <g>
       <use xlink:href="#m18f5e5eb15" x="141.959917" y="160.2" style="stroke: #000000; stroke-width: 0.8"/>
      </g>
     </g>
     <g id="text_3">
      <!-- 200 -->
      <g transform="translate(132.416167 174.798438) scale(0.1 -0.1)">
       <defs>
        <path id="DejaVuSans-32" d="M 1228 531 
L 3431 531 
L 3431 0 
L 469 0 
L 469 531 
Q 828 903 1448 1529 
Q 2069 2156 2228 2338 
Q 2531 2678 2651 2914 
Q 2772 3150 2772 3378 
Q 2772 3750 2511 3984 
Q 2250 4219 1831 4219 
Q 1534 4219 1204 4116 
Q 875 4013 500 3803 
L 500 4441 
Q 881 4594 1212 4672 
Q 1544 4750 1819 4750 
Q 2544 4750 2975 4387 
Q 3406 4025 3406 3419 
Q 3406 3131 3298 2873 
Q 3191 2616 2906 2266 
Q 2828 2175 2409 1742 
Q 1991 1309 1228 531 
z
" transform="scale(0.015625)"/>
       </defs>
       <use xlink:href="#DejaVuSans-32"/>
       <use xlink:href="#DejaVuSans-30" transform="translate(63.623047 0)"/>
       <use xlink:href="#DejaVuSans-30" transform="translate(127.246094 0)"/>
      </g>
     </g>
    </g>
    <g id="xtick_4">
     <g id="line2d_7">
      <path d="M 193.199587 160.2 
L 193.199587 21.6 
" clip-path="url(#p285269bc37)" style="fill: none; stroke-dasharray: 2.96,1.28; stroke-dashoffset: 0; stroke: #b0b0b0; stroke-opacity: 0.7; stroke-width: 0.8"/>
     </g>
     <g id="line2d_8">
      <g>
       <use xlink:href="#m18f5e5eb15" x="193.199587" y="160.2" style="stroke: #000000; stroke-width: 0.8"/>
      </g>
     </g>
     <g id="text_4">
      <!-- 300 -->
      <g transform="translate(183.655837 174.798438) scale(0.1 -0.1)">
       <defs>
        <path id="DejaVuSans-33" d="M 2597 2516 
Q 3050 2419 3304 2112 
Q 3559 1806 3559 1356 
Q 3559 666 3084 287 
Q 2609 -91 1734 -91 
Q 1441 -91 1130 -33 
Q 819 25 488 141 
L 488 750 
Q 750 597 1062 519 
Q 1375 441 1716 441 
Q 2309 441 2620 675 
Q 2931 909 2931 1356 
Q 2931 1769 2642 2001 
Q 2353 2234 1838 2234 
L 1294 2234 
L 1294 2753 
L 1863 2753 
Q 2328 2753 2575 2939 
Q 2822 3125 2822 3475 
Q 2822 3834 2567 4026 
Q 2313 4219 1838 4219 
Q 1578 4219 1281 4162 
Q 984 4106 628 3988 
L 628 4550 
Q 988 4650 1302 4700 
Q 1616 4750 1894 4750 
Q 2613 4750 3031 4423 
Q 3450 4097 3450 3541 
Q 3450 3153 3228 2886 
Q 3006 2619 2597 2516 
z
" transform="scale(0.015625)"/>
       </defs>
       <use xlink:href="#DejaVuSans-33"/>
       <use xlink:href="#DejaVuSans-30" transform="translate(63.623047 0)"/>
       <use xlink:href="#DejaVuSans-30" transform="translate(127.246094 0)"/>
      </g>
     </g>
    </g>
    <g id="text_5">
     <!-- Number of Sites per Protein -->
     <g transform="translate(59.853125 188.476562) scale(0.1 -0.1)">
      <defs>
       <path id="DejaVuSans-4e" d="M 628 4666 
L 1478 4666 
L 3547 763 
L 3547 4666 
L 4159 4666 
L 4159 0 
L 3309 0 
L 1241 3903 
L 1241 0 
L 628 0 
L 628 4666 
z
" transform="scale(0.015625)"/>
       <path id="DejaVuSans-75" d="M 544 1381 
L 544 3500 
L 1119 3500 
L 1119 1403 
Q 1119 906 1312 657 
Q 1506 409 1894 409 
Q 2359 409 2629 706 
Q 2900 1003 2900 1516 
L 2900 3500 
L 3475 3500 
L 3475 0 
L 2900 0 
L 2900 538 
Q 2691 219 2414 64 
Q 2138 -91 1772 -91 
Q 1169 -91 856 284 
Q 544 659 544 1381 
z
M 1991 3584 
L 1991 3584 
z
" transform="scale(0.015625)"/>
       <path id="DejaVuSans-6d" d="M 3328 2828 
Q 3544 3216 3844 3400 
Q 4144 3584 4550 3584 
Q 5097 3584 5394 3201 
Q 5691 2819 5691 2113 
L 5691 0 
L 5113 0 
L 5113 2094 
Q 5113 2597 4934 2840 
Q 4756 3084 4391 3084 
Q 3944 3084 3684 2787 
Q 3425 2491 3425 1978 
L 3425 0 
L 2847 0 
L 2847 2094 
Q 2847 2600 2669 2842 
Q 2491 3084 2119 3084 
Q 1678 3084 1418 2786 
Q 1159 2488 1159 1978 
L 1159 0 
L 581 0 
L 581 3500 
L 1159 3500 
L 1159 2956 
Q 1356 3278 1631 3431 
Q 1906 3584 2284 3584 
Q 2666 3584 2933 3390 
Q 3200 3197 3328 2828 
z
" transform="scale(0.015625)"/>
       <path id="DejaVuSans-62" d="M 3116 1747 
Q 3116 2381 2855 2742 
Q 2594 3103 2138 3103 
Q 1681 3103 1420 2742 
Q 1159 2381 1159 1747 
Q 1159 1113 1420 752 
Q 1681 391 2138 391 
Q 2594 391 2855 752 
Q 3116 1113 3116 1747 
z
M 1159 2969 
Q 1341 3281 1617 3432 
Q 1894 3584 2278 3584 
Q 2916 3584 3314 3078 
Q 3713 2572 3713 1747 
Q 3713 922 3314 415 
Q 2916 -91 2278 -91 
Q 1894 -91 1617 61 
Q 1341 213 1159 525 
L 1159 0 
L 581 0 
L 581 4863 
L 1159 4863 
L 1159 2969 
z
" transform="scale(0.015625)"/>
       <path id="DejaVuSans-65" d="M 3597 1894 
L 3597 1613 
L 953 1613 
Q 991 1019 1311 708 
Q 1631 397 2203 397 
Q 2534 397 2845 478 
Q 3156 559 3463 722 
L 3463 178 
Q 3153 47 2828 -22 
Q 2503 -91 2169 -91 
Q 1331 -91 842 396 
Q 353 884 353 1716 
Q 353 2575 817 3079 
Q 1281 3584 2069 3584 
Q 2775 3584 3186 3129 
Q 3597 2675 3597 1894 
z
M 3022 2063 
Q 3016 2534 2758 2815 
Q 2500 3097 2075 3097 
Q 1594 3097 1305 2825 
Q 1016 2553 972 2059 
L 3022 2063 
z
" transform="scale(0.015625)"/>
       <path id="DejaVuSans-72" d="M 2631 2963 
Q 2534 3019 2420 3045 
Q 2306 3072 2169 3072 
Q 1681 3072 1420 2755 
Q 1159 2438 1159 1844 
L 1159 0 
L 581 0 
L 581 3500 
L 1159 3500 
L 1159 2956 
Q 1341 3275 1631 3429 
Q 1922 3584 2338 3584 
Q 2397 3584 2469 3576 
Q 2541 3569 2628 3553 
L 2631 2963 
z
" transform="scale(0.015625)"/>
       <path id="DejaVuSans-20" transform="scale(0.015625)"/>
       <path id="DejaVuSans-6f" d="M 1959 3097 
Q 1497 3097 1228 2736 
Q 959 2375 959 1747 
Q 959 1119 1226 758 
Q 1494 397 1959 397 
Q 2419 397 2687 759 
Q 2956 1122 2956 1747 
Q 2956 2369 2687 2733 
Q 2419 3097 1959 3097 
z
M 1959 3584 
Q 2709 3584 3137 3096 
Q 3566 2609 3566 1747 
Q 3566 888 3137 398 
Q 2709 -91 1959 -91 
Q 1206 -91 779 398 
Q 353 888 353 1747 
Q 353 2609 779 3096 
Q 1206 3584 1959 3584 
z
" transform="scale(0.015625)"/>
       <path id="DejaVuSans-66" d="M 2375 4863 
L 2375 4384 
L 1825 4384 
Q 1516 4384 1395 4259 
Q 1275 4134 1275 3809 
L 1275 3500 
L 2222 3500 
L 2222 3053 
L 1275 3053 
L 1275 0 
L 697 0 
L 697 3053 
L 147 3053 
L 147 3500 
L 697 3500 
L 697 3744 
Q 697 4328 969 4595 
Q 1241 4863 1831 4863 
L 2375 4863 
z
" transform="scale(0.015625)"/>
       <path id="DejaVuSans-53" d="M 3425 4513 
L 3425 3897 
Q 3066 4069 2747 4153 
Q 2428 4238 2131 4238 
Q 1616 4238 1336 4038 
Q 1056 3838 1056 3469 
Q 1056 3159 1242 3001 
Q 1428 2844 1947 2747 
L 2328 2669 
Q 3034 2534 3370 2195 
Q 3706 1856 3706 1288 
Q 3706 609 3251 259 
Q 2797 -91 1919 -91 
Q 1588 -91 1214 -16 
Q 841 59 441 206 
L 441 856 
Q 825 641 1194 531 
Q 1563 422 1919 422 
Q 2459 422 2753 634 
Q 3047 847 3047 1241 
Q 3047 1584 2836 1778 
Q 2625 1972 2144 2069 
L 1759 2144 
Q 1053 2284 737 2584 
Q 422 2884 422 3419 
Q 422 4038 858 4394 
Q 1294 4750 2059 4750 
Q 2388 4750 2728 4690 
Q 3069 4631 3425 4513 
z
" transform="scale(0.015625)"/>
       <path id="DejaVuSans-69" d="M 603 3500 
L 1178 3500 
L 1178 0 
L 603 0 
L 603 3500 
z
M 603 4863 
L 1178 4863 
L 1178 4134 
L 603 4134 
L 603 4863 
z
" transform="scale(0.015625)"/>
       <path id="DejaVuSans-74" d="M 1172 4494 
L 1172 3500 
L 2356 3500 
L 2356 3053 
L 1172 3053 
L 1172 1153 
Q 1172 725 1289 603 
Q 1406 481 1766 481 
L 2356 481 
L 2356 0 
L 1766 0 
Q 1100 0 847 248 
Q 594 497 594 1153 
L 594 3053 
L 172 3053 
L 172 3500 
L 594 3500 
L 594 4494 
L 1172 4494 
z
" transform="scale(0.015625)"/>
       <path id="DejaVuSans-73" d="M 2834 3397 
L 2834 2853 
Q 2591 2978 2328 3040 
Q 2066 3103 1784 3103 
Q 1356 3103 1142 2972 
Q 928 2841 928 2578 
Q 928 2378 1081 2264 
Q 1234 2150 1697 2047 
L 1894 2003 
Q 2506 1872 2764 1633 
Q 3022 1394 3022 966 
Q 3022 478 2636 193 
Q 2250 -91 1575 -91 
Q 1294 -91 989 -36 
Q 684 19 347 128 
L 347 722 
Q 666 556 975 473 
Q 1284 391 1588 391 
Q 1994 391 2212 530 
Q 2431 669 2431 922 
Q 2431 1156 2273 1281 
Q 2116 1406 1581 1522 
L 1381 1569 
Q 847 1681 609 1914 
Q 372 2147 372 2553 
Q 372 3047 722 3315 
Q 1072 3584 1716 3584 
Q 2034 3584 2315 3537 
Q 2597 3491 2834 3397 
z
" transform="scale(0.015625)"/>
       <path id="DejaVuSans-70" d="M 1159 525 
L 1159 -1331 
L 581 -1331 
L 581 3500 
L 1159 3500 
L 1159 2969 
Q 1341 3281 1617 3432 
Q 1894 3584 2278 3584 
Q 2916 3584 3314 3078 
Q 3713 2572 3713 1747 
Q 3713 922 3314 415 
Q 2916 -91 2278 -91 
Q 1894 -91 1617 61 
Q 1341 213 1159 525 
z
M 3116 1747 
Q 3116 2381 2855 2742 
Q 2594 3103 2138 3103 
Q 1681 3103 1420 2742 
Q 1159 2381 1159 1747 
Q 1159 1113 1420 752 
Q 1681 391 2138 391 
Q 2594 391 2855 752 
Q 3116 1113 3116 1747 
z
" transform="scale(0.015625)"/>
       <path id="DejaVuSans-50" d="M 1259 4147 
L 1259 2394 
L 2053 2394 
Q 2494 2394 2734 2622 
Q 2975 2850 2975 3272 
Q 2975 3691 2734 3919 
Q 2494 4147 2053 4147 
L 1259 4147 
z
M 628 4666 
L 2053 4666 
Q 2838 4666 3239 4311 
Q 3641 3956 3641 3272 
Q 3641 2581 3239 2228 
Q 2838 1875 2053 1875 
L 1259 1875 
L 1259 0 
L 628 0 
L 628 4666 
z
" transform="scale(0.015625)"/>
       <path id="DejaVuSans-6e" d="M 3513 2113 
L 3513 0 
L 2938 0 
L 2938 2094 
Q 2938 2591 2744 2837 
Q 2550 3084 2163 3084 
Q 1697 3084 1428 2787 
Q 1159 2491 1159 1978 
L 1159 0 
L 581 0 
L 581 3500 
L 1159 3500 
L 1159 2956 
Q 1366 3272 1645 3428 
Q 1925 3584 2291 3584 
Q 2894 3584 3203 3211 
Q 3513 2838 3513 2113 
z
" transform="scale(0.015625)"/>
      </defs>
      <use xlink:href="#DejaVuSans-4e"/>
      <use xlink:href="#DejaVuSans-75" transform="translate(74.804688 0)"/>
      <use xlink:href="#DejaVuSans-6d" transform="translate(138.183594 0)"/>
      <use xlink:href="#DejaVuSans-62" transform="translate(235.595703 0)"/>
      <use xlink:href="#DejaVuSans-65" transform="translate(299.072266 0)"/>
      <use xlink:href="#DejaVuSans-72" transform="translate(360.595703 0)"/>
      <use xlink:href="#DejaVuSans-20" transform="translate(401.708984 0)"/>
      <use xlink:href="#DejaVuSans-6f" transform="translate(433.496094 0)"/>
      <use xlink:href="#DejaVuSans-66" transform="translate(494.677734 0)"/>
      <use xlink:href="#DejaVuSans-20" transform="translate(529.882812 0)"/>
      <use xlink:href="#DejaVuSans-53" transform="translate(561.669922 0)"/>
      <use xlink:href="#DejaVuSans-69" transform="translate(625.146484 0)"/>
      <use xlink:href="#DejaVuSans-74" transform="translate(652.929688 0)"/>
      <use xlink:href="#DejaVuSans-65" transform="translate(692.138672 0)"/>
      <use xlink:href="#DejaVuSans-73" transform="translate(753.662109 0)"/>
      <use xlink:href="#DejaVuSans-20" transform="translate(805.761719 0)"/>
      <use xlink:href="#DejaVuSans-70" transform="translate(837.548828 0)"/>
      <use xlink:href="#DejaVuSans-65" transform="translate(901.025391 0)"/>
      <use xlink:href="#DejaVuSans-72" transform="translate(962.548828 0)"/>
      <use xlink:href="#DejaVuSans-20" transform="translate(1003.662109 0)"/>
      <use xlink:href="#DejaVuSans-50" transform="translate(1035.449219 0)"/>
      <use xlink:href="#DejaVuSans-72" transform="translate(1094.001953 0)"/>
      <use xlink:href="#DejaVuSans-6f" transform="translate(1132.865234 0)"/>
      <use xlink:href="#DejaVuSans-74" transform="translate(1194.046875 0)"/>
      <use xlink:href="#DejaVuSans-65" transform="translate(1233.255859 0)"/>
      <use xlink:href="#DejaVuSans-69" transform="translate(1294.779297 0)"/>
      <use xlink:href="#DejaVuSans-6e" transform="translate(1322.5625 0)"/>
     </g>
    </g>
   </g>
   <g id="matplotlib.axis_2">
    <g id="ytick_1">
     <g id="line2d_9">
      <path d="M 31.5 160.2 
L 226.8 160.2 
" clip-path="url(#p285269bc37)" style="fill: none; stroke-dasharray: 2.96,1.28; stroke-dashoffset: 0; stroke: #b0b0b0; stroke-opacity: 0.7; stroke-width: 0.8"/>
     </g>
     <g id="line2d_10">
      <defs>
       <path id="m11011a2273" d="M 0 0 
L -3.5 0 
" style="stroke: #000000; stroke-width: 0.8"/>
      </defs>
      <g>
       <use xlink:href="#m11011a2273" x="31.5" y="160.2" style="stroke: #000000; stroke-width: 0.8"/>
      </g>
     </g>
     <g id="text_6">
      <!-- 0 -->
      <g transform="translate(18.1375 163.999219) scale(0.1 -0.1)">
       <use xlink:href="#DejaVuSans-30"/>
      </g>
     </g>
    </g>
    <g id="ytick_2">
     <g id="line2d_11">
      <path d="M 31.5 114.93251 
L 226.8 114.93251 
" clip-path="url(#p285269bc37)" style="fill: none; stroke-dasharray: 2.96,1.28; stroke-dashoffset: 0; stroke: #b0b0b0; stroke-opacity: 0.7; stroke-width: 0.8"/>
     </g>
     <g id="line2d_12">
      <g>
       <use xlink:href="#m11011a2273" x="31.5" y="114.93251" style="stroke: #000000; stroke-width: 0.8"/>
      </g>
     </g>
     <g id="text_7">
      <!-- 500 -->
      <g transform="translate(5.4125 118.731729) scale(0.1 -0.1)">
       <defs>
        <path id="DejaVuSans-35" d="M 691 4666 
L 3169 4666 
L 3169 4134 
L 1269 4134 
L 1269 2991 
Q 1406 3038 1543 3061 
Q 1681 3084 1819 3084 
Q 2600 3084 3056 2656 
Q 3513 2228 3513 1497 
Q 3513 744 3044 326 
Q 2575 -91 1722 -91 
Q 1428 -91 1123 -41 
Q 819 9 494 109 
L 494 744 
Q 775 591 1075 516 
Q 1375 441 1709 441 
Q 2250 441 2565 725 
Q 2881 1009 2881 1497 
Q 2881 1984 2565 2268 
Q 2250 2553 1709 2553 
Q 1456 2553 1204 2497 
Q 953 2441 691 2322 
L 691 4666 
z
" transform="scale(0.015625)"/>
       </defs>
       <use xlink:href="#DejaVuSans-35"/>
       <use xlink:href="#DejaVuSans-30" transform="translate(63.623047 0)"/>
       <use xlink:href="#DejaVuSans-30" transform="translate(127.246094 0)"/>
      </g>
     </g>
    </g>
    <g id="ytick_3">
     <g id="line2d_13">
      <path d="M 31.5 69.665021 
L 226.8 69.665021 
" clip-path="url(#p285269bc37)" style="fill: none; stroke-dasharray: 2.96,1.28; stroke-dashoffset: 0; stroke: #b0b0b0; stroke-opacity: 0.7; stroke-width: 0.8"/>
     </g>
     <g id="line2d_14">
      <g>
       <use xlink:href="#m11011a2273" x="31.5" y="69.665021" style="stroke: #000000; stroke-width: 0.8"/>
      </g>
     </g>
     <g id="text_8">
      <!-- 1000 -->
      <g transform="translate(-0.95 73.464239) scale(0.1 -0.1)">
       <use xlink:href="#DejaVuSans-31"/>
       <use xlink:href="#DejaVuSans-30" transform="translate(63.623047 0)"/>
       <use xlink:href="#DejaVuSans-30" transform="translate(127.246094 0)"/>
       <use xlink:href="#DejaVuSans-30" transform="translate(190.869141 0)"/>
      </g>
     </g>
    </g>
    <g id="ytick_4">
     <g id="line2d_15">
      <path d="M 31.5 24.397531 
L 226.8 24.397531 
" clip-path="url(#p285269bc37)" style="fill: none; stroke-dasharray: 2.96,1.28; stroke-dashoffset: 0; stroke: #b0b0b0; stroke-opacity: 0.7; stroke-width: 0.8"/>
     </g>
     <g id="line2d_16">
      <g>
       <use xlink:href="#m11011a2273" x="31.5" y="24.397531" style="stroke: #000000; stroke-width: 0.8"/>
      </g>
     </g>
     <g id="text_9">
      <!-- 1500 -->
      <g transform="translate(-0.95 28.19675) scale(0.1 -0.1)">
       <use xlink:href="#DejaVuSans-31"/>
       <use xlink:href="#DejaVuSans-35" transform="translate(63.623047 0)"/>
       <use xlink:href="#DejaVuSans-30" transform="translate(127.246094 0)"/>
       <use xlink:href="#DejaVuSans-30" transform="translate(190.869141 0)"/>
      </g>
     </g>
    </g>
    <g id="text_10">
     <!-- Frequency -->
     <g transform="translate(-7.029688 116.729687) rotate(-90) scale(0.1 -0.1)">
      <defs>
       <path id="DejaVuSans-46" d="M 628 4666 
L 3309 4666 
L 3309 4134 
L 1259 4134 
L 1259 2759 
L 3109 2759 
L 3109 2228 
L 1259 2228 
L 1259 0 
L 628 0 
L 628 4666 
z
" transform="scale(0.015625)"/>
       <path id="DejaVuSans-71" d="M 947 1747 
Q 947 1113 1208 752 
Q 1469 391 1925 391 
Q 2381 391 2643 752 
Q 2906 1113 2906 1747 
Q 2906 2381 2643 2742 
Q 2381 3103 1925 3103 
Q 1469 3103 1208 2742 
Q 947 2381 947 1747 
z
M 2906 525 
Q 2725 213 2448 61 
Q 2172 -91 1784 -91 
Q 1150 -91 751 415 
Q 353 922 353 1747 
Q 353 2572 751 3078 
Q 1150 3584 1784 3584 
Q 2172 3584 2448 3432 
Q 2725 3281 2906 2969 
L 2906 3500 
L 3481 3500 
L 3481 -1331 
L 2906 -1331 
L 2906 525 
z
" transform="scale(0.015625)"/>
       <path id="DejaVuSans-63" d="M 3122 3366 
L 3122 2828 
Q 2878 2963 2633 3030 
Q 2388 3097 2138 3097 
Q 1578 3097 1268 2742 
Q 959 2388 959 1747 
Q 959 1106 1268 751 
Q 1578 397 2138 397 
Q 2388 397 2633 464 
Q 2878 531 3122 666 
L 3122 134 
Q 2881 22 2623 -34 
Q 2366 -91 2075 -91 
Q 1284 -91 818 406 
Q 353 903 353 1747 
Q 353 2603 823 3093 
Q 1294 3584 2113 3584 
Q 2378 3584 2631 3529 
Q 2884 3475 3122 3366 
z
" transform="scale(0.015625)"/>
       <path id="DejaVuSans-79" d="M 2059 -325 
Q 1816 -950 1584 -1140 
Q 1353 -1331 966 -1331 
L 506 -1331 
L 506 -850 
L 844 -850 
Q 1081 -850 1212 -737 
Q 1344 -625 1503 -206 
L 1606 56 
L 191 3500 
L 800 3500 
L 1894 763 
L 2988 3500 
L 3597 3500 
L 2059 -325 
z
" transform="scale(0.015625)"/>
      </defs>
      <use xlink:href="#DejaVuSans-46"/>
      <use xlink:href="#DejaVuSans-72" transform="translate(50.269531 0)"/>
      <use xlink:href="#DejaVuSans-65" transform="translate(89.132812 0)"/>
      <use xlink:href="#DejaVuSans-71" transform="translate(150.65625 0)"/>
      <use xlink:href="#DejaVuSans-75" transform="translate(214.132812 0)"/>
      <use xlink:href="#DejaVuSans-65" transform="translate(277.511719 0)"/>
      <use xlink:href="#DejaVuSans-6e" transform="translate(339.035156 0)"/>
      <use xlink:href="#DejaVuSans-63" transform="translate(402.414062 0)"/>
      <use xlink:href="#DejaVuSans-79" transform="translate(457.394531 0)"/>
     </g>
    </g>
   </g>
   <g id="patch_43">
    <path d="M 31.5 160.2 
L 31.5 21.6 
" style="fill: none; stroke: #000000; stroke-width: 0.8; stroke-linejoin: miter; stroke-linecap: square"/>
   </g>
   <g id="patch_44">
    <path d="M 226.8 160.2 
L 226.8 21.6 
" style="fill: none; stroke: #000000; stroke-width: 0.8; stroke-linejoin: miter; stroke-linecap: square"/>
   </g>
   <g id="patch_45">
    <path d="M 31.5 160.2 
L 226.8 160.2 
" style="fill: none; stroke: #000000; stroke-width: 0.8; stroke-linejoin: miter; stroke-linecap: square"/>
   </g>
   <g id="patch_46">
    <path d="M 31.5 21.6 
L 226.8 21.6 
" style="fill: none; stroke: #000000; stroke-width: 0.8; stroke-linejoin: miter; stroke-linecap: square"/>
   </g>
   <g id="legend_1">
    <g id="patch_47">
     <path d="M 116.026563 38.198437 
L 136.026563 38.198437 
L 136.026563 31.198437 
L 116.026563 31.198437 
z
" style="fill: #43a3ef; opacity: 0.7"/>
    </g>
    <g id="text_11">
     <!-- Allosteric Sites -->
     <g transform="translate(144.026563 38.198437) scale(0.1 -0.1)">
      <defs>
       <path id="DejaVuSans-41" d="M 2188 4044 
L 1331 1722 
L 3047 1722 
L 2188 4044 
z
M 1831 4666 
L 2547 4666 
L 4325 0 
L 3669 0 
L 3244 1197 
L 1141 1197 
L 716 0 
L 50 0 
L 1831 4666 
z
" transform="scale(0.015625)"/>
       <path id="DejaVuSans-6c" d="M 603 4863 
L 1178 4863 
L 1178 0 
L 603 0 
L 603 4863 
z
" transform="scale(0.015625)"/>
      </defs>
      <use xlink:href="#DejaVuSans-41"/>
      <use xlink:href="#DejaVuSans-6c" transform="translate(68.408203 0)"/>
      <use xlink:href="#DejaVuSans-6c" transform="translate(96.191406 0)"/>
      <use xlink:href="#DejaVuSans-6f" transform="translate(123.974609 0)"/>
      <use xlink:href="#DejaVuSans-73" transform="translate(185.15625 0)"/>
      <use xlink:href="#DejaVuSans-74" transform="translate(237.255859 0)"/>
      <use xlink:href="#DejaVuSans-65" transform="translate(276.464844 0)"/>
      <use xlink:href="#DejaVuSans-72" transform="translate(337.988281 0)"/>
      <use xlink:href="#DejaVuSans-69" transform="translate(379.101562 0)"/>
      <use xlink:href="#DejaVuSans-63" transform="translate(406.884766 0)"/>
      <use xlink:href="#DejaVuSans-20" transform="translate(461.865234 0)"/>
      <use xlink:href="#DejaVuSans-53" transform="translate(493.652344 0)"/>
      <use xlink:href="#DejaVuSans-69" transform="translate(557.128906 0)"/>
      <use xlink:href="#DejaVuSans-74" transform="translate(584.912109 0)"/>
      <use xlink:href="#DejaVuSans-65" transform="translate(624.121094 0)"/>
      <use xlink:href="#DejaVuSans-73" transform="translate(685.644531 0)"/>
     </g>
    </g>
    <g id="patch_48">
     <path d="M 116.026563 52.876562 
L 136.026563 52.876562 
L 136.026563 45.876562 
L 116.026563 45.876562 
z
" style="fill: #ef767b; opacity: 0.7"/>
    </g>
    <g id="text_12">
     <!-- Active Sites -->
     <g transform="translate(144.026563 52.876562) scale(0.1 -0.1)">
      <defs>
       <path id="DejaVuSans-76" d="M 191 3500 
L 800 3500 
L 1894 563 
L 2988 3500 
L 3597 3500 
L 2284 0 
L 1503 0 
L 191 3500 
z
" transform="scale(0.015625)"/>
      </defs>
      <use xlink:href="#DejaVuSans-41"/>
      <use xlink:href="#DejaVuSans-63" transform="translate(66.658203 0)"/>
      <use xlink:href="#DejaVuSans-74" transform="translate(121.638672 0)"/>
      <use xlink:href="#DejaVuSans-69" transform="translate(160.847656 0)"/>
      <use xlink:href="#DejaVuSans-76" transform="translate(188.630859 0)"/>
      <use xlink:href="#DejaVuSans-65" transform="translate(247.810547 0)"/>
      <use xlink:href="#DejaVuSans-20" transform="translate(309.333984 0)"/>
      <use xlink:href="#DejaVuSans-53" transform="translate(341.121094 0)"/>
      <use xlink:href="#DejaVuSans-69" transform="translate(404.597656 0)"/>
      <use xlink:href="#DejaVuSans-74" transform="translate(432.380859 0)"/>
      <use xlink:href="#DejaVuSans-65" transform="translate(471.589844 0)"/>
      <use xlink:href="#DejaVuSans-73" transform="translate(533.113281 0)"/>
     </g>
    </g>
   </g>
  </g>
 </g>
 <defs>
  <clipPath id="p285269bc37">
   <rect x="31.5" y="21.6" width="195.3" height="138.6"/>
  </clipPath>
 </defs>
</svg>
