<?xml version="1.0" encoding="utf-8" standalone="no"?>
<!DOCTYPE svg PUBLIC "-//W3C//DTD SVG 1.1//EN"
  "http://www.w3.org/Graphics/SVG/1.1/DTD/svg11.dtd">
<svg xmlns:xlink="http://www.w3.org/1999/xlink" width="246.28125pt" height="183.35625pt" viewBox="0 0 246.28125 183.35625" xmlns="http://www.w3.org/2000/svg" version="1.1">
 <metadata>
  <rdf:RDF xmlns:dc="http://purl.org/dc/elements/1.1/" xmlns:cc="http://creativecommons.org/ns#" xmlns:rdf="http://www.w3.org/1999/02/22-rdf-syntax-ns#">
   <cc:Work>
    <dc:type rdf:resource="http://purl.org/dc/dcmitype/StillImage"/>
    <dc:date>2025-07-17T13:48:12.785920</dc:date>
    <dc:format>image/svg+xml</dc:format>
    <dc:creator>
     <cc:Agent>
      <dc:title>Matplotlib v3.10.3, https://matplotlib.org/</dc:title>
     </cc:Agent>
    </dc:creator>
   </cc:Work>
  </rdf:RDF>
 </metadata>
 <defs>
  <style type="text/css">*{stroke-linejoin: round; stroke-linecap: butt}</style>
 </defs>
 <g id="figure_1">
  <g id="patch_1">
   <path d="M 0 183.35625 
L 246.28125 183.35625 
L 246.28125 0 
L 0 0 
z
" style="fill: #ffffff"/>
  </g>
  <g id="axes_1">
   <g id="patch_2">
    <path d="M 43.78125 145.8 
L 239.08125 145.8 
L 239.08125 7.2 
L 43.78125 7.2 
z
" style="fill: #ffffff"/>
   </g>
   <g id="matplotlib.axis_1">
    <g id="xtick_1">
     <g id="line2d_1">
      <path d="M 52.658523 145.8 
L 52.658523 7.2 
" clip-path="url(#pf0d0dbd451)" style="fill: none; stroke-dasharray: 2.96,1.28; stroke-dashoffset: 0; stroke: #b0b0b0; stroke-opacity: 0.5; stroke-width: 0.8"/>
     </g>
     <g id="line2d_2">
      <defs>
       <path id="m32c5d0af2b" d="M 0 0 
L 0 3.5 
" style="stroke: #000000; stroke-width: 0.8"/>
      </defs>
      <g>
       <use xlink:href="#m32c5d0af2b" x="52.658523" y="145.8" style="stroke: #000000; stroke-width: 0.8"/>
      </g>
     </g>
     <g id="text_1">
      <!-- 0.0 -->
      <g transform="translate(44.70696 160.398438) scale(0.1 -0.1)">
       <defs>
        <path id="DejaVuSans-30" d="M 2034 4250 
Q 1547 4250 1301 3770 
Q 1056 3291 1056 2328 
Q 1056 1369 1301 889 
Q 1547 409 2034 409 
Q 2525 409 2770 889 
Q 3016 1369 3016 2328 
Q 3016 3291 2770 3770 
Q 2525 4250 2034 4250 
z
M 2034 4750 
Q 2819 4750 3233 4129 
Q 3647 3509 3647 2328 
Q 3647 1150 3233 529 
Q 2819 -91 2034 -91 
Q 1250 -91 836 529 
Q 422 1150 422 2328 
Q 422 3509 836 4129 
Q 1250 4750 2034 4750 
z
" transform="scale(0.015625)"/>
        <path id="DejaVuSans-2e" d="M 684 794 
L 1344 794 
L 1344 0 
L 684 0 
L 684 794 
z
" transform="scale(0.015625)"/>
       </defs>
       <use xlink:href="#DejaVuSans-30"/>
       <use xlink:href="#DejaVuSans-2e" transform="translate(63.623047 0)"/>
       <use xlink:href="#DejaVuSans-30" transform="translate(95.410156 0)"/>
      </g>
     </g>
    </g>
    <g id="xtick_2">
     <g id="line2d_3">
      <path d="M 88.167614 145.8 
L 88.167614 7.2 
" clip-path="url(#pf0d0dbd451)" style="fill: none; stroke-dasharray: 2.96,1.28; stroke-dashoffset: 0; stroke: #b0b0b0; stroke-opacity: 0.5; stroke-width: 0.8"/>
     </g>
     <g id="line2d_4">
      <g>
       <use xlink:href="#m32c5d0af2b" x="88.167614" y="145.8" style="stroke: #000000; stroke-width: 0.8"/>
      </g>
     </g>
     <g id="text_2">
      <!-- 0.2 -->
      <g transform="translate(80.216051 160.398438) scale(0.1 -0.1)">
       <defs>
        <path id="DejaVuSans-32" d="M 1228 531 
L 3431 531 
L 3431 0 
L 469 0 
L 469 531 
Q 828 903 1448 1529 
Q 2069 2156 2228 2338 
Q 2531 2678 2651 2914 
Q 2772 3150 2772 3378 
Q 2772 3750 2511 3984 
Q 2250 4219 1831 4219 
Q 1534 4219 1204 4116 
Q 875 4013 500 3803 
L 500 4441 
Q 881 4594 1212 4672 
Q 1544 4750 1819 4750 
Q 2544 4750 2975 4387 
Q 3406 4025 3406 3419 
Q 3406 3131 3298 2873 
Q 3191 2616 2906 2266 
Q 2828 2175 2409 1742 
Q 1991 1309 1228 531 
z
" transform="scale(0.015625)"/>
       </defs>
       <use xlink:href="#DejaVuSans-30"/>
       <use xlink:href="#DejaVuSans-2e" transform="translate(63.623047 0)"/>
       <use xlink:href="#DejaVuSans-32" transform="translate(95.410156 0)"/>
      </g>
     </g>
    </g>
    <g id="xtick_3">
     <g id="line2d_5">
      <path d="M 123.676705 145.8 
L 123.676705 7.2 
" clip-path="url(#pf0d0dbd451)" style="fill: none; stroke-dasharray: 2.96,1.28; stroke-dashoffset: 0; stroke: #b0b0b0; stroke-opacity: 0.5; stroke-width: 0.8"/>
     </g>
     <g id="line2d_6">
      <g>
       <use xlink:href="#m32c5d0af2b" x="123.676705" y="145.8" style="stroke: #000000; stroke-width: 0.8"/>
      </g>
     </g>
     <g id="text_3">
      <!-- 0.4 -->
      <g transform="translate(115.725142 160.398438) scale(0.1 -0.1)">
       <defs>
        <path id="DejaVuSans-34" d="M 2419 4116 
L 825 1625 
L 2419 1625 
L 2419 4116 
z
M 2253 4666 
L 3047 4666 
L 3047 1625 
L 3713 1625 
L 3713 1100 
L 3047 1100 
L 3047 0 
L 2419 0 
L 2419 1100 
L 313 1100 
L 313 1709 
L 2253 4666 
z
" transform="scale(0.015625)"/>
       </defs>
       <use xlink:href="#DejaVuSans-30"/>
       <use xlink:href="#DejaVuSans-2e" transform="translate(63.623047 0)"/>
       <use xlink:href="#DejaVuSans-34" transform="translate(95.410156 0)"/>
      </g>
     </g>
    </g>
    <g id="xtick_4">
     <g id="line2d_7">
      <path d="M 159.185795 145.8 
L 159.185795 7.2 
" clip-path="url(#pf0d0dbd451)" style="fill: none; stroke-dasharray: 2.96,1.28; stroke-dashoffset: 0; stroke: #b0b0b0; stroke-opacity: 0.5; stroke-width: 0.8"/>
     </g>
     <g id="line2d_8">
      <g>
       <use xlink:href="#m32c5d0af2b" x="159.185795" y="145.8" style="stroke: #000000; stroke-width: 0.8"/>
      </g>
     </g>
     <g id="text_4">
      <!-- 0.6 -->
      <g transform="translate(151.234233 160.398438) scale(0.1 -0.1)">
       <defs>
        <path id="DejaVuSans-36" d="M 2113 2584 
Q 1688 2584 1439 2293 
Q 1191 2003 1191 1497 
Q 1191 994 1439 701 
Q 1688 409 2113 409 
Q 2538 409 2786 701 
Q 3034 994 3034 1497 
Q 3034 2003 2786 2293 
Q 2538 2584 2113 2584 
z
M 3366 4563 
L 3366 3988 
Q 3128 4100 2886 4159 
Q 2644 4219 2406 4219 
Q 1781 4219 1451 3797 
Q 1122 3375 1075 2522 
Q 1259 2794 1537 2939 
Q 1816 3084 2150 3084 
Q 2853 3084 3261 2657 
Q 3669 2231 3669 1497 
Q 3669 778 3244 343 
Q 2819 -91 2113 -91 
Q 1303 -91 875 529 
Q 447 1150 447 2328 
Q 447 3434 972 4092 
Q 1497 4750 2381 4750 
Q 2619 4750 2861 4703 
Q 3103 4656 3366 4563 
z
" transform="scale(0.015625)"/>
       </defs>
       <use xlink:href="#DejaVuSans-30"/>
       <use xlink:href="#DejaVuSans-2e" transform="translate(63.623047 0)"/>
       <use xlink:href="#DejaVuSans-36" transform="translate(95.410156 0)"/>
      </g>
     </g>
    </g>
    <g id="xtick_5">
     <g id="line2d_9">
      <path d="M 194.694886 145.8 
L 194.694886 7.2 
" clip-path="url(#pf0d0dbd451)" style="fill: none; stroke-dasharray: 2.96,1.28; stroke-dashoffset: 0; stroke: #b0b0b0; stroke-opacity: 0.5; stroke-width: 0.8"/>
     </g>
     <g id="line2d_10">
      <g>
       <use xlink:href="#m32c5d0af2b" x="194.694886" y="145.8" style="stroke: #000000; stroke-width: 0.8"/>
      </g>
     </g>
     <g id="text_5">
      <!-- 0.8 -->
      <g transform="translate(186.743324 160.398438) scale(0.1 -0.1)">
       <defs>
        <path id="DejaVuSans-38" d="M 2034 2216 
Q 1584 2216 1326 1975 
Q 1069 1734 1069 1313 
Q 1069 891 1326 650 
Q 1584 409 2034 409 
Q 2484 409 2743 651 
Q 3003 894 3003 1313 
Q 3003 1734 2745 1975 
Q 2488 2216 2034 2216 
z
M 1403 2484 
Q 997 2584 770 2862 
Q 544 3141 544 3541 
Q 544 4100 942 4425 
Q 1341 4750 2034 4750 
Q 2731 4750 3128 4425 
Q 3525 4100 3525 3541 
Q 3525 3141 3298 2862 
Q 3072 2584 2669 2484 
Q 3125 2378 3379 2068 
Q 3634 1759 3634 1313 
Q 3634 634 3220 271 
Q 2806 -91 2034 -91 
Q 1263 -91 848 271 
Q 434 634 434 1313 
Q 434 1759 690 2068 
Q 947 2378 1403 2484 
z
M 1172 3481 
Q 1172 3119 1398 2916 
Q 1625 2713 2034 2713 
Q 2441 2713 2670 2916 
Q 2900 3119 2900 3481 
Q 2900 3844 2670 4047 
Q 2441 4250 2034 4250 
Q 1625 4250 1398 4047 
Q 1172 3844 1172 3481 
z
" transform="scale(0.015625)"/>
       </defs>
       <use xlink:href="#DejaVuSans-30"/>
       <use xlink:href="#DejaVuSans-2e" transform="translate(63.623047 0)"/>
       <use xlink:href="#DejaVuSans-38" transform="translate(95.410156 0)"/>
      </g>
     </g>
    </g>
    <g id="xtick_6">
     <g id="line2d_11">
      <path d="M 230.203977 145.8 
L 230.203977 7.2 
" clip-path="url(#pf0d0dbd451)" style="fill: none; stroke-dasharray: 2.96,1.28; stroke-dashoffset: 0; stroke: #b0b0b0; stroke-opacity: 0.5; stroke-width: 0.8"/>
     </g>
     <g id="line2d_12">
      <g>
       <use xlink:href="#m32c5d0af2b" x="230.203977" y="145.8" style="stroke: #000000; stroke-width: 0.8"/>
      </g>
     </g>
     <g id="text_6">
      <!-- 1.0 -->
      <g transform="translate(222.252415 160.398438) scale(0.1 -0.1)">
       <defs>
        <path id="DejaVuSans-31" d="M 794 531 
L 1825 531 
L 1825 4091 
L 703 3866 
L 703 4441 
L 1819 4666 
L 2450 4666 
L 2450 531 
L 3481 531 
L 3481 0 
L 794 0 
L 794 531 
z
" transform="scale(0.015625)"/>
       </defs>
       <use xlink:href="#DejaVuSans-31"/>
       <use xlink:href="#DejaVuSans-2e" transform="translate(63.623047 0)"/>
       <use xlink:href="#DejaVuSans-30" transform="translate(95.410156 0)"/>
      </g>
     </g>
    </g>
    <g id="text_7">
     <!-- Ratio of Predicted Pocket Residues -->
     <g transform="translate(55.214062 174.076563) scale(0.1 -0.1)">
      <defs>
       <path id="DejaVuSans-52" d="M 2841 2188 
Q 3044 2119 3236 1894 
Q 3428 1669 3622 1275 
L 4263 0 
L 3584 0 
L 2988 1197 
Q 2756 1666 2539 1819 
Q 2322 1972 1947 1972 
L 1259 1972 
L 1259 0 
L 628 0 
L 628 4666 
L 2053 4666 
Q 2853 4666 3247 4331 
Q 3641 3997 3641 3322 
Q 3641 2881 3436 2590 
Q 3231 2300 2841 2188 
z
M 1259 4147 
L 1259 2491 
L 2053 2491 
Q 2509 2491 2742 2702 
Q 2975 2913 2975 3322 
Q 2975 3731 2742 3939 
Q 2509 4147 2053 4147 
L 1259 4147 
z
" transform="scale(0.015625)"/>
       <path id="DejaVuSans-61" d="M 2194 1759 
Q 1497 1759 1228 1600 
Q 959 1441 959 1056 
Q 959 750 1161 570 
Q 1363 391 1709 391 
Q 2188 391 2477 730 
Q 2766 1069 2766 1631 
L 2766 1759 
L 2194 1759 
z
M 3341 1997 
L 3341 0 
L 2766 0 
L 2766 531 
Q 2569 213 2275 61 
Q 1981 -91 1556 -91 
Q 1019 -91 701 211 
Q 384 513 384 1019 
Q 384 1609 779 1909 
Q 1175 2209 1959 2209 
L 2766 2209 
L 2766 2266 
Q 2766 2663 2505 2880 
Q 2244 3097 1772 3097 
Q 1472 3097 1187 3025 
Q 903 2953 641 2809 
L 641 3341 
Q 956 3463 1253 3523 
Q 1550 3584 1831 3584 
Q 2591 3584 2966 3190 
Q 3341 2797 3341 1997 
z
" transform="scale(0.015625)"/>
       <path id="DejaVuSans-74" d="M 1172 4494 
L 1172 3500 
L 2356 3500 
L 2356 3053 
L 1172 3053 
L 1172 1153 
Q 1172 725 1289 603 
Q 1406 481 1766 481 
L 2356 481 
L 2356 0 
L 1766 0 
Q 1100 0 847 248 
Q 594 497 594 1153 
L 594 3053 
L 172 3053 
L 172 3500 
L 594 3500 
L 594 4494 
L 1172 4494 
z
" transform="scale(0.015625)"/>
       <path id="DejaVuSans-69" d="M 603 3500 
L 1178 3500 
L 1178 0 
L 603 0 
L 603 3500 
z
M 603 4863 
L 1178 4863 
L 1178 4134 
L 603 4134 
L 603 4863 
z
" transform="scale(0.015625)"/>
       <path id="DejaVuSans-6f" d="M 1959 3097 
Q 1497 3097 1228 2736 
Q 959 2375 959 1747 
Q 959 1119 1226 758 
Q 1494 397 1959 397 
Q 2419 397 2687 759 
Q 2956 1122 2956 1747 
Q 2956 2369 2687 2733 
Q 2419 3097 1959 3097 
z
M 1959 3584 
Q 2709 3584 3137 3096 
Q 3566 2609 3566 1747 
Q 3566 888 3137 398 
Q 2709 -91 1959 -91 
Q 1206 -91 779 398 
Q 353 888 353 1747 
Q 353 2609 779 3096 
Q 1206 3584 1959 3584 
z
" transform="scale(0.015625)"/>
       <path id="DejaVuSans-20" transform="scale(0.015625)"/>
       <path id="DejaVuSans-66" d="M 2375 4863 
L 2375 4384 
L 1825 4384 
Q 1516 4384 1395 4259 
Q 1275 4134 1275 3809 
L 1275 3500 
L 2222 3500 
L 2222 3053 
L 1275 3053 
L 1275 0 
L 697 0 
L 697 3053 
L 147 3053 
L 147 3500 
L 697 3500 
L 697 3744 
Q 697 4328 969 4595 
Q 1241 4863 1831 4863 
L 2375 4863 
z
" transform="scale(0.015625)"/>
       <path id="DejaVuSans-50" d="M 1259 4147 
L 1259 2394 
L 2053 2394 
Q 2494 2394 2734 2622 
Q 2975 2850 2975 3272 
Q 2975 3691 2734 3919 
Q 2494 4147 2053 4147 
L 1259 4147 
z
M 628 4666 
L 2053 4666 
Q 2838 4666 3239 4311 
Q 3641 3956 3641 3272 
Q 3641 2581 3239 2228 
Q 2838 1875 2053 1875 
L 1259 1875 
L 1259 0 
L 628 0 
L 628 4666 
z
" transform="scale(0.015625)"/>
       <path id="DejaVuSans-72" d="M 2631 2963 
Q 2534 3019 2420 3045 
Q 2306 3072 2169 3072 
Q 1681 3072 1420 2755 
Q 1159 2438 1159 1844 
L 1159 0 
L 581 0 
L 581 3500 
L 1159 3500 
L 1159 2956 
Q 1341 3275 1631 3429 
Q 1922 3584 2338 3584 
Q 2397 3584 2469 3576 
Q 2541 3569 2628 3553 
L 2631 2963 
z
" transform="scale(0.015625)"/>
       <path id="DejaVuSans-65" d="M 3597 1894 
L 3597 1613 
L 953 1613 
Q 991 1019 1311 708 
Q 1631 397 2203 397 
Q 2534 397 2845 478 
Q 3156 559 3463 722 
L 3463 178 
Q 3153 47 2828 -22 
Q 2503 -91 2169 -91 
Q 1331 -91 842 396 
Q 353 884 353 1716 
Q 353 2575 817 3079 
Q 1281 3584 2069 3584 
Q 2775 3584 3186 3129 
Q 3597 2675 3597 1894 
z
M 3022 2063 
Q 3016 2534 2758 2815 
Q 2500 3097 2075 3097 
Q 1594 3097 1305 2825 
Q 1016 2553 972 2059 
L 3022 2063 
z
" transform="scale(0.015625)"/>
       <path id="DejaVuSans-64" d="M 2906 2969 
L 2906 4863 
L 3481 4863 
L 3481 0 
L 2906 0 
L 2906 525 
Q 2725 213 2448 61 
Q 2172 -91 1784 -91 
Q 1150 -91 751 415 
Q 353 922 353 1747 
Q 353 2572 751 3078 
Q 1150 3584 1784 3584 
Q 2172 3584 2448 3432 
Q 2725 3281 2906 2969 
z
M 947 1747 
Q 947 1113 1208 752 
Q 1469 391 1925 391 
Q 2381 391 2643 752 
Q 2906 1113 2906 1747 
Q 2906 2381 2643 2742 
Q 2381 3103 1925 3103 
Q 1469 3103 1208 2742 
Q 947 2381 947 1747 
z
" transform="scale(0.015625)"/>
       <path id="DejaVuSans-63" d="M 3122 3366 
L 3122 2828 
Q 2878 2963 2633 3030 
Q 2388 3097 2138 3097 
Q 1578 3097 1268 2742 
Q 959 2388 959 1747 
Q 959 1106 1268 751 
Q 1578 397 2138 397 
Q 2388 397 2633 464 
Q 2878 531 3122 666 
L 3122 134 
Q 2881 22 2623 -34 
Q 2366 -91 2075 -91 
Q 1284 -91 818 406 
Q 353 903 353 1747 
Q 353 2603 823 3093 
Q 1294 3584 2113 3584 
Q 2378 3584 2631 3529 
Q 2884 3475 3122 3366 
z
" transform="scale(0.015625)"/>
       <path id="DejaVuSans-6b" d="M 581 4863 
L 1159 4863 
L 1159 1991 
L 2875 3500 
L 3609 3500 
L 1753 1863 
L 3688 0 
L 2938 0 
L 1159 1709 
L 1159 0 
L 581 0 
L 581 4863 
z
" transform="scale(0.015625)"/>
       <path id="DejaVuSans-73" d="M 2834 3397 
L 2834 2853 
Q 2591 2978 2328 3040 
Q 2066 3103 1784 3103 
Q 1356 3103 1142 2972 
Q 928 2841 928 2578 
Q 928 2378 1081 2264 
Q 1234 2150 1697 2047 
L 1894 2003 
Q 2506 1872 2764 1633 
Q 3022 1394 3022 966 
Q 3022 478 2636 193 
Q 2250 -91 1575 -91 
Q 1294 -91 989 -36 
Q 684 19 347 128 
L 347 722 
Q 666 556 975 473 
Q 1284 391 1588 391 
Q 1994 391 2212 530 
Q 2431 669 2431 922 
Q 2431 1156 2273 1281 
Q 2116 1406 1581 1522 
L 1381 1569 
Q 847 1681 609 1914 
Q 372 2147 372 2553 
Q 372 3047 722 3315 
Q 1072 3584 1716 3584 
Q 2034 3584 2315 3537 
Q 2597 3491 2834 3397 
z
" transform="scale(0.015625)"/>
       <path id="DejaVuSans-75" d="M 544 1381 
L 544 3500 
L 1119 3500 
L 1119 1403 
Q 1119 906 1312 657 
Q 1506 409 1894 409 
Q 2359 409 2629 706 
Q 2900 1003 2900 1516 
L 2900 3500 
L 3475 3500 
L 3475 0 
L 2900 0 
L 2900 538 
Q 2691 219 2414 64 
Q 2138 -91 1772 -91 
Q 1169 -91 856 284 
Q 544 659 544 1381 
z
M 1991 3584 
L 1991 3584 
z
" transform="scale(0.015625)"/>
      </defs>
      <use xlink:href="#DejaVuSans-52"/>
      <use xlink:href="#DejaVuSans-61" transform="translate(67.232422 0)"/>
      <use xlink:href="#DejaVuSans-74" transform="translate(128.511719 0)"/>
      <use xlink:href="#DejaVuSans-69" transform="translate(167.720703 0)"/>
      <use xlink:href="#DejaVuSans-6f" transform="translate(195.503906 0)"/>
      <use xlink:href="#DejaVuSans-20" transform="translate(256.685547 0)"/>
      <use xlink:href="#DejaVuSans-6f" transform="translate(288.472656 0)"/>
      <use xlink:href="#DejaVuSans-66" transform="translate(349.654297 0)"/>
      <use xlink:href="#DejaVuSans-20" transform="translate(384.859375 0)"/>
      <use xlink:href="#DejaVuSans-50" transform="translate(416.646484 0)"/>
      <use xlink:href="#DejaVuSans-72" transform="translate(475.199219 0)"/>
      <use xlink:href="#DejaVuSans-65" transform="translate(514.0625 0)"/>
      <use xlink:href="#DejaVuSans-64" transform="translate(575.585938 0)"/>
      <use xlink:href="#DejaVuSans-69" transform="translate(639.0625 0)"/>
      <use xlink:href="#DejaVuSans-63" transform="translate(666.845703 0)"/>
      <use xlink:href="#DejaVuSans-74" transform="translate(721.826172 0)"/>
      <use xlink:href="#DejaVuSans-65" transform="translate(761.035156 0)"/>
      <use xlink:href="#DejaVuSans-64" transform="translate(822.558594 0)"/>
      <use xlink:href="#DejaVuSans-20" transform="translate(886.035156 0)"/>
      <use xlink:href="#DejaVuSans-50" transform="translate(917.822266 0)"/>
      <use xlink:href="#DejaVuSans-6f" transform="translate(974.5 0)"/>
      <use xlink:href="#DejaVuSans-63" transform="translate(1035.681641 0)"/>
      <use xlink:href="#DejaVuSans-6b" transform="translate(1090.662109 0)"/>
      <use xlink:href="#DejaVuSans-65" transform="translate(1144.947266 0)"/>
      <use xlink:href="#DejaVuSans-74" transform="translate(1206.470703 0)"/>
      <use xlink:href="#DejaVuSans-20" transform="translate(1245.679688 0)"/>
      <use xlink:href="#DejaVuSans-52" transform="translate(1277.466797 0)"/>
      <use xlink:href="#DejaVuSans-65" transform="translate(1342.449219 0)"/>
      <use xlink:href="#DejaVuSans-73" transform="translate(1403.972656 0)"/>
      <use xlink:href="#DejaVuSans-69" transform="translate(1456.072266 0)"/>
      <use xlink:href="#DejaVuSans-64" transform="translate(1483.855469 0)"/>
      <use xlink:href="#DejaVuSans-75" transform="translate(1547.332031 0)"/>
      <use xlink:href="#DejaVuSans-65" transform="translate(1610.710938 0)"/>
      <use xlink:href="#DejaVuSans-73" transform="translate(1672.234375 0)"/>
     </g>
    </g>
   </g>
   <g id="matplotlib.axis_2">
    <g id="ytick_1">
     <g id="line2d_13">
      <path d="M 43.78125 139.5 
L 239.08125 139.5 
" clip-path="url(#pf0d0dbd451)" style="fill: none; stroke-dasharray: 2.96,1.28; stroke-dashoffset: 0; stroke: #b0b0b0; stroke-opacity: 0.5; stroke-width: 0.8"/>
     </g>
     <g id="line2d_14">
      <defs>
       <path id="m65c849fdbb" d="M 0 0 
L -3.5 0 
" style="stroke: #000000; stroke-width: 0.8"/>
      </defs>
      <g>
       <use xlink:href="#m65c849fdbb" x="43.78125" y="139.5" style="stroke: #000000; stroke-width: 0.8"/>
      </g>
     </g>
     <g id="text_8">
      <!-- 0.0 -->
      <g transform="translate(20.878125 143.299219) scale(0.1 -0.1)">
       <use xlink:href="#DejaVuSans-30"/>
       <use xlink:href="#DejaVuSans-2e" transform="translate(63.623047 0)"/>
       <use xlink:href="#DejaVuSans-30" transform="translate(95.410156 0)"/>
      </g>
     </g>
    </g>
    <g id="ytick_2">
     <g id="line2d_15">
      <path d="M 43.78125 114.166465 
L 239.08125 114.166465 
" clip-path="url(#pf0d0dbd451)" style="fill: none; stroke-dasharray: 2.96,1.28; stroke-dashoffset: 0; stroke: #b0b0b0; stroke-opacity: 0.5; stroke-width: 0.8"/>
     </g>
     <g id="line2d_16">
      <g>
       <use xlink:href="#m65c849fdbb" x="43.78125" y="114.166465" style="stroke: #000000; stroke-width: 0.8"/>
      </g>
     </g>
     <g id="text_9">
      <!-- 0.2 -->
      <g transform="translate(20.878125 117.965684) scale(0.1 -0.1)">
       <use xlink:href="#DejaVuSans-30"/>
       <use xlink:href="#DejaVuSans-2e" transform="translate(63.623047 0)"/>
       <use xlink:href="#DejaVuSans-32" transform="translate(95.410156 0)"/>
      </g>
     </g>
    </g>
    <g id="ytick_3">
     <g id="line2d_17">
      <path d="M 43.78125 88.83293 
L 239.08125 88.83293 
" clip-path="url(#pf0d0dbd451)" style="fill: none; stroke-dasharray: 2.96,1.28; stroke-dashoffset: 0; stroke: #b0b0b0; stroke-opacity: 0.5; stroke-width: 0.8"/>
     </g>
     <g id="line2d_18">
      <g>
       <use xlink:href="#m65c849fdbb" x="43.78125" y="88.83293" style="stroke: #000000; stroke-width: 0.8"/>
      </g>
     </g>
     <g id="text_10">
      <!-- 0.4 -->
      <g transform="translate(20.878125 92.632148) scale(0.1 -0.1)">
       <use xlink:href="#DejaVuSans-30"/>
       <use xlink:href="#DejaVuSans-2e" transform="translate(63.623047 0)"/>
       <use xlink:href="#DejaVuSans-34" transform="translate(95.410156 0)"/>
      </g>
     </g>
    </g>
    <g id="ytick_4">
     <g id="line2d_19">
      <path d="M 43.78125 63.499394 
L 239.08125 63.499394 
" clip-path="url(#pf0d0dbd451)" style="fill: none; stroke-dasharray: 2.96,1.28; stroke-dashoffset: 0; stroke: #b0b0b0; stroke-opacity: 0.5; stroke-width: 0.8"/>
     </g>
     <g id="line2d_20">
      <g>
       <use xlink:href="#m65c849fdbb" x="43.78125" y="63.499394" style="stroke: #000000; stroke-width: 0.8"/>
      </g>
     </g>
     <g id="text_11">
      <!-- 0.6 -->
      <g transform="translate(20.878125 67.298613) scale(0.1 -0.1)">
       <use xlink:href="#DejaVuSans-30"/>
       <use xlink:href="#DejaVuSans-2e" transform="translate(63.623047 0)"/>
       <use xlink:href="#DejaVuSans-36" transform="translate(95.410156 0)"/>
      </g>
     </g>
    </g>
    <g id="ytick_5">
     <g id="line2d_21">
      <path d="M 43.78125 38.165859 
L 239.08125 38.165859 
" clip-path="url(#pf0d0dbd451)" style="fill: none; stroke-dasharray: 2.96,1.28; stroke-dashoffset: 0; stroke: #b0b0b0; stroke-opacity: 0.5; stroke-width: 0.8"/>
     </g>
     <g id="line2d_22">
      <g>
       <use xlink:href="#m65c849fdbb" x="43.78125" y="38.165859" style="stroke: #000000; stroke-width: 0.8"/>
      </g>
     </g>
     <g id="text_12">
      <!-- 0.8 -->
      <g transform="translate(20.878125 41.965078) scale(0.1 -0.1)">
       <use xlink:href="#DejaVuSans-30"/>
       <use xlink:href="#DejaVuSans-2e" transform="translate(63.623047 0)"/>
       <use xlink:href="#DejaVuSans-38" transform="translate(95.410156 0)"/>
      </g>
     </g>
    </g>
    <g id="ytick_6">
     <g id="line2d_23">
      <path d="M 43.78125 12.832324 
L 239.08125 12.832324 
" clip-path="url(#pf0d0dbd451)" style="fill: none; stroke-dasharray: 2.96,1.28; stroke-dashoffset: 0; stroke: #b0b0b0; stroke-opacity: 0.5; stroke-width: 0.8"/>
     </g>
     <g id="line2d_24">
      <g>
       <use xlink:href="#m65c849fdbb" x="43.78125" y="12.832324" style="stroke: #000000; stroke-width: 0.8"/>
      </g>
     </g>
     <g id="text_13">
      <!-- 1.0 -->
      <g transform="translate(20.878125 16.631543) scale(0.1 -0.1)">
       <use xlink:href="#DejaVuSans-31"/>
       <use xlink:href="#DejaVuSans-2e" transform="translate(63.623047 0)"/>
       <use xlink:href="#DejaVuSans-30" transform="translate(95.410156 0)"/>
      </g>
     </g>
    </g>
    <g id="text_14">
     <!-- Fraction of proteins (&gt; ratio) -->
     <g transform="translate(14.798438 147.630469) rotate(-90) scale(0.1 -0.1)">
      <defs>
       <path id="DejaVuSans-46" d="M 628 4666 
L 3309 4666 
L 3309 4134 
L 1259 4134 
L 1259 2759 
L 3109 2759 
L 3109 2228 
L 1259 2228 
L 1259 0 
L 628 0 
L 628 4666 
z
" transform="scale(0.015625)"/>
       <path id="DejaVuSans-6e" d="M 3513 2113 
L 3513 0 
L 2938 0 
L 2938 2094 
Q 2938 2591 2744 2837 
Q 2550 3084 2163 3084 
Q 1697 3084 1428 2787 
Q 1159 2491 1159 1978 
L 1159 0 
L 581 0 
L 581 3500 
L 1159 3500 
L 1159 2956 
Q 1366 3272 1645 3428 
Q 1925 3584 2291 3584 
Q 2894 3584 3203 3211 
Q 3513 2838 3513 2113 
z
" transform="scale(0.015625)"/>
       <path id="DejaVuSans-70" d="M 1159 525 
L 1159 -1331 
L 581 -1331 
L 581 3500 
L 1159 3500 
L 1159 2969 
Q 1341 3281 1617 3432 
Q 1894 3584 2278 3584 
Q 2916 3584 3314 3078 
Q 3713 2572 3713 1747 
Q 3713 922 3314 415 
Q 2916 -91 2278 -91 
Q 1894 -91 1617 61 
Q 1341 213 1159 525 
z
M 3116 1747 
Q 3116 2381 2855 2742 
Q 2594 3103 2138 3103 
Q 1681 3103 1420 2742 
Q 1159 2381 1159 1747 
Q 1159 1113 1420 752 
Q 1681 391 2138 391 
Q 2594 391 2855 752 
Q 3116 1113 3116 1747 
z
" transform="scale(0.015625)"/>
       <path id="DejaVuSans-28" d="M 1984 4856 
Q 1566 4138 1362 3434 
Q 1159 2731 1159 2009 
Q 1159 1288 1364 580 
Q 1569 -128 1984 -844 
L 1484 -844 
Q 1016 -109 783 600 
Q 550 1309 550 2009 
Q 550 2706 781 3412 
Q 1013 4119 1484 4856 
L 1984 4856 
z
" transform="scale(0.015625)"/>
       <path id="DejaVuSans-3e" d="M 678 3150 
L 678 3719 
L 4684 2266 
L 4684 1747 
L 678 294 
L 678 863 
L 3897 2003 
L 678 3150 
z
" transform="scale(0.015625)"/>
       <path id="DejaVuSans-29" d="M 513 4856 
L 1013 4856 
Q 1481 4119 1714 3412 
Q 1947 2706 1947 2009 
Q 1947 1309 1714 600 
Q 1481 -109 1013 -844 
L 513 -844 
Q 928 -128 1133 580 
Q 1338 1288 1338 2009 
Q 1338 2731 1133 3434 
Q 928 4138 513 4856 
z
" transform="scale(0.015625)"/>
      </defs>
      <use xlink:href="#DejaVuSans-46"/>
      <use xlink:href="#DejaVuSans-72" transform="translate(50.269531 0)"/>
      <use xlink:href="#DejaVuSans-61" transform="translate(91.382812 0)"/>
      <use xlink:href="#DejaVuSans-63" transform="translate(152.662109 0)"/>
      <use xlink:href="#DejaVuSans-74" transform="translate(207.642578 0)"/>
      <use xlink:href="#DejaVuSans-69" transform="translate(246.851562 0)"/>
      <use xlink:href="#DejaVuSans-6f" transform="translate(274.634766 0)"/>
      <use xlink:href="#DejaVuSans-6e" transform="translate(335.816406 0)"/>
      <use xlink:href="#DejaVuSans-20" transform="translate(399.195312 0)"/>
      <use xlink:href="#DejaVuSans-6f" transform="translate(430.982422 0)"/>
      <use xlink:href="#DejaVuSans-66" transform="translate(492.164062 0)"/>
      <use xlink:href="#DejaVuSans-20" transform="translate(527.369141 0)"/>
      <use xlink:href="#DejaVuSans-70" transform="translate(559.15625 0)"/>
      <use xlink:href="#DejaVuSans-72" transform="translate(622.632812 0)"/>
      <use xlink:href="#DejaVuSans-6f" transform="translate(661.496094 0)"/>
      <use xlink:href="#DejaVuSans-74" transform="translate(722.677734 0)"/>
      <use xlink:href="#DejaVuSans-65" transform="translate(761.886719 0)"/>
      <use xlink:href="#DejaVuSans-69" transform="translate(823.410156 0)"/>
      <use xlink:href="#DejaVuSans-6e" transform="translate(851.193359 0)"/>
      <use xlink:href="#DejaVuSans-73" transform="translate(914.572266 0)"/>
      <use xlink:href="#DejaVuSans-20" transform="translate(966.671875 0)"/>
      <use xlink:href="#DejaVuSans-28" transform="translate(998.458984 0)"/>
      <use xlink:href="#DejaVuSans-3e" transform="translate(1037.472656 0)"/>
      <use xlink:href="#DejaVuSans-20" transform="translate(1121.261719 0)"/>
      <use xlink:href="#DejaVuSans-72" transform="translate(1153.048828 0)"/>
      <use xlink:href="#DejaVuSans-61" transform="translate(1194.162109 0)"/>
      <use xlink:href="#DejaVuSans-74" transform="translate(1255.441406 0)"/>
      <use xlink:href="#DejaVuSans-69" transform="translate(1294.650391 0)"/>
      <use xlink:href="#DejaVuSans-6f" transform="translate(1322.433594 0)"/>
      <use xlink:href="#DejaVuSans-29" transform="translate(1383.615234 0)"/>
     </g>
    </g>
   </g>
   <g id="line2d_25">
    <path d="M 52.658523 23.705905 
L 61.535795 37.154807 
L 70.413068 51.748297 
L 79.290341 63.289553 
L 88.167614 74.449281 
L 97.044886 82.509084 
L 105.922159 88.232021 
L 114.799432 93.954958 
L 123.676705 99.86866 
L 132.553977 103.302422 
L 141.43125 108.453066 
L 150.308523 111.266843 
L 159.185795 114.319076 
L 168.063068 116.894398 
L 176.940341 119.89894 
L 185.817614 123.094247 
L 194.694886 126.098789 
L 203.572159 129.198713 
L 212.449432 132.298637 
L 221.326705 135.446253 
L 230.203977 139.5 
" clip-path="url(#pf0d0dbd451)" style="fill: none; stroke: #fee0d2; stroke-width: 1.5; stroke-linecap: square"/>
   </g>
   <g id="line2d_26">
    <path d="M 52.658523 14.930734 
L 61.535795 17.744512 
L 70.413068 23.753596 
L 79.290341 31.336488 
L 88.167614 40.20704 
L 97.044886 50.269871 
L 105.922159 59.045042 
L 114.799432 66.723316 
L 123.676705 74.40159 
L 132.553977 80.362983 
L 141.43125 87.75511 
L 150.308523 92.810371 
L 159.185795 97.150265 
L 168.063068 101.10863 
L 176.940341 105.353142 
L 185.817614 109.359198 
L 194.694886 114.080621 
L 203.572159 118.65897 
L 212.449432 123.761923 
L 221.326705 129.627933 
L 230.203977 139.5 
" clip-path="url(#pf0d0dbd451)" style="fill: none; stroke: #fdceba; stroke-width: 1.5; stroke-linecap: square"/>
   </g>
   <g id="line2d_27">
    <path d="M 52.658523 14.644587 
L 61.535795 16.83838 
L 70.413068 21.035201 
L 79.290341 26.567373 
L 88.167614 33.387207 
L 97.044886 42.400833 
L 105.922159 50.460636 
L 114.799432 58.425057 
L 123.676705 66.05564 
L 132.553977 73.447767 
L 141.43125 80.410674 
L 150.308523 85.609008 
L 159.185795 90.568887 
L 168.063068 94.718017 
L 176.940341 98.962528 
L 185.817614 103.254731 
L 194.694886 108.596139 
L 203.572159 113.22218 
L 212.449432 119.46972 
L 221.326705 126.14648 
L 230.203977 139.5 
" clip-path="url(#pf0d0dbd451)" style="fill: none; stroke: #fcbba1; stroke-width: 1.5; stroke-linecap: square"/>
   </g>
   <g id="line2d_28">
    <path d="M 52.658523 14.453823 
L 61.535795 16.313777 
L 70.413068 19.079864 
L 79.290341 24.039743 
L 88.167614 30.096518 
L 97.044886 38.10863 
L 105.922159 45.453066 
L 114.799432 53.417487 
L 123.676705 60.332702 
L 132.553977 67.200227 
L 141.43125 75.450795 
L 150.308523 80.696821 
L 159.185795 86.467449 
L 168.063068 90.950416 
L 176.940341 94.527252 
L 185.817614 99.200984 
L 194.694886 104.351628 
L 203.572159 109.502271 
L 212.449432 116.274413 
L 221.326705 123.952687 
L 230.203977 139.5 
" clip-path="url(#pf0d0dbd451)" style="fill: none; stroke: #fca68a; stroke-width: 1.5; stroke-linecap: square"/>
   </g>
   <g id="line2d_29">
    <path d="M 52.658523 14.406132 
L 61.535795 16.027631 
L 70.413068 18.364497 
L 79.290341 22.418244 
L 88.167614 27.950416 
L 97.044886 35.294852 
L 105.922159 42.210068 
L 114.799432 49.602195 
L 123.676705 56.946631 
L 132.553977 63.671083 
L 141.43125 72.160106 
L 150.308523 77.644587 
L 159.185795 82.938304 
L 168.063068 87.564345 
L 176.940341 92.571915 
L 185.817614 96.864118 
L 194.694886 102.014762 
L 203.572159 107.35617 
L 212.449432 114.700606 
L 221.326705 122.617335 
L 230.203977 139.5 
" clip-path="url(#pf0d0dbd451)" style="fill: none; stroke: #fc9272; stroke-width: 1.5; stroke-linecap: square"/>
   </g>
   <g id="line2d_30">
    <path d="M 52.658523 14.406132 
L 61.535795 15.789175 
L 70.413068 17.839894 
L 79.290341 21.178274 
L 88.167614 26.328917 
L 97.044886 32.481075 
L 105.922159 39.443982 
L 114.799432 46.120742 
L 123.676705 53.512869 
L 132.553977 60.66654 
L 141.43125 68.917108 
L 150.308523 74.878501 
L 159.185795 80.362983 
L 168.063068 85.609008 
L 176.940341 90.568887 
L 185.817614 95.147237 
L 194.694886 99.916351 
L 203.572159 105.877744 
L 212.449432 113.317562 
L 221.326705 121.56813 
L 230.203977 139.5 
" clip-path="url(#pf0d0dbd451)" style="fill: none; stroke: #fc7e5e; stroke-width: 1.5; stroke-linecap: square"/>
   </g>
   <g id="line2d_31">
    <path d="M 52.658523 14.406132 
L 61.535795 15.741484 
L 70.413068 17.553747 
L 79.290341 20.367525 
L 88.167614 24.230507 
L 97.044886 30.096518 
L 105.922159 36.582513 
L 114.799432 43.354656 
L 123.676705 50.126798 
L 132.553977 57.614307 
L 141.43125 65.626419 
L 150.308523 72.350871 
L 159.185795 77.883043 
L 168.063068 83.510598 
L 176.940341 88.327403 
L 185.817614 93.001136 
L 194.694886 97.77025 
L 203.572159 104.113172 
L 212.449432 111.457608 
L 221.326705 120.614307 
L 230.203977 139.5 
" clip-path="url(#pf0d0dbd451)" style="fill: none; stroke: #fb6a4a; stroke-width: 1.5; stroke-linecap: square"/>
   </g>
   <g id="line2d_32">
    <path d="M 52.658523 14.406132 
L 61.535795 15.741484 
L 70.413068 17.362983 
L 79.290341 19.652157 
L 88.167614 23.419758 
L 97.044886 28.570401 
L 105.922159 34.961014 
L 114.799432 40.731643 
L 123.676705 47.503785 
L 132.553977 54.466692 
L 141.43125 62.574186 
L 150.308523 69.489402 
L 159.185795 74.973883 
L 168.063068 81.07835 
L 176.940341 86.801287 
L 185.817614 91.236563 
L 194.694886 95.862604 
L 203.572159 102.587055 
L 212.449432 110.265329 
L 221.326705 119.946631 
L 230.203977 139.5 
" clip-path="url(#pf0d0dbd451)" style="fill: none; stroke: #f5523b; stroke-width: 1.5; stroke-linecap: square"/>
   </g>
   <g id="line2d_33">
    <path d="M 52.658523 13.786147 
L 61.535795 14.644587 
L 70.413068 15.646101 
L 79.290341 17.506056 
L 88.167614 20.510598 
L 97.044886 24.898183 
L 105.922159 30.764194 
L 114.799432 36.487131 
L 123.676705 42.925435 
L 132.553977 50.031416 
L 141.43125 58.13891 
L 150.308523 65.340273 
L 159.185795 71.015519 
L 168.063068 77.692279 
L 176.940341 83.796745 
L 185.817614 88.661241 
L 194.694886 93.334974 
L 203.572159 100.154807 
L 212.449432 108.21461 
L 221.326705 118.22975 
L 230.203977 139.5 
" clip-path="url(#pf0d0dbd451)" style="fill: none; stroke: #ef3b2c; stroke-width: 1.5; stroke-linecap: square"/>
   </g>
   <g id="line2d_34">
    <path d="M 52.658523 13.786147 
L 61.535795 14.596896 
L 70.413068 15.407646 
L 79.290341 17.124527 
L 88.167614 19.652157 
L 97.044886 23.848978 
L 105.922159 29.524224 
L 114.799432 35.056397 
L 123.676705 40.922407 
L 132.553977 48.12377 
L 141.43125 55.992808 
L 150.308523 62.908024 
L 159.185795 69.870931 
L 168.063068 75.927706 
L 176.940341 82.366011 
L 185.817614 87.659727 
L 194.694886 92.571915 
L 203.572159 99.153293 
L 212.449432 107.165405 
L 221.326705 117.419001 
L 230.203977 139.5 
" clip-path="url(#pf0d0dbd451)" style="fill: none; stroke: #dd2a24; stroke-width: 1.5; stroke-linecap: square"/>
   </g>
   <g id="line2d_35">
    <path d="M 52.658523 13.5 
L 61.535795 14.119985 
L 70.413068 14.787661 
L 79.290341 16.170704 
L 88.167614 18.50757 
L 97.044886 21.893641 
L 105.922159 27.187358 
L 114.799432 32.433384 
L 123.676705 38.823997 
L 132.553977 45.405375 
L 141.43125 53.322104 
L 150.308523 60.571158 
L 159.185795 67.677139 
L 168.063068 73.686223 
L 176.940341 80.362983 
L 185.817614 85.752082 
L 194.694886 90.759652 
L 203.572159 97.197956 
L 212.449432 105.114686 
L 221.326705 116.13134 
L 230.203977 139.5 
" clip-path="url(#pf0d0dbd451)" style="fill: none; stroke: #cb181d; stroke-width: 1.5; stroke-linecap: square"/>
   </g>
   <g id="line2d_36">
    <path d="M 52.658523 13.5 
L 61.535795 14.072294 
L 70.413068 14.73997 
L 79.290341 16.075322 
L 88.167614 18.221423 
L 97.044886 21.41673 
L 105.922159 25.995079 
L 114.799432 30.954958 
L 123.676705 37.536336 
L 132.553977 43.688494 
L 141.43125 51.795988 
L 150.308523 58.901968 
L 159.185795 66.007949 
L 168.063068 72.446253 
L 176.940341 78.59841 
L 185.817614 84.798259 
L 194.694886 89.901211 
L 203.572159 96.244133 
L 212.449432 104.256245 
L 221.326705 115.415973 
L 230.203977 139.5 
" clip-path="url(#pf0d0dbd451)" style="fill: none; stroke: #b81419; stroke-width: 1.5; stroke-linecap: square"/>
   </g>
   <g id="line2d_37">
    <path d="M 52.658523 13.5 
L 61.535795 14.072294 
L 70.413068 14.692279 
L 79.290341 16.027631 
L 88.167614 17.887585 
L 97.044886 20.510598 
L 105.922159 24.707419 
L 114.799432 29.714989 
L 123.676705 35.771764 
L 132.553977 42.019304 
L 141.43125 49.983724 
L 150.308523 56.755867 
L 159.185795 63.861847 
L 168.063068 70.490916 
L 176.940341 77.263058 
L 185.817614 83.462907 
L 194.694886 89.138153 
L 203.572159 95.528766 
L 212.449432 103.350114 
L 221.326705 114.843679 
L 230.203977 139.5 
" clip-path="url(#pf0d0dbd451)" style="fill: none; stroke: #a50f15; stroke-width: 1.5; stroke-linecap: square"/>
   </g>
   <g id="line2d_38">
    <path d="M 52.658523 13.5 
L 61.535795 14.072294 
L 70.413068 14.644587 
L 79.290341 15.884557 
L 88.167614 17.553747 
L 97.044886 20.081378 
L 105.922159 23.801287 
L 114.799432 28.475019 
L 123.676705 34.150265 
L 132.553977 40.922407 
L 141.43125 48.934519 
L 150.308523 55.134368 
L 159.185795 62.383422 
L 168.063068 69.537093 
L 176.940341 76.023089 
L 185.817614 82.318319 
L 194.694886 88.088948 
L 203.572159 94.43187 
L 212.449432 102.539364 
L 221.326705 113.985238 
L 230.203977 139.5 
" clip-path="url(#pf0d0dbd451)" style="fill: none; stroke: #860811; stroke-width: 1.5; stroke-linecap: square"/>
   </g>
   <g id="line2d_39">
    <path d="M 52.658523 13.5 
L 61.535795 14.072294 
L 70.413068 14.501514 
L 79.290341 15.59841 
L 88.167614 16.933762 
L 97.044886 19.509084 
L 105.922159 22.895155 
L 114.799432 27.425814 
L 123.676705 32.528766 
L 132.553977 39.587055 
L 141.43125 47.599167 
L 150.308523 53.465178 
L 159.185795 60.523467 
L 168.063068 68.15405 
L 176.940341 74.640045 
L 185.817614 81.07835 
L 194.694886 87.087434 
L 203.572159 93.382665 
L 212.449432 101.680924 
L 221.326705 113.22218 
L 230.203977 139.5 
" clip-path="url(#pf0d0dbd451)" style="fill: none; stroke: #67000d; stroke-width: 1.5; stroke-linecap: square"/>
   </g>
   <g id="patch_3">
    <path d="M 43.78125 145.8 
L 43.78125 7.2 
" style="fill: none; stroke: #000000; stroke-width: 0.8; stroke-linejoin: miter; stroke-linecap: square"/>
   </g>
   <g id="patch_4">
    <path d="M 239.08125 145.8 
L 239.08125 7.2 
" style="fill: none; stroke: #000000; stroke-width: 0.8; stroke-linejoin: miter; stroke-linecap: square"/>
   </g>
   <g id="patch_5">
    <path d="M 43.78125 145.8 
L 239.08125 145.8 
" style="fill: none; stroke: #000000; stroke-width: 0.8; stroke-linejoin: miter; stroke-linecap: square"/>
   </g>
   <g id="patch_6">
    <path d="M 43.78125 7.2 
L 239.08125 7.2 
" style="fill: none; stroke: #000000; stroke-width: 0.8; stroke-linejoin: miter; stroke-linecap: square"/>
   </g>
   <g id="legend_1">
    <g id="line2d_40">
     <path d="M 174.639063 20.298438 
L 184.639063 20.298438 
L 194.639063 20.298438 
" style="fill: none; stroke: #fee0d2; stroke-width: 1.5; stroke-linecap: square"/>
    </g>
    <g id="text_15">
     <!-- n=1 -->
     <g transform="translate(202.639063 23.798438) scale(0.1 -0.1)">
      <defs>
       <path id="DejaVuSans-3d" d="M 678 2906 
L 4684 2906 
L 4684 2381 
L 678 2381 
L 678 2906 
z
M 678 1631 
L 4684 1631 
L 4684 1100 
L 678 1100 
L 678 1631 
z
" transform="scale(0.015625)"/>
      </defs>
      <use xlink:href="#DejaVuSans-6e"/>
      <use xlink:href="#DejaVuSans-3d" transform="translate(63.378906 0)"/>
      <use xlink:href="#DejaVuSans-31" transform="translate(147.167969 0)"/>
     </g>
    </g>
    <g id="line2d_41">
     <path d="M 174.639063 34.976562 
L 184.639063 34.976562 
L 194.639063 34.976562 
" style="fill: none; stroke: #67000d; stroke-width: 1.5; stroke-linecap: square"/>
    </g>
    <g id="text_16">
     <!-- n=15 -->
     <g transform="translate(202.639063 38.476562) scale(0.1 -0.1)">
      <defs>
       <path id="DejaVuSans-35" d="M 691 4666 
L 3169 4666 
L 3169 4134 
L 1269 4134 
L 1269 2991 
Q 1406 3038 1543 3061 
Q 1681 3084 1819 3084 
Q 2600 3084 3056 2656 
Q 3513 2228 3513 1497 
Q 3513 744 3044 326 
Q 2575 -91 1722 -91 
Q 1428 -91 1123 -41 
Q 819 9 494 109 
L 494 744 
Q 775 591 1075 516 
Q 1375 441 1709 441 
Q 2250 441 2565 725 
Q 2881 1009 2881 1497 
Q 2881 1984 2565 2268 
Q 2250 2553 1709 2553 
Q 1456 2553 1204 2497 
Q 953 2441 691 2322 
L 691 4666 
z
" transform="scale(0.015625)"/>
      </defs>
      <use xlink:href="#DejaVuSans-6e"/>
      <use xlink:href="#DejaVuSans-3d" transform="translate(63.378906 0)"/>
      <use xlink:href="#DejaVuSans-31" transform="translate(147.167969 0)"/>
      <use xlink:href="#DejaVuSans-35" transform="translate(210.791016 0)"/>
     </g>
    </g>
   </g>
  </g>
 </g>
 <defs>
  <clipPath id="pf0d0dbd451">
   <rect x="43.78125" y="7.2" width="195.3" height="138.6"/>
  </clipPath>
 </defs>
</svg>
