<?xml version="1.0" encoding="utf-8" standalone="no"?>
<!DOCTYPE svg PUBLIC "-//W3C//DTD SVG 1.1//EN"
  "http://www.w3.org/Graphics/SVG/1.1/DTD/svg11.dtd">
<svg xmlns:xlink="http://www.w3.org/1999/xlink" width="726.94375pt" height="392.514375pt" viewBox="0 0 726.94375 392.514375" xmlns="http://www.w3.org/2000/svg" version="1.1">
 <metadata>
  <rdf:RDF xmlns:dc="http://purl.org/dc/elements/1.1/" xmlns:cc="http://creativecommons.org/ns#" xmlns:rdf="http://www.w3.org/1999/02/22-rdf-syntax-ns#">
   <cc:Work>
    <dc:type rdf:resource="http://purl.org/dc/dcmitype/StillImage"/>
    <dc:date>2025-07-04T18:41:24.838895</dc:date>
    <dc:format>image/svg+xml</dc:format>
    <dc:creator>
     <cc:Agent>
      <dc:title>Matplotlib v3.9.4, https://matplotlib.org/</dc:title>
     </cc:Agent>
    </dc:creator>
   </cc:Work>
  </rdf:RDF>
 </metadata>
 <defs>
  <style type="text/css">*{stroke-linejoin: round; stroke-linecap: butt}</style>
 </defs>
 <g id="figure_1">
  <g id="patch_1">
   <path d="M 0 392.514375 
L 726.94375 392.514375 
L 726.94375 0 
L 0 0 
z
" style="fill: #ffffff"/>
  </g>
  <g id="axes_1">
   <g id="patch_2">
    <path d="M 50.14375 354.958125 
L 719.74375 354.958125 
L 719.74375 22.318125 
L 50.14375 22.318125 
z
" style="fill: #ffffff"/>
   </g>
   <g id="patch_3">
    <path d="M 80.580114 354.958125 
L 93.003119 354.958125 
L 93.003119 354.958125 
L 80.580114 354.958125 
z
" clip-path="url(#p0012087449)" style="fill: #1f77b4; opacity: 0.5"/>
   </g>
   <g id="patch_4">
    <path d="M 93.003119 354.958125 
L 105.426125 354.958125 
L 105.426125 85.727697 
L 93.003119 85.727697 
z
" clip-path="url(#p0012087449)" style="fill: #1f77b4; opacity: 0.5"/>
   </g>
   <g id="patch_5">
    <path d="M 105.426125 354.958125 
L 117.84913 354.958125 
L 117.84913 275.452459 
L 105.426125 275.452459 
z
" clip-path="url(#p0012087449)" style="fill: #1f77b4; opacity: 0.5"/>
   </g>
   <g id="patch_6">
    <path d="M 117.84913 354.958125 
L 130.272136 354.958125 
L 130.272136 287.306404 
L 117.84913 287.306404 
z
" clip-path="url(#p0012087449)" style="fill: #1f77b4; opacity: 0.5"/>
   </g>
   <g id="patch_7">
    <path d="M 130.272136 354.958125 
L 142.695141 354.958125 
L 142.695141 314.814954 
L 130.272136 314.814954 
z
" clip-path="url(#p0012087449)" style="fill: #1f77b4; opacity: 0.5"/>
   </g>
   <g id="patch_8">
    <path d="M 142.695141 354.958125 
L 155.118147 354.958125 
L 155.118147 338.707742 
L 142.695141 338.707742 
z
" clip-path="url(#p0012087449)" style="fill: #1f77b4; opacity: 0.5"/>
   </g>
   <g id="patch_9">
    <path d="M 155.118147 354.958125 
L 167.541153 354.958125 
L 167.541153 337.249111 
L 155.118147 337.249111 
z
" clip-path="url(#p0012087449)" style="fill: #1f77b4; opacity: 0.5"/>
   </g>
   <g id="patch_10">
    <path d="M 167.541153 354.958125 
L 179.964158 354.958125 
L 179.964158 345.651648 
L 167.541153 345.651648 
z
" clip-path="url(#p0012087449)" style="fill: #1f77b4; opacity: 0.5"/>
   </g>
   <g id="patch_11">
    <path d="M 179.964158 354.958125 
L 192.387164 354.958125 
L 192.387164 342.05643 
L 179.964158 342.05643 
z
" clip-path="url(#p0012087449)" style="fill: #1f77b4; opacity: 0.5"/>
   </g>
   <g id="patch_12">
    <path d="M 192.387164 354.958125 
L 204.810169 354.958125 
L 204.810169 345.692736 
L 192.387164 345.692736 
z
" clip-path="url(#p0012087449)" style="fill: #1f77b4; opacity: 0.5"/>
   </g>
   <g id="patch_13">
    <path d="M 204.810169 354.958125 
L 217.233175 354.958125 
L 217.233175 350.232982 
L 204.810169 350.232982 
z
" clip-path="url(#p0012087449)" style="fill: #1f77b4; opacity: 0.5"/>
   </g>
   <g id="patch_14">
    <path d="M 217.233175 354.958125 
L 229.65618 354.958125 
L 229.65618 349.061968 
L 217.233175 349.061968 
z
" clip-path="url(#p0012087449)" style="fill: #1f77b4; opacity: 0.5"/>
   </g>
   <g id="patch_15">
    <path d="M 229.65618 354.958125 
L 242.079186 354.958125 
L 242.079186 352.102495 
L 229.65618 352.102495 
z
" clip-path="url(#p0012087449)" style="fill: #1f77b4; opacity: 0.5"/>
   </g>
   <g id="patch_16">
    <path d="M 242.079186 354.958125 
L 254.502192 354.958125 
L 254.502192 351.301275 
L 242.079186 351.301275 
z
" clip-path="url(#p0012087449)" style="fill: #1f77b4; opacity: 0.5"/>
   </g>
   <g id="patch_17">
    <path d="M 254.502192 354.958125 
L 266.925197 354.958125 
L 266.925197 351.506716 
L 254.502192 351.506716 
z
" clip-path="url(#p0012087449)" style="fill: #1f77b4; opacity: 0.5"/>
   </g>
   <g id="patch_18">
    <path d="M 266.925197 354.958125 
L 279.348203 354.958125 
L 279.348203 353.396773 
L 266.925197 353.396773 
z
" clip-path="url(#p0012087449)" style="fill: #1f77b4; opacity: 0.5"/>
   </g>
   <g id="patch_19">
    <path d="M 279.348203 354.958125 
L 291.771208 354.958125 
L 291.771208 353.273509 
L 279.348203 353.273509 
z
" clip-path="url(#p0012087449)" style="fill: #1f77b4; opacity: 0.5"/>
   </g>
   <g id="patch_20">
    <path d="M 291.771208 354.958125 
L 304.194214 354.958125 
L 304.194214 353.355685 
L 291.771208 353.355685 
z
" clip-path="url(#p0012087449)" style="fill: #1f77b4; opacity: 0.5"/>
   </g>
   <g id="patch_21">
    <path d="M 304.194214 354.958125 
L 316.617219 354.958125 
L 316.617219 353.848744 
L 304.194214 353.848744 
z
" clip-path="url(#p0012087449)" style="fill: #1f77b4; opacity: 0.5"/>
   </g>
   <g id="patch_22">
    <path d="M 316.617219 354.958125 
L 329.040225 354.958125 
L 329.040225 353.869288 
L 316.617219 353.869288 
z
" clip-path="url(#p0012087449)" style="fill: #1f77b4; opacity: 0.5"/>
   </g>
   <g id="patch_23">
    <path d="M 329.040225 354.958125 
L 341.463231 354.958125 
L 341.463231 354.321258 
L 329.040225 354.321258 
z
" clip-path="url(#p0012087449)" style="fill: #1f77b4; opacity: 0.5"/>
   </g>
   <g id="patch_24">
    <path d="M 341.463231 354.958125 
L 353.886236 354.958125 
L 353.886236 354.423978 
L 341.463231 354.423978 
z
" clip-path="url(#p0012087449)" style="fill: #1f77b4; opacity: 0.5"/>
   </g>
   <g id="patch_25">
    <path d="M 353.886236 354.958125 
L 366.309242 354.958125 
L 366.309242 354.403434 
L 353.886236 354.403434 
z
" clip-path="url(#p0012087449)" style="fill: #1f77b4; opacity: 0.5"/>
   </g>
   <g id="patch_26">
    <path d="M 366.309242 354.958125 
L 378.732247 354.958125 
L 378.732247 354.485611 
L 366.309242 354.485611 
z
" clip-path="url(#p0012087449)" style="fill: #1f77b4; opacity: 0.5"/>
   </g>
   <g id="patch_27">
    <path d="M 378.732247 354.958125 
L 391.155253 354.958125 
L 391.155253 354.465067 
L 378.732247 354.465067 
z
" clip-path="url(#p0012087449)" style="fill: #1f77b4; opacity: 0.5"/>
   </g>
   <g id="patch_28">
    <path d="M 391.155253 354.958125 
L 403.578258 354.958125 
L 403.578258 354.608875 
L 391.155253 354.608875 
z
" clip-path="url(#p0012087449)" style="fill: #1f77b4; opacity: 0.5"/>
   </g>
   <g id="patch_29">
    <path d="M 403.578258 354.958125 
L 416.001264 354.958125 
L 416.001264 354.547243 
L 403.578258 354.547243 
z
" clip-path="url(#p0012087449)" style="fill: #1f77b4; opacity: 0.5"/>
   </g>
   <g id="patch_30">
    <path d="M 416.001264 354.958125 
L 428.424269 354.958125 
L 428.424269 354.793772 
L 416.001264 354.793772 
z
" clip-path="url(#p0012087449)" style="fill: #1f77b4; opacity: 0.5"/>
   </g>
   <g id="patch_31">
    <path d="M 428.424269 354.958125 
L 440.847275 354.958125 
L 440.847275 354.875949 
L 428.424269 354.875949 
z
" clip-path="url(#p0012087449)" style="fill: #1f77b4; opacity: 0.5"/>
   </g>
   <g id="patch_32">
    <path d="M 440.847275 354.958125 
L 453.270281 354.958125 
L 453.270281 354.814316 
L 440.847275 354.814316 
z
" clip-path="url(#p0012087449)" style="fill: #1f77b4; opacity: 0.5"/>
   </g>
   <g id="patch_33">
    <path d="M 453.270281 354.958125 
L 465.693286 354.958125 
L 465.693286 354.73214 
L 453.270281 354.73214 
z
" clip-path="url(#p0012087449)" style="fill: #1f77b4; opacity: 0.5"/>
   </g>
   <g id="patch_34">
    <path d="M 465.693286 354.958125 
L 478.116292 354.958125 
L 478.116292 354.73214 
L 465.693286 354.73214 
z
" clip-path="url(#p0012087449)" style="fill: #1f77b4; opacity: 0.5"/>
   </g>
   <g id="patch_35">
    <path d="M 478.116292 354.958125 
L 490.539297 354.958125 
L 490.539297 354.83486 
L 478.116292 354.83486 
z
" clip-path="url(#p0012087449)" style="fill: #1f77b4; opacity: 0.5"/>
   </g>
   <g id="patch_36">
    <path d="M 490.539297 354.958125 
L 502.962303 354.958125 
L 502.962303 354.875949 
L 490.539297 354.875949 
z
" clip-path="url(#p0012087449)" style="fill: #1f77b4; opacity: 0.5"/>
   </g>
   <g id="patch_37">
    <path d="M 502.962303 354.958125 
L 515.385308 354.958125 
L 515.385308 354.875949 
L 502.962303 354.875949 
z
" clip-path="url(#p0012087449)" style="fill: #1f77b4; opacity: 0.5"/>
   </g>
   <g id="patch_38">
    <path d="M 515.385308 354.958125 
L 527.808314 354.958125 
L 527.808314 354.73214 
L 515.385308 354.73214 
z
" clip-path="url(#p0012087449)" style="fill: #1f77b4; opacity: 0.5"/>
   </g>
   <g id="patch_39">
    <path d="M 527.808314 354.958125 
L 540.23132 354.958125 
L 540.23132 354.793772 
L 527.808314 354.793772 
z
" clip-path="url(#p0012087449)" style="fill: #1f77b4; opacity: 0.5"/>
   </g>
   <g id="patch_40">
    <path d="M 540.23132 354.958125 
L 552.654325 354.958125 
L 552.654325 354.917037 
L 540.23132 354.917037 
z
" clip-path="url(#p0012087449)" style="fill: #1f77b4; opacity: 0.5"/>
   </g>
   <g id="patch_41">
    <path d="M 552.654325 354.958125 
L 565.077331 354.958125 
L 565.077331 354.937581 
L 552.654325 354.937581 
z
" clip-path="url(#p0012087449)" style="fill: #1f77b4; opacity: 0.5"/>
   </g>
   <g id="patch_42">
    <path d="M 565.077331 354.958125 
L 577.500336 354.958125 
L 577.500336 354.958125 
L 565.077331 354.958125 
z
" clip-path="url(#p0012087449)" style="fill: #1f77b4; opacity: 0.5"/>
   </g>
   <g id="patch_43">
    <path d="M 577.500336 354.958125 
L 589.923342 354.958125 
L 589.923342 354.958125 
L 577.500336 354.958125 
z
" clip-path="url(#p0012087449)" style="fill: #1f77b4; opacity: 0.5"/>
   </g>
   <g id="patch_44">
    <path d="M 589.923342 354.958125 
L 602.346347 354.958125 
L 602.346347 354.896493 
L 589.923342 354.896493 
z
" clip-path="url(#p0012087449)" style="fill: #1f77b4; opacity: 0.5"/>
   </g>
   <g id="patch_45">
    <path d="M 602.346347 354.958125 
L 614.769353 354.958125 
L 614.769353 354.937581 
L 602.346347 354.937581 
z
" clip-path="url(#p0012087449)" style="fill: #1f77b4; opacity: 0.5"/>
   </g>
   <g id="patch_46">
    <path d="M 614.769353 354.958125 
L 627.192359 354.958125 
L 627.192359 354.958125 
L 614.769353 354.958125 
z
" clip-path="url(#p0012087449)" style="fill: #1f77b4; opacity: 0.5"/>
   </g>
   <g id="patch_47">
    <path d="M 627.192359 354.958125 
L 639.615364 354.958125 
L 639.615364 354.937581 
L 627.192359 354.937581 
z
" clip-path="url(#p0012087449)" style="fill: #1f77b4; opacity: 0.5"/>
   </g>
   <g id="patch_48">
    <path d="M 639.615364 354.958125 
L 652.03837 354.958125 
L 652.03837 354.814316 
L 639.615364 354.814316 
z
" clip-path="url(#p0012087449)" style="fill: #1f77b4; opacity: 0.5"/>
   </g>
   <g id="patch_49">
    <path d="M 652.03837 354.958125 
L 664.461375 354.958125 
L 664.461375 354.83486 
L 652.03837 354.83486 
z
" clip-path="url(#p0012087449)" style="fill: #1f77b4; opacity: 0.5"/>
   </g>
   <g id="patch_50">
    <path d="M 664.461375 354.958125 
L 676.884381 354.958125 
L 676.884381 354.875949 
L 664.461375 354.875949 
z
" clip-path="url(#p0012087449)" style="fill: #1f77b4; opacity: 0.5"/>
   </g>
   <g id="patch_51">
    <path d="M 676.884381 354.958125 
L 689.307386 354.958125 
L 689.307386 354.896493 
L 676.884381 354.896493 
z
" clip-path="url(#p0012087449)" style="fill: #1f77b4; opacity: 0.5"/>
   </g>
   <g id="patch_52">
    <path d="M 80.580114 354.958125 
L 93.003119 354.958125 
L 93.003119 354.958125 
L 80.580114 354.958125 
z
" clip-path="url(#p0012087449)" style="fill: #ff7f0e; opacity: 0.5"/>
   </g>
   <g id="patch_53">
    <path d="M 93.003119 354.958125 
L 105.426125 354.958125 
L 105.426125 38.158125 
L 93.003119 38.158125 
z
" clip-path="url(#p0012087449)" style="fill: #ff7f0e; opacity: 0.5"/>
   </g>
   <g id="patch_54">
    <path d="M 105.426125 354.958125 
L 117.84913 354.958125 
L 117.84913 267.747944 
L 105.426125 267.747944 
z
" clip-path="url(#p0012087449)" style="fill: #ff7f0e; opacity: 0.5"/>
   </g>
   <g id="patch_55">
    <path d="M 117.84913 354.958125 
L 130.272136 354.958125 
L 130.272136 282.972593 
L 117.84913 282.972593 
z
" clip-path="url(#p0012087449)" style="fill: #ff7f0e; opacity: 0.5"/>
   </g>
   <g id="patch_56">
    <path d="M 130.272136 354.958125 
L 142.695141 354.958125 
L 142.695141 326.842921 
L 130.272136 326.842921 
z
" clip-path="url(#p0012087449)" style="fill: #ff7f0e; opacity: 0.5"/>
   </g>
   <g id="patch_57">
    <path d="M 142.695141 354.958125 
L 155.118147 354.958125 
L 155.118147 341.749284 
L 142.695141 341.749284 
z
" clip-path="url(#p0012087449)" style="fill: #ff7f0e; opacity: 0.5"/>
   </g>
   <g id="patch_58">
    <path d="M 155.118147 354.958125 
L 167.541153 354.958125 
L 167.541153 344.030329 
L 155.118147 344.030329 
z
" clip-path="url(#p0012087449)" style="fill: #ff7f0e; opacity: 0.5"/>
   </g>
   <g id="patch_59">
    <path d="M 167.541153 354.958125 
L 179.964158 354.958125 
L 179.964158 341.112713 
L 167.541153 341.112713 
z
" clip-path="url(#p0012087449)" style="fill: #ff7f0e; opacity: 0.5"/>
   </g>
   <g id="patch_60">
    <path d="M 179.964158 354.958125 
L 192.387164 354.958125 
L 192.387164 349.335084 
L 179.964158 349.335084 
z
" clip-path="url(#p0012087449)" style="fill: #ff7f0e; opacity: 0.5"/>
   </g>
   <g id="patch_61">
    <path d="M 192.387164 354.958125 
L 204.810169 354.958125 
L 204.810169 352.305747 
L 192.387164 352.305747 
z
" clip-path="url(#p0012087449)" style="fill: #ff7f0e; opacity: 0.5"/>
   </g>
   <g id="patch_62">
    <path d="M 204.810169 354.958125 
L 217.233175 354.958125 
L 217.233175 352.995365 
L 204.810169 352.995365 
z
" clip-path="url(#p0012087449)" style="fill: #ff7f0e; opacity: 0.5"/>
   </g>
   <g id="patch_63">
    <path d="M 217.233175 354.958125 
L 229.65618 354.958125 
L 229.65618 354.268507 
L 217.233175 354.268507 
z
" clip-path="url(#p0012087449)" style="fill: #ff7f0e; opacity: 0.5"/>
   </g>
   <g id="patch_64">
    <path d="M 229.65618 354.958125 
L 242.079186 354.958125 
L 242.079186 354.427649 
L 229.65618 354.427649 
z
" clip-path="url(#p0012087449)" style="fill: #ff7f0e; opacity: 0.5"/>
   </g>
   <g id="patch_65">
    <path d="M 242.079186 354.958125 
L 254.502192 354.958125 
L 254.502192 353.366698 
L 242.079186 353.366698 
z
" clip-path="url(#p0012087449)" style="fill: #ff7f0e; opacity: 0.5"/>
   </g>
   <g id="patch_66">
    <path d="M 254.502192 354.958125 
L 266.925197 354.958125 
L 266.925197 354.958125 
L 254.502192 354.958125 
z
" clip-path="url(#p0012087449)" style="fill: #ff7f0e; opacity: 0.5"/>
   </g>
   <g id="patch_67">
    <path d="M 266.925197 354.958125 
L 279.348203 354.958125 
L 279.348203 354.958125 
L 266.925197 354.958125 
z
" clip-path="url(#p0012087449)" style="fill: #ff7f0e; opacity: 0.5"/>
   </g>
   <g id="patch_68">
    <path d="M 279.348203 354.958125 
L 291.771208 354.958125 
L 291.771208 354.958125 
L 279.348203 354.958125 
z
" clip-path="url(#p0012087449)" style="fill: #ff7f0e; opacity: 0.5"/>
   </g>
   <g id="patch_69">
    <path d="M 291.771208 354.958125 
L 304.194214 354.958125 
L 304.194214 354.958125 
L 291.771208 354.958125 
z
" clip-path="url(#p0012087449)" style="fill: #ff7f0e; opacity: 0.5"/>
   </g>
   <g id="patch_70">
    <path d="M 304.194214 354.958125 
L 316.617219 354.958125 
L 316.617219 354.958125 
L 304.194214 354.958125 
z
" clip-path="url(#p0012087449)" style="fill: #ff7f0e; opacity: 0.5"/>
   </g>
   <g id="patch_71">
    <path d="M 316.617219 354.958125 
L 329.040225 354.958125 
L 329.040225 354.958125 
L 316.617219 354.958125 
z
" clip-path="url(#p0012087449)" style="fill: #ff7f0e; opacity: 0.5"/>
   </g>
   <g id="patch_72">
    <path d="M 329.040225 354.958125 
L 341.463231 354.958125 
L 341.463231 354.958125 
L 329.040225 354.958125 
z
" clip-path="url(#p0012087449)" style="fill: #ff7f0e; opacity: 0.5"/>
   </g>
   <g id="patch_73">
    <path d="M 341.463231 354.958125 
L 353.886236 354.958125 
L 353.886236 354.958125 
L 341.463231 354.958125 
z
" clip-path="url(#p0012087449)" style="fill: #ff7f0e; opacity: 0.5"/>
   </g>
   <g id="patch_74">
    <path d="M 353.886236 354.958125 
L 366.309242 354.958125 
L 366.309242 354.958125 
L 353.886236 354.958125 
z
" clip-path="url(#p0012087449)" style="fill: #ff7f0e; opacity: 0.5"/>
   </g>
   <g id="patch_75">
    <path d="M 366.309242 354.958125 
L 378.732247 354.958125 
L 378.732247 354.958125 
L 366.309242 354.958125 
z
" clip-path="url(#p0012087449)" style="fill: #ff7f0e; opacity: 0.5"/>
   </g>
   <g id="patch_76">
    <path d="M 378.732247 354.958125 
L 391.155253 354.958125 
L 391.155253 354.958125 
L 378.732247 354.958125 
z
" clip-path="url(#p0012087449)" style="fill: #ff7f0e; opacity: 0.5"/>
   </g>
   <g id="patch_77">
    <path d="M 391.155253 354.958125 
L 403.578258 354.958125 
L 403.578258 354.958125 
L 391.155253 354.958125 
z
" clip-path="url(#p0012087449)" style="fill: #ff7f0e; opacity: 0.5"/>
   </g>
   <g id="patch_78">
    <path d="M 403.578258 354.958125 
L 416.001264 354.958125 
L 416.001264 354.958125 
L 403.578258 354.958125 
z
" clip-path="url(#p0012087449)" style="fill: #ff7f0e; opacity: 0.5"/>
   </g>
   <g id="patch_79">
    <path d="M 416.001264 354.958125 
L 428.424269 354.958125 
L 428.424269 354.958125 
L 416.001264 354.958125 
z
" clip-path="url(#p0012087449)" style="fill: #ff7f0e; opacity: 0.5"/>
   </g>
   <g id="patch_80">
    <path d="M 428.424269 354.958125 
L 440.847275 354.958125 
L 440.847275 354.958125 
L 428.424269 354.958125 
z
" clip-path="url(#p0012087449)" style="fill: #ff7f0e; opacity: 0.5"/>
   </g>
   <g id="patch_81">
    <path d="M 440.847275 354.958125 
L 453.270281 354.958125 
L 453.270281 354.958125 
L 440.847275 354.958125 
z
" clip-path="url(#p0012087449)" style="fill: #ff7f0e; opacity: 0.5"/>
   </g>
   <g id="patch_82">
    <path d="M 453.270281 354.958125 
L 465.693286 354.958125 
L 465.693286 354.958125 
L 453.270281 354.958125 
z
" clip-path="url(#p0012087449)" style="fill: #ff7f0e; opacity: 0.5"/>
   </g>
   <g id="patch_83">
    <path d="M 465.693286 354.958125 
L 478.116292 354.958125 
L 478.116292 354.958125 
L 465.693286 354.958125 
z
" clip-path="url(#p0012087449)" style="fill: #ff7f0e; opacity: 0.5"/>
   </g>
   <g id="patch_84">
    <path d="M 478.116292 354.958125 
L 490.539297 354.958125 
L 490.539297 354.958125 
L 478.116292 354.958125 
z
" clip-path="url(#p0012087449)" style="fill: #ff7f0e; opacity: 0.5"/>
   </g>
   <g id="patch_85">
    <path d="M 490.539297 354.958125 
L 502.962303 354.958125 
L 502.962303 354.958125 
L 490.539297 354.958125 
z
" clip-path="url(#p0012087449)" style="fill: #ff7f0e; opacity: 0.5"/>
   </g>
   <g id="patch_86">
    <path d="M 502.962303 354.958125 
L 515.385308 354.958125 
L 515.385308 354.958125 
L 502.962303 354.958125 
z
" clip-path="url(#p0012087449)" style="fill: #ff7f0e; opacity: 0.5"/>
   </g>
   <g id="patch_87">
    <path d="M 515.385308 354.958125 
L 527.808314 354.958125 
L 527.808314 354.958125 
L 515.385308 354.958125 
z
" clip-path="url(#p0012087449)" style="fill: #ff7f0e; opacity: 0.5"/>
   </g>
   <g id="patch_88">
    <path d="M 527.808314 354.958125 
L 540.23132 354.958125 
L 540.23132 354.958125 
L 527.808314 354.958125 
z
" clip-path="url(#p0012087449)" style="fill: #ff7f0e; opacity: 0.5"/>
   </g>
   <g id="patch_89">
    <path d="M 540.23132 354.958125 
L 552.654325 354.958125 
L 552.654325 354.958125 
L 540.23132 354.958125 
z
" clip-path="url(#p0012087449)" style="fill: #ff7f0e; opacity: 0.5"/>
   </g>
   <g id="patch_90">
    <path d="M 552.654325 354.958125 
L 565.077331 354.958125 
L 565.077331 354.958125 
L 552.654325 354.958125 
z
" clip-path="url(#p0012087449)" style="fill: #ff7f0e; opacity: 0.5"/>
   </g>
   <g id="patch_91">
    <path d="M 565.077331 354.958125 
L 577.500336 354.958125 
L 577.500336 354.958125 
L 565.077331 354.958125 
z
" clip-path="url(#p0012087449)" style="fill: #ff7f0e; opacity: 0.5"/>
   </g>
   <g id="patch_92">
    <path d="M 577.500336 354.958125 
L 589.923342 354.958125 
L 589.923342 354.958125 
L 577.500336 354.958125 
z
" clip-path="url(#p0012087449)" style="fill: #ff7f0e; opacity: 0.5"/>
   </g>
   <g id="patch_93">
    <path d="M 589.923342 354.958125 
L 602.346347 354.958125 
L 602.346347 354.958125 
L 589.923342 354.958125 
z
" clip-path="url(#p0012087449)" style="fill: #ff7f0e; opacity: 0.5"/>
   </g>
   <g id="patch_94">
    <path d="M 602.346347 354.958125 
L 614.769353 354.958125 
L 614.769353 354.958125 
L 602.346347 354.958125 
z
" clip-path="url(#p0012087449)" style="fill: #ff7f0e; opacity: 0.5"/>
   </g>
   <g id="patch_95">
    <path d="M 614.769353 354.958125 
L 627.192359 354.958125 
L 627.192359 354.958125 
L 614.769353 354.958125 
z
" clip-path="url(#p0012087449)" style="fill: #ff7f0e; opacity: 0.5"/>
   </g>
   <g id="patch_96">
    <path d="M 627.192359 354.958125 
L 639.615364 354.958125 
L 639.615364 354.958125 
L 627.192359 354.958125 
z
" clip-path="url(#p0012087449)" style="fill: #ff7f0e; opacity: 0.5"/>
   </g>
   <g id="patch_97">
    <path d="M 639.615364 354.958125 
L 652.03837 354.958125 
L 652.03837 354.958125 
L 639.615364 354.958125 
z
" clip-path="url(#p0012087449)" style="fill: #ff7f0e; opacity: 0.5"/>
   </g>
   <g id="patch_98">
    <path d="M 652.03837 354.958125 
L 664.461375 354.958125 
L 664.461375 354.958125 
L 652.03837 354.958125 
z
" clip-path="url(#p0012087449)" style="fill: #ff7f0e; opacity: 0.5"/>
   </g>
   <g id="patch_99">
    <path d="M 664.461375 354.958125 
L 676.884381 354.958125 
L 676.884381 354.958125 
L 664.461375 354.958125 
z
" clip-path="url(#p0012087449)" style="fill: #ff7f0e; opacity: 0.5"/>
   </g>
   <g id="patch_100">
    <path d="M 676.884381 354.958125 
L 689.307386 354.958125 
L 689.307386 354.958125 
L 676.884381 354.958125 
z
" clip-path="url(#p0012087449)" style="fill: #ff7f0e; opacity: 0.5"/>
   </g>
   <g id="matplotlib.axis_1">
    <g id="xtick_1">
     <g id="line2d_1">
      <path d="M 80.580114 354.958125 
L 80.580114 22.318125 
" clip-path="url(#p0012087449)" style="fill: none; stroke: #b0b0b0; stroke-opacity: 0.3; stroke-width: 0.8; stroke-linecap: square"/>
     </g>
     <g id="line2d_2">
      <defs>
       <path id="m5ff05ae18c" d="M 0 0 
L 0 3.5 
" style="stroke: #000000; stroke-width: 0.8"/>
      </defs>
      <g>
       <use xlink:href="#m5ff05ae18c" x="80.580114" y="354.958125" style="stroke: #000000; stroke-width: 0.8"/>
      </g>
     </g>
     <g id="text_1">
      <!-- 0 -->
      <g transform="translate(77.398864 369.556562) scale(0.1 -0.1)">
       <defs>
        <path id="DejaVuSans-30" d="M 2034 4250 
Q 1547 4250 1301 3770 
Q 1056 3291 1056 2328 
Q 1056 1369 1301 889 
Q 1547 409 2034 409 
Q 2525 409 2770 889 
Q 3016 1369 3016 2328 
Q 3016 3291 2770 3770 
Q 2525 4250 2034 4250 
z
M 2034 4750 
Q 2819 4750 3233 4129 
Q 3647 3509 3647 2328 
Q 3647 1150 3233 529 
Q 2819 -91 2034 -91 
Q 1250 -91 836 529 
Q 422 1150 422 2328 
Q 422 3509 836 4129 
Q 1250 4750 2034 4750 
z
" transform="scale(0.015625)"/>
       </defs>
       <use xlink:href="#DejaVuSans-30"/>
      </g>
     </g>
    </g>
    <g id="xtick_2">
     <g id="line2d_3">
      <path d="M 175.69375 354.958125 
L 175.69375 22.318125 
" clip-path="url(#p0012087449)" style="fill: none; stroke: #b0b0b0; stroke-opacity: 0.3; stroke-width: 0.8; stroke-linecap: square"/>
     </g>
     <g id="line2d_4">
      <g>
       <use xlink:href="#m5ff05ae18c" x="175.69375" y="354.958125" style="stroke: #000000; stroke-width: 0.8"/>
      </g>
     </g>
     <g id="text_2">
      <!-- 20 -->
      <g transform="translate(169.33125 369.556562) scale(0.1 -0.1)">
       <defs>
        <path id="DejaVuSans-32" d="M 1228 531 
L 3431 531 
L 3431 0 
L 469 0 
L 469 531 
Q 828 903 1448 1529 
Q 2069 2156 2228 2338 
Q 2531 2678 2651 2914 
Q 2772 3150 2772 3378 
Q 2772 3750 2511 3984 
Q 2250 4219 1831 4219 
Q 1534 4219 1204 4116 
Q 875 4013 500 3803 
L 500 4441 
Q 881 4594 1212 4672 
Q 1544 4750 1819 4750 
Q 2544 4750 2975 4387 
Q 3406 4025 3406 3419 
Q 3406 3131 3298 2873 
Q 3191 2616 2906 2266 
Q 2828 2175 2409 1742 
Q 1991 1309 1228 531 
z
" transform="scale(0.015625)"/>
       </defs>
       <use xlink:href="#DejaVuSans-32"/>
       <use xlink:href="#DejaVuSans-30" x="63.623047"/>
      </g>
     </g>
    </g>
    <g id="xtick_3">
     <g id="line2d_5">
      <path d="M 270.807386 354.958125 
L 270.807386 22.318125 
" clip-path="url(#p0012087449)" style="fill: none; stroke: #b0b0b0; stroke-opacity: 0.3; stroke-width: 0.8; stroke-linecap: square"/>
     </g>
     <g id="line2d_6">
      <g>
       <use xlink:href="#m5ff05ae18c" x="270.807386" y="354.958125" style="stroke: #000000; stroke-width: 0.8"/>
      </g>
     </g>
     <g id="text_3">
      <!-- 40 -->
      <g transform="translate(264.444886 369.556562) scale(0.1 -0.1)">
       <defs>
        <path id="DejaVuSans-34" d="M 2419 4116 
L 825 1625 
L 2419 1625 
L 2419 4116 
z
M 2253 4666 
L 3047 4666 
L 3047 1625 
L 3713 1625 
L 3713 1100 
L 3047 1100 
L 3047 0 
L 2419 0 
L 2419 1100 
L 313 1100 
L 313 1709 
L 2253 4666 
z
" transform="scale(0.015625)"/>
       </defs>
       <use xlink:href="#DejaVuSans-34"/>
       <use xlink:href="#DejaVuSans-30" x="63.623047"/>
      </g>
     </g>
    </g>
    <g id="xtick_4">
     <g id="line2d_7">
      <path d="M 365.921023 354.958125 
L 365.921023 22.318125 
" clip-path="url(#p0012087449)" style="fill: none; stroke: #b0b0b0; stroke-opacity: 0.3; stroke-width: 0.8; stroke-linecap: square"/>
     </g>
     <g id="line2d_8">
      <g>
       <use xlink:href="#m5ff05ae18c" x="365.921023" y="354.958125" style="stroke: #000000; stroke-width: 0.8"/>
      </g>
     </g>
     <g id="text_4">
      <!-- 60 -->
      <g transform="translate(359.558523 369.556562) scale(0.1 -0.1)">
       <defs>
        <path id="DejaVuSans-36" d="M 2113 2584 
Q 1688 2584 1439 2293 
Q 1191 2003 1191 1497 
Q 1191 994 1439 701 
Q 1688 409 2113 409 
Q 2538 409 2786 701 
Q 3034 994 3034 1497 
Q 3034 2003 2786 2293 
Q 2538 2584 2113 2584 
z
M 3366 4563 
L 3366 3988 
Q 3128 4100 2886 4159 
Q 2644 4219 2406 4219 
Q 1781 4219 1451 3797 
Q 1122 3375 1075 2522 
Q 1259 2794 1537 2939 
Q 1816 3084 2150 3084 
Q 2853 3084 3261 2657 
Q 3669 2231 3669 1497 
Q 3669 778 3244 343 
Q 2819 -91 2113 -91 
Q 1303 -91 875 529 
Q 447 1150 447 2328 
Q 447 3434 972 4092 
Q 1497 4750 2381 4750 
Q 2619 4750 2861 4703 
Q 3103 4656 3366 4563 
z
" transform="scale(0.015625)"/>
       </defs>
       <use xlink:href="#DejaVuSans-36"/>
       <use xlink:href="#DejaVuSans-30" x="63.623047"/>
      </g>
     </g>
    </g>
    <g id="xtick_5">
     <g id="line2d_9">
      <path d="M 461.034659 354.958125 
L 461.034659 22.318125 
" clip-path="url(#p0012087449)" style="fill: none; stroke: #b0b0b0; stroke-opacity: 0.3; stroke-width: 0.8; stroke-linecap: square"/>
     </g>
     <g id="line2d_10">
      <g>
       <use xlink:href="#m5ff05ae18c" x="461.034659" y="354.958125" style="stroke: #000000; stroke-width: 0.8"/>
      </g>
     </g>
     <g id="text_5">
      <!-- 80 -->
      <g transform="translate(454.672159 369.556562) scale(0.1 -0.1)">
       <defs>
        <path id="DejaVuSans-38" d="M 2034 2216 
Q 1584 2216 1326 1975 
Q 1069 1734 1069 1313 
Q 1069 891 1326 650 
Q 1584 409 2034 409 
Q 2484 409 2743 651 
Q 3003 894 3003 1313 
Q 3003 1734 2745 1975 
Q 2488 2216 2034 2216 
z
M 1403 2484 
Q 997 2584 770 2862 
Q 544 3141 544 3541 
Q 544 4100 942 4425 
Q 1341 4750 2034 4750 
Q 2731 4750 3128 4425 
Q 3525 4100 3525 3541 
Q 3525 3141 3298 2862 
Q 3072 2584 2669 2484 
Q 3125 2378 3379 2068 
Q 3634 1759 3634 1313 
Q 3634 634 3220 271 
Q 2806 -91 2034 -91 
Q 1263 -91 848 271 
Q 434 634 434 1313 
Q 434 1759 690 2068 
Q 947 2378 1403 2484 
z
M 1172 3481 
Q 1172 3119 1398 2916 
Q 1625 2713 2034 2713 
Q 2441 2713 2670 2916 
Q 2900 3119 2900 3481 
Q 2900 3844 2670 4047 
Q 2441 4250 2034 4250 
Q 1625 4250 1398 4047 
Q 1172 3844 1172 3481 
z
" transform="scale(0.015625)"/>
       </defs>
       <use xlink:href="#DejaVuSans-38"/>
       <use xlink:href="#DejaVuSans-30" x="63.623047"/>
      </g>
     </g>
    </g>
    <g id="xtick_6">
     <g id="line2d_11">
      <path d="M 556.148295 354.958125 
L 556.148295 22.318125 
" clip-path="url(#p0012087449)" style="fill: none; stroke: #b0b0b0; stroke-opacity: 0.3; stroke-width: 0.8; stroke-linecap: square"/>
     </g>
     <g id="line2d_12">
      <g>
       <use xlink:href="#m5ff05ae18c" x="556.148295" y="354.958125" style="stroke: #000000; stroke-width: 0.8"/>
      </g>
     </g>
     <g id="text_6">
      <!-- 100 -->
      <g transform="translate(546.604545 369.556562) scale(0.1 -0.1)">
       <defs>
        <path id="DejaVuSans-31" d="M 794 531 
L 1825 531 
L 1825 4091 
L 703 3866 
L 703 4441 
L 1819 4666 
L 2450 4666 
L 2450 531 
L 3481 531 
L 3481 0 
L 794 0 
L 794 531 
z
" transform="scale(0.015625)"/>
       </defs>
       <use xlink:href="#DejaVuSans-31"/>
       <use xlink:href="#DejaVuSans-30" x="63.623047"/>
       <use xlink:href="#DejaVuSans-30" x="127.246094"/>
      </g>
     </g>
    </g>
    <g id="xtick_7">
     <g id="line2d_13">
      <path d="M 651.261932 354.958125 
L 651.261932 22.318125 
" clip-path="url(#p0012087449)" style="fill: none; stroke: #b0b0b0; stroke-opacity: 0.3; stroke-width: 0.8; stroke-linecap: square"/>
     </g>
     <g id="line2d_14">
      <g>
       <use xlink:href="#m5ff05ae18c" x="651.261932" y="354.958125" style="stroke: #000000; stroke-width: 0.8"/>
      </g>
     </g>
     <g id="text_7">
      <!-- 120 -->
      <g transform="translate(641.718182 369.556562) scale(0.1 -0.1)">
       <use xlink:href="#DejaVuSans-31"/>
       <use xlink:href="#DejaVuSans-32" x="63.623047"/>
       <use xlink:href="#DejaVuSans-30" x="127.246094"/>
      </g>
     </g>
    </g>
    <g id="text_8">
     <!-- Cluster Size (number of residues) -->
     <g transform="translate(301.304688 383.234687) scale(0.1 -0.1)">
      <defs>
       <path id="DejaVuSans-43" d="M 4122 4306 
L 4122 3641 
Q 3803 3938 3442 4084 
Q 3081 4231 2675 4231 
Q 1875 4231 1450 3742 
Q 1025 3253 1025 2328 
Q 1025 1406 1450 917 
Q 1875 428 2675 428 
Q 3081 428 3442 575 
Q 3803 722 4122 1019 
L 4122 359 
Q 3791 134 3420 21 
Q 3050 -91 2638 -91 
Q 1578 -91 968 557 
Q 359 1206 359 2328 
Q 359 3453 968 4101 
Q 1578 4750 2638 4750 
Q 3056 4750 3426 4639 
Q 3797 4528 4122 4306 
z
" transform="scale(0.015625)"/>
       <path id="DejaVuSans-6c" d="M 603 4863 
L 1178 4863 
L 1178 0 
L 603 0 
L 603 4863 
z
" transform="scale(0.015625)"/>
       <path id="DejaVuSans-75" d="M 544 1381 
L 544 3500 
L 1119 3500 
L 1119 1403 
Q 1119 906 1312 657 
Q 1506 409 1894 409 
Q 2359 409 2629 706 
Q 2900 1003 2900 1516 
L 2900 3500 
L 3475 3500 
L 3475 0 
L 2900 0 
L 2900 538 
Q 2691 219 2414 64 
Q 2138 -91 1772 -91 
Q 1169 -91 856 284 
Q 544 659 544 1381 
z
M 1991 3584 
L 1991 3584 
z
" transform="scale(0.015625)"/>
       <path id="DejaVuSans-73" d="M 2834 3397 
L 2834 2853 
Q 2591 2978 2328 3040 
Q 2066 3103 1784 3103 
Q 1356 3103 1142 2972 
Q 928 2841 928 2578 
Q 928 2378 1081 2264 
Q 1234 2150 1697 2047 
L 1894 2003 
Q 2506 1872 2764 1633 
Q 3022 1394 3022 966 
Q 3022 478 2636 193 
Q 2250 -91 1575 -91 
Q 1294 -91 989 -36 
Q 684 19 347 128 
L 347 722 
Q 666 556 975 473 
Q 1284 391 1588 391 
Q 1994 391 2212 530 
Q 2431 669 2431 922 
Q 2431 1156 2273 1281 
Q 2116 1406 1581 1522 
L 1381 1569 
Q 847 1681 609 1914 
Q 372 2147 372 2553 
Q 372 3047 722 3315 
Q 1072 3584 1716 3584 
Q 2034 3584 2315 3537 
Q 2597 3491 2834 3397 
z
" transform="scale(0.015625)"/>
       <path id="DejaVuSans-74" d="M 1172 4494 
L 1172 3500 
L 2356 3500 
L 2356 3053 
L 1172 3053 
L 1172 1153 
Q 1172 725 1289 603 
Q 1406 481 1766 481 
L 2356 481 
L 2356 0 
L 1766 0 
Q 1100 0 847 248 
Q 594 497 594 1153 
L 594 3053 
L 172 3053 
L 172 3500 
L 594 3500 
L 594 4494 
L 1172 4494 
z
" transform="scale(0.015625)"/>
       <path id="DejaVuSans-65" d="M 3597 1894 
L 3597 1613 
L 953 1613 
Q 991 1019 1311 708 
Q 1631 397 2203 397 
Q 2534 397 2845 478 
Q 3156 559 3463 722 
L 3463 178 
Q 3153 47 2828 -22 
Q 2503 -91 2169 -91 
Q 1331 -91 842 396 
Q 353 884 353 1716 
Q 353 2575 817 3079 
Q 1281 3584 2069 3584 
Q 2775 3584 3186 3129 
Q 3597 2675 3597 1894 
z
M 3022 2063 
Q 3016 2534 2758 2815 
Q 2500 3097 2075 3097 
Q 1594 3097 1305 2825 
Q 1016 2553 972 2059 
L 3022 2063 
z
" transform="scale(0.015625)"/>
       <path id="DejaVuSans-72" d="M 2631 2963 
Q 2534 3019 2420 3045 
Q 2306 3072 2169 3072 
Q 1681 3072 1420 2755 
Q 1159 2438 1159 1844 
L 1159 0 
L 581 0 
L 581 3500 
L 1159 3500 
L 1159 2956 
Q 1341 3275 1631 3429 
Q 1922 3584 2338 3584 
Q 2397 3584 2469 3576 
Q 2541 3569 2628 3553 
L 2631 2963 
z
" transform="scale(0.015625)"/>
       <path id="DejaVuSans-20" transform="scale(0.015625)"/>
       <path id="DejaVuSans-53" d="M 3425 4513 
L 3425 3897 
Q 3066 4069 2747 4153 
Q 2428 4238 2131 4238 
Q 1616 4238 1336 4038 
Q 1056 3838 1056 3469 
Q 1056 3159 1242 3001 
Q 1428 2844 1947 2747 
L 2328 2669 
Q 3034 2534 3370 2195 
Q 3706 1856 3706 1288 
Q 3706 609 3251 259 
Q 2797 -91 1919 -91 
Q 1588 -91 1214 -16 
Q 841 59 441 206 
L 441 856 
Q 825 641 1194 531 
Q 1563 422 1919 422 
Q 2459 422 2753 634 
Q 3047 847 3047 1241 
Q 3047 1584 2836 1778 
Q 2625 1972 2144 2069 
L 1759 2144 
Q 1053 2284 737 2584 
Q 422 2884 422 3419 
Q 422 4038 858 4394 
Q 1294 4750 2059 4750 
Q 2388 4750 2728 4690 
Q 3069 4631 3425 4513 
z
" transform="scale(0.015625)"/>
       <path id="DejaVuSans-69" d="M 603 3500 
L 1178 3500 
L 1178 0 
L 603 0 
L 603 3500 
z
M 603 4863 
L 1178 4863 
L 1178 4134 
L 603 4134 
L 603 4863 
z
" transform="scale(0.015625)"/>
       <path id="DejaVuSans-7a" d="M 353 3500 
L 3084 3500 
L 3084 2975 
L 922 459 
L 3084 459 
L 3084 0 
L 275 0 
L 275 525 
L 2438 3041 
L 353 3041 
L 353 3500 
z
" transform="scale(0.015625)"/>
       <path id="DejaVuSans-28" d="M 1984 4856 
Q 1566 4138 1362 3434 
Q 1159 2731 1159 2009 
Q 1159 1288 1364 580 
Q 1569 -128 1984 -844 
L 1484 -844 
Q 1016 -109 783 600 
Q 550 1309 550 2009 
Q 550 2706 781 3412 
Q 1013 4119 1484 4856 
L 1984 4856 
z
" transform="scale(0.015625)"/>
       <path id="DejaVuSans-6e" d="M 3513 2113 
L 3513 0 
L 2938 0 
L 2938 2094 
Q 2938 2591 2744 2837 
Q 2550 3084 2163 3084 
Q 1697 3084 1428 2787 
Q 1159 2491 1159 1978 
L 1159 0 
L 581 0 
L 581 3500 
L 1159 3500 
L 1159 2956 
Q 1366 3272 1645 3428 
Q 1925 3584 2291 3584 
Q 2894 3584 3203 3211 
Q 3513 2838 3513 2113 
z
" transform="scale(0.015625)"/>
       <path id="DejaVuSans-6d" d="M 3328 2828 
Q 3544 3216 3844 3400 
Q 4144 3584 4550 3584 
Q 5097 3584 5394 3201 
Q 5691 2819 5691 2113 
L 5691 0 
L 5113 0 
L 5113 2094 
Q 5113 2597 4934 2840 
Q 4756 3084 4391 3084 
Q 3944 3084 3684 2787 
Q 3425 2491 3425 1978 
L 3425 0 
L 2847 0 
L 2847 2094 
Q 2847 2600 2669 2842 
Q 2491 3084 2119 3084 
Q 1678 3084 1418 2786 
Q 1159 2488 1159 1978 
L 1159 0 
L 581 0 
L 581 3500 
L 1159 3500 
L 1159 2956 
Q 1356 3278 1631 3431 
Q 1906 3584 2284 3584 
Q 2666 3584 2933 3390 
Q 3200 3197 3328 2828 
z
" transform="scale(0.015625)"/>
       <path id="DejaVuSans-62" d="M 3116 1747 
Q 3116 2381 2855 2742 
Q 2594 3103 2138 3103 
Q 1681 3103 1420 2742 
Q 1159 2381 1159 1747 
Q 1159 1113 1420 752 
Q 1681 391 2138 391 
Q 2594 391 2855 752 
Q 3116 1113 3116 1747 
z
M 1159 2969 
Q 1341 3281 1617 3432 
Q 1894 3584 2278 3584 
Q 2916 3584 3314 3078 
Q 3713 2572 3713 1747 
Q 3713 922 3314 415 
Q 2916 -91 2278 -91 
Q 1894 -91 1617 61 
Q 1341 213 1159 525 
L 1159 0 
L 581 0 
L 581 4863 
L 1159 4863 
L 1159 2969 
z
" transform="scale(0.015625)"/>
       <path id="DejaVuSans-6f" d="M 1959 3097 
Q 1497 3097 1228 2736 
Q 959 2375 959 1747 
Q 959 1119 1226 758 
Q 1494 397 1959 397 
Q 2419 397 2687 759 
Q 2956 1122 2956 1747 
Q 2956 2369 2687 2733 
Q 2419 3097 1959 3097 
z
M 1959 3584 
Q 2709 3584 3137 3096 
Q 3566 2609 3566 1747 
Q 3566 888 3137 398 
Q 2709 -91 1959 -91 
Q 1206 -91 779 398 
Q 353 888 353 1747 
Q 353 2609 779 3096 
Q 1206 3584 1959 3584 
z
" transform="scale(0.015625)"/>
       <path id="DejaVuSans-66" d="M 2375 4863 
L 2375 4384 
L 1825 4384 
Q 1516 4384 1395 4259 
Q 1275 4134 1275 3809 
L 1275 3500 
L 2222 3500 
L 2222 3053 
L 1275 3053 
L 1275 0 
L 697 0 
L 697 3053 
L 147 3053 
L 147 3500 
L 697 3500 
L 697 3744 
Q 697 4328 969 4595 
Q 1241 4863 1831 4863 
L 2375 4863 
z
" transform="scale(0.015625)"/>
       <path id="DejaVuSans-64" d="M 2906 2969 
L 2906 4863 
L 3481 4863 
L 3481 0 
L 2906 0 
L 2906 525 
Q 2725 213 2448 61 
Q 2172 -91 1784 -91 
Q 1150 -91 751 415 
Q 353 922 353 1747 
Q 353 2572 751 3078 
Q 1150 3584 1784 3584 
Q 2172 3584 2448 3432 
Q 2725 3281 2906 2969 
z
M 947 1747 
Q 947 1113 1208 752 
Q 1469 391 1925 391 
Q 2381 391 2643 752 
Q 2906 1113 2906 1747 
Q 2906 2381 2643 2742 
Q 2381 3103 1925 3103 
Q 1469 3103 1208 2742 
Q 947 2381 947 1747 
z
" transform="scale(0.015625)"/>
       <path id="DejaVuSans-29" d="M 513 4856 
L 1013 4856 
Q 1481 4119 1714 3412 
Q 1947 2706 1947 2009 
Q 1947 1309 1714 600 
Q 1481 -109 1013 -844 
L 513 -844 
Q 928 -128 1133 580 
Q 1338 1288 1338 2009 
Q 1338 2731 1133 3434 
Q 928 4138 513 4856 
z
" transform="scale(0.015625)"/>
      </defs>
      <use xlink:href="#DejaVuSans-43"/>
      <use xlink:href="#DejaVuSans-6c" x="69.824219"/>
      <use xlink:href="#DejaVuSans-75" x="97.607422"/>
      <use xlink:href="#DejaVuSans-73" x="160.986328"/>
      <use xlink:href="#DejaVuSans-74" x="213.085938"/>
      <use xlink:href="#DejaVuSans-65" x="252.294922"/>
      <use xlink:href="#DejaVuSans-72" x="313.818359"/>
      <use xlink:href="#DejaVuSans-20" x="354.931641"/>
      <use xlink:href="#DejaVuSans-53" x="386.71875"/>
      <use xlink:href="#DejaVuSans-69" x="450.195312"/>
      <use xlink:href="#DejaVuSans-7a" x="477.978516"/>
      <use xlink:href="#DejaVuSans-65" x="530.46875"/>
      <use xlink:href="#DejaVuSans-20" x="591.992188"/>
      <use xlink:href="#DejaVuSans-28" x="623.779297"/>
      <use xlink:href="#DejaVuSans-6e" x="662.792969"/>
      <use xlink:href="#DejaVuSans-75" x="726.171875"/>
      <use xlink:href="#DejaVuSans-6d" x="789.550781"/>
      <use xlink:href="#DejaVuSans-62" x="886.962891"/>
      <use xlink:href="#DejaVuSans-65" x="950.439453"/>
      <use xlink:href="#DejaVuSans-72" x="1011.962891"/>
      <use xlink:href="#DejaVuSans-20" x="1053.076172"/>
      <use xlink:href="#DejaVuSans-6f" x="1084.863281"/>
      <use xlink:href="#DejaVuSans-66" x="1146.044922"/>
      <use xlink:href="#DejaVuSans-20" x="1181.25"/>
      <use xlink:href="#DejaVuSans-72" x="1213.037109"/>
      <use xlink:href="#DejaVuSans-65" x="1251.900391"/>
      <use xlink:href="#DejaVuSans-73" x="1313.423828"/>
      <use xlink:href="#DejaVuSans-69" x="1365.523438"/>
      <use xlink:href="#DejaVuSans-64" x="1393.306641"/>
      <use xlink:href="#DejaVuSans-75" x="1456.783203"/>
      <use xlink:href="#DejaVuSans-65" x="1520.162109"/>
      <use xlink:href="#DejaVuSans-73" x="1581.685547"/>
      <use xlink:href="#DejaVuSans-29" x="1633.785156"/>
     </g>
    </g>
   </g>
   <g id="matplotlib.axis_2">
    <g id="ytick_1">
     <g id="line2d_15">
      <path d="M 50.14375 354.958125 
L 719.74375 354.958125 
" clip-path="url(#p0012087449)" style="fill: none; stroke: #b0b0b0; stroke-opacity: 0.3; stroke-width: 0.8; stroke-linecap: square"/>
     </g>
     <g id="line2d_16">
      <defs>
       <path id="m56bc64c7dd" d="M 0 0 
L -3.5 0 
" style="stroke: #000000; stroke-width: 0.8"/>
      </defs>
      <g>
       <use xlink:href="#m56bc64c7dd" x="50.14375" y="354.958125" style="stroke: #000000; stroke-width: 0.8"/>
      </g>
     </g>
     <g id="text_9">
      <!-- 0.00 -->
      <g transform="translate(20.878125 358.757344) scale(0.1 -0.1)">
       <defs>
        <path id="DejaVuSans-2e" d="M 684 794 
L 1344 794 
L 1344 0 
L 684 0 
L 684 794 
z
" transform="scale(0.015625)"/>
       </defs>
       <use xlink:href="#DejaVuSans-30"/>
       <use xlink:href="#DejaVuSans-2e" x="63.623047"/>
       <use xlink:href="#DejaVuSans-30" x="95.410156"/>
       <use xlink:href="#DejaVuSans-30" x="159.033203"/>
      </g>
     </g>
    </g>
    <g id="ytick_2">
     <g id="line2d_17">
      <path d="M 50.14375 282.449695 
L 719.74375 282.449695 
" clip-path="url(#p0012087449)" style="fill: none; stroke: #b0b0b0; stroke-opacity: 0.3; stroke-width: 0.8; stroke-linecap: square"/>
     </g>
     <g id="line2d_18">
      <g>
       <use xlink:href="#m56bc64c7dd" x="50.14375" y="282.449695" style="stroke: #000000; stroke-width: 0.8"/>
      </g>
     </g>
     <g id="text_10">
      <!-- 0.05 -->
      <g transform="translate(20.878125 286.248914) scale(0.1 -0.1)">
       <defs>
        <path id="DejaVuSans-35" d="M 691 4666 
L 3169 4666 
L 3169 4134 
L 1269 4134 
L 1269 2991 
Q 1406 3038 1543 3061 
Q 1681 3084 1819 3084 
Q 2600 3084 3056 2656 
Q 3513 2228 3513 1497 
Q 3513 744 3044 326 
Q 2575 -91 1722 -91 
Q 1428 -91 1123 -41 
Q 819 9 494 109 
L 494 744 
Q 775 591 1075 516 
Q 1375 441 1709 441 
Q 2250 441 2565 725 
Q 2881 1009 2881 1497 
Q 2881 1984 2565 2268 
Q 2250 2553 1709 2553 
Q 1456 2553 1204 2497 
Q 953 2441 691 2322 
L 691 4666 
z
" transform="scale(0.015625)"/>
       </defs>
       <use xlink:href="#DejaVuSans-30"/>
       <use xlink:href="#DejaVuSans-2e" x="63.623047"/>
       <use xlink:href="#DejaVuSans-30" x="95.410156"/>
       <use xlink:href="#DejaVuSans-35" x="159.033203"/>
      </g>
     </g>
    </g>
    <g id="ytick_3">
     <g id="line2d_19">
      <path d="M 50.14375 209.941265 
L 719.74375 209.941265 
" clip-path="url(#p0012087449)" style="fill: none; stroke: #b0b0b0; stroke-opacity: 0.3; stroke-width: 0.8; stroke-linecap: square"/>
     </g>
     <g id="line2d_20">
      <g>
       <use xlink:href="#m56bc64c7dd" x="50.14375" y="209.941265" style="stroke: #000000; stroke-width: 0.8"/>
      </g>
     </g>
     <g id="text_11">
      <!-- 0.10 -->
      <g transform="translate(20.878125 213.740484) scale(0.1 -0.1)">
       <use xlink:href="#DejaVuSans-30"/>
       <use xlink:href="#DejaVuSans-2e" x="63.623047"/>
       <use xlink:href="#DejaVuSans-31" x="95.410156"/>
       <use xlink:href="#DejaVuSans-30" x="159.033203"/>
      </g>
     </g>
    </g>
    <g id="ytick_4">
     <g id="line2d_21">
      <path d="M 50.14375 137.432836 
L 719.74375 137.432836 
" clip-path="url(#p0012087449)" style="fill: none; stroke: #b0b0b0; stroke-opacity: 0.3; stroke-width: 0.8; stroke-linecap: square"/>
     </g>
     <g id="line2d_22">
      <g>
       <use xlink:href="#m56bc64c7dd" x="50.14375" y="137.432836" style="stroke: #000000; stroke-width: 0.8"/>
      </g>
     </g>
     <g id="text_12">
      <!-- 0.15 -->
      <g transform="translate(20.878125 141.232054) scale(0.1 -0.1)">
       <use xlink:href="#DejaVuSans-30"/>
       <use xlink:href="#DejaVuSans-2e" x="63.623047"/>
       <use xlink:href="#DejaVuSans-31" x="95.410156"/>
       <use xlink:href="#DejaVuSans-35" x="159.033203"/>
      </g>
     </g>
    </g>
    <g id="ytick_5">
     <g id="line2d_23">
      <path d="M 50.14375 64.924406 
L 719.74375 64.924406 
" clip-path="url(#p0012087449)" style="fill: none; stroke: #b0b0b0; stroke-opacity: 0.3; stroke-width: 0.8; stroke-linecap: square"/>
     </g>
     <g id="line2d_24">
      <g>
       <use xlink:href="#m56bc64c7dd" x="50.14375" y="64.924406" style="stroke: #000000; stroke-width: 0.8"/>
      </g>
     </g>
     <g id="text_13">
      <!-- 0.20 -->
      <g transform="translate(20.878125 68.723624) scale(0.1 -0.1)">
       <use xlink:href="#DejaVuSans-30"/>
       <use xlink:href="#DejaVuSans-2e" x="63.623047"/>
       <use xlink:href="#DejaVuSans-32" x="95.410156"/>
       <use xlink:href="#DejaVuSans-30" x="159.033203"/>
      </g>
     </g>
    </g>
    <g id="text_14">
     <!-- Density -->
     <g transform="translate(14.798438 207.646719) rotate(-90) scale(0.1 -0.1)">
      <defs>
       <path id="DejaVuSans-44" d="M 1259 4147 
L 1259 519 
L 2022 519 
Q 2988 519 3436 956 
Q 3884 1394 3884 2338 
Q 3884 3275 3436 3711 
Q 2988 4147 2022 4147 
L 1259 4147 
z
M 628 4666 
L 1925 4666 
Q 3281 4666 3915 4102 
Q 4550 3538 4550 2338 
Q 4550 1131 3912 565 
Q 3275 0 1925 0 
L 628 0 
L 628 4666 
z
" transform="scale(0.015625)"/>
       <path id="DejaVuSans-79" d="M 2059 -325 
Q 1816 -950 1584 -1140 
Q 1353 -1331 966 -1331 
L 506 -1331 
L 506 -850 
L 844 -850 
Q 1081 -850 1212 -737 
Q 1344 -625 1503 -206 
L 1606 56 
L 191 3500 
L 800 3500 
L 1894 763 
L 2988 3500 
L 3597 3500 
L 2059 -325 
z
" transform="scale(0.015625)"/>
      </defs>
      <use xlink:href="#DejaVuSans-44"/>
      <use xlink:href="#DejaVuSans-65" x="77.001953"/>
      <use xlink:href="#DejaVuSans-6e" x="138.525391"/>
      <use xlink:href="#DejaVuSans-73" x="201.904297"/>
      <use xlink:href="#DejaVuSans-69" x="254.003906"/>
      <use xlink:href="#DejaVuSans-74" x="281.787109"/>
      <use xlink:href="#DejaVuSans-79" x="320.996094"/>
     </g>
    </g>
   </g>
   <g id="patch_101">
    <path d="M 50.14375 354.958125 
L 50.14375 22.318125 
" style="fill: none; stroke: #000000; stroke-width: 0.8; stroke-linejoin: miter; stroke-linecap: square"/>
   </g>
   <g id="patch_102">
    <path d="M 719.74375 354.958125 
L 719.74375 22.318125 
" style="fill: none; stroke: #000000; stroke-width: 0.8; stroke-linejoin: miter; stroke-linecap: square"/>
   </g>
   <g id="patch_103">
    <path d="M 50.14375 354.958125 
L 719.74375 354.958125 
" style="fill: none; stroke: #000000; stroke-width: 0.8; stroke-linejoin: miter; stroke-linecap: square"/>
   </g>
   <g id="patch_104">
    <path d="M 50.14375 22.318125 
L 719.74375 22.318125 
" style="fill: none; stroke: #000000; stroke-width: 0.8; stroke-linejoin: miter; stroke-linecap: square"/>
   </g>
   <g id="text_15">
    <!-- Distribution of Pocket Cluster Sizes -->
    <g transform="translate(280.120938 16.318125) scale(0.12 -0.12)">
     <defs>
      <path id="DejaVuSans-50" d="M 1259 4147 
L 1259 2394 
L 2053 2394 
Q 2494 2394 2734 2622 
Q 2975 2850 2975 3272 
Q 2975 3691 2734 3919 
Q 2494 4147 2053 4147 
L 1259 4147 
z
M 628 4666 
L 2053 4666 
Q 2838 4666 3239 4311 
Q 3641 3956 3641 3272 
Q 3641 2581 3239 2228 
Q 2838 1875 2053 1875 
L 1259 1875 
L 1259 0 
L 628 0 
L 628 4666 
z
" transform="scale(0.015625)"/>
      <path id="DejaVuSans-63" d="M 3122 3366 
L 3122 2828 
Q 2878 2963 2633 3030 
Q 2388 3097 2138 3097 
Q 1578 3097 1268 2742 
Q 959 2388 959 1747 
Q 959 1106 1268 751 
Q 1578 397 2138 397 
Q 2388 397 2633 464 
Q 2878 531 3122 666 
L 3122 134 
Q 2881 22 2623 -34 
Q 2366 -91 2075 -91 
Q 1284 -91 818 406 
Q 353 903 353 1747 
Q 353 2603 823 3093 
Q 1294 3584 2113 3584 
Q 2378 3584 2631 3529 
Q 2884 3475 3122 3366 
z
" transform="scale(0.015625)"/>
      <path id="DejaVuSans-6b" d="M 581 4863 
L 1159 4863 
L 1159 1991 
L 2875 3500 
L 3609 3500 
L 1753 1863 
L 3688 0 
L 2938 0 
L 1159 1709 
L 1159 0 
L 581 0 
L 581 4863 
z
" transform="scale(0.015625)"/>
     </defs>
     <use xlink:href="#DejaVuSans-44"/>
     <use xlink:href="#DejaVuSans-69" x="77.001953"/>
     <use xlink:href="#DejaVuSans-73" x="104.785156"/>
     <use xlink:href="#DejaVuSans-74" x="156.884766"/>
     <use xlink:href="#DejaVuSans-72" x="196.09375"/>
     <use xlink:href="#DejaVuSans-69" x="237.207031"/>
     <use xlink:href="#DejaVuSans-62" x="264.990234"/>
     <use xlink:href="#DejaVuSans-75" x="328.466797"/>
     <use xlink:href="#DejaVuSans-74" x="391.845703"/>
     <use xlink:href="#DejaVuSans-69" x="431.054688"/>
     <use xlink:href="#DejaVuSans-6f" x="458.837891"/>
     <use xlink:href="#DejaVuSans-6e" x="520.019531"/>
     <use xlink:href="#DejaVuSans-20" x="583.398438"/>
     <use xlink:href="#DejaVuSans-6f" x="615.185547"/>
     <use xlink:href="#DejaVuSans-66" x="676.367188"/>
     <use xlink:href="#DejaVuSans-20" x="711.572266"/>
     <use xlink:href="#DejaVuSans-50" x="743.359375"/>
     <use xlink:href="#DejaVuSans-6f" x="800.037109"/>
     <use xlink:href="#DejaVuSans-63" x="861.21875"/>
     <use xlink:href="#DejaVuSans-6b" x="916.199219"/>
     <use xlink:href="#DejaVuSans-65" x="970.484375"/>
     <use xlink:href="#DejaVuSans-74" x="1032.007812"/>
     <use xlink:href="#DejaVuSans-20" x="1071.216797"/>
     <use xlink:href="#DejaVuSans-43" x="1103.003906"/>
     <use xlink:href="#DejaVuSans-6c" x="1172.828125"/>
     <use xlink:href="#DejaVuSans-75" x="1200.611328"/>
     <use xlink:href="#DejaVuSans-73" x="1263.990234"/>
     <use xlink:href="#DejaVuSans-74" x="1316.089844"/>
     <use xlink:href="#DejaVuSans-65" x="1355.298828"/>
     <use xlink:href="#DejaVuSans-72" x="1416.822266"/>
     <use xlink:href="#DejaVuSans-20" x="1457.935547"/>
     <use xlink:href="#DejaVuSans-53" x="1489.722656"/>
     <use xlink:href="#DejaVuSans-69" x="1553.199219"/>
     <use xlink:href="#DejaVuSans-7a" x="1580.982422"/>
     <use xlink:href="#DejaVuSans-65" x="1633.472656"/>
     <use xlink:href="#DejaVuSans-73" x="1694.996094"/>
    </g>
   </g>
   <g id="legend_1">
    <g id="patch_105">
     <path d="M 633.803125 59.674375 
L 712.74375 59.674375 
Q 714.74375 59.674375 714.74375 57.674375 
L 714.74375 29.318125 
Q 714.74375 27.318125 712.74375 27.318125 
L 633.803125 27.318125 
Q 631.803125 27.318125 631.803125 29.318125 
L 631.803125 57.674375 
Q 631.803125 59.674375 633.803125 59.674375 
z
" style="fill: #ffffff; opacity: 0.8; stroke: #cccccc; stroke-linejoin: miter"/>
    </g>
    <g id="patch_106">
     <path d="M 635.803125 38.916562 
L 655.803125 38.916562 
L 655.803125 31.916562 
L 635.803125 31.916562 
z
" style="fill: #1f77b4; opacity: 0.5"/>
    </g>
    <g id="text_16">
     <!-- Predicted -->
     <g transform="translate(663.803125 38.916562) scale(0.1 -0.1)">
      <use xlink:href="#DejaVuSans-50"/>
      <use xlink:href="#DejaVuSans-72" x="58.552734"/>
      <use xlink:href="#DejaVuSans-65" x="97.416016"/>
      <use xlink:href="#DejaVuSans-64" x="158.939453"/>
      <use xlink:href="#DejaVuSans-69" x="222.416016"/>
      <use xlink:href="#DejaVuSans-63" x="250.199219"/>
      <use xlink:href="#DejaVuSans-74" x="305.179688"/>
      <use xlink:href="#DejaVuSans-65" x="344.388672"/>
      <use xlink:href="#DejaVuSans-64" x="405.912109"/>
     </g>
    </g>
    <g id="patch_107">
     <path d="M 635.803125 53.594687 
L 655.803125 53.594687 
L 655.803125 46.594687 
L 635.803125 46.594687 
z
" style="fill: #ff7f0e; opacity: 0.5"/>
    </g>
    <g id="text_17">
     <!-- True -->
     <g transform="translate(663.803125 53.594687) scale(0.1 -0.1)">
      <defs>
       <path id="DejaVuSans-54" d="M -19 4666 
L 3928 4666 
L 3928 4134 
L 2272 4134 
L 2272 0 
L 1638 0 
L 1638 4134 
L -19 4134 
L -19 4666 
z
" transform="scale(0.015625)"/>
      </defs>
      <use xlink:href="#DejaVuSans-54"/>
      <use xlink:href="#DejaVuSans-72" x="46.333984"/>
      <use xlink:href="#DejaVuSans-75" x="87.447266"/>
      <use xlink:href="#DejaVuSans-65" x="150.826172"/>
     </g>
    </g>
   </g>
  </g>
 </g>
 <defs>
  <clipPath id="p0012087449">
   <rect x="50.14375" y="22.318125" width="669.6" height="332.64"/>
  </clipPath>
 </defs>
</svg>
