<?xml version="1.0" encoding="utf-8" standalone="no"?>
<!DOCTYPE svg PUBLIC "-//W3C//DTD SVG 1.1//EN"
  "http://www.w3.org/Graphics/SVG/1.1/DTD/svg11.dtd">
<svg xmlns:xlink="http://www.w3.org/1999/xlink" width="345.320156pt" height="235.03213pt" viewBox="0 0 345.320156 235.03213" xmlns="http://www.w3.org/2000/svg" version="1.1">
 <metadata>
  <rdf:RDF xmlns:dc="http://purl.org/dc/elements/1.1/" xmlns:cc="http://creativecommons.org/ns#" xmlns:rdf="http://www.w3.org/1999/02/22-rdf-syntax-ns#">
   <cc:Work>
    <dc:type rdf:resource="http://purl.org/dc/dcmitype/StillImage"/>
    <dc:date>2025-07-01T03:32:06.707506</dc:date>
    <dc:format>image/svg+xml</dc:format>
    <dc:creator>
     <cc:Agent>
      <dc:title>Matplotlib v3.9.4, https://matplotlib.org/</dc:title>
     </cc:Agent>
    </dc:creator>
   </cc:Work>
  </rdf:RDF>
 </metadata>
 <defs>
  <style type="text/css">*{stroke-linejoin: round; stroke-linecap: butt}</style>
 </defs>
 <g id="figure_1">
  <g id="patch_1">
   <path d="M 0 235.03213 
L 345.320156 235.03213 
L 345.320156 0 
L 0 0 
z
" style="fill: #ffffff"/>
  </g>
  <g id="axes_1">
   <g id="patch_2">
    <path d="M 43.78125 177.543936 
L 337.55125 177.543936 
L 337.55125 43.486709 
L 43.78125 43.486709 
z
" style="fill: #ffffff"/>
   </g>
   <g id="patch_3">
    <path d="M 57.134432 177.543936 
L 63.20406 177.543936 
L 63.20406 145.979372 
L 57.134432 145.979372 
z
" clip-path="url(#pc5cdaa778a)" style="fill: #a8d5f7; stroke: #43a3ef; stroke-linejoin: miter"/>
   </g>
   <g id="patch_4">
    <path d="M 97.598619 177.543936 
L 103.668247 177.543936 
L 103.668247 50.956092 
L 97.598619 50.956092 
z
" clip-path="url(#pc5cdaa778a)" style="fill: #a8d5f7; stroke: #43a3ef; stroke-linejoin: miter"/>
   </g>
   <g id="patch_5">
    <path d="M 138.062806 177.543936 
L 144.132435 177.543936 
L 144.132435 94.47473 
L 138.062806 94.47473 
z
" clip-path="url(#pc5cdaa778a)" style="fill: #a8d5f7; stroke: #43a3ef; stroke-linejoin: miter"/>
   </g>
   <g id="patch_6">
    <path d="M 178.526994 177.543936 
L 184.596622 177.543936 
L 184.596622 68.284047 
L 178.526994 68.284047 
z
" clip-path="url(#pc5cdaa778a)" style="fill: #a8d5f7; stroke: #43a3ef; stroke-linejoin: miter"/>
   </g>
   <g id="patch_7">
    <path d="M 218.991181 177.543936 
L 225.060809 177.543936 
L 225.060809 69.464947 
L 218.991181 69.464947 
z
" clip-path="url(#pc5cdaa778a)" style="fill: #a8d5f7; stroke: #43a3ef; stroke-linejoin: miter"/>
   </g>
   <g id="patch_8">
    <path d="M 259.455368 177.543936 
L 265.524997 177.543936 
L 265.524997 136.945339 
L 259.455368 136.945339 
z
" clip-path="url(#pc5cdaa778a)" style="fill: #a8d5f7; stroke: #43a3ef; stroke-linejoin: miter"/>
   </g>
   <g id="patch_9">
    <path d="M 299.919556 177.543936 
L 305.989184 177.543936 
L 305.989184 134.204124 
L 299.919556 134.204124 
z
" clip-path="url(#pc5cdaa778a)" style="fill: #a8d5f7; stroke: #43a3ef; stroke-linejoin: miter"/>
   </g>
   <g id="patch_10">
    <path d="M 63.20406 177.543936 
L 69.273688 177.543936 
L 69.273688 143.147944 
L 63.20406 143.147944 
z
" clip-path="url(#pc5cdaa778a)" style="fill: url(#h95989bfd4b); stroke: #43a3ef; stroke-linejoin: miter"/>
   </g>
   <g id="patch_11">
    <path d="M 103.668247 177.543936 
L 109.737875 177.543936 
L 109.737875 52.043078 
L 103.668247 52.043078 
z
" clip-path="url(#pc5cdaa778a)" style="fill: url(#h95989bfd4b); stroke: #43a3ef; stroke-linejoin: miter"/>
   </g>
   <g id="patch_12">
    <path d="M 144.132435 177.543936 
L 150.202063 177.543936 
L 150.202063 108.877106 
L 144.132435 108.877106 
z
" clip-path="url(#pc5cdaa778a)" style="fill: url(#h95989bfd4b); stroke: #43a3ef; stroke-linejoin: miter"/>
   </g>
   <g id="patch_13">
    <path d="M 184.596622 177.543936 
L 190.66625 177.543936 
L 190.66625 59.610192 
L 184.596622 59.610192 
z
" clip-path="url(#pc5cdaa778a)" style="fill: url(#h95989bfd4b); stroke: #43a3ef; stroke-linejoin: miter"/>
   </g>
   <g id="patch_14">
    <path d="M 225.060809 177.543936 
L 231.130437 177.543936 
L 231.130437 63.049792 
L 225.060809 63.049792 
z
" clip-path="url(#pc5cdaa778a)" style="fill: url(#h95989bfd4b); stroke: #43a3ef; stroke-linejoin: miter"/>
   </g>
   <g id="patch_15">
    <path d="M 265.524997 177.543936 
L 271.594625 177.543936 
L 271.594625 138.144597 
L 265.524997 138.144597 
z
" clip-path="url(#pc5cdaa778a)" style="fill: url(#h95989bfd4b); stroke: #43a3ef; stroke-linejoin: miter"/>
   </g>
   <g id="patch_16">
    <path d="M 305.989184 177.543936 
L 312.058812 177.543936 
L 312.058812 135.328862 
L 305.989184 135.328862 
z
" clip-path="url(#pc5cdaa778a)" style="fill: url(#h95989bfd4b); stroke: #43a3ef; stroke-linejoin: miter"/>
   </g>
   <g id="patch_17">
    <path d="M 69.273688 177.543936 
L 75.343316 177.543936 
L 75.343316 141.497148 
L 69.273688 141.497148 
z
" clip-path="url(#pc5cdaa778a)" style="fill: #f7bbbe; stroke: #ef767b; stroke-linejoin: miter"/>
   </g>
   <g id="patch_18">
    <path d="M 109.737875 177.543936 
L 115.807503 177.543936 
L 115.807503 49.917495 
L 109.737875 49.917495 
z
" clip-path="url(#pc5cdaa778a)" style="fill: #f7bbbe; stroke: #ef767b; stroke-linejoin: miter"/>
   </g>
   <g id="patch_19">
    <path d="M 150.202063 177.543936 
L 156.271691 177.543936 
L 156.271691 87.748602 
L 150.202063 87.748602 
z
" clip-path="url(#pc5cdaa778a)" style="fill: #f7bbbe; stroke: #ef767b; stroke-linejoin: miter"/>
   </g>
   <g id="patch_20">
    <path d="M 190.66625 177.543936 
L 196.735878 177.543936 
L 196.735878 65.311206 
L 190.66625 65.311206 
z
" clip-path="url(#pc5cdaa778a)" style="fill: #f7bbbe; stroke: #ef767b; stroke-linejoin: miter"/>
   </g>
   <g id="patch_21">
    <path d="M 231.130437 177.543936 
L 237.200065 177.543936 
L 237.200065 65.968953 
L 231.130437 65.968953 
z
" clip-path="url(#pc5cdaa778a)" style="fill: #f7bbbe; stroke: #ef767b; stroke-linejoin: miter"/>
   </g>
   <g id="patch_22">
    <path d="M 271.594625 177.543936 
L 277.664253 177.543936 
L 277.664253 129.595017 
L 271.594625 129.595017 
z
" clip-path="url(#pc5cdaa778a)" style="fill: #f7bbbe; stroke: #ef767b; stroke-linejoin: miter"/>
   </g>
   <g id="patch_23">
    <path d="M 312.058812 177.543936 
L 318.12844 177.543936 
L 318.12844 128.417009 
L 312.058812 128.417009 
z
" clip-path="url(#pc5cdaa778a)" style="fill: #f7bbbe; stroke: #ef767b; stroke-linejoin: miter"/>
   </g>
   <g id="patch_24">
    <path d="M 75.343316 177.543936 
L 81.412944 177.543936 
L 81.412944 139.801318 
L 75.343316 139.801318 
z
" clip-path="url(#pc5cdaa778a)" style="fill: url(#he3fcb8719b); stroke: #ef767b; stroke-linejoin: miter"/>
   </g>
   <g id="patch_25">
    <path d="M 115.807503 177.543936 
L 121.877132 177.543936 
L 121.877132 50.89074 
L 115.807503 50.89074 
z
" clip-path="url(#pc5cdaa778a)" style="fill: url(#he3fcb8719b); stroke: #ef767b; stroke-linejoin: miter"/>
   </g>
   <g id="patch_26">
    <path d="M 156.271691 177.543936 
L 162.341319 177.543936 
L 162.341319 96.557034 
L 156.271691 96.557034 
z
" clip-path="url(#pc5cdaa778a)" style="fill: url(#he3fcb8719b); stroke: #ef767b; stroke-linejoin: miter"/>
   </g>
   <g id="patch_27">
    <path d="M 196.735878 177.543936 
L 202.805506 177.543936 
L 202.805506 59.718355 
L 196.735878 59.718355 
z
" clip-path="url(#pc5cdaa778a)" style="fill: url(#he3fcb8719b); stroke: #ef767b; stroke-linejoin: miter"/>
   </g>
   <g id="patch_28">
    <path d="M 237.200065 177.543936 
L 243.269694 177.543936 
L 243.269694 62.148057 
L 237.200065 62.148057 
z
" clip-path="url(#pc5cdaa778a)" style="fill: url(#he3fcb8719b); stroke: #ef767b; stroke-linejoin: miter"/>
   </g>
   <g id="patch_29">
    <path d="M 277.664253 177.543936 
L 283.733881 177.543936 
L 283.733881 131.101164 
L 277.664253 131.101164 
z
" clip-path="url(#pc5cdaa778a)" style="fill: url(#he3fcb8719b); stroke: #ef767b; stroke-linejoin: miter"/>
   </g>
   <g id="patch_30">
    <path d="M 318.12844 177.543936 
L 324.198068 177.543936 
L 324.198068 130.275776 
L 318.12844 130.275776 
z
" clip-path="url(#pc5cdaa778a)" style="fill: url(#he3fcb8719b); stroke: #ef767b; stroke-linejoin: miter"/>
   </g>
   <g id="matplotlib.axis_1">
    <g id="xtick_1">
     <g id="line2d_1">
      <path d="M 69.273688 177.543936 
L 69.273688 43.486709 
" clip-path="url(#pc5cdaa778a)" style="fill: none; stroke: #b0b0b0; stroke-opacity: 0.3; stroke-width: 0.8; stroke-linecap: square"/>
     </g>
     <g id="line2d_2">
      <defs>
       <path id="mc523747f65" d="M 0 0 
L 0 3.5 
" style="stroke: #000000; stroke-width: 0.8"/>
      </defs>
      <g>
       <use xlink:href="#mc523747f65" x="69.273688" y="177.543936" style="stroke: #000000; stroke-width: 0.8"/>
      </g>
     </g>
     <g id="text_1">
      <!-- Precision -->
      <g transform="translate(55.451408 221.463749) rotate(-45) scale(0.1 -0.1)">
       <defs>
        <path id="DejaVuSans-50" d="M 1259 4147 
L 1259 2394 
L 2053 2394 
Q 2494 2394 2734 2622 
Q 2975 2850 2975 3272 
Q 2975 3691 2734 3919 
Q 2494 4147 2053 4147 
L 1259 4147 
z
M 628 4666 
L 2053 4666 
Q 2838 4666 3239 4311 
Q 3641 3956 3641 3272 
Q 3641 2581 3239 2228 
Q 2838 1875 2053 1875 
L 1259 1875 
L 1259 0 
L 628 0 
L 628 4666 
z
" transform="scale(0.015625)"/>
        <path id="DejaVuSans-72" d="M 2631 2963 
Q 2534 3019 2420 3045 
Q 2306 3072 2169 3072 
Q 1681 3072 1420 2755 
Q 1159 2438 1159 1844 
L 1159 0 
L 581 0 
L 581 3500 
L 1159 3500 
L 1159 2956 
Q 1341 3275 1631 3429 
Q 1922 3584 2338 3584 
Q 2397 3584 2469 3576 
Q 2541 3569 2628 3553 
L 2631 2963 
z
" transform="scale(0.015625)"/>
        <path id="DejaVuSans-65" d="M 3597 1894 
L 3597 1613 
L 953 1613 
Q 991 1019 1311 708 
Q 1631 397 2203 397 
Q 2534 397 2845 478 
Q 3156 559 3463 722 
L 3463 178 
Q 3153 47 2828 -22 
Q 2503 -91 2169 -91 
Q 1331 -91 842 396 
Q 353 884 353 1716 
Q 353 2575 817 3079 
Q 1281 3584 2069 3584 
Q 2775 3584 3186 3129 
Q 3597 2675 3597 1894 
z
M 3022 2063 
Q 3016 2534 2758 2815 
Q 2500 3097 2075 3097 
Q 1594 3097 1305 2825 
Q 1016 2553 972 2059 
L 3022 2063 
z
" transform="scale(0.015625)"/>
        <path id="DejaVuSans-63" d="M 3122 3366 
L 3122 2828 
Q 2878 2963 2633 3030 
Q 2388 3097 2138 3097 
Q 1578 3097 1268 2742 
Q 959 2388 959 1747 
Q 959 1106 1268 751 
Q 1578 397 2138 397 
Q 2388 397 2633 464 
Q 2878 531 3122 666 
L 3122 134 
Q 2881 22 2623 -34 
Q 2366 -91 2075 -91 
Q 1284 -91 818 406 
Q 353 903 353 1747 
Q 353 2603 823 3093 
Q 1294 3584 2113 3584 
Q 2378 3584 2631 3529 
Q 2884 3475 3122 3366 
z
" transform="scale(0.015625)"/>
        <path id="DejaVuSans-69" d="M 603 3500 
L 1178 3500 
L 1178 0 
L 603 0 
L 603 3500 
z
M 603 4863 
L 1178 4863 
L 1178 4134 
L 603 4134 
L 603 4863 
z
" transform="scale(0.015625)"/>
        <path id="DejaVuSans-73" d="M 2834 3397 
L 2834 2853 
Q 2591 2978 2328 3040 
Q 2066 3103 1784 3103 
Q 1356 3103 1142 2972 
Q 928 2841 928 2578 
Q 928 2378 1081 2264 
Q 1234 2150 1697 2047 
L 1894 2003 
Q 2506 1872 2764 1633 
Q 3022 1394 3022 966 
Q 3022 478 2636 193 
Q 2250 -91 1575 -91 
Q 1294 -91 989 -36 
Q 684 19 347 128 
L 347 722 
Q 666 556 975 473 
Q 1284 391 1588 391 
Q 1994 391 2212 530 
Q 2431 669 2431 922 
Q 2431 1156 2273 1281 
Q 2116 1406 1581 1522 
L 1381 1569 
Q 847 1681 609 1914 
Q 372 2147 372 2553 
Q 372 3047 722 3315 
Q 1072 3584 1716 3584 
Q 2034 3584 2315 3537 
Q 2597 3491 2834 3397 
z
" transform="scale(0.015625)"/>
        <path id="DejaVuSans-6f" d="M 1959 3097 
Q 1497 3097 1228 2736 
Q 959 2375 959 1747 
Q 959 1119 1226 758 
Q 1494 397 1959 397 
Q 2419 397 2687 759 
Q 2956 1122 2956 1747 
Q 2956 2369 2687 2733 
Q 2419 3097 1959 3097 
z
M 1959 3584 
Q 2709 3584 3137 3096 
Q 3566 2609 3566 1747 
Q 3566 888 3137 398 
Q 2709 -91 1959 -91 
Q 1206 -91 779 398 
Q 353 888 353 1747 
Q 353 2609 779 3096 
Q 1206 3584 1959 3584 
z
" transform="scale(0.015625)"/>
        <path id="DejaVuSans-6e" d="M 3513 2113 
L 3513 0 
L 2938 0 
L 2938 2094 
Q 2938 2591 2744 2837 
Q 2550 3084 2163 3084 
Q 1697 3084 1428 2787 
Q 1159 2491 1159 1978 
L 1159 0 
L 581 0 
L 581 3500 
L 1159 3500 
L 1159 2956 
Q 1366 3272 1645 3428 
Q 1925 3584 2291 3584 
Q 2894 3584 3203 3211 
Q 3513 2838 3513 2113 
z
" transform="scale(0.015625)"/>
       </defs>
       <use xlink:href="#DejaVuSans-50"/>
       <use xlink:href="#DejaVuSans-72" x="58.552734"/>
       <use xlink:href="#DejaVuSans-65" x="97.416016"/>
       <use xlink:href="#DejaVuSans-63" x="158.939453"/>
       <use xlink:href="#DejaVuSans-69" x="213.919922"/>
       <use xlink:href="#DejaVuSans-73" x="241.703125"/>
       <use xlink:href="#DejaVuSans-69" x="293.802734"/>
       <use xlink:href="#DejaVuSans-6f" x="321.585938"/>
       <use xlink:href="#DejaVuSans-6e" x="382.767578"/>
      </g>
     </g>
    </g>
    <g id="xtick_2">
     <g id="line2d_3">
      <path d="M 109.737875 177.543936 
L 109.737875 43.486709 
" clip-path="url(#pc5cdaa778a)" style="fill: none; stroke: #b0b0b0; stroke-opacity: 0.3; stroke-width: 0.8; stroke-linecap: square"/>
     </g>
     <g id="line2d_4">
      <g>
       <use xlink:href="#mc523747f65" x="109.737875" y="177.543936" style="stroke: #000000; stroke-width: 0.8"/>
      </g>
     </g>
     <g id="text_2">
      <!-- NPV -->
      <g transform="translate(104.493684 204.307571) rotate(-45) scale(0.1 -0.1)">
       <defs>
        <path id="DejaVuSans-4e" d="M 628 4666 
L 1478 4666 
L 3547 763 
L 3547 4666 
L 4159 4666 
L 4159 0 
L 3309 0 
L 1241 3903 
L 1241 0 
L 628 0 
L 628 4666 
z
" transform="scale(0.015625)"/>
        <path id="DejaVuSans-56" d="M 1831 0 
L 50 4666 
L 709 4666 
L 2188 738 
L 3669 4666 
L 4325 4666 
L 2547 0 
L 1831 0 
z
" transform="scale(0.015625)"/>
       </defs>
       <use xlink:href="#DejaVuSans-4e"/>
       <use xlink:href="#DejaVuSans-50" x="74.804688"/>
       <use xlink:href="#DejaVuSans-56" x="135.107422"/>
      </g>
     </g>
    </g>
    <g id="xtick_3">
     <g id="line2d_5">
      <path d="M 150.202063 177.543936 
L 150.202063 43.486709 
" clip-path="url(#pc5cdaa778a)" style="fill: none; stroke: #b0b0b0; stroke-opacity: 0.3; stroke-width: 0.8; stroke-linecap: square"/>
     </g>
     <g id="line2d_6">
      <g>
       <use xlink:href="#mc523747f65" x="150.202063" y="177.543936" style="stroke: #000000; stroke-width: 0.8"/>
      </g>
     </g>
     <g id="text_3">
      <!-- Recall -->
      <g transform="translate(141.605191 211.012932) rotate(-45) scale(0.1 -0.1)">
       <defs>
        <path id="DejaVuSans-52" d="M 2841 2188 
Q 3044 2119 3236 1894 
Q 3428 1669 3622 1275 
L 4263 0 
L 3584 0 
L 2988 1197 
Q 2756 1666 2539 1819 
Q 2322 1972 1947 1972 
L 1259 1972 
L 1259 0 
L 628 0 
L 628 4666 
L 2053 4666 
Q 2853 4666 3247 4331 
Q 3641 3997 3641 3322 
Q 3641 2881 3436 2590 
Q 3231 2300 2841 2188 
z
M 1259 4147 
L 1259 2491 
L 2053 2491 
Q 2509 2491 2742 2702 
Q 2975 2913 2975 3322 
Q 2975 3731 2742 3939 
Q 2509 4147 2053 4147 
L 1259 4147 
z
" transform="scale(0.015625)"/>
        <path id="DejaVuSans-61" d="M 2194 1759 
Q 1497 1759 1228 1600 
Q 959 1441 959 1056 
Q 959 750 1161 570 
Q 1363 391 1709 391 
Q 2188 391 2477 730 
Q 2766 1069 2766 1631 
L 2766 1759 
L 2194 1759 
z
M 3341 1997 
L 3341 0 
L 2766 0 
L 2766 531 
Q 2569 213 2275 61 
Q 1981 -91 1556 -91 
Q 1019 -91 701 211 
Q 384 513 384 1019 
Q 384 1609 779 1909 
Q 1175 2209 1959 2209 
L 2766 2209 
L 2766 2266 
Q 2766 2663 2505 2880 
Q 2244 3097 1772 3097 
Q 1472 3097 1187 3025 
Q 903 2953 641 2809 
L 641 3341 
Q 956 3463 1253 3523 
Q 1550 3584 1831 3584 
Q 2591 3584 2966 3190 
Q 3341 2797 3341 1997 
z
" transform="scale(0.015625)"/>
        <path id="DejaVuSans-6c" d="M 603 4863 
L 1178 4863 
L 1178 0 
L 603 0 
L 603 4863 
z
" transform="scale(0.015625)"/>
       </defs>
       <use xlink:href="#DejaVuSans-52"/>
       <use xlink:href="#DejaVuSans-65" x="64.982422"/>
       <use xlink:href="#DejaVuSans-63" x="126.505859"/>
       <use xlink:href="#DejaVuSans-61" x="181.486328"/>
       <use xlink:href="#DejaVuSans-6c" x="242.765625"/>
       <use xlink:href="#DejaVuSans-6c" x="270.548828"/>
      </g>
     </g>
    </g>
    <g id="xtick_4">
     <g id="line2d_7">
      <path d="M 190.66625 177.543936 
L 190.66625 43.486709 
" clip-path="url(#pc5cdaa778a)" style="fill: none; stroke: #b0b0b0; stroke-opacity: 0.3; stroke-width: 0.8; stroke-linecap: square"/>
     </g>
     <g id="line2d_8">
      <g>
       <use xlink:href="#mc523747f65" x="190.66625" y="177.543936" style="stroke: #000000; stroke-width: 0.8"/>
      </g>
     </g>
     <g id="text_4">
      <!-- Specificity -->
      <g transform="translate(174.39506 226.361569) rotate(-45) scale(0.1 -0.1)">
       <defs>
        <path id="DejaVuSans-53" d="M 3425 4513 
L 3425 3897 
Q 3066 4069 2747 4153 
Q 2428 4238 2131 4238 
Q 1616 4238 1336 4038 
Q 1056 3838 1056 3469 
Q 1056 3159 1242 3001 
Q 1428 2844 1947 2747 
L 2328 2669 
Q 3034 2534 3370 2195 
Q 3706 1856 3706 1288 
Q 3706 609 3251 259 
Q 2797 -91 1919 -91 
Q 1588 -91 1214 -16 
Q 841 59 441 206 
L 441 856 
Q 825 641 1194 531 
Q 1563 422 1919 422 
Q 2459 422 2753 634 
Q 3047 847 3047 1241 
Q 3047 1584 2836 1778 
Q 2625 1972 2144 2069 
L 1759 2144 
Q 1053 2284 737 2584 
Q 422 2884 422 3419 
Q 422 4038 858 4394 
Q 1294 4750 2059 4750 
Q 2388 4750 2728 4690 
Q 3069 4631 3425 4513 
z
" transform="scale(0.015625)"/>
        <path id="DejaVuSans-70" d="M 1159 525 
L 1159 -1331 
L 581 -1331 
L 581 3500 
L 1159 3500 
L 1159 2969 
Q 1341 3281 1617 3432 
Q 1894 3584 2278 3584 
Q 2916 3584 3314 3078 
Q 3713 2572 3713 1747 
Q 3713 922 3314 415 
Q 2916 -91 2278 -91 
Q 1894 -91 1617 61 
Q 1341 213 1159 525 
z
M 3116 1747 
Q 3116 2381 2855 2742 
Q 2594 3103 2138 3103 
Q 1681 3103 1420 2742 
Q 1159 2381 1159 1747 
Q 1159 1113 1420 752 
Q 1681 391 2138 391 
Q 2594 391 2855 752 
Q 3116 1113 3116 1747 
z
" transform="scale(0.015625)"/>
        <path id="DejaVuSans-66" d="M 2375 4863 
L 2375 4384 
L 1825 4384 
Q 1516 4384 1395 4259 
Q 1275 4134 1275 3809 
L 1275 3500 
L 2222 3500 
L 2222 3053 
L 1275 3053 
L 1275 0 
L 697 0 
L 697 3053 
L 147 3053 
L 147 3500 
L 697 3500 
L 697 3744 
Q 697 4328 969 4595 
Q 1241 4863 1831 4863 
L 2375 4863 
z
" transform="scale(0.015625)"/>
        <path id="DejaVuSans-74" d="M 1172 4494 
L 1172 3500 
L 2356 3500 
L 2356 3053 
L 1172 3053 
L 1172 1153 
Q 1172 725 1289 603 
Q 1406 481 1766 481 
L 2356 481 
L 2356 0 
L 1766 0 
Q 1100 0 847 248 
Q 594 497 594 1153 
L 594 3053 
L 172 3053 
L 172 3500 
L 594 3500 
L 594 4494 
L 1172 4494 
z
" transform="scale(0.015625)"/>
        <path id="DejaVuSans-79" d="M 2059 -325 
Q 1816 -950 1584 -1140 
Q 1353 -1331 966 -1331 
L 506 -1331 
L 506 -850 
L 844 -850 
Q 1081 -850 1212 -737 
Q 1344 -625 1503 -206 
L 1606 56 
L 191 3500 
L 800 3500 
L 1894 763 
L 2988 3500 
L 3597 3500 
L 2059 -325 
z
" transform="scale(0.015625)"/>
       </defs>
       <use xlink:href="#DejaVuSans-53"/>
       <use xlink:href="#DejaVuSans-70" x="63.476562"/>
       <use xlink:href="#DejaVuSans-65" x="126.953125"/>
       <use xlink:href="#DejaVuSans-63" x="188.476562"/>
       <use xlink:href="#DejaVuSans-69" x="243.457031"/>
       <use xlink:href="#DejaVuSans-66" x="271.240234"/>
       <use xlink:href="#DejaVuSans-69" x="306.445312"/>
       <use xlink:href="#DejaVuSans-63" x="334.228516"/>
       <use xlink:href="#DejaVuSans-69" x="389.208984"/>
       <use xlink:href="#DejaVuSans-74" x="416.992188"/>
       <use xlink:href="#DejaVuSans-79" x="456.201172"/>
      </g>
     </g>
    </g>
    <g id="xtick_5">
     <g id="line2d_9">
      <path d="M 231.130437 177.543936 
L 231.130437 43.486709 
" clip-path="url(#pc5cdaa778a)" style="fill: none; stroke: #b0b0b0; stroke-opacity: 0.3; stroke-width: 0.8; stroke-linecap: square"/>
     </g>
     <g id="line2d_10">
      <g>
       <use xlink:href="#mc523747f65" x="231.130437" y="177.543936" style="stroke: #000000; stroke-width: 0.8"/>
      </g>
     </g>
     <g id="text_5">
      <!-- Accuracy -->
      <g transform="translate(216.939688 222.200687) rotate(-45) scale(0.1 -0.1)">
       <defs>
        <path id="DejaVuSans-41" d="M 2188 4044 
L 1331 1722 
L 3047 1722 
L 2188 4044 
z
M 1831 4666 
L 2547 4666 
L 4325 0 
L 3669 0 
L 3244 1197 
L 1141 1197 
L 716 0 
L 50 0 
L 1831 4666 
z
" transform="scale(0.015625)"/>
        <path id="DejaVuSans-75" d="M 544 1381 
L 544 3500 
L 1119 3500 
L 1119 1403 
Q 1119 906 1312 657 
Q 1506 409 1894 409 
Q 2359 409 2629 706 
Q 2900 1003 2900 1516 
L 2900 3500 
L 3475 3500 
L 3475 0 
L 2900 0 
L 2900 538 
Q 2691 219 2414 64 
Q 2138 -91 1772 -91 
Q 1169 -91 856 284 
Q 544 659 544 1381 
z
M 1991 3584 
L 1991 3584 
z
" transform="scale(0.015625)"/>
       </defs>
       <use xlink:href="#DejaVuSans-41"/>
       <use xlink:href="#DejaVuSans-63" x="66.658203"/>
       <use xlink:href="#DejaVuSans-63" x="121.638672"/>
       <use xlink:href="#DejaVuSans-75" x="176.619141"/>
       <use xlink:href="#DejaVuSans-72" x="239.998047"/>
       <use xlink:href="#DejaVuSans-61" x="281.111328"/>
       <use xlink:href="#DejaVuSans-63" x="342.390625"/>
       <use xlink:href="#DejaVuSans-79" x="397.371094"/>
      </g>
     </g>
    </g>
    <g id="xtick_6">
     <g id="line2d_11">
      <path d="M 271.594625 177.543936 
L 271.594625 43.486709 
" clip-path="url(#pc5cdaa778a)" style="fill: none; stroke: #b0b0b0; stroke-opacity: 0.3; stroke-width: 0.8; stroke-linecap: square"/>
     </g>
     <g id="line2d_12">
      <g>
       <use xlink:href="#mc523747f65" x="271.594625" y="177.543936" style="stroke: #000000; stroke-width: 0.8"/>
      </g>
     </g>
     <g id="text_6">
      <!-- MCC -->
      <g transform="translate(265.557701 205.893037) rotate(-45) scale(0.1 -0.1)">
       <defs>
        <path id="DejaVuSans-4d" d="M 628 4666 
L 1569 4666 
L 2759 1491 
L 3956 4666 
L 4897 4666 
L 4897 0 
L 4281 0 
L 4281 4097 
L 3078 897 
L 2444 897 
L 1241 4097 
L 1241 0 
L 628 0 
L 628 4666 
z
" transform="scale(0.015625)"/>
        <path id="DejaVuSans-43" d="M 4122 4306 
L 4122 3641 
Q 3803 3938 3442 4084 
Q 3081 4231 2675 4231 
Q 1875 4231 1450 3742 
Q 1025 3253 1025 2328 
Q 1025 1406 1450 917 
Q 1875 428 2675 428 
Q 3081 428 3442 575 
Q 3803 722 4122 1019 
L 4122 359 
Q 3791 134 3420 21 
Q 3050 -91 2638 -91 
Q 1578 -91 968 557 
Q 359 1206 359 2328 
Q 359 3453 968 4101 
Q 1578 4750 2638 4750 
Q 3056 4750 3426 4639 
Q 3797 4528 4122 4306 
z
" transform="scale(0.015625)"/>
       </defs>
       <use xlink:href="#DejaVuSans-4d"/>
       <use xlink:href="#DejaVuSans-43" x="86.279297"/>
       <use xlink:href="#DejaVuSans-43" x="156.103516"/>
      </g>
     </g>
    </g>
    <g id="xtick_7">
     <g id="line2d_13">
      <path d="M 312.058812 177.543936 
L 312.058812 43.486709 
" clip-path="url(#pc5cdaa778a)" style="fill: none; stroke: #b0b0b0; stroke-opacity: 0.3; stroke-width: 0.8; stroke-linecap: square"/>
     </g>
     <g id="line2d_14">
      <g>
       <use xlink:href="#mc523747f65" x="312.058812" y="177.543936" style="stroke: #000000; stroke-width: 0.8"/>
      </g>
     </g>
     <g id="text_7">
      <!-- F1 -->
      <g transform="translate(309.727017 198.482779) rotate(-45) scale(0.1 -0.1)">
       <defs>
        <path id="DejaVuSans-46" d="M 628 4666 
L 3309 4666 
L 3309 4134 
L 1259 4134 
L 1259 2759 
L 3109 2759 
L 3109 2228 
L 1259 2228 
L 1259 0 
L 628 0 
L 628 4666 
z
" transform="scale(0.015625)"/>
        <path id="DejaVuSans-31" d="M 794 531 
L 1825 531 
L 1825 4091 
L 703 3866 
L 703 4441 
L 1819 4666 
L 2450 4666 
L 2450 531 
L 3481 531 
L 3481 0 
L 794 0 
L 794 531 
z
" transform="scale(0.015625)"/>
       </defs>
       <use xlink:href="#DejaVuSans-46"/>
       <use xlink:href="#DejaVuSans-31" x="57.519531"/>
      </g>
     </g>
    </g>
   </g>
   <g id="matplotlib.axis_2">
    <g id="ytick_1">
     <g id="line2d_15">
      <path d="M 43.78125 177.543936 
L 337.55125 177.543936 
" clip-path="url(#pc5cdaa778a)" style="fill: none; stroke: #b0b0b0; stroke-opacity: 0.3; stroke-width: 0.8; stroke-linecap: square"/>
     </g>
     <g id="line2d_16">
      <defs>
       <path id="m27f1bc4ff5" d="M 0 0 
L -3.5 0 
" style="stroke: #000000; stroke-width: 0.8"/>
      </defs>
      <g>
       <use xlink:href="#m27f1bc4ff5" x="43.78125" y="177.543936" style="stroke: #000000; stroke-width: 0.8"/>
      </g>
     </g>
     <g id="text_8">
      <!-- 0.0 -->
      <g transform="translate(20.878125 181.343155) scale(0.1 -0.1)">
       <defs>
        <path id="DejaVuSans-30" d="M 2034 4250 
Q 1547 4250 1301 3770 
Q 1056 3291 1056 2328 
Q 1056 1369 1301 889 
Q 1547 409 2034 409 
Q 2525 409 2770 889 
Q 3016 1369 3016 2328 
Q 3016 3291 2770 3770 
Q 2525 4250 2034 4250 
z
M 2034 4750 
Q 2819 4750 3233 4129 
Q 3647 3509 3647 2328 
Q 3647 1150 3233 529 
Q 2819 -91 2034 -91 
Q 1250 -91 836 529 
Q 422 1150 422 2328 
Q 422 3509 836 4129 
Q 1250 4750 2034 4750 
z
" transform="scale(0.015625)"/>
        <path id="DejaVuSans-2e" d="M 684 794 
L 1344 794 
L 1344 0 
L 684 0 
L 684 794 
z
" transform="scale(0.015625)"/>
       </defs>
       <use xlink:href="#DejaVuSans-30"/>
       <use xlink:href="#DejaVuSans-2e" x="63.623047"/>
       <use xlink:href="#DejaVuSans-30" x="95.410156"/>
      </g>
     </g>
    </g>
    <g id="ytick_2">
     <g id="line2d_17">
      <path d="M 43.78125 151.505376 
L 337.55125 151.505376 
" clip-path="url(#pc5cdaa778a)" style="fill: none; stroke: #b0b0b0; stroke-opacity: 0.3; stroke-width: 0.8; stroke-linecap: square"/>
     </g>
     <g id="line2d_18">
      <g>
       <use xlink:href="#m27f1bc4ff5" x="43.78125" y="151.505376" style="stroke: #000000; stroke-width: 0.8"/>
      </g>
     </g>
     <g id="text_9">
      <!-- 0.2 -->
      <g transform="translate(20.878125 155.304594) scale(0.1 -0.1)">
       <defs>
        <path id="DejaVuSans-32" d="M 1228 531 
L 3431 531 
L 3431 0 
L 469 0 
L 469 531 
Q 828 903 1448 1529 
Q 2069 2156 2228 2338 
Q 2531 2678 2651 2914 
Q 2772 3150 2772 3378 
Q 2772 3750 2511 3984 
Q 2250 4219 1831 4219 
Q 1534 4219 1204 4116 
Q 875 4013 500 3803 
L 500 4441 
Q 881 4594 1212 4672 
Q 1544 4750 1819 4750 
Q 2544 4750 2975 4387 
Q 3406 4025 3406 3419 
Q 3406 3131 3298 2873 
Q 3191 2616 2906 2266 
Q 2828 2175 2409 1742 
Q 1991 1309 1228 531 
z
" transform="scale(0.015625)"/>
       </defs>
       <use xlink:href="#DejaVuSans-30"/>
       <use xlink:href="#DejaVuSans-2e" x="63.623047"/>
       <use xlink:href="#DejaVuSans-32" x="95.410156"/>
      </g>
     </g>
    </g>
    <g id="ytick_3">
     <g id="line2d_19">
      <path d="M 43.78125 125.466815 
L 337.55125 125.466815 
" clip-path="url(#pc5cdaa778a)" style="fill: none; stroke: #b0b0b0; stroke-opacity: 0.3; stroke-width: 0.8; stroke-linecap: square"/>
     </g>
     <g id="line2d_20">
      <g>
       <use xlink:href="#m27f1bc4ff5" x="43.78125" y="125.466815" style="stroke: #000000; stroke-width: 0.8"/>
      </g>
     </g>
     <g id="text_10">
      <!-- 0.4 -->
      <g transform="translate(20.878125 129.266033) scale(0.1 -0.1)">
       <defs>
        <path id="DejaVuSans-34" d="M 2419 4116 
L 825 1625 
L 2419 1625 
L 2419 4116 
z
M 2253 4666 
L 3047 4666 
L 3047 1625 
L 3713 1625 
L 3713 1100 
L 3047 1100 
L 3047 0 
L 2419 0 
L 2419 1100 
L 313 1100 
L 313 1709 
L 2253 4666 
z
" transform="scale(0.015625)"/>
       </defs>
       <use xlink:href="#DejaVuSans-30"/>
       <use xlink:href="#DejaVuSans-2e" x="63.623047"/>
       <use xlink:href="#DejaVuSans-34" x="95.410156"/>
      </g>
     </g>
    </g>
    <g id="ytick_4">
     <g id="line2d_21">
      <path d="M 43.78125 99.428254 
L 337.55125 99.428254 
" clip-path="url(#pc5cdaa778a)" style="fill: none; stroke: #b0b0b0; stroke-opacity: 0.3; stroke-width: 0.8; stroke-linecap: square"/>
     </g>
     <g id="line2d_22">
      <g>
       <use xlink:href="#m27f1bc4ff5" x="43.78125" y="99.428254" style="stroke: #000000; stroke-width: 0.8"/>
      </g>
     </g>
     <g id="text_11">
      <!-- 0.6 -->
      <g transform="translate(20.878125 103.227472) scale(0.1 -0.1)">
       <defs>
        <path id="DejaVuSans-36" d="M 2113 2584 
Q 1688 2584 1439 2293 
Q 1191 2003 1191 1497 
Q 1191 994 1439 701 
Q 1688 409 2113 409 
Q 2538 409 2786 701 
Q 3034 994 3034 1497 
Q 3034 2003 2786 2293 
Q 2538 2584 2113 2584 
z
M 3366 4563 
L 3366 3988 
Q 3128 4100 2886 4159 
Q 2644 4219 2406 4219 
Q 1781 4219 1451 3797 
Q 1122 3375 1075 2522 
Q 1259 2794 1537 2939 
Q 1816 3084 2150 3084 
Q 2853 3084 3261 2657 
Q 3669 2231 3669 1497 
Q 3669 778 3244 343 
Q 2819 -91 2113 -91 
Q 1303 -91 875 529 
Q 447 1150 447 2328 
Q 447 3434 972 4092 
Q 1497 4750 2381 4750 
Q 2619 4750 2861 4703 
Q 3103 4656 3366 4563 
z
" transform="scale(0.015625)"/>
       </defs>
       <use xlink:href="#DejaVuSans-30"/>
       <use xlink:href="#DejaVuSans-2e" x="63.623047"/>
       <use xlink:href="#DejaVuSans-36" x="95.410156"/>
      </g>
     </g>
    </g>
    <g id="ytick_5">
     <g id="line2d_23">
      <path d="M 43.78125 73.389693 
L 337.55125 73.389693 
" clip-path="url(#pc5cdaa778a)" style="fill: none; stroke: #b0b0b0; stroke-opacity: 0.3; stroke-width: 0.8; stroke-linecap: square"/>
     </g>
     <g id="line2d_24">
      <g>
       <use xlink:href="#m27f1bc4ff5" x="43.78125" y="73.389693" style="stroke: #000000; stroke-width: 0.8"/>
      </g>
     </g>
     <g id="text_12">
      <!-- 0.8 -->
      <g transform="translate(20.878125 77.188912) scale(0.1 -0.1)">
       <defs>
        <path id="DejaVuSans-38" d="M 2034 2216 
Q 1584 2216 1326 1975 
Q 1069 1734 1069 1313 
Q 1069 891 1326 650 
Q 1584 409 2034 409 
Q 2484 409 2743 651 
Q 3003 894 3003 1313 
Q 3003 1734 2745 1975 
Q 2488 2216 2034 2216 
z
M 1403 2484 
Q 997 2584 770 2862 
Q 544 3141 544 3541 
Q 544 4100 942 4425 
Q 1341 4750 2034 4750 
Q 2731 4750 3128 4425 
Q 3525 4100 3525 3541 
Q 3525 3141 3298 2862 
Q 3072 2584 2669 2484 
Q 3125 2378 3379 2068 
Q 3634 1759 3634 1313 
Q 3634 634 3220 271 
Q 2806 -91 2034 -91 
Q 1263 -91 848 271 
Q 434 634 434 1313 
Q 434 1759 690 2068 
Q 947 2378 1403 2484 
z
M 1172 3481 
Q 1172 3119 1398 2916 
Q 1625 2713 2034 2713 
Q 2441 2713 2670 2916 
Q 2900 3119 2900 3481 
Q 2900 3844 2670 4047 
Q 2441 4250 2034 4250 
Q 1625 4250 1398 4047 
Q 1172 3844 1172 3481 
z
" transform="scale(0.015625)"/>
       </defs>
       <use xlink:href="#DejaVuSans-30"/>
       <use xlink:href="#DejaVuSans-2e" x="63.623047"/>
       <use xlink:href="#DejaVuSans-38" x="95.410156"/>
      </g>
     </g>
    </g>
    <g id="ytick_6">
     <g id="line2d_25">
      <path d="M 43.78125 47.351132 
L 337.55125 47.351132 
" clip-path="url(#pc5cdaa778a)" style="fill: none; stroke: #b0b0b0; stroke-opacity: 0.3; stroke-width: 0.8; stroke-linecap: square"/>
     </g>
     <g id="line2d_26">
      <g>
       <use xlink:href="#m27f1bc4ff5" x="43.78125" y="47.351132" style="stroke: #000000; stroke-width: 0.8"/>
      </g>
     </g>
     <g id="text_13">
      <!-- 1.0 -->
      <g transform="translate(20.878125 51.150351) scale(0.1 -0.1)">
       <use xlink:href="#DejaVuSans-31"/>
       <use xlink:href="#DejaVuSans-2e" x="63.623047"/>
       <use xlink:href="#DejaVuSans-30" x="95.410156"/>
      </g>
     </g>
    </g>
    <g id="text_14">
     <!-- Score -->
     <g transform="translate(14.798438 124.517667) rotate(-90) scale(0.1 -0.1)">
      <use xlink:href="#DejaVuSans-53"/>
      <use xlink:href="#DejaVuSans-63" x="63.476562"/>
      <use xlink:href="#DejaVuSans-6f" x="118.457031"/>
      <use xlink:href="#DejaVuSans-72" x="179.638672"/>
      <use xlink:href="#DejaVuSans-65" x="218.501953"/>
     </g>
    </g>
   </g>
   <g id="LineCollection_1">
    <path d="M 60.169246 147.187649 
L 60.169246 144.771094 
" clip-path="url(#pc5cdaa778a)" style="fill: none; stroke: #43a3ef; stroke-width: 1.5"/>
    <path d="M 100.633433 51.165118 
L 100.633433 50.747066 
" clip-path="url(#pc5cdaa778a)" style="fill: none; stroke: #43a3ef; stroke-width: 1.5"/>
    <path d="M 141.097621 96.46887 
L 141.097621 92.480589 
" clip-path="url(#pc5cdaa778a)" style="fill: none; stroke: #43a3ef; stroke-width: 1.5"/>
    <path d="M 181.561808 68.915762 
L 181.561808 67.652332 
" clip-path="url(#pc5cdaa778a)" style="fill: none; stroke: #43a3ef; stroke-width: 1.5"/>
    <path d="M 222.025995 70.062082 
L 222.025995 68.867812 
" clip-path="url(#pc5cdaa778a)" style="fill: none; stroke: #43a3ef; stroke-width: 1.5"/>
    <path d="M 262.490183 138.478916 
L 262.490183 135.411761 
" clip-path="url(#pc5cdaa778a)" style="fill: none; stroke: #43a3ef; stroke-width: 1.5"/>
    <path d="M 302.95437 135.625559 
L 302.95437 132.782688 
" clip-path="url(#pc5cdaa778a)" style="fill: none; stroke: #43a3ef; stroke-width: 1.5"/>
   </g>
   <g id="line2d_27">
    <defs>
     <path id="mf390c5cf95" d="M 3 0 
L -3 -0 
" style="stroke: #43a3ef"/>
    </defs>
    <g clip-path="url(#pc5cdaa778a)">
     <use xlink:href="#mf390c5cf95" x="60.169246" y="147.187649" style="fill: #43a3ef; stroke: #43a3ef"/>
     <use xlink:href="#mf390c5cf95" x="100.633433" y="51.165118" style="fill: #43a3ef; stroke: #43a3ef"/>
     <use xlink:href="#mf390c5cf95" x="141.097621" y="96.46887" style="fill: #43a3ef; stroke: #43a3ef"/>
     <use xlink:href="#mf390c5cf95" x="181.561808" y="68.915762" style="fill: #43a3ef; stroke: #43a3ef"/>
     <use xlink:href="#mf390c5cf95" x="222.025995" y="70.062082" style="fill: #43a3ef; stroke: #43a3ef"/>
     <use xlink:href="#mf390c5cf95" x="262.490183" y="138.478916" style="fill: #43a3ef; stroke: #43a3ef"/>
     <use xlink:href="#mf390c5cf95" x="302.95437" y="135.625559" style="fill: #43a3ef; stroke: #43a3ef"/>
    </g>
   </g>
   <g id="line2d_28">
    <g clip-path="url(#pc5cdaa778a)">
     <use xlink:href="#mf390c5cf95" x="60.169246" y="144.771094" style="fill: #43a3ef; stroke: #43a3ef"/>
     <use xlink:href="#mf390c5cf95" x="100.633433" y="50.747066" style="fill: #43a3ef; stroke: #43a3ef"/>
     <use xlink:href="#mf390c5cf95" x="141.097621" y="92.480589" style="fill: #43a3ef; stroke: #43a3ef"/>
     <use xlink:href="#mf390c5cf95" x="181.561808" y="67.652332" style="fill: #43a3ef; stroke: #43a3ef"/>
     <use xlink:href="#mf390c5cf95" x="222.025995" y="68.867812" style="fill: #43a3ef; stroke: #43a3ef"/>
     <use xlink:href="#mf390c5cf95" x="262.490183" y="135.411761" style="fill: #43a3ef; stroke: #43a3ef"/>
     <use xlink:href="#mf390c5cf95" x="302.95437" y="132.782688" style="fill: #43a3ef; stroke: #43a3ef"/>
    </g>
   </g>
   <g id="LineCollection_2">
    <path d="M 66.238874 144.4201 
L 66.238874 141.875788 
" clip-path="url(#pc5cdaa778a)" style="fill: none; stroke: #43a3ef; stroke-width: 1.5"/>
    <path d="M 106.703061 52.297587 
L 106.703061 51.788569 
" clip-path="url(#pc5cdaa778a)" style="fill: none; stroke: #43a3ef; stroke-width: 1.5"/>
    <path d="M 147.167249 110.960679 
L 147.167249 106.793533 
" clip-path="url(#pc5cdaa778a)" style="fill: none; stroke: #43a3ef; stroke-width: 1.5"/>
    <path d="M 187.631436 59.799509 
L 187.631436 59.420875 
" clip-path="url(#pc5cdaa778a)" style="fill: none; stroke: #43a3ef; stroke-width: 1.5"/>
    <path d="M 228.095623 63.285955 
L 228.095623 62.81363 
" clip-path="url(#pc5cdaa778a)" style="fill: none; stroke: #43a3ef; stroke-width: 1.5"/>
    <path d="M 268.559811 139.621651 
L 268.559811 136.667543 
" clip-path="url(#pc5cdaa778a)" style="fill: none; stroke: #43a3ef; stroke-width: 1.5"/>
    <path d="M 309.023998 136.698324 
L 309.023998 133.9594 
" clip-path="url(#pc5cdaa778a)" style="fill: none; stroke: #43a3ef; stroke-width: 1.5"/>
   </g>
   <g id="line2d_29">
    <g clip-path="url(#pc5cdaa778a)">
     <use xlink:href="#mf390c5cf95" x="66.238874" y="144.4201" style="fill: #43a3ef; stroke: #43a3ef"/>
     <use xlink:href="#mf390c5cf95" x="106.703061" y="52.297587" style="fill: #43a3ef; stroke: #43a3ef"/>
     <use xlink:href="#mf390c5cf95" x="147.167249" y="110.960679" style="fill: #43a3ef; stroke: #43a3ef"/>
     <use xlink:href="#mf390c5cf95" x="187.631436" y="59.799509" style="fill: #43a3ef; stroke: #43a3ef"/>
     <use xlink:href="#mf390c5cf95" x="228.095623" y="63.285955" style="fill: #43a3ef; stroke: #43a3ef"/>
     <use xlink:href="#mf390c5cf95" x="268.559811" y="139.621651" style="fill: #43a3ef; stroke: #43a3ef"/>
     <use xlink:href="#mf390c5cf95" x="309.023998" y="136.698324" style="fill: #43a3ef; stroke: #43a3ef"/>
    </g>
   </g>
   <g id="line2d_30">
    <g clip-path="url(#pc5cdaa778a)">
     <use xlink:href="#mf390c5cf95" x="66.238874" y="141.875788" style="fill: #43a3ef; stroke: #43a3ef"/>
     <use xlink:href="#mf390c5cf95" x="106.703061" y="51.788569" style="fill: #43a3ef; stroke: #43a3ef"/>
     <use xlink:href="#mf390c5cf95" x="147.167249" y="106.793533" style="fill: #43a3ef; stroke: #43a3ef"/>
     <use xlink:href="#mf390c5cf95" x="187.631436" y="59.420875" style="fill: #43a3ef; stroke: #43a3ef"/>
     <use xlink:href="#mf390c5cf95" x="228.095623" y="62.81363" style="fill: #43a3ef; stroke: #43a3ef"/>
     <use xlink:href="#mf390c5cf95" x="268.559811" y="136.667543" style="fill: #43a3ef; stroke: #43a3ef"/>
     <use xlink:href="#mf390c5cf95" x="309.023998" y="133.9594" style="fill: #43a3ef; stroke: #43a3ef"/>
    </g>
   </g>
   <g id="LineCollection_3">
    <path d="M 72.308502 141.873636 
L 72.308502 141.12066 
" clip-path="url(#pc5cdaa778a)" style="fill: none; stroke: #ef767b; stroke-width: 1.5"/>
    <path d="M 112.772689 49.964604 
L 112.772689 49.870387 
" clip-path="url(#pc5cdaa778a)" style="fill: none; stroke: #ef767b; stroke-width: 1.5"/>
    <path d="M 153.236877 88.338816 
L 153.236877 87.158388 
" clip-path="url(#pc5cdaa778a)" style="fill: none; stroke: #ef767b; stroke-width: 1.5"/>
    <path d="M 193.701064 65.486569 
L 193.701064 65.135843 
" clip-path="url(#pc5cdaa778a)" style="fill: none; stroke: #ef767b; stroke-width: 1.5"/>
    <path d="M 234.165251 66.134363 
L 234.165251 65.803544 
" clip-path="url(#pc5cdaa778a)" style="fill: none; stroke: #ef767b; stroke-width: 1.5"/>
    <path d="M 274.629439 130.051532 
L 274.629439 129.138502 
" clip-path="url(#pc5cdaa778a)" style="fill: none; stroke: #ef767b; stroke-width: 1.5"/>
    <path d="M 315.093626 128.853388 
L 315.093626 127.98063 
" clip-path="url(#pc5cdaa778a)" style="fill: none; stroke: #ef767b; stroke-width: 1.5"/>
   </g>
   <g id="line2d_31">
    <defs>
     <path id="m77afde1937" d="M 3 0 
L -3 -0 
" style="stroke: #ef767b"/>
    </defs>
    <g clip-path="url(#pc5cdaa778a)">
     <use xlink:href="#m77afde1937" x="72.308502" y="141.873636" style="fill: #ef767b; stroke: #ef767b"/>
     <use xlink:href="#m77afde1937" x="112.772689" y="49.964604" style="fill: #ef767b; stroke: #ef767b"/>
     <use xlink:href="#m77afde1937" x="153.236877" y="88.338816" style="fill: #ef767b; stroke: #ef767b"/>
     <use xlink:href="#m77afde1937" x="193.701064" y="65.486569" style="fill: #ef767b; stroke: #ef767b"/>
     <use xlink:href="#m77afde1937" x="234.165251" y="66.134363" style="fill: #ef767b; stroke: #ef767b"/>
     <use xlink:href="#m77afde1937" x="274.629439" y="130.051532" style="fill: #ef767b; stroke: #ef767b"/>
     <use xlink:href="#m77afde1937" x="315.093626" y="128.853388" style="fill: #ef767b; stroke: #ef767b"/>
    </g>
   </g>
   <g id="line2d_32">
    <g clip-path="url(#pc5cdaa778a)">
     <use xlink:href="#m77afde1937" x="72.308502" y="141.12066" style="fill: #ef767b; stroke: #ef767b"/>
     <use xlink:href="#m77afde1937" x="112.772689" y="49.870387" style="fill: #ef767b; stroke: #ef767b"/>
     <use xlink:href="#m77afde1937" x="153.236877" y="87.158388" style="fill: #ef767b; stroke: #ef767b"/>
     <use xlink:href="#m77afde1937" x="193.701064" y="65.135843" style="fill: #ef767b; stroke: #ef767b"/>
     <use xlink:href="#m77afde1937" x="234.165251" y="65.803544" style="fill: #ef767b; stroke: #ef767b"/>
     <use xlink:href="#m77afde1937" x="274.629439" y="129.138502" style="fill: #ef767b; stroke: #ef767b"/>
     <use xlink:href="#m77afde1937" x="315.093626" y="127.98063" style="fill: #ef767b; stroke: #ef767b"/>
    </g>
   </g>
   <g id="LineCollection_4">
    <path d="M 78.37813 140.210684 
L 78.37813 139.391953 
" clip-path="url(#pc5cdaa778a)" style="fill: none; stroke: #ef767b; stroke-width: 1.5"/>
    <path d="M 118.842317 50.956931 
L 118.842317 50.824549 
" clip-path="url(#pc5cdaa778a)" style="fill: none; stroke: #ef767b; stroke-width: 1.5"/>
    <path d="M 159.306505 97.166004 
L 159.306505 95.948064 
" clip-path="url(#pc5cdaa778a)" style="fill: none; stroke: #ef767b; stroke-width: 1.5"/>
    <path d="M 199.770692 59.774976 
L 199.770692 59.661735 
" clip-path="url(#pc5cdaa778a)" style="fill: none; stroke: #ef767b; stroke-width: 1.5"/>
    <path d="M 240.234879 62.20919 
L 240.234879 62.086925 
" clip-path="url(#pc5cdaa778a)" style="fill: none; stroke: #ef767b; stroke-width: 1.5"/>
    <path d="M 280.699067 131.537031 
L 280.699067 130.665297 
" clip-path="url(#pc5cdaa778a)" style="fill: none; stroke: #ef767b; stroke-width: 1.5"/>
    <path d="M 321.163254 130.697882 
L 321.163254 129.85367 
" clip-path="url(#pc5cdaa778a)" style="fill: none; stroke: #ef767b; stroke-width: 1.5"/>
   </g>
   <g id="line2d_33">
    <g clip-path="url(#pc5cdaa778a)">
     <use xlink:href="#m77afde1937" x="78.37813" y="140.210684" style="fill: #ef767b; stroke: #ef767b"/>
     <use xlink:href="#m77afde1937" x="118.842317" y="50.956931" style="fill: #ef767b; stroke: #ef767b"/>
     <use xlink:href="#m77afde1937" x="159.306505" y="97.166004" style="fill: #ef767b; stroke: #ef767b"/>
     <use xlink:href="#m77afde1937" x="199.770692" y="59.774976" style="fill: #ef767b; stroke: #ef767b"/>
     <use xlink:href="#m77afde1937" x="240.234879" y="62.20919" style="fill: #ef767b; stroke: #ef767b"/>
     <use xlink:href="#m77afde1937" x="280.699067" y="131.537031" style="fill: #ef767b; stroke: #ef767b"/>
     <use xlink:href="#m77afde1937" x="321.163254" y="130.697882" style="fill: #ef767b; stroke: #ef767b"/>
    </g>
   </g>
   <g id="line2d_34">
    <g clip-path="url(#pc5cdaa778a)">
     <use xlink:href="#m77afde1937" x="78.37813" y="139.391953" style="fill: #ef767b; stroke: #ef767b"/>
     <use xlink:href="#m77afde1937" x="118.842317" y="50.824549" style="fill: #ef767b; stroke: #ef767b"/>
     <use xlink:href="#m77afde1937" x="159.306505" y="95.948064" style="fill: #ef767b; stroke: #ef767b"/>
     <use xlink:href="#m77afde1937" x="199.770692" y="59.661735" style="fill: #ef767b; stroke: #ef767b"/>
     <use xlink:href="#m77afde1937" x="240.234879" y="62.086925" style="fill: #ef767b; stroke: #ef767b"/>
     <use xlink:href="#m77afde1937" x="280.699067" y="130.665297" style="fill: #ef767b; stroke: #ef767b"/>
     <use xlink:href="#m77afde1937" x="321.163254" y="129.85367" style="fill: #ef767b; stroke: #ef767b"/>
    </g>
   </g>
   <g id="patch_31">
    <path d="M 43.78125 177.543936 
L 43.78125 43.486709 
" style="fill: none; stroke: #000000; stroke-width: 0.8; stroke-linejoin: miter; stroke-linecap: square"/>
   </g>
   <g id="patch_32">
    <path d="M 337.55125 177.543936 
L 337.55125 43.486709 
" style="fill: none; stroke: #000000; stroke-width: 0.8; stroke-linejoin: miter; stroke-linecap: square"/>
   </g>
   <g id="patch_33">
    <path d="M 43.78125 177.543936 
L 337.55125 177.543936 
" style="fill: none; stroke: #000000; stroke-width: 0.8; stroke-linejoin: miter; stroke-linecap: square"/>
   </g>
   <g id="patch_34">
    <path d="M 43.78125 43.486709 
L 337.55125 43.486709 
" style="fill: none; stroke: #000000; stroke-width: 0.8; stroke-linejoin: miter; stroke-linecap: square"/>
   </g>
   <g id="legend_1">
    <g id="patch_35">
     <path d="M 47.212344 18.798437 
L 67.212344 18.798437 
L 67.212344 11.798437 
L 47.212344 11.798437 
z
" style="fill: #a8d5f7; stroke: #43a3ef; stroke-linejoin: miter"/>
    </g>
    <g id="text_15">
     <!-- COACH420 (Threshold) -->
     <g transform="translate(75.212344 18.798437) scale(0.1 -0.1)">
      <defs>
       <path id="DejaVuSans-4f" d="M 2522 4238 
Q 1834 4238 1429 3725 
Q 1025 3213 1025 2328 
Q 1025 1447 1429 934 
Q 1834 422 2522 422 
Q 3209 422 3611 934 
Q 4013 1447 4013 2328 
Q 4013 3213 3611 3725 
Q 3209 4238 2522 4238 
z
M 2522 4750 
Q 3503 4750 4090 4092 
Q 4678 3434 4678 2328 
Q 4678 1225 4090 567 
Q 3503 -91 2522 -91 
Q 1538 -91 948 565 
Q 359 1222 359 2328 
Q 359 3434 948 4092 
Q 1538 4750 2522 4750 
z
" transform="scale(0.015625)"/>
       <path id="DejaVuSans-48" d="M 628 4666 
L 1259 4666 
L 1259 2753 
L 3553 2753 
L 3553 4666 
L 4184 4666 
L 4184 0 
L 3553 0 
L 3553 2222 
L 1259 2222 
L 1259 0 
L 628 0 
L 628 4666 
z
" transform="scale(0.015625)"/>
       <path id="DejaVuSans-20" transform="scale(0.015625)"/>
       <path id="DejaVuSans-28" d="M 1984 4856 
Q 1566 4138 1362 3434 
Q 1159 2731 1159 2009 
Q 1159 1288 1364 580 
Q 1569 -128 1984 -844 
L 1484 -844 
Q 1016 -109 783 600 
Q 550 1309 550 2009 
Q 550 2706 781 3412 
Q 1013 4119 1484 4856 
L 1984 4856 
z
" transform="scale(0.015625)"/>
       <path id="DejaVuSans-54" d="M -19 4666 
L 3928 4666 
L 3928 4134 
L 2272 4134 
L 2272 0 
L 1638 0 
L 1638 4134 
L -19 4134 
L -19 4666 
z
" transform="scale(0.015625)"/>
       <path id="DejaVuSans-68" d="M 3513 2113 
L 3513 0 
L 2938 0 
L 2938 2094 
Q 2938 2591 2744 2837 
Q 2550 3084 2163 3084 
Q 1697 3084 1428 2787 
Q 1159 2491 1159 1978 
L 1159 0 
L 581 0 
L 581 4863 
L 1159 4863 
L 1159 2956 
Q 1366 3272 1645 3428 
Q 1925 3584 2291 3584 
Q 2894 3584 3203 3211 
Q 3513 2838 3513 2113 
z
" transform="scale(0.015625)"/>
       <path id="DejaVuSans-64" d="M 2906 2969 
L 2906 4863 
L 3481 4863 
L 3481 0 
L 2906 0 
L 2906 525 
Q 2725 213 2448 61 
Q 2172 -91 1784 -91 
Q 1150 -91 751 415 
Q 353 922 353 1747 
Q 353 2572 751 3078 
Q 1150 3584 1784 3584 
Q 2172 3584 2448 3432 
Q 2725 3281 2906 2969 
z
M 947 1747 
Q 947 1113 1208 752 
Q 1469 391 1925 391 
Q 2381 391 2643 752 
Q 2906 1113 2906 1747 
Q 2906 2381 2643 2742 
Q 2381 3103 1925 3103 
Q 1469 3103 1208 2742 
Q 947 2381 947 1747 
z
" transform="scale(0.015625)"/>
       <path id="DejaVuSans-29" d="M 513 4856 
L 1013 4856 
Q 1481 4119 1714 3412 
Q 1947 2706 1947 2009 
Q 1947 1309 1714 600 
Q 1481 -109 1013 -844 
L 513 -844 
Q 928 -128 1133 580 
Q 1338 1288 1338 2009 
Q 1338 2731 1133 3434 
Q 928 4138 513 4856 
z
" transform="scale(0.015625)"/>
      </defs>
      <use xlink:href="#DejaVuSans-43"/>
      <use xlink:href="#DejaVuSans-4f" x="69.824219"/>
      <use xlink:href="#DejaVuSans-41" x="146.785156"/>
      <use xlink:href="#DejaVuSans-43" x="213.443359"/>
      <use xlink:href="#DejaVuSans-48" x="283.267578"/>
      <use xlink:href="#DejaVuSans-34" x="358.462891"/>
      <use xlink:href="#DejaVuSans-32" x="422.085938"/>
      <use xlink:href="#DejaVuSans-30" x="485.708984"/>
      <use xlink:href="#DejaVuSans-20" x="549.332031"/>
      <use xlink:href="#DejaVuSans-28" x="581.119141"/>
      <use xlink:href="#DejaVuSans-54" x="620.132812"/>
      <use xlink:href="#DejaVuSans-68" x="681.216797"/>
      <use xlink:href="#DejaVuSans-72" x="744.595703"/>
      <use xlink:href="#DejaVuSans-65" x="783.458984"/>
      <use xlink:href="#DejaVuSans-73" x="844.982422"/>
      <use xlink:href="#DejaVuSans-68" x="897.082031"/>
      <use xlink:href="#DejaVuSans-6f" x="960.460938"/>
      <use xlink:href="#DejaVuSans-6c" x="1021.642578"/>
      <use xlink:href="#DejaVuSans-64" x="1049.425781"/>
      <use xlink:href="#DejaVuSans-29" x="1112.902344"/>
     </g>
    </g>
    <g id="patch_36">
     <path d="M 47.212344 33.476562 
L 67.212344 33.476562 
L 67.212344 26.476562 
L 47.212344 26.476562 
z
" style="fill: url(#h95989bfd4b); stroke: #43a3ef; stroke-linejoin: miter"/>
    </g>
    <g id="text_16">
     <!-- COACH420 (IQR) -->
     <g transform="translate(75.212344 33.476562) scale(0.1 -0.1)">
      <defs>
       <path id="DejaVuSans-49" d="M 628 4666 
L 1259 4666 
L 1259 0 
L 628 0 
L 628 4666 
z
" transform="scale(0.015625)"/>
       <path id="DejaVuSans-51" d="M 2522 4238 
Q 1834 4238 1429 3725 
Q 1025 3213 1025 2328 
Q 1025 1447 1429 934 
Q 1834 422 2522 422 
Q 3209 422 3611 934 
Q 4013 1447 4013 2328 
Q 4013 3213 3611 3725 
Q 3209 4238 2522 4238 
z
M 3406 84 
L 4238 -825 
L 3475 -825 
L 2784 -78 
Q 2681 -84 2626 -87 
Q 2572 -91 2522 -91 
Q 1538 -91 948 567 
Q 359 1225 359 2328 
Q 359 3434 948 4092 
Q 1538 4750 2522 4750 
Q 3503 4750 4090 4092 
Q 4678 3434 4678 2328 
Q 4678 1516 4351 937 
Q 4025 359 3406 84 
z
" transform="scale(0.015625)"/>
      </defs>
      <use xlink:href="#DejaVuSans-43"/>
      <use xlink:href="#DejaVuSans-4f" x="69.824219"/>
      <use xlink:href="#DejaVuSans-41" x="146.785156"/>
      <use xlink:href="#DejaVuSans-43" x="213.443359"/>
      <use xlink:href="#DejaVuSans-48" x="283.267578"/>
      <use xlink:href="#DejaVuSans-34" x="358.462891"/>
      <use xlink:href="#DejaVuSans-32" x="422.085938"/>
      <use xlink:href="#DejaVuSans-30" x="485.708984"/>
      <use xlink:href="#DejaVuSans-20" x="549.332031"/>
      <use xlink:href="#DejaVuSans-28" x="581.119141"/>
      <use xlink:href="#DejaVuSans-49" x="620.132812"/>
      <use xlink:href="#DejaVuSans-51" x="649.625"/>
      <use xlink:href="#DejaVuSans-52" x="728.335938"/>
      <use xlink:href="#DejaVuSans-29" x="797.818359"/>
     </g>
    </g>
    <g id="patch_37">
     <path d="M 210.406094 18.798437 
L 230.406094 18.798437 
L 230.406094 11.798437 
L 210.406094 11.798437 
z
" style="fill: #f7bbbe; stroke: #ef767b; stroke-linejoin: miter"/>
    </g>
    <g id="text_17">
     <!-- Holo4K (Threshold) -->
     <g transform="translate(238.406094 18.798437) scale(0.1 -0.1)">
      <defs>
       <path id="DejaVuSans-4b" d="M 628 4666 
L 1259 4666 
L 1259 2694 
L 3353 4666 
L 4166 4666 
L 1850 2491 
L 4331 0 
L 3500 0 
L 1259 2247 
L 1259 0 
L 628 0 
L 628 4666 
z
" transform="scale(0.015625)"/>
      </defs>
      <use xlink:href="#DejaVuSans-48"/>
      <use xlink:href="#DejaVuSans-6f" x="75.195312"/>
      <use xlink:href="#DejaVuSans-6c" x="136.376953"/>
      <use xlink:href="#DejaVuSans-6f" x="164.160156"/>
      <use xlink:href="#DejaVuSans-34" x="225.341797"/>
      <use xlink:href="#DejaVuSans-4b" x="288.964844"/>
      <use xlink:href="#DejaVuSans-20" x="354.541016"/>
      <use xlink:href="#DejaVuSans-28" x="386.328125"/>
      <use xlink:href="#DejaVuSans-54" x="425.341797"/>
      <use xlink:href="#DejaVuSans-68" x="486.425781"/>
      <use xlink:href="#DejaVuSans-72" x="549.804688"/>
      <use xlink:href="#DejaVuSans-65" x="588.667969"/>
      <use xlink:href="#DejaVuSans-73" x="650.191406"/>
      <use xlink:href="#DejaVuSans-68" x="702.291016"/>
      <use xlink:href="#DejaVuSans-6f" x="765.669922"/>
      <use xlink:href="#DejaVuSans-6c" x="826.851562"/>
      <use xlink:href="#DejaVuSans-64" x="854.634766"/>
      <use xlink:href="#DejaVuSans-29" x="918.111328"/>
     </g>
    </g>
    <g id="patch_38">
     <path d="M 210.406094 33.476562 
L 230.406094 33.476562 
L 230.406094 26.476562 
L 210.406094 26.476562 
z
" style="fill: url(#he3fcb8719b); stroke: #ef767b; stroke-linejoin: miter"/>
    </g>
    <g id="text_18">
     <!-- Holo4K (IQR) -->
     <g transform="translate(238.406094 33.476562) scale(0.1 -0.1)">
      <use xlink:href="#DejaVuSans-48"/>
      <use xlink:href="#DejaVuSans-6f" x="75.195312"/>
      <use xlink:href="#DejaVuSans-6c" x="136.376953"/>
      <use xlink:href="#DejaVuSans-6f" x="164.160156"/>
      <use xlink:href="#DejaVuSans-34" x="225.341797"/>
      <use xlink:href="#DejaVuSans-4b" x="288.964844"/>
      <use xlink:href="#DejaVuSans-20" x="354.541016"/>
      <use xlink:href="#DejaVuSans-28" x="386.328125"/>
      <use xlink:href="#DejaVuSans-49" x="425.341797"/>
      <use xlink:href="#DejaVuSans-51" x="454.833984"/>
      <use xlink:href="#DejaVuSans-52" x="533.544922"/>
      <use xlink:href="#DejaVuSans-29" x="603.027344"/>
     </g>
    </g>
   </g>
  </g>
 </g>
 <defs>
  <clipPath id="pc5cdaa778a">
   <rect x="43.78125" y="43.486709" width="293.77" height="134.057227"/>
  </clipPath>
 </defs>
 <defs>
  <pattern id="h95989bfd4b" patternUnits="userSpaceOnUse" x="0" y="0" width="72" height="72">
   <rect x="0" y="0" width="73" height="73" fill="#ffffff"/>
   <path d="M -36 36 
L 36 -36 
M -30 42 
L 42 -30 
M -24 48 
L 48 -24 
M -18 54 
L 54 -18 
M -12 60 
L 60 -12 
M -6 66 
L 66 -6 
M 0 72 
L 72 0 
M 6 78 
L 78 6 
M 12 84 
L 84 12 
M 18 90 
L 90 18 
M 24 96 
L 96 24 
M 30 102 
L 102 30 
M 36 108 
L 108 36 
" style="fill: #43a3ef; stroke: #43a3ef; stroke-width: 1.0; stroke-linecap: butt; stroke-linejoin: miter"/>
  </pattern>
  <pattern id="he3fcb8719b" patternUnits="userSpaceOnUse" x="0" y="0" width="72" height="72">
   <rect x="0" y="0" width="73" height="73" fill="#ffffff"/>
   <path d="M -36 36 
L 36 -36 
M -30 42 
L 42 -30 
M -24 48 
L 48 -24 
M -18 54 
L 54 -18 
M -12 60 
L 60 -12 
M -6 66 
L 66 -6 
M 0 72 
L 72 0 
M 6 78 
L 78 6 
M 12 84 
L 84 12 
M 18 90 
L 90 18 
M 24 96 
L 96 24 
M 30 102 
L 102 30 
M 36 108 
L 108 36 
" style="fill: #ef767b; stroke: #ef767b; stroke-width: 1.0; stroke-linecap: butt; stroke-linejoin: miter"/>
  </pattern>
 </defs>
</svg>
