<?xml version="1.0" encoding="utf-8" standalone="no"?>
<!DOCTYPE svg PUBLIC "-//W3C//DTD SVG 1.1//EN"
  "http://www.w3.org/Graphics/SVG/1.1/DTD/svg11.dtd">
<svg xmlns:xlink="http://www.w3.org/1999/xlink" width="244.370625pt" height="171.99625pt" viewBox="0 0 244.370625 171.99625" xmlns="http://www.w3.org/2000/svg" version="1.1">
 <metadata>
  <rdf:RDF xmlns:dc="http://purl.org/dc/elements/1.1/" xmlns:cc="http://creativecommons.org/ns#" xmlns:rdf="http://www.w3.org/1999/02/22-rdf-syntax-ns#">
   <cc:Work>
    <dc:type rdf:resource="http://purl.org/dc/dcmitype/StillImage"/>
    <dc:date>2025-06-26T17:01:25.922321</dc:date>
    <dc:format>image/svg+xml</dc:format>
    <dc:creator>
     <cc:Agent>
      <dc:title>Matplotlib v3.9.4, https://matplotlib.org/</dc:title>
     </cc:Agent>
    </dc:creator>
   </cc:Work>
  </rdf:RDF>
 </metadata>
 <defs>
  <style type="text/css">*{stroke-linejoin: round; stroke-linecap: butt}</style>
 </defs>
 <g id="figure_1">
  <g id="patch_1">
   <path d="M 0 171.99625 
L 244.370625 171.99625 
L 244.370625 -0 
L 0 -0 
z
" style="fill: #ffffff"/>
  </g>
  <g id="axes_1">
   <g id="patch_2">
    <path d="M 34.240625 134.44 
L 237.170625 134.44 
L 237.170625 7.2 
L 34.240625 7.2 
z
" style="fill: #ffffff"/>
   </g>
   <g id="patch_3">
    <path d="M 45.275605 134.44 
L 48.923036 134.44 
L 48.923036 119.292362 
L 45.275605 119.292362 
z
" clip-path="url(#pe8a6adeb00)" style="fill: #43a3ef; opacity: 0.7; stroke: #000000; stroke-linejoin: miter"/>
   </g>
   <g id="patch_4">
    <path d="M 48.923036 134.44 
L 52.570467 134.44 
L 52.570467 109.193937 
L 48.923036 109.193937 
z
" clip-path="url(#pe8a6adeb00)" style="fill: #43a3ef; opacity: 0.7; stroke: #000000; stroke-linejoin: miter"/>
   </g>
   <g id="patch_5">
    <path d="M 52.570467 134.44 
L 56.217897 134.44 
L 56.217897 88.997074 
L 52.570467 88.997074 
z
" clip-path="url(#pe8a6adeb00)" style="fill: #43a3ef; opacity: 0.7; stroke: #000000; stroke-linejoin: miter"/>
   </g>
   <g id="patch_6">
    <path d="M 56.217897 134.44 
L 59.865329 134.44 
L 59.865329 94.046303 
L 56.217897 94.046303 
z
" clip-path="url(#pe8a6adeb00)" style="fill: #43a3ef; opacity: 0.7; stroke: #000000; stroke-linejoin: miter"/>
   </g>
   <g id="patch_7">
    <path d="M 59.865329 134.44 
L 63.512761 134.44 
L 63.512761 88.997091 
L 59.865329 88.997091 
z
" clip-path="url(#pe8a6adeb00)" style="fill: #43a3ef; opacity: 0.7; stroke: #000000; stroke-linejoin: miter"/>
   </g>
   <g id="patch_8">
    <path d="M 63.512761 134.44 
L 67.160192 134.44 
L 67.160192 83.947879 
L 63.512761 83.947879 
z
" clip-path="url(#pe8a6adeb00)" style="fill: #43a3ef; opacity: 0.7; stroke: #000000; stroke-linejoin: miter"/>
   </g>
   <g id="patch_9">
    <path d="M 67.160192 134.44 
L 70.807622 134.44 
L 70.807622 104.144716 
L 67.160192 104.144716 
z
" clip-path="url(#pe8a6adeb00)" style="fill: #43a3ef; opacity: 0.7; stroke: #000000; stroke-linejoin: miter"/>
   </g>
   <g id="patch_10">
    <path d="M 70.807622 134.44 
L 74.455053 134.44 
L 74.455053 104.144716 
L 70.807622 104.144716 
z
" clip-path="url(#pe8a6adeb00)" style="fill: #43a3ef; opacity: 0.7; stroke: #000000; stroke-linejoin: miter"/>
   </g>
   <g id="patch_11">
    <path d="M 74.455053 134.44 
L 78.102486 134.44 
L 78.102486 88.997108 
L 74.455053 88.997108 
z
" clip-path="url(#pe8a6adeb00)" style="fill: #43a3ef; opacity: 0.7; stroke: #000000; stroke-linejoin: miter"/>
   </g>
   <g id="patch_12">
    <path d="M 78.102486 134.44 
L 81.749916 134.44 
L 81.749916 78.898646 
L 78.102486 78.898646 
z
" clip-path="url(#pe8a6adeb00)" style="fill: #43a3ef; opacity: 0.7; stroke: #000000; stroke-linejoin: miter"/>
   </g>
   <g id="patch_13">
    <path d="M 81.749916 134.44 
L 85.397346 134.44 
L 85.397346 73.849432 
L 81.749916 73.849432 
z
" clip-path="url(#pe8a6adeb00)" style="fill: #43a3ef; opacity: 0.7; stroke: #000000; stroke-linejoin: miter"/>
   </g>
   <g id="patch_14">
    <path d="M 85.397346 134.44 
L 89.044779 134.44 
L 89.044779 88.997108 
L 85.397346 88.997108 
z
" clip-path="url(#pe8a6adeb00)" style="fill: #43a3ef; opacity: 0.7; stroke: #000000; stroke-linejoin: miter"/>
   </g>
   <g id="patch_15">
    <path d="M 89.044779 134.44 
L 92.692209 134.44 
L 92.692209 104.144716 
L 89.044779 104.144716 
z
" clip-path="url(#pe8a6adeb00)" style="fill: #43a3ef; opacity: 0.7; stroke: #000000; stroke-linejoin: miter"/>
   </g>
   <g id="patch_16">
    <path d="M 92.692209 134.44 
L 96.33964 134.44 
L 96.33964 94.046288 
L 92.692209 94.046288 
z
" clip-path="url(#pe8a6adeb00)" style="fill: #43a3ef; opacity: 0.7; stroke: #000000; stroke-linejoin: miter"/>
   </g>
   <g id="patch_17">
    <path d="M 96.33964 134.44 
L 99.98707 134.44 
L 99.98707 99.095502 
L 96.33964 99.095502 
z
" clip-path="url(#pe8a6adeb00)" style="fill: #43a3ef; opacity: 0.7; stroke: #000000; stroke-linejoin: miter"/>
   </g>
   <g id="patch_18">
    <path d="M 99.98707 134.44 
L 103.6345 134.44 
L 103.6345 119.292358 
L 99.98707 119.292358 
z
" clip-path="url(#pe8a6adeb00)" style="fill: #43a3ef; opacity: 0.7; stroke: #000000; stroke-linejoin: miter"/>
   </g>
   <g id="patch_19">
    <path d="M 103.6345 134.44 
L 107.281936 134.44 
L 107.281936 88.997143 
L 103.6345 88.997143 
z
" clip-path="url(#pe8a6adeb00)" style="fill: #43a3ef; opacity: 0.7; stroke: #000000; stroke-linejoin: miter"/>
   </g>
   <g id="patch_20">
    <path d="M 107.281936 134.44 
L 110.929366 134.44 
L 110.929366 114.243144 
L 107.281936 114.243144 
z
" clip-path="url(#pe8a6adeb00)" style="fill: #43a3ef; opacity: 0.7; stroke: #000000; stroke-linejoin: miter"/>
   </g>
   <g id="patch_21">
    <path d="M 110.929366 134.44 
L 114.576796 134.44 
L 114.576796 99.095502 
L 110.929366 99.095502 
z
" clip-path="url(#pe8a6adeb00)" style="fill: #43a3ef; opacity: 0.7; stroke: #000000; stroke-linejoin: miter"/>
   </g>
   <g id="patch_22">
    <path d="M 114.576796 134.44 
L 118.224227 134.44 
L 118.224227 78.898646 
L 114.576796 78.898646 
z
" clip-path="url(#pe8a6adeb00)" style="fill: #43a3ef; opacity: 0.7; stroke: #000000; stroke-linejoin: miter"/>
   </g>
   <g id="patch_23">
    <path d="M 118.224227 134.44 
L 121.871657 134.44 
L 121.871657 78.898646 
L 118.224227 78.898646 
z
" clip-path="url(#pe8a6adeb00)" style="fill: #43a3ef; opacity: 0.7; stroke: #000000; stroke-linejoin: miter"/>
   </g>
   <g id="patch_24">
    <path d="M 121.871657 134.44 
L 125.519087 134.44 
L 125.519087 114.243144 
L 121.871657 114.243144 
z
" clip-path="url(#pe8a6adeb00)" style="fill: #43a3ef; opacity: 0.7; stroke: #000000; stroke-linejoin: miter"/>
   </g>
   <g id="patch_25">
    <path d="M 125.519087 134.44 
L 129.166523 134.44 
L 129.166523 78.89873 
L 125.519087 78.89873 
z
" clip-path="url(#pe8a6adeb00)" style="fill: #43a3ef; opacity: 0.7; stroke: #000000; stroke-linejoin: miter"/>
   </g>
   <g id="patch_26">
    <path d="M 129.166523 134.44 
L 132.813953 134.44 
L 132.813953 73.849432 
L 129.166523 73.849432 
z
" clip-path="url(#pe8a6adeb00)" style="fill: #43a3ef; opacity: 0.7; stroke: #000000; stroke-linejoin: miter"/>
   </g>
   <g id="patch_27">
    <path d="M 132.813953 134.44 
L 136.461378 134.44 
L 136.461378 58.701675 
L 132.813953 58.701675 
z
" clip-path="url(#pe8a6adeb00)" style="fill: #43a3ef; opacity: 0.7; stroke: #000000; stroke-linejoin: miter"/>
   </g>
   <g id="patch_28">
    <path d="M 136.461378 134.44 
L 140.108814 134.44 
L 140.108814 73.849524 
L 136.461378 73.849524 
z
" clip-path="url(#pe8a6adeb00)" style="fill: #43a3ef; opacity: 0.7; stroke: #000000; stroke-linejoin: miter"/>
   </g>
   <g id="patch_29">
    <path d="M 140.108814 134.44 
L 143.756249 134.44 
L 143.756249 53.652698 
L 140.108814 53.652698 
z
" clip-path="url(#pe8a6adeb00)" style="fill: #43a3ef; opacity: 0.7; stroke: #000000; stroke-linejoin: miter"/>
   </g>
   <g id="patch_30">
    <path d="M 143.756249 134.44 
L 147.403674 134.44 
L 147.403674 99.095448 
L 143.756249 99.095448 
z
" clip-path="url(#pe8a6adeb00)" style="fill: #43a3ef; opacity: 0.7; stroke: #000000; stroke-linejoin: miter"/>
   </g>
   <g id="patch_31">
    <path d="M 147.403674 134.44 
L 151.05111 134.44 
L 151.05111 99.095556 
L 147.403674 99.095556 
z
" clip-path="url(#pe8a6adeb00)" style="fill: #43a3ef; opacity: 0.7; stroke: #000000; stroke-linejoin: miter"/>
   </g>
   <g id="patch_32">
    <path d="M 151.05111 134.44 
L 154.698535 134.44 
L 154.698535 83.947784 
L 151.05111 83.947784 
z
" clip-path="url(#pe8a6adeb00)" style="fill: #43a3ef; opacity: 0.7; stroke: #000000; stroke-linejoin: miter"/>
   </g>
   <g id="patch_33">
    <path d="M 154.698535 134.44 
L 158.34597 134.44 
L 158.34597 104.144762 
L 154.698535 104.144762 
z
" clip-path="url(#pe8a6adeb00)" style="fill: #43a3ef; opacity: 0.7; stroke: #000000; stroke-linejoin: miter"/>
   </g>
   <g id="patch_34">
    <path d="M 158.34597 134.44 
L 161.993406 134.44 
L 161.993406 88.997143 
L 158.34597 88.997143 
z
" clip-path="url(#pe8a6adeb00)" style="fill: #43a3ef; opacity: 0.7; stroke: #000000; stroke-linejoin: miter"/>
   </g>
   <g id="patch_35">
    <path d="M 161.993406 134.44 
L 165.640831 134.44 
L 165.640831 83.947784 
L 161.993406 83.947784 
z
" clip-path="url(#pe8a6adeb00)" style="fill: #43a3ef; opacity: 0.7; stroke: #000000; stroke-linejoin: miter"/>
   </g>
   <g id="patch_36">
    <path d="M 165.640831 134.44 
L 169.288267 134.44 
L 169.288267 109.193968 
L 165.640831 109.193968 
z
" clip-path="url(#pe8a6adeb00)" style="fill: #43a3ef; opacity: 0.7; stroke: #000000; stroke-linejoin: miter"/>
   </g>
   <g id="patch_37">
    <path d="M 169.288267 134.44 
L 172.935691 134.44 
L 172.935691 109.193892 
L 169.288267 109.193892 
z
" clip-path="url(#pe8a6adeb00)" style="fill: #43a3ef; opacity: 0.7; stroke: #000000; stroke-linejoin: miter"/>
   </g>
   <g id="patch_38">
    <path d="M 172.935691 134.44 
L 176.583127 134.44 
L 176.583127 109.193968 
L 172.935691 109.193968 
z
" clip-path="url(#pe8a6adeb00)" style="fill: #43a3ef; opacity: 0.7; stroke: #000000; stroke-linejoin: miter"/>
   </g>
   <g id="patch_39">
    <path d="M 176.583127 134.44 
L 180.230552 134.44 
L 180.230552 109.193892 
L 176.583127 109.193892 
z
" clip-path="url(#pe8a6adeb00)" style="fill: #43a3ef; opacity: 0.7; stroke: #000000; stroke-linejoin: miter"/>
   </g>
   <g id="patch_40">
    <path d="M 180.230552 134.44 
L 183.877987 134.44 
L 183.877987 99.095556 
L 180.230552 99.095556 
z
" clip-path="url(#pe8a6adeb00)" style="fill: #43a3ef; opacity: 0.7; stroke: #000000; stroke-linejoin: miter"/>
   </g>
   <g id="patch_41">
    <path d="M 183.877987 134.44 
L 187.525423 134.44 
L 187.525423 129.390794 
L 183.877987 129.390794 
z
" clip-path="url(#pe8a6adeb00)" style="fill: #43a3ef; opacity: 0.7; stroke: #000000; stroke-linejoin: miter"/>
   </g>
   <g id="patch_42">
    <path d="M 187.525423 134.44 
L 191.172848 134.44 
L 191.172848 104.14467 
L 187.525423 104.14467 
z
" clip-path="url(#pe8a6adeb00)" style="fill: #43a3ef; opacity: 0.7; stroke: #000000; stroke-linejoin: miter"/>
   </g>
   <g id="patch_43">
    <path d="M 191.172848 134.44 
L 194.820284 134.44 
L 194.820284 104.144762 
L 191.172848 104.144762 
z
" clip-path="url(#pe8a6adeb00)" style="fill: #43a3ef; opacity: 0.7; stroke: #000000; stroke-linejoin: miter"/>
   </g>
   <g id="patch_44">
    <path d="M 194.820284 134.44 
L 198.467708 134.44 
L 198.467708 88.997005 
L 194.820284 88.997005 
z
" clip-path="url(#pe8a6adeb00)" style="fill: #43a3ef; opacity: 0.7; stroke: #000000; stroke-linejoin: miter"/>
   </g>
   <g id="patch_45">
    <path d="M 198.467708 134.44 
L 202.115144 134.44 
L 202.115144 119.292381 
L 198.467708 119.292381 
z
" clip-path="url(#pe8a6adeb00)" style="fill: #43a3ef; opacity: 0.7; stroke: #000000; stroke-linejoin: miter"/>
   </g>
   <g id="patch_46">
    <path d="M 202.115144 134.44 
L 205.76258 134.44 
L 205.76258 109.193968 
L 202.115144 109.193968 
z
" clip-path="url(#pe8a6adeb00)" style="fill: #43a3ef; opacity: 0.7; stroke: #000000; stroke-linejoin: miter"/>
   </g>
   <g id="patch_47">
    <path d="M 205.76258 134.44 
L 209.410005 134.44 
L 209.410005 104.14467 
L 205.76258 104.14467 
z
" clip-path="url(#pe8a6adeb00)" style="fill: #43a3ef; opacity: 0.7; stroke: #000000; stroke-linejoin: miter"/>
   </g>
   <g id="patch_48">
    <path d="M 209.410005 134.44 
L 213.05744 134.44 
L 213.05744 109.193968 
L 209.410005 109.193968 
z
" clip-path="url(#pe8a6adeb00)" style="fill: #43a3ef; opacity: 0.7; stroke: #000000; stroke-linejoin: miter"/>
   </g>
   <g id="patch_49">
    <path d="M 213.05744 134.44 
L 216.704865 134.44 
L 216.704865 104.14467 
L 213.05744 104.14467 
z
" clip-path="url(#pe8a6adeb00)" style="fill: #43a3ef; opacity: 0.7; stroke: #000000; stroke-linejoin: miter"/>
   </g>
   <g id="patch_50">
    <path d="M 216.704865 134.44 
L 220.352301 134.44 
L 220.352301 68.800317 
L 216.704865 68.800317 
z
" clip-path="url(#pe8a6adeb00)" style="fill: #43a3ef; opacity: 0.7; stroke: #000000; stroke-linejoin: miter"/>
   </g>
   <g id="patch_51">
    <path d="M 220.352301 134.44 
L 223.999726 134.44 
L 223.999726 114.243113 
L 220.352301 114.243113 
z
" clip-path="url(#pe8a6adeb00)" style="fill: #43a3ef; opacity: 0.7; stroke: #000000; stroke-linejoin: miter"/>
   </g>
   <g id="patch_52">
    <path d="M 223.999726 134.44 
L 227.647161 134.44 
L 227.647161 13.259048 
L 223.999726 13.259048 
z
" clip-path="url(#pe8a6adeb00)" style="fill: #43a3ef; opacity: 0.7; stroke: #000000; stroke-linejoin: miter"/>
   </g>
   <g id="patch_53">
    <path d="M 43.464716 134.44 
L 47.154352 134.44 
L 47.154352 117.665922 
L 43.464716 117.665922 
z
" clip-path="url(#pe8a6adeb00)" style="fill: #ef767b; opacity: 0.7; stroke: #000000; stroke-linejoin: miter"/>
   </g>
   <g id="patch_54">
    <path d="M 47.154352 134.44 
L 50.843988 134.44 
L 50.843988 94.091543 
L 47.154352 94.091543 
z
" clip-path="url(#pe8a6adeb00)" style="fill: #ef767b; opacity: 0.7; stroke: #000000; stroke-linejoin: miter"/>
   </g>
   <g id="patch_55">
    <path d="M 50.843988 134.44 
L 54.533625 134.44 
L 54.533625 95.904961 
L 50.843988 95.904961 
z
" clip-path="url(#pe8a6adeb00)" style="fill: #ef767b; opacity: 0.7; stroke: #000000; stroke-linejoin: miter"/>
   </g>
   <g id="patch_56">
    <path d="M 54.533625 134.44 
L 58.223262 134.44 
L 58.223262 101.345201 
L 54.533625 101.345201 
z
" clip-path="url(#pe8a6adeb00)" style="fill: #ef767b; opacity: 0.7; stroke: #000000; stroke-linejoin: miter"/>
   </g>
   <g id="patch_57">
    <path d="M 58.223262 134.44 
L 61.912898 134.44 
L 61.912898 96.811667 
L 58.223262 96.811667 
z
" clip-path="url(#pe8a6adeb00)" style="fill: #ef767b; opacity: 0.7; stroke: #000000; stroke-linejoin: miter"/>
   </g>
   <g id="patch_58">
    <path d="M 61.912898 134.44 
L 65.602535 134.44 
L 65.602535 111.318976 
L 61.912898 111.318976 
z
" clip-path="url(#pe8a6adeb00)" style="fill: #ef767b; opacity: 0.7; stroke: #000000; stroke-linejoin: miter"/>
   </g>
   <g id="patch_59">
    <path d="M 65.602535 134.44 
L 69.29217 134.44 
L 69.29217 112.225675 
L 65.602535 112.225675 
z
" clip-path="url(#pe8a6adeb00)" style="fill: #ef767b; opacity: 0.7; stroke: #000000; stroke-linejoin: miter"/>
   </g>
   <g id="patch_60">
    <path d="M 69.29217 134.44 
L 72.981806 134.44 
L 72.981806 107.238796 
L 69.29217 107.238796 
z
" clip-path="url(#pe8a6adeb00)" style="fill: #ef767b; opacity: 0.7; stroke: #000000; stroke-linejoin: miter"/>
   </g>
   <g id="patch_61">
    <path d="M 72.981806 134.44 
L 76.671443 134.44 
L 76.671443 105.425382 
L 72.981806 105.425382 
z
" clip-path="url(#pe8a6adeb00)" style="fill: #ef767b; opacity: 0.7; stroke: #000000; stroke-linejoin: miter"/>
   </g>
   <g id="patch_62">
    <path d="M 76.671443 134.44 
L 80.36108 134.44 
L 80.36108 112.679037 
L 76.671443 112.679037 
z
" clip-path="url(#pe8a6adeb00)" style="fill: #ef767b; opacity: 0.7; stroke: #000000; stroke-linejoin: miter"/>
   </g>
   <g id="patch_63">
    <path d="M 80.36108 134.44 
L 84.050716 134.44 
L 84.050716 114.039097 
L 80.36108 114.039097 
z
" clip-path="url(#pe8a6adeb00)" style="fill: #ef767b; opacity: 0.7; stroke: #000000; stroke-linejoin: miter"/>
   </g>
   <g id="patch_64">
    <path d="M 84.050716 134.44 
L 87.740353 134.44 
L 87.740353 114.039097 
L 84.050716 114.039097 
z
" clip-path="url(#pe8a6adeb00)" style="fill: #ef767b; opacity: 0.7; stroke: #000000; stroke-linejoin: miter"/>
   </g>
   <g id="patch_65">
    <path d="M 87.740353 134.44 
L 91.429987 134.44 
L 91.429987 111.772313 
L 87.740353 111.772313 
z
" clip-path="url(#pe8a6adeb00)" style="fill: #ef767b; opacity: 0.7; stroke: #000000; stroke-linejoin: miter"/>
   </g>
   <g id="patch_66">
    <path d="M 91.429987 134.44 
L 95.119623 134.44 
L 95.119623 110.865623 
L 91.429987 110.865623 
z
" clip-path="url(#pe8a6adeb00)" style="fill: #ef767b; opacity: 0.7; stroke: #000000; stroke-linejoin: miter"/>
   </g>
   <g id="patch_67">
    <path d="M 95.119623 134.44 
L 98.80926 134.44 
L 98.80926 93.638194 
L 95.119623 93.638194 
z
" clip-path="url(#pe8a6adeb00)" style="fill: #ef767b; opacity: 0.7; stroke: #000000; stroke-linejoin: miter"/>
   </g>
   <g id="patch_68">
    <path d="M 98.80926 134.44 
L 102.498896 134.44 
L 102.498896 101.345201 
L 98.80926 101.345201 
z
" clip-path="url(#pe8a6adeb00)" style="fill: #ef767b; opacity: 0.7; stroke: #000000; stroke-linejoin: miter"/>
   </g>
   <g id="patch_69">
    <path d="M 102.498896 134.44 
L 106.188533 134.44 
L 106.188533 96.358314 
L 102.498896 96.358314 
z
" clip-path="url(#pe8a6adeb00)" style="fill: #ef767b; opacity: 0.7; stroke: #000000; stroke-linejoin: miter"/>
   </g>
   <g id="patch_70">
    <path d="M 106.188533 134.44 
L 109.878169 134.44 
L 109.878169 97.265021 
L 106.188533 97.265021 
z
" clip-path="url(#pe8a6adeb00)" style="fill: #ef767b; opacity: 0.7; stroke: #000000; stroke-linejoin: miter"/>
   </g>
   <g id="patch_71">
    <path d="M 109.878169 134.44 
L 113.567806 134.44 
L 113.567806 89.104659 
L 109.878169 89.104659 
z
" clip-path="url(#pe8a6adeb00)" style="fill: #ef767b; opacity: 0.7; stroke: #000000; stroke-linejoin: miter"/>
   </g>
   <g id="patch_72">
    <path d="M 113.567806 134.44 
L 117.257443 134.44 
L 117.257443 102.251908 
L 113.567806 102.251908 
z
" clip-path="url(#pe8a6adeb00)" style="fill: #ef767b; opacity: 0.7; stroke: #000000; stroke-linejoin: miter"/>
   </g>
   <g id="patch_73">
    <path d="M 117.257443 134.44 
L 120.947079 134.44 
L 120.947079 97.265021 
L 117.257443 97.265021 
z
" clip-path="url(#pe8a6adeb00)" style="fill: #ef767b; opacity: 0.7; stroke: #000000; stroke-linejoin: miter"/>
   </g>
   <g id="patch_74">
    <path d="M 120.947079 134.44 
L 124.636716 134.44 
L 124.636716 98.625081 
L 120.947079 98.625081 
z
" clip-path="url(#pe8a6adeb00)" style="fill: #ef767b; opacity: 0.7; stroke: #000000; stroke-linejoin: miter"/>
   </g>
   <g id="patch_75">
    <path d="M 124.636716 134.44 
L 128.326352 134.44 
L 128.326352 93.638194 
L 124.636716 93.638194 
z
" clip-path="url(#pe8a6adeb00)" style="fill: #ef767b; opacity: 0.7; stroke: #000000; stroke-linejoin: miter"/>
   </g>
   <g id="patch_76">
    <path d="M 128.326352 134.44 
L 132.015989 134.44 
L 132.015989 94.091547 
L 128.326352 94.091547 
z
" clip-path="url(#pe8a6adeb00)" style="fill: #ef767b; opacity: 0.7; stroke: #000000; stroke-linejoin: miter"/>
   </g>
   <g id="patch_77">
    <path d="M 132.015989 134.44 
L 135.705625 134.44 
L 135.705625 88.197953 
L 132.015989 88.197953 
z
" clip-path="url(#pe8a6adeb00)" style="fill: #ef767b; opacity: 0.7; stroke: #000000; stroke-linejoin: miter"/>
   </g>
   <g id="patch_78">
    <path d="M 135.705625 134.44 
L 139.395256 134.44 
L 139.395256 81.397572 
L 135.705625 81.397572 
z
" clip-path="url(#pe8a6adeb00)" style="fill: #ef767b; opacity: 0.7; stroke: #000000; stroke-linejoin: miter"/>
   </g>
   <g id="patch_79">
    <path d="M 139.395256 134.44 
L 143.084893 134.44 
L 143.084893 78.677531 
L 139.395256 78.677531 
z
" clip-path="url(#pe8a6adeb00)" style="fill: #ef767b; opacity: 0.7; stroke: #000000; stroke-linejoin: miter"/>
   </g>
   <g id="patch_80">
    <path d="M 143.084893 134.44 
L 146.77453 134.44 
L 146.77453 88.651306 
L 143.084893 88.651306 
z
" clip-path="url(#pe8a6adeb00)" style="fill: #ef767b; opacity: 0.7; stroke: #000000; stroke-linejoin: miter"/>
   </g>
   <g id="patch_81">
    <path d="M 146.77453 134.44 
L 150.464166 134.44 
L 150.464166 83.211065 
L 146.77453 83.211065 
z
" clip-path="url(#pe8a6adeb00)" style="fill: #ef767b; opacity: 0.7; stroke: #000000; stroke-linejoin: miter"/>
   </g>
   <g id="patch_82">
    <path d="M 150.464166 134.44 
L 154.153803 134.44 
L 154.153803 75.050704 
L 150.464166 75.050704 
z
" clip-path="url(#pe8a6adeb00)" style="fill: #ef767b; opacity: 0.7; stroke: #000000; stroke-linejoin: miter"/>
   </g>
   <g id="patch_83">
    <path d="M 154.153803 134.44 
L 157.843439 134.44 
L 157.843439 71.423877 
L 154.153803 71.423877 
z
" clip-path="url(#pe8a6adeb00)" style="fill: #ef767b; opacity: 0.7; stroke: #000000; stroke-linejoin: miter"/>
   </g>
   <g id="patch_84">
    <path d="M 157.843439 134.44 
L 161.533076 134.44 
L 161.533076 78.224178 
L 157.843439 78.224178 
z
" clip-path="url(#pe8a6adeb00)" style="fill: #ef767b; opacity: 0.7; stroke: #000000; stroke-linejoin: miter"/>
   </g>
   <g id="patch_85">
    <path d="M 161.533076 134.44 
L 165.222712 134.44 
L 165.222712 78.224178 
L 161.533076 78.224178 
z
" clip-path="url(#pe8a6adeb00)" style="fill: #ef767b; opacity: 0.7; stroke: #000000; stroke-linejoin: miter"/>
   </g>
   <g id="patch_86">
    <path d="M 165.222712 134.44 
L 168.912349 134.44 
L 168.912349 85.931186 
L 165.222712 85.931186 
z
" clip-path="url(#pe8a6adeb00)" style="fill: #ef767b; opacity: 0.7; stroke: #000000; stroke-linejoin: miter"/>
   </g>
   <g id="patch_87">
    <path d="M 168.912349 134.44 
L 172.601986 134.44 
L 172.601986 94.5449 
L 168.912349 94.5449 
z
" clip-path="url(#pe8a6adeb00)" style="fill: #ef767b; opacity: 0.7; stroke: #000000; stroke-linejoin: miter"/>
   </g>
   <g id="patch_88">
    <path d="M 172.601986 134.44 
L 176.291622 134.44 
L 176.291622 93.18484 
L 172.601986 93.18484 
z
" clip-path="url(#pe8a6adeb00)" style="fill: #ef767b; opacity: 0.7; stroke: #000000; stroke-linejoin: miter"/>
   </g>
   <g id="patch_89">
    <path d="M 176.291622 134.44 
L 179.981259 134.44 
L 179.981259 101.345201 
L 176.291622 101.345201 
z
" clip-path="url(#pe8a6adeb00)" style="fill: #ef767b; opacity: 0.7; stroke: #000000; stroke-linejoin: miter"/>
   </g>
   <g id="patch_90">
    <path d="M 179.981259 134.44 
L 183.670895 134.44 
L 183.670895 98.625081 
L 179.981259 98.625081 
z
" clip-path="url(#pe8a6adeb00)" style="fill: #ef767b; opacity: 0.7; stroke: #000000; stroke-linejoin: miter"/>
   </g>
   <g id="patch_91">
    <path d="M 183.670895 134.44 
L 187.360532 134.44 
L 187.360532 102.251908 
L 183.670895 102.251908 
z
" clip-path="url(#pe8a6adeb00)" style="fill: #ef767b; opacity: 0.7; stroke: #000000; stroke-linejoin: miter"/>
   </g>
   <g id="patch_92">
    <path d="M 187.360532 134.44 
L 191.050168 134.44 
L 191.050168 109.505563 
L 187.360532 109.505563 
z
" clip-path="url(#pe8a6adeb00)" style="fill: #ef767b; opacity: 0.7; stroke: #000000; stroke-linejoin: miter"/>
   </g>
   <g id="patch_93">
    <path d="M 191.050168 134.44 
L 194.739805 134.44 
L 194.739805 101.345201 
L 191.050168 101.345201 
z
" clip-path="url(#pe8a6adeb00)" style="fill: #ef767b; opacity: 0.7; stroke: #000000; stroke-linejoin: miter"/>
   </g>
   <g id="patch_94">
    <path d="M 194.739805 134.44 
L 198.429442 134.44 
L 198.429442 100.438495 
L 194.739805 100.438495 
z
" clip-path="url(#pe8a6adeb00)" style="fill: #ef767b; opacity: 0.7; stroke: #000000; stroke-linejoin: miter"/>
   </g>
   <g id="patch_95">
    <path d="M 198.429442 134.44 
L 202.119078 134.44 
L 202.119078 100.891848 
L 198.429442 100.891848 
z
" clip-path="url(#pe8a6adeb00)" style="fill: #ef767b; opacity: 0.7; stroke: #000000; stroke-linejoin: miter"/>
   </g>
   <g id="patch_96">
    <path d="M 202.119078 134.44 
L 205.808715 134.44 
L 205.808715 107.238796 
L 202.119078 107.238796 
z
" clip-path="url(#pe8a6adeb00)" style="fill: #ef767b; opacity: 0.7; stroke: #000000; stroke-linejoin: miter"/>
   </g>
   <g id="patch_97">
    <path d="M 205.808715 134.44 
L 209.498351 134.44 
L 209.498351 105.878735 
L 205.808715 105.878735 
z
" clip-path="url(#pe8a6adeb00)" style="fill: #ef767b; opacity: 0.7; stroke: #000000; stroke-linejoin: miter"/>
   </g>
   <g id="patch_98">
    <path d="M 209.498351 134.44 
L 213.187988 134.44 
L 213.187988 102.705262 
L 209.498351 102.705262 
z
" clip-path="url(#pe8a6adeb00)" style="fill: #ef767b; opacity: 0.7; stroke: #000000; stroke-linejoin: miter"/>
   </g>
   <g id="patch_99">
    <path d="M 213.187988 134.44 
L 216.877624 134.44 
L 216.877624 93.638194 
L 213.187988 93.638194 
z
" clip-path="url(#pe8a6adeb00)" style="fill: #ef767b; opacity: 0.7; stroke: #000000; stroke-linejoin: miter"/>
   </g>
   <g id="patch_100">
    <path d="M 216.877624 134.44 
L 220.567261 134.44 
L 220.567261 78.677531 
L 216.877624 78.677531 
z
" clip-path="url(#pe8a6adeb00)" style="fill: #ef767b; opacity: 0.7; stroke: #000000; stroke-linejoin: miter"/>
   </g>
   <g id="patch_101">
    <path d="M 220.567261 134.44 
L 224.256898 134.44 
L 224.256898 54.196447 
L 220.567261 54.196447 
z
" clip-path="url(#pe8a6adeb00)" style="fill: #ef767b; opacity: 0.7; stroke: #000000; stroke-linejoin: miter"/>
   </g>
   <g id="patch_102">
    <path d="M 224.256898 134.44 
L 227.946534 134.44 
L 227.946534 17.928175 
L 224.256898 17.928175 
z
" clip-path="url(#pe8a6adeb00)" style="fill: #ef767b; opacity: 0.7; stroke: #000000; stroke-linejoin: miter"/>
   </g>
   <g id="matplotlib.axis_1">
    <g id="xtick_1">
     <g id="line2d_1">
      <path d="M 43.202417 134.44 
L 43.202417 7.2 
" clip-path="url(#pe8a6adeb00)" style="fill: none; stroke: #b0b0b0; stroke-opacity: 0.3; stroke-width: 0.8; stroke-linecap: square"/>
     </g>
     <g id="line2d_2">
      <defs>
       <path id="m10562d4594" d="M 0 0 
L 0 3.5 
" style="stroke: #000000; stroke-width: 0.8"/>
      </defs>
      <g>
       <use xlink:href="#m10562d4594" x="43.202417" y="134.44" style="stroke: #000000; stroke-width: 0.8"/>
      </g>
     </g>
     <g id="text_1">
      <!-- 0.0 -->
      <g transform="translate(35.250855 149.038437) scale(0.1 -0.1)">
       <defs>
        <path id="DejaVuSans-30" d="M 2034 4250 
Q 1547 4250 1301 3770 
Q 1056 3291 1056 2328 
Q 1056 1369 1301 889 
Q 1547 409 2034 409 
Q 2525 409 2770 889 
Q 3016 1369 3016 2328 
Q 3016 3291 2770 3770 
Q 2525 4250 2034 4250 
z
M 2034 4750 
Q 2819 4750 3233 4129 
Q 3647 3509 3647 2328 
Q 3647 1150 3233 529 
Q 2819 -91 2034 -91 
Q 1250 -91 836 529 
Q 422 1150 422 2328 
Q 422 3509 836 4129 
Q 1250 4750 2034 4750 
z
" transform="scale(0.015625)"/>
        <path id="DejaVuSans-2e" d="M 684 794 
L 1344 794 
L 1344 0 
L 684 0 
L 684 794 
z
" transform="scale(0.015625)"/>
       </defs>
       <use xlink:href="#DejaVuSans-30"/>
       <use xlink:href="#DejaVuSans-2e" x="63.623047"/>
       <use xlink:href="#DejaVuSans-30" x="95.410156"/>
      </g>
     </g>
    </g>
    <g id="xtick_2">
     <g id="line2d_3">
      <path d="M 80.280816 134.44 
L 80.280816 7.2 
" clip-path="url(#pe8a6adeb00)" style="fill: none; stroke: #b0b0b0; stroke-opacity: 0.3; stroke-width: 0.8; stroke-linecap: square"/>
     </g>
     <g id="line2d_4">
      <g>
       <use xlink:href="#m10562d4594" x="80.280816" y="134.44" style="stroke: #000000; stroke-width: 0.8"/>
      </g>
     </g>
     <g id="text_2">
      <!-- 0.2 -->
      <g transform="translate(72.329253 149.038437) scale(0.1 -0.1)">
       <defs>
        <path id="DejaVuSans-32" d="M 1228 531 
L 3431 531 
L 3431 0 
L 469 0 
L 469 531 
Q 828 903 1448 1529 
Q 2069 2156 2228 2338 
Q 2531 2678 2651 2914 
Q 2772 3150 2772 3378 
Q 2772 3750 2511 3984 
Q 2250 4219 1831 4219 
Q 1534 4219 1204 4116 
Q 875 4013 500 3803 
L 500 4441 
Q 881 4594 1212 4672 
Q 1544 4750 1819 4750 
Q 2544 4750 2975 4387 
Q 3406 4025 3406 3419 
Q 3406 3131 3298 2873 
Q 3191 2616 2906 2266 
Q 2828 2175 2409 1742 
Q 1991 1309 1228 531 
z
" transform="scale(0.015625)"/>
       </defs>
       <use xlink:href="#DejaVuSans-30"/>
       <use xlink:href="#DejaVuSans-2e" x="63.623047"/>
       <use xlink:href="#DejaVuSans-32" x="95.410156"/>
      </g>
     </g>
    </g>
    <g id="xtick_3">
     <g id="line2d_5">
      <path d="M 117.359214 134.44 
L 117.359214 7.2 
" clip-path="url(#pe8a6adeb00)" style="fill: none; stroke: #b0b0b0; stroke-opacity: 0.3; stroke-width: 0.8; stroke-linecap: square"/>
     </g>
     <g id="line2d_6">
      <g>
       <use xlink:href="#m10562d4594" x="117.359214" y="134.44" style="stroke: #000000; stroke-width: 0.8"/>
      </g>
     </g>
     <g id="text_3">
      <!-- 0.4 -->
      <g transform="translate(109.407651 149.038437) scale(0.1 -0.1)">
       <defs>
        <path id="DejaVuSans-34" d="M 2419 4116 
L 825 1625 
L 2419 1625 
L 2419 4116 
z
M 2253 4666 
L 3047 4666 
L 3047 1625 
L 3713 1625 
L 3713 1100 
L 3047 1100 
L 3047 0 
L 2419 0 
L 2419 1100 
L 313 1100 
L 313 1709 
L 2253 4666 
z
" transform="scale(0.015625)"/>
       </defs>
       <use xlink:href="#DejaVuSans-30"/>
       <use xlink:href="#DejaVuSans-2e" x="63.623047"/>
       <use xlink:href="#DejaVuSans-34" x="95.410156"/>
      </g>
     </g>
    </g>
    <g id="xtick_4">
     <g id="line2d_7">
      <path d="M 154.437612 134.44 
L 154.437612 7.2 
" clip-path="url(#pe8a6adeb00)" style="fill: none; stroke: #b0b0b0; stroke-opacity: 0.3; stroke-width: 0.8; stroke-linecap: square"/>
     </g>
     <g id="line2d_8">
      <g>
       <use xlink:href="#m10562d4594" x="154.437612" y="134.44" style="stroke: #000000; stroke-width: 0.8"/>
      </g>
     </g>
     <g id="text_4">
      <!-- 0.6 -->
      <g transform="translate(146.48605 149.038437) scale(0.1 -0.1)">
       <defs>
        <path id="DejaVuSans-36" d="M 2113 2584 
Q 1688 2584 1439 2293 
Q 1191 2003 1191 1497 
Q 1191 994 1439 701 
Q 1688 409 2113 409 
Q 2538 409 2786 701 
Q 3034 994 3034 1497 
Q 3034 2003 2786 2293 
Q 2538 2584 2113 2584 
z
M 3366 4563 
L 3366 3988 
Q 3128 4100 2886 4159 
Q 2644 4219 2406 4219 
Q 1781 4219 1451 3797 
Q 1122 3375 1075 2522 
Q 1259 2794 1537 2939 
Q 1816 3084 2150 3084 
Q 2853 3084 3261 2657 
Q 3669 2231 3669 1497 
Q 3669 778 3244 343 
Q 2819 -91 2113 -91 
Q 1303 -91 875 529 
Q 447 1150 447 2328 
Q 447 3434 972 4092 
Q 1497 4750 2381 4750 
Q 2619 4750 2861 4703 
Q 3103 4656 3366 4563 
z
" transform="scale(0.015625)"/>
       </defs>
       <use xlink:href="#DejaVuSans-30"/>
       <use xlink:href="#DejaVuSans-2e" x="63.623047"/>
       <use xlink:href="#DejaVuSans-36" x="95.410156"/>
      </g>
     </g>
    </g>
    <g id="xtick_5">
     <g id="line2d_9">
      <path d="M 191.51601 134.44 
L 191.51601 7.2 
" clip-path="url(#pe8a6adeb00)" style="fill: none; stroke: #b0b0b0; stroke-opacity: 0.3; stroke-width: 0.8; stroke-linecap: square"/>
     </g>
     <g id="line2d_10">
      <g>
       <use xlink:href="#m10562d4594" x="191.51601" y="134.44" style="stroke: #000000; stroke-width: 0.8"/>
      </g>
     </g>
     <g id="text_5">
      <!-- 0.8 -->
      <g transform="translate(183.564448 149.038437) scale(0.1 -0.1)">
       <defs>
        <path id="DejaVuSans-38" d="M 2034 2216 
Q 1584 2216 1326 1975 
Q 1069 1734 1069 1313 
Q 1069 891 1326 650 
Q 1584 409 2034 409 
Q 2484 409 2743 651 
Q 3003 894 3003 1313 
Q 3003 1734 2745 1975 
Q 2488 2216 2034 2216 
z
M 1403 2484 
Q 997 2584 770 2862 
Q 544 3141 544 3541 
Q 544 4100 942 4425 
Q 1341 4750 2034 4750 
Q 2731 4750 3128 4425 
Q 3525 4100 3525 3541 
Q 3525 3141 3298 2862 
Q 3072 2584 2669 2484 
Q 3125 2378 3379 2068 
Q 3634 1759 3634 1313 
Q 3634 634 3220 271 
Q 2806 -91 2034 -91 
Q 1263 -91 848 271 
Q 434 634 434 1313 
Q 434 1759 690 2068 
Q 947 2378 1403 2484 
z
M 1172 3481 
Q 1172 3119 1398 2916 
Q 1625 2713 2034 2713 
Q 2441 2713 2670 2916 
Q 2900 3119 2900 3481 
Q 2900 3844 2670 4047 
Q 2441 4250 2034 4250 
Q 1625 4250 1398 4047 
Q 1172 3844 1172 3481 
z
" transform="scale(0.015625)"/>
       </defs>
       <use xlink:href="#DejaVuSans-30"/>
       <use xlink:href="#DejaVuSans-2e" x="63.623047"/>
       <use xlink:href="#DejaVuSans-38" x="95.410156"/>
      </g>
     </g>
    </g>
    <g id="xtick_6">
     <g id="line2d_11">
      <path d="M 228.594409 134.44 
L 228.594409 7.2 
" clip-path="url(#pe8a6adeb00)" style="fill: none; stroke: #b0b0b0; stroke-opacity: 0.3; stroke-width: 0.8; stroke-linecap: square"/>
     </g>
     <g id="line2d_12">
      <g>
       <use xlink:href="#m10562d4594" x="228.594409" y="134.44" style="stroke: #000000; stroke-width: 0.8"/>
      </g>
     </g>
     <g id="text_6">
      <!-- 1.0 -->
      <g transform="translate(220.642846 149.038437) scale(0.1 -0.1)">
       <defs>
        <path id="DejaVuSans-31" d="M 794 531 
L 1825 531 
L 1825 4091 
L 703 3866 
L 703 4441 
L 1819 4666 
L 2450 4666 
L 2450 531 
L 3481 531 
L 3481 0 
L 794 0 
L 794 531 
z
" transform="scale(0.015625)"/>
       </defs>
       <use xlink:href="#DejaVuSans-31"/>
       <use xlink:href="#DejaVuSans-2e" x="63.623047"/>
       <use xlink:href="#DejaVuSans-30" x="95.410156"/>
      </g>
     </g>
    </g>
    <g id="text_7">
     <!-- Max Probability at True Pockets -->
     <g transform="translate(57.943906 162.716563) scale(0.1 -0.1)">
      <defs>
       <path id="DejaVuSans-4d" d="M 628 4666 
L 1569 4666 
L 2759 1491 
L 3956 4666 
L 4897 4666 
L 4897 0 
L 4281 0 
L 4281 4097 
L 3078 897 
L 2444 897 
L 1241 4097 
L 1241 0 
L 628 0 
L 628 4666 
z
" transform="scale(0.015625)"/>
       <path id="DejaVuSans-61" d="M 2194 1759 
Q 1497 1759 1228 1600 
Q 959 1441 959 1056 
Q 959 750 1161 570 
Q 1363 391 1709 391 
Q 2188 391 2477 730 
Q 2766 1069 2766 1631 
L 2766 1759 
L 2194 1759 
z
M 3341 1997 
L 3341 0 
L 2766 0 
L 2766 531 
Q 2569 213 2275 61 
Q 1981 -91 1556 -91 
Q 1019 -91 701 211 
Q 384 513 384 1019 
Q 384 1609 779 1909 
Q 1175 2209 1959 2209 
L 2766 2209 
L 2766 2266 
Q 2766 2663 2505 2880 
Q 2244 3097 1772 3097 
Q 1472 3097 1187 3025 
Q 903 2953 641 2809 
L 641 3341 
Q 956 3463 1253 3523 
Q 1550 3584 1831 3584 
Q 2591 3584 2966 3190 
Q 3341 2797 3341 1997 
z
" transform="scale(0.015625)"/>
       <path id="DejaVuSans-78" d="M 3513 3500 
L 2247 1797 
L 3578 0 
L 2900 0 
L 1881 1375 
L 863 0 
L 184 0 
L 1544 1831 
L 300 3500 
L 978 3500 
L 1906 2253 
L 2834 3500 
L 3513 3500 
z
" transform="scale(0.015625)"/>
       <path id="DejaVuSans-20" transform="scale(0.015625)"/>
       <path id="DejaVuSans-50" d="M 1259 4147 
L 1259 2394 
L 2053 2394 
Q 2494 2394 2734 2622 
Q 2975 2850 2975 3272 
Q 2975 3691 2734 3919 
Q 2494 4147 2053 4147 
L 1259 4147 
z
M 628 4666 
L 2053 4666 
Q 2838 4666 3239 4311 
Q 3641 3956 3641 3272 
Q 3641 2581 3239 2228 
Q 2838 1875 2053 1875 
L 1259 1875 
L 1259 0 
L 628 0 
L 628 4666 
z
" transform="scale(0.015625)"/>
       <path id="DejaVuSans-72" d="M 2631 2963 
Q 2534 3019 2420 3045 
Q 2306 3072 2169 3072 
Q 1681 3072 1420 2755 
Q 1159 2438 1159 1844 
L 1159 0 
L 581 0 
L 581 3500 
L 1159 3500 
L 1159 2956 
Q 1341 3275 1631 3429 
Q 1922 3584 2338 3584 
Q 2397 3584 2469 3576 
Q 2541 3569 2628 3553 
L 2631 2963 
z
" transform="scale(0.015625)"/>
       <path id="DejaVuSans-6f" d="M 1959 3097 
Q 1497 3097 1228 2736 
Q 959 2375 959 1747 
Q 959 1119 1226 758 
Q 1494 397 1959 397 
Q 2419 397 2687 759 
Q 2956 1122 2956 1747 
Q 2956 2369 2687 2733 
Q 2419 3097 1959 3097 
z
M 1959 3584 
Q 2709 3584 3137 3096 
Q 3566 2609 3566 1747 
Q 3566 888 3137 398 
Q 2709 -91 1959 -91 
Q 1206 -91 779 398 
Q 353 888 353 1747 
Q 353 2609 779 3096 
Q 1206 3584 1959 3584 
z
" transform="scale(0.015625)"/>
       <path id="DejaVuSans-62" d="M 3116 1747 
Q 3116 2381 2855 2742 
Q 2594 3103 2138 3103 
Q 1681 3103 1420 2742 
Q 1159 2381 1159 1747 
Q 1159 1113 1420 752 
Q 1681 391 2138 391 
Q 2594 391 2855 752 
Q 3116 1113 3116 1747 
z
M 1159 2969 
Q 1341 3281 1617 3432 
Q 1894 3584 2278 3584 
Q 2916 3584 3314 3078 
Q 3713 2572 3713 1747 
Q 3713 922 3314 415 
Q 2916 -91 2278 -91 
Q 1894 -91 1617 61 
Q 1341 213 1159 525 
L 1159 0 
L 581 0 
L 581 4863 
L 1159 4863 
L 1159 2969 
z
" transform="scale(0.015625)"/>
       <path id="DejaVuSans-69" d="M 603 3500 
L 1178 3500 
L 1178 0 
L 603 0 
L 603 3500 
z
M 603 4863 
L 1178 4863 
L 1178 4134 
L 603 4134 
L 603 4863 
z
" transform="scale(0.015625)"/>
       <path id="DejaVuSans-6c" d="M 603 4863 
L 1178 4863 
L 1178 0 
L 603 0 
L 603 4863 
z
" transform="scale(0.015625)"/>
       <path id="DejaVuSans-74" d="M 1172 4494 
L 1172 3500 
L 2356 3500 
L 2356 3053 
L 1172 3053 
L 1172 1153 
Q 1172 725 1289 603 
Q 1406 481 1766 481 
L 2356 481 
L 2356 0 
L 1766 0 
Q 1100 0 847 248 
Q 594 497 594 1153 
L 594 3053 
L 172 3053 
L 172 3500 
L 594 3500 
L 594 4494 
L 1172 4494 
z
" transform="scale(0.015625)"/>
       <path id="DejaVuSans-79" d="M 2059 -325 
Q 1816 -950 1584 -1140 
Q 1353 -1331 966 -1331 
L 506 -1331 
L 506 -850 
L 844 -850 
Q 1081 -850 1212 -737 
Q 1344 -625 1503 -206 
L 1606 56 
L 191 3500 
L 800 3500 
L 1894 763 
L 2988 3500 
L 3597 3500 
L 2059 -325 
z
" transform="scale(0.015625)"/>
       <path id="DejaVuSans-54" d="M -19 4666 
L 3928 4666 
L 3928 4134 
L 2272 4134 
L 2272 0 
L 1638 0 
L 1638 4134 
L -19 4134 
L -19 4666 
z
" transform="scale(0.015625)"/>
       <path id="DejaVuSans-75" d="M 544 1381 
L 544 3500 
L 1119 3500 
L 1119 1403 
Q 1119 906 1312 657 
Q 1506 409 1894 409 
Q 2359 409 2629 706 
Q 2900 1003 2900 1516 
L 2900 3500 
L 3475 3500 
L 3475 0 
L 2900 0 
L 2900 538 
Q 2691 219 2414 64 
Q 2138 -91 1772 -91 
Q 1169 -91 856 284 
Q 544 659 544 1381 
z
M 1991 3584 
L 1991 3584 
z
" transform="scale(0.015625)"/>
       <path id="DejaVuSans-65" d="M 3597 1894 
L 3597 1613 
L 953 1613 
Q 991 1019 1311 708 
Q 1631 397 2203 397 
Q 2534 397 2845 478 
Q 3156 559 3463 722 
L 3463 178 
Q 3153 47 2828 -22 
Q 2503 -91 2169 -91 
Q 1331 -91 842 396 
Q 353 884 353 1716 
Q 353 2575 817 3079 
Q 1281 3584 2069 3584 
Q 2775 3584 3186 3129 
Q 3597 2675 3597 1894 
z
M 3022 2063 
Q 3016 2534 2758 2815 
Q 2500 3097 2075 3097 
Q 1594 3097 1305 2825 
Q 1016 2553 972 2059 
L 3022 2063 
z
" transform="scale(0.015625)"/>
       <path id="DejaVuSans-63" d="M 3122 3366 
L 3122 2828 
Q 2878 2963 2633 3030 
Q 2388 3097 2138 3097 
Q 1578 3097 1268 2742 
Q 959 2388 959 1747 
Q 959 1106 1268 751 
Q 1578 397 2138 397 
Q 2388 397 2633 464 
Q 2878 531 3122 666 
L 3122 134 
Q 2881 22 2623 -34 
Q 2366 -91 2075 -91 
Q 1284 -91 818 406 
Q 353 903 353 1747 
Q 353 2603 823 3093 
Q 1294 3584 2113 3584 
Q 2378 3584 2631 3529 
Q 2884 3475 3122 3366 
z
" transform="scale(0.015625)"/>
       <path id="DejaVuSans-6b" d="M 581 4863 
L 1159 4863 
L 1159 1991 
L 2875 3500 
L 3609 3500 
L 1753 1863 
L 3688 0 
L 2938 0 
L 1159 1709 
L 1159 0 
L 581 0 
L 581 4863 
z
" transform="scale(0.015625)"/>
       <path id="DejaVuSans-73" d="M 2834 3397 
L 2834 2853 
Q 2591 2978 2328 3040 
Q 2066 3103 1784 3103 
Q 1356 3103 1142 2972 
Q 928 2841 928 2578 
Q 928 2378 1081 2264 
Q 1234 2150 1697 2047 
L 1894 2003 
Q 2506 1872 2764 1633 
Q 3022 1394 3022 966 
Q 3022 478 2636 193 
Q 2250 -91 1575 -91 
Q 1294 -91 989 -36 
Q 684 19 347 128 
L 347 722 
Q 666 556 975 473 
Q 1284 391 1588 391 
Q 1994 391 2212 530 
Q 2431 669 2431 922 
Q 2431 1156 2273 1281 
Q 2116 1406 1581 1522 
L 1381 1569 
Q 847 1681 609 1914 
Q 372 2147 372 2553 
Q 372 3047 722 3315 
Q 1072 3584 1716 3584 
Q 2034 3584 2315 3537 
Q 2597 3491 2834 3397 
z
" transform="scale(0.015625)"/>
      </defs>
      <use xlink:href="#DejaVuSans-4d"/>
      <use xlink:href="#DejaVuSans-61" x="86.279297"/>
      <use xlink:href="#DejaVuSans-78" x="147.558594"/>
      <use xlink:href="#DejaVuSans-20" x="206.738281"/>
      <use xlink:href="#DejaVuSans-50" x="238.525391"/>
      <use xlink:href="#DejaVuSans-72" x="297.078125"/>
      <use xlink:href="#DejaVuSans-6f" x="335.941406"/>
      <use xlink:href="#DejaVuSans-62" x="397.123047"/>
      <use xlink:href="#DejaVuSans-61" x="460.599609"/>
      <use xlink:href="#DejaVuSans-62" x="521.878906"/>
      <use xlink:href="#DejaVuSans-69" x="585.355469"/>
      <use xlink:href="#DejaVuSans-6c" x="613.138672"/>
      <use xlink:href="#DejaVuSans-69" x="640.921875"/>
      <use xlink:href="#DejaVuSans-74" x="668.705078"/>
      <use xlink:href="#DejaVuSans-79" x="707.914062"/>
      <use xlink:href="#DejaVuSans-20" x="767.09375"/>
      <use xlink:href="#DejaVuSans-61" x="798.880859"/>
      <use xlink:href="#DejaVuSans-74" x="860.160156"/>
      <use xlink:href="#DejaVuSans-20" x="899.369141"/>
      <use xlink:href="#DejaVuSans-54" x="931.15625"/>
      <use xlink:href="#DejaVuSans-72" x="977.490234"/>
      <use xlink:href="#DejaVuSans-75" x="1018.603516"/>
      <use xlink:href="#DejaVuSans-65" x="1081.982422"/>
      <use xlink:href="#DejaVuSans-20" x="1143.505859"/>
      <use xlink:href="#DejaVuSans-50" x="1175.292969"/>
      <use xlink:href="#DejaVuSans-6f" x="1231.970703"/>
      <use xlink:href="#DejaVuSans-63" x="1293.152344"/>
      <use xlink:href="#DejaVuSans-6b" x="1348.132812"/>
      <use xlink:href="#DejaVuSans-65" x="1402.417969"/>
      <use xlink:href="#DejaVuSans-74" x="1463.941406"/>
      <use xlink:href="#DejaVuSans-73" x="1503.150391"/>
     </g>
    </g>
   </g>
   <g id="matplotlib.axis_2">
    <g id="ytick_1">
     <g id="line2d_13">
      <path d="M 34.240625 134.44 
L 237.170625 134.44 
" clip-path="url(#pe8a6adeb00)" style="fill: none; stroke: #b0b0b0; stroke-opacity: 0.3; stroke-width: 0.8; stroke-linecap: square"/>
     </g>
     <g id="line2d_14">
      <defs>
       <path id="m5c6ea14220" d="M 0 0 
L -3.5 0 
" style="stroke: #000000; stroke-width: 0.8"/>
      </defs>
      <g>
       <use xlink:href="#m5c6ea14220" x="34.240625" y="134.44" style="stroke: #000000; stroke-width: 0.8"/>
      </g>
     </g>
     <g id="text_8">
      <!-- 0 -->
      <g transform="translate(20.878125 138.239219) scale(0.1 -0.1)">
       <use xlink:href="#DejaVuSans-30"/>
      </g>
     </g>
    </g>
    <g id="ytick_2">
     <g id="line2d_15">
      <path d="M 34.240625 95.002415 
L 237.170625 95.002415 
" clip-path="url(#pe8a6adeb00)" style="fill: none; stroke: #b0b0b0; stroke-opacity: 0.3; stroke-width: 0.8; stroke-linecap: square"/>
     </g>
     <g id="line2d_16">
      <g>
       <use xlink:href="#m5c6ea14220" x="34.240625" y="95.002415" style="stroke: #000000; stroke-width: 0.8"/>
      </g>
     </g>
     <g id="text_9">
      <!-- 1 -->
      <g transform="translate(20.878125 98.801634) scale(0.1 -0.1)">
       <use xlink:href="#DejaVuSans-31"/>
      </g>
     </g>
    </g>
    <g id="ytick_3">
     <g id="line2d_17">
      <path d="M 34.240625 55.564831 
L 237.170625 55.564831 
" clip-path="url(#pe8a6adeb00)" style="fill: none; stroke: #b0b0b0; stroke-opacity: 0.3; stroke-width: 0.8; stroke-linecap: square"/>
     </g>
     <g id="line2d_18">
      <g>
       <use xlink:href="#m5c6ea14220" x="34.240625" y="55.564831" style="stroke: #000000; stroke-width: 0.8"/>
      </g>
     </g>
     <g id="text_10">
      <!-- 2 -->
      <g transform="translate(20.878125 59.364049) scale(0.1 -0.1)">
       <use xlink:href="#DejaVuSans-32"/>
      </g>
     </g>
    </g>
    <g id="ytick_4">
     <g id="line2d_19">
      <path d="M 34.240625 16.127246 
L 237.170625 16.127246 
" clip-path="url(#pe8a6adeb00)" style="fill: none; stroke: #b0b0b0; stroke-opacity: 0.3; stroke-width: 0.8; stroke-linecap: square"/>
     </g>
     <g id="line2d_20">
      <g>
       <use xlink:href="#m5c6ea14220" x="34.240625" y="16.127246" style="stroke: #000000; stroke-width: 0.8"/>
      </g>
     </g>
     <g id="text_11">
      <!-- 3 -->
      <g transform="translate(20.878125 19.926465) scale(0.1 -0.1)">
       <defs>
        <path id="DejaVuSans-33" d="M 2597 2516 
Q 3050 2419 3304 2112 
Q 3559 1806 3559 1356 
Q 3559 666 3084 287 
Q 2609 -91 1734 -91 
Q 1441 -91 1130 -33 
Q 819 25 488 141 
L 488 750 
Q 750 597 1062 519 
Q 1375 441 1716 441 
Q 2309 441 2620 675 
Q 2931 909 2931 1356 
Q 2931 1769 2642 2001 
Q 2353 2234 1838 2234 
L 1294 2234 
L 1294 2753 
L 1863 2753 
Q 2328 2753 2575 2939 
Q 2822 3125 2822 3475 
Q 2822 3834 2567 4026 
Q 2313 4219 1838 4219 
Q 1578 4219 1281 4162 
Q 984 4106 628 3988 
L 628 4550 
Q 988 4650 1302 4700 
Q 1616 4750 1894 4750 
Q 2613 4750 3031 4423 
Q 3450 4097 3450 3541 
Q 3450 3153 3228 2886 
Q 3006 2619 2597 2516 
z
" transform="scale(0.015625)"/>
       </defs>
       <use xlink:href="#DejaVuSans-33"/>
      </g>
     </g>
    </g>
    <g id="text_12">
     <!-- Density -->
     <g transform="translate(14.798438 89.828594) rotate(-90) scale(0.1 -0.1)">
      <defs>
       <path id="DejaVuSans-44" d="M 1259 4147 
L 1259 519 
L 2022 519 
Q 2988 519 3436 956 
Q 3884 1394 3884 2338 
Q 3884 3275 3436 3711 
Q 2988 4147 2022 4147 
L 1259 4147 
z
M 628 4666 
L 1925 4666 
Q 3281 4666 3915 4102 
Q 4550 3538 4550 2338 
Q 4550 1131 3912 565 
Q 3275 0 1925 0 
L 628 0 
L 628 4666 
z
" transform="scale(0.015625)"/>
       <path id="DejaVuSans-6e" d="M 3513 2113 
L 3513 0 
L 2938 0 
L 2938 2094 
Q 2938 2591 2744 2837 
Q 2550 3084 2163 3084 
Q 1697 3084 1428 2787 
Q 1159 2491 1159 1978 
L 1159 0 
L 581 0 
L 581 3500 
L 1159 3500 
L 1159 2956 
Q 1366 3272 1645 3428 
Q 1925 3584 2291 3584 
Q 2894 3584 3203 3211 
Q 3513 2838 3513 2113 
z
" transform="scale(0.015625)"/>
      </defs>
      <use xlink:href="#DejaVuSans-44"/>
      <use xlink:href="#DejaVuSans-65" x="77.001953"/>
      <use xlink:href="#DejaVuSans-6e" x="138.525391"/>
      <use xlink:href="#DejaVuSans-73" x="201.904297"/>
      <use xlink:href="#DejaVuSans-69" x="254.003906"/>
      <use xlink:href="#DejaVuSans-74" x="281.787109"/>
      <use xlink:href="#DejaVuSans-79" x="320.996094"/>
     </g>
    </g>
   </g>
   <g id="patch_103">
    <path d="M 34.240625 134.44 
L 34.240625 7.2 
" style="fill: none; stroke: #000000; stroke-width: 0.8; stroke-linejoin: miter; stroke-linecap: square"/>
   </g>
   <g id="patch_104">
    <path d="M 237.170625 134.44 
L 237.170625 7.2 
" style="fill: none; stroke: #000000; stroke-width: 0.8; stroke-linejoin: miter; stroke-linecap: square"/>
   </g>
   <g id="patch_105">
    <path d="M 34.240625 134.44 
L 237.170625 134.44 
" style="fill: none; stroke: #000000; stroke-width: 0.8; stroke-linejoin: miter; stroke-linecap: square"/>
   </g>
   <g id="patch_106">
    <path d="M 34.240625 7.2 
L 237.170625 7.2 
" style="fill: none; stroke: #000000; stroke-width: 0.8; stroke-linejoin: miter; stroke-linecap: square"/>
   </g>
   <g id="legend_1">
    <g id="patch_107">
     <path d="M 41.240625 44.55625 
L 204.525 44.55625 
Q 206.525 44.55625 206.525 42.55625 
L 206.525 14.2 
Q 206.525 12.2 204.525 12.2 
L 41.240625 12.2 
Q 39.240625 12.2 39.240625 14.2 
L 39.240625 42.55625 
Q 39.240625 44.55625 41.240625 44.55625 
z
" style="fill: #ffffff; opacity: 0.8; stroke: #cccccc; stroke-linejoin: miter"/>
    </g>
    <g id="patch_108">
     <path d="M 43.240625 23.798438 
L 63.240625 23.798438 
L 63.240625 16.798438 
L 43.240625 16.798438 
z
" style="fill: #43a3ef; opacity: 0.7; stroke: #000000; stroke-linejoin: miter"/>
    </g>
    <g id="text_13">
     <!-- COACH420 (mean=0.504) -->
     <g transform="translate(71.240625 23.798438) scale(0.1 -0.1)">
      <defs>
       <path id="DejaVuSans-43" d="M 4122 4306 
L 4122 3641 
Q 3803 3938 3442 4084 
Q 3081 4231 2675 4231 
Q 1875 4231 1450 3742 
Q 1025 3253 1025 2328 
Q 1025 1406 1450 917 
Q 1875 428 2675 428 
Q 3081 428 3442 575 
Q 3803 722 4122 1019 
L 4122 359 
Q 3791 134 3420 21 
Q 3050 -91 2638 -91 
Q 1578 -91 968 557 
Q 359 1206 359 2328 
Q 359 3453 968 4101 
Q 1578 4750 2638 4750 
Q 3056 4750 3426 4639 
Q 3797 4528 4122 4306 
z
" transform="scale(0.015625)"/>
       <path id="DejaVuSans-4f" d="M 2522 4238 
Q 1834 4238 1429 3725 
Q 1025 3213 1025 2328 
Q 1025 1447 1429 934 
Q 1834 422 2522 422 
Q 3209 422 3611 934 
Q 4013 1447 4013 2328 
Q 4013 3213 3611 3725 
Q 3209 4238 2522 4238 
z
M 2522 4750 
Q 3503 4750 4090 4092 
Q 4678 3434 4678 2328 
Q 4678 1225 4090 567 
Q 3503 -91 2522 -91 
Q 1538 -91 948 565 
Q 359 1222 359 2328 
Q 359 3434 948 4092 
Q 1538 4750 2522 4750 
z
" transform="scale(0.015625)"/>
       <path id="DejaVuSans-41" d="M 2188 4044 
L 1331 1722 
L 3047 1722 
L 2188 4044 
z
M 1831 4666 
L 2547 4666 
L 4325 0 
L 3669 0 
L 3244 1197 
L 1141 1197 
L 716 0 
L 50 0 
L 1831 4666 
z
" transform="scale(0.015625)"/>
       <path id="DejaVuSans-48" d="M 628 4666 
L 1259 4666 
L 1259 2753 
L 3553 2753 
L 3553 4666 
L 4184 4666 
L 4184 0 
L 3553 0 
L 3553 2222 
L 1259 2222 
L 1259 0 
L 628 0 
L 628 4666 
z
" transform="scale(0.015625)"/>
       <path id="DejaVuSans-28" d="M 1984 4856 
Q 1566 4138 1362 3434 
Q 1159 2731 1159 2009 
Q 1159 1288 1364 580 
Q 1569 -128 1984 -844 
L 1484 -844 
Q 1016 -109 783 600 
Q 550 1309 550 2009 
Q 550 2706 781 3412 
Q 1013 4119 1484 4856 
L 1984 4856 
z
" transform="scale(0.015625)"/>
       <path id="DejaVuSans-6d" d="M 3328 2828 
Q 3544 3216 3844 3400 
Q 4144 3584 4550 3584 
Q 5097 3584 5394 3201 
Q 5691 2819 5691 2113 
L 5691 0 
L 5113 0 
L 5113 2094 
Q 5113 2597 4934 2840 
Q 4756 3084 4391 3084 
Q 3944 3084 3684 2787 
Q 3425 2491 3425 1978 
L 3425 0 
L 2847 0 
L 2847 2094 
Q 2847 2600 2669 2842 
Q 2491 3084 2119 3084 
Q 1678 3084 1418 2786 
Q 1159 2488 1159 1978 
L 1159 0 
L 581 0 
L 581 3500 
L 1159 3500 
L 1159 2956 
Q 1356 3278 1631 3431 
Q 1906 3584 2284 3584 
Q 2666 3584 2933 3390 
Q 3200 3197 3328 2828 
z
" transform="scale(0.015625)"/>
       <path id="DejaVuSans-3d" d="M 678 2906 
L 4684 2906 
L 4684 2381 
L 678 2381 
L 678 2906 
z
M 678 1631 
L 4684 1631 
L 4684 1100 
L 678 1100 
L 678 1631 
z
" transform="scale(0.015625)"/>
       <path id="DejaVuSans-35" d="M 691 4666 
L 3169 4666 
L 3169 4134 
L 1269 4134 
L 1269 2991 
Q 1406 3038 1543 3061 
Q 1681 3084 1819 3084 
Q 2600 3084 3056 2656 
Q 3513 2228 3513 1497 
Q 3513 744 3044 326 
Q 2575 -91 1722 -91 
Q 1428 -91 1123 -41 
Q 819 9 494 109 
L 494 744 
Q 775 591 1075 516 
Q 1375 441 1709 441 
Q 2250 441 2565 725 
Q 2881 1009 2881 1497 
Q 2881 1984 2565 2268 
Q 2250 2553 1709 2553 
Q 1456 2553 1204 2497 
Q 953 2441 691 2322 
L 691 4666 
z
" transform="scale(0.015625)"/>
       <path id="DejaVuSans-29" d="M 513 4856 
L 1013 4856 
Q 1481 4119 1714 3412 
Q 1947 2706 1947 2009 
Q 1947 1309 1714 600 
Q 1481 -109 1013 -844 
L 513 -844 
Q 928 -128 1133 580 
Q 1338 1288 1338 2009 
Q 1338 2731 1133 3434 
Q 928 4138 513 4856 
z
" transform="scale(0.015625)"/>
      </defs>
      <use xlink:href="#DejaVuSans-43"/>
      <use xlink:href="#DejaVuSans-4f" x="69.824219"/>
      <use xlink:href="#DejaVuSans-41" x="146.785156"/>
      <use xlink:href="#DejaVuSans-43" x="213.443359"/>
      <use xlink:href="#DejaVuSans-48" x="283.267578"/>
      <use xlink:href="#DejaVuSans-34" x="358.462891"/>
      <use xlink:href="#DejaVuSans-32" x="422.085938"/>
      <use xlink:href="#DejaVuSans-30" x="485.708984"/>
      <use xlink:href="#DejaVuSans-20" x="549.332031"/>
      <use xlink:href="#DejaVuSans-28" x="581.119141"/>
      <use xlink:href="#DejaVuSans-6d" x="620.132812"/>
      <use xlink:href="#DejaVuSans-65" x="717.544922"/>
      <use xlink:href="#DejaVuSans-61" x="779.068359"/>
      <use xlink:href="#DejaVuSans-6e" x="840.347656"/>
      <use xlink:href="#DejaVuSans-3d" x="903.726562"/>
      <use xlink:href="#DejaVuSans-30" x="987.515625"/>
      <use xlink:href="#DejaVuSans-2e" x="1051.138672"/>
      <use xlink:href="#DejaVuSans-35" x="1082.925781"/>
      <use xlink:href="#DejaVuSans-30" x="1146.548828"/>
      <use xlink:href="#DejaVuSans-34" x="1210.171875"/>
      <use xlink:href="#DejaVuSans-29" x="1273.794922"/>
     </g>
    </g>
    <g id="patch_109">
     <path d="M 43.240625 38.476562 
L 63.240625 38.476562 
L 63.240625 31.476562 
L 43.240625 31.476562 
z
" style="fill: #ef767b; opacity: 0.7; stroke: #000000; stroke-linejoin: miter"/>
    </g>
    <g id="text_14">
     <!-- Holo4K (mean=0.555) -->
     <g transform="translate(71.240625 38.476562) scale(0.1 -0.1)">
      <defs>
       <path id="DejaVuSans-4b" d="M 628 4666 
L 1259 4666 
L 1259 2694 
L 3353 4666 
L 4166 4666 
L 1850 2491 
L 4331 0 
L 3500 0 
L 1259 2247 
L 1259 0 
L 628 0 
L 628 4666 
z
" transform="scale(0.015625)"/>
      </defs>
      <use xlink:href="#DejaVuSans-48"/>
      <use xlink:href="#DejaVuSans-6f" x="75.195312"/>
      <use xlink:href="#DejaVuSans-6c" x="136.376953"/>
      <use xlink:href="#DejaVuSans-6f" x="164.160156"/>
      <use xlink:href="#DejaVuSans-34" x="225.341797"/>
      <use xlink:href="#DejaVuSans-4b" x="288.964844"/>
      <use xlink:href="#DejaVuSans-20" x="354.541016"/>
      <use xlink:href="#DejaVuSans-28" x="386.328125"/>
      <use xlink:href="#DejaVuSans-6d" x="425.341797"/>
      <use xlink:href="#DejaVuSans-65" x="522.753906"/>
      <use xlink:href="#DejaVuSans-61" x="584.277344"/>
      <use xlink:href="#DejaVuSans-6e" x="645.556641"/>
      <use xlink:href="#DejaVuSans-3d" x="708.935547"/>
      <use xlink:href="#DejaVuSans-30" x="792.724609"/>
      <use xlink:href="#DejaVuSans-2e" x="856.347656"/>
      <use xlink:href="#DejaVuSans-35" x="888.134766"/>
      <use xlink:href="#DejaVuSans-35" x="951.757812"/>
      <use xlink:href="#DejaVuSans-35" x="1015.380859"/>
      <use xlink:href="#DejaVuSans-29" x="1079.003906"/>
     </g>
    </g>
   </g>
  </g>
 </g>
 <defs>
  <clipPath id="pe8a6adeb00">
   <rect x="34.240625" y="7.2" width="202.93" height="127.24"/>
  </clipPath>
 </defs>
</svg>
