<?xml version="1.0" encoding="utf-8" standalone="no"?>
<!DOCTYPE svg PUBLIC "-//W3C//DTD SVG 1.1//EN"
  "http://www.w3.org/Graphics/SVG/1.1/DTD/svg11.dtd">
<svg xmlns:xlink="http://www.w3.org/1999/xlink" width="508.126278pt" height="285.2325pt" viewBox="0 0 508.126278 285.2325" xmlns="http://www.w3.org/2000/svg" version="1.1">
 <metadata>
  <rdf:RDF xmlns:dc="http://purl.org/dc/elements/1.1/" xmlns:cc="http://creativecommons.org/ns#" xmlns:rdf="http://www.w3.org/1999/02/22-rdf-syntax-ns#">
   <cc:Work>
    <dc:type rdf:resource="http://purl.org/dc/dcmitype/StillImage"/>
    <dc:date>2025-07-05T12:02:36.709959</dc:date>
    <dc:format>image/svg+xml</dc:format>
    <dc:creator>
     <cc:Agent>
      <dc:title>Matplotlib v3.9.4, https://matplotlib.org/</dc:title>
     </cc:Agent>
    </dc:creator>
   </cc:Work>
  </rdf:RDF>
 </metadata>
 <defs>
  <style type="text/css">*{stroke-linejoin: round; stroke-linecap: butt}</style>
 </defs>
 <g id="figure_1">
  <g id="patch_1">
   <path d="M 0 285.2325 
L 508.126278 285.2325 
L 508.126278 0 
L 0 0 
z
" style="fill: #ffffff"/>
  </g>
  <g id="axes_1">
   <g id="patch_2">
    <path d="M 43.78125 247.67625 
L 490.18125 247.67625 
L 490.18125 25.91625 
L 43.78125 25.91625 
z
" style="fill: #ffffff"/>
   </g>
   <g id="matplotlib.axis_1">
    <g id="xtick_1">
     <g id="line2d_1">
      <path d="M 93.059172 247.67625 
L 93.059172 25.91625 
" clip-path="url(#p0db1b6f71b)" style="fill: none; stroke: #b0b0b0; stroke-opacity: 0.3; stroke-width: 0.8; stroke-linecap: square"/>
     </g>
     <g id="line2d_2">
      <defs>
       <path id="m05cf525806" d="M 0 0 
L 0 3.5 
" style="stroke: #000000; stroke-width: 0.8"/>
      </defs>
      <g>
       <use xlink:href="#m05cf525806" x="93.059172" y="247.67625" style="stroke: #000000; stroke-width: 0.8"/>
      </g>
     </g>
     <g id="text_1">
      <!-- 2 -->
      <g transform="translate(89.877922 262.274687) scale(0.1 -0.1)">
       <defs>
        <path id="DejaVuSans-32" d="M 1228 531 
L 3431 531 
L 3431 0 
L 469 0 
L 469 531 
Q 828 903 1448 1529 
Q 2069 2156 2228 2338 
Q 2531 2678 2651 2914 
Q 2772 3150 2772 3378 
Q 2772 3750 2511 3984 
Q 2250 4219 1831 4219 
Q 1534 4219 1204 4116 
Q 875 4013 500 3803 
L 500 4441 
Q 881 4594 1212 4672 
Q 1544 4750 1819 4750 
Q 2544 4750 2975 4387 
Q 3406 4025 3406 3419 
Q 3406 3131 3298 2873 
Q 3191 2616 2906 2266 
Q 2828 2175 2409 1742 
Q 1991 1309 1228 531 
z
" transform="scale(0.015625)"/>
       </defs>
       <use xlink:href="#DejaVuSans-32"/>
      </g>
     </g>
    </g>
    <g id="xtick_2">
     <g id="line2d_3">
      <path d="M 151.033198 247.67625 
L 151.033198 25.91625 
" clip-path="url(#p0db1b6f71b)" style="fill: none; stroke: #b0b0b0; stroke-opacity: 0.3; stroke-width: 0.8; stroke-linecap: square"/>
     </g>
     <g id="line2d_4">
      <g>
       <use xlink:href="#m05cf525806" x="151.033198" y="247.67625" style="stroke: #000000; stroke-width: 0.8"/>
      </g>
     </g>
     <g id="text_2">
      <!-- 4 -->
      <g transform="translate(147.851948 262.274687) scale(0.1 -0.1)">
       <defs>
        <path id="DejaVuSans-34" d="M 2419 4116 
L 825 1625 
L 2419 1625 
L 2419 4116 
z
M 2253 4666 
L 3047 4666 
L 3047 1625 
L 3713 1625 
L 3713 1100 
L 3047 1100 
L 3047 0 
L 2419 0 
L 2419 1100 
L 313 1100 
L 313 1709 
L 2253 4666 
z
" transform="scale(0.015625)"/>
       </defs>
       <use xlink:href="#DejaVuSans-34"/>
      </g>
     </g>
    </g>
    <g id="xtick_3">
     <g id="line2d_5">
      <path d="M 209.007224 247.67625 
L 209.007224 25.91625 
" clip-path="url(#p0db1b6f71b)" style="fill: none; stroke: #b0b0b0; stroke-opacity: 0.3; stroke-width: 0.8; stroke-linecap: square"/>
     </g>
     <g id="line2d_6">
      <g>
       <use xlink:href="#m05cf525806" x="209.007224" y="247.67625" style="stroke: #000000; stroke-width: 0.8"/>
      </g>
     </g>
     <g id="text_3">
      <!-- 6 -->
      <g transform="translate(205.825974 262.274687) scale(0.1 -0.1)">
       <defs>
        <path id="DejaVuSans-36" d="M 2113 2584 
Q 1688 2584 1439 2293 
Q 1191 2003 1191 1497 
Q 1191 994 1439 701 
Q 1688 409 2113 409 
Q 2538 409 2786 701 
Q 3034 994 3034 1497 
Q 3034 2003 2786 2293 
Q 2538 2584 2113 2584 
z
M 3366 4563 
L 3366 3988 
Q 3128 4100 2886 4159 
Q 2644 4219 2406 4219 
Q 1781 4219 1451 3797 
Q 1122 3375 1075 2522 
Q 1259 2794 1537 2939 
Q 1816 3084 2150 3084 
Q 2853 3084 3261 2657 
Q 3669 2231 3669 1497 
Q 3669 778 3244 343 
Q 2819 -91 2113 -91 
Q 1303 -91 875 529 
Q 447 1150 447 2328 
Q 447 3434 972 4092 
Q 1497 4750 2381 4750 
Q 2619 4750 2861 4703 
Q 3103 4656 3366 4563 
z
" transform="scale(0.015625)"/>
       </defs>
       <use xlink:href="#DejaVuSans-36"/>
      </g>
     </g>
    </g>
    <g id="xtick_4">
     <g id="line2d_7">
      <path d="M 266.98125 247.67625 
L 266.98125 25.91625 
" clip-path="url(#p0db1b6f71b)" style="fill: none; stroke: #b0b0b0; stroke-opacity: 0.3; stroke-width: 0.8; stroke-linecap: square"/>
     </g>
     <g id="line2d_8">
      <g>
       <use xlink:href="#m05cf525806" x="266.98125" y="247.67625" style="stroke: #000000; stroke-width: 0.8"/>
      </g>
     </g>
     <g id="text_4">
      <!-- 8 -->
      <g transform="translate(263.8 262.274687) scale(0.1 -0.1)">
       <defs>
        <path id="DejaVuSans-38" d="M 2034 2216 
Q 1584 2216 1326 1975 
Q 1069 1734 1069 1313 
Q 1069 891 1326 650 
Q 1584 409 2034 409 
Q 2484 409 2743 651 
Q 3003 894 3003 1313 
Q 3003 1734 2745 1975 
Q 2488 2216 2034 2216 
z
M 1403 2484 
Q 997 2584 770 2862 
Q 544 3141 544 3541 
Q 544 4100 942 4425 
Q 1341 4750 2034 4750 
Q 2731 4750 3128 4425 
Q 3525 4100 3525 3541 
Q 3525 3141 3298 2862 
Q 3072 2584 2669 2484 
Q 3125 2378 3379 2068 
Q 3634 1759 3634 1313 
Q 3634 634 3220 271 
Q 2806 -91 2034 -91 
Q 1263 -91 848 271 
Q 434 634 434 1313 
Q 434 1759 690 2068 
Q 947 2378 1403 2484 
z
M 1172 3481 
Q 1172 3119 1398 2916 
Q 1625 2713 2034 2713 
Q 2441 2713 2670 2916 
Q 2900 3119 2900 3481 
Q 2900 3844 2670 4047 
Q 2441 4250 2034 4250 
Q 1625 4250 1398 4047 
Q 1172 3844 1172 3481 
z
" transform="scale(0.015625)"/>
       </defs>
       <use xlink:href="#DejaVuSans-38"/>
      </g>
     </g>
    </g>
    <g id="xtick_5">
     <g id="line2d_9">
      <path d="M 324.955276 247.67625 
L 324.955276 25.91625 
" clip-path="url(#p0db1b6f71b)" style="fill: none; stroke: #b0b0b0; stroke-opacity: 0.3; stroke-width: 0.8; stroke-linecap: square"/>
     </g>
     <g id="line2d_10">
      <g>
       <use xlink:href="#m05cf525806" x="324.955276" y="247.67625" style="stroke: #000000; stroke-width: 0.8"/>
      </g>
     </g>
     <g id="text_5">
      <!-- 10 -->
      <g transform="translate(318.592776 262.274687) scale(0.1 -0.1)">
       <defs>
        <path id="DejaVuSans-31" d="M 794 531 
L 1825 531 
L 1825 4091 
L 703 3866 
L 703 4441 
L 1819 4666 
L 2450 4666 
L 2450 531 
L 3481 531 
L 3481 0 
L 794 0 
L 794 531 
z
" transform="scale(0.015625)"/>
        <path id="DejaVuSans-30" d="M 2034 4250 
Q 1547 4250 1301 3770 
Q 1056 3291 1056 2328 
Q 1056 1369 1301 889 
Q 1547 409 2034 409 
Q 2525 409 2770 889 
Q 3016 1369 3016 2328 
Q 3016 3291 2770 3770 
Q 2525 4250 2034 4250 
z
M 2034 4750 
Q 2819 4750 3233 4129 
Q 3647 3509 3647 2328 
Q 3647 1150 3233 529 
Q 2819 -91 2034 -91 
Q 1250 -91 836 529 
Q 422 1150 422 2328 
Q 422 3509 836 4129 
Q 1250 4750 2034 4750 
z
" transform="scale(0.015625)"/>
       </defs>
       <use xlink:href="#DejaVuSans-31"/>
       <use xlink:href="#DejaVuSans-30" x="63.623047"/>
      </g>
     </g>
    </g>
    <g id="xtick_6">
     <g id="line2d_11">
      <path d="M 382.929302 247.67625 
L 382.929302 25.91625 
" clip-path="url(#p0db1b6f71b)" style="fill: none; stroke: #b0b0b0; stroke-opacity: 0.3; stroke-width: 0.8; stroke-linecap: square"/>
     </g>
     <g id="line2d_12">
      <g>
       <use xlink:href="#m05cf525806" x="382.929302" y="247.67625" style="stroke: #000000; stroke-width: 0.8"/>
      </g>
     </g>
     <g id="text_6">
      <!-- 12 -->
      <g transform="translate(376.566802 262.274687) scale(0.1 -0.1)">
       <use xlink:href="#DejaVuSans-31"/>
       <use xlink:href="#DejaVuSans-32" x="63.623047"/>
      </g>
     </g>
    </g>
    <g id="xtick_7">
     <g id="line2d_13">
      <path d="M 440.903328 247.67625 
L 440.903328 25.91625 
" clip-path="url(#p0db1b6f71b)" style="fill: none; stroke: #b0b0b0; stroke-opacity: 0.3; stroke-width: 0.8; stroke-linecap: square"/>
     </g>
     <g id="line2d_14">
      <g>
       <use xlink:href="#m05cf525806" x="440.903328" y="247.67625" style="stroke: #000000; stroke-width: 0.8"/>
      </g>
     </g>
     <g id="text_7">
      <!-- 14 -->
      <g transform="translate(434.540828 262.274687) scale(0.1 -0.1)">
       <use xlink:href="#DejaVuSans-31"/>
       <use xlink:href="#DejaVuSans-34" x="63.623047"/>
      </g>
     </g>
    </g>
    <g id="text_8">
     <!-- Top k -->
     <g transform="translate(254.059375 275.952812) scale(0.1 -0.1)">
      <defs>
       <path id="DejaVuSans-54" d="M -19 4666 
L 3928 4666 
L 3928 4134 
L 2272 4134 
L 2272 0 
L 1638 0 
L 1638 4134 
L -19 4134 
L -19 4666 
z
" transform="scale(0.015625)"/>
       <path id="DejaVuSans-6f" d="M 1959 3097 
Q 1497 3097 1228 2736 
Q 959 2375 959 1747 
Q 959 1119 1226 758 
Q 1494 397 1959 397 
Q 2419 397 2687 759 
Q 2956 1122 2956 1747 
Q 2956 2369 2687 2733 
Q 2419 3097 1959 3097 
z
M 1959 3584 
Q 2709 3584 3137 3096 
Q 3566 2609 3566 1747 
Q 3566 888 3137 398 
Q 2709 -91 1959 -91 
Q 1206 -91 779 398 
Q 353 888 353 1747 
Q 353 2609 779 3096 
Q 1206 3584 1959 3584 
z
" transform="scale(0.015625)"/>
       <path id="DejaVuSans-70" d="M 1159 525 
L 1159 -1331 
L 581 -1331 
L 581 3500 
L 1159 3500 
L 1159 2969 
Q 1341 3281 1617 3432 
Q 1894 3584 2278 3584 
Q 2916 3584 3314 3078 
Q 3713 2572 3713 1747 
Q 3713 922 3314 415 
Q 2916 -91 2278 -91 
Q 1894 -91 1617 61 
Q 1341 213 1159 525 
z
M 3116 1747 
Q 3116 2381 2855 2742 
Q 2594 3103 2138 3103 
Q 1681 3103 1420 2742 
Q 1159 2381 1159 1747 
Q 1159 1113 1420 752 
Q 1681 391 2138 391 
Q 2594 391 2855 752 
Q 3116 1113 3116 1747 
z
" transform="scale(0.015625)"/>
       <path id="DejaVuSans-20" transform="scale(0.015625)"/>
       <path id="DejaVuSans-6b" d="M 581 4863 
L 1159 4863 
L 1159 1991 
L 2875 3500 
L 3609 3500 
L 1753 1863 
L 3688 0 
L 2938 0 
L 1159 1709 
L 1159 0 
L 581 0 
L 581 4863 
z
" transform="scale(0.015625)"/>
      </defs>
      <use xlink:href="#DejaVuSans-54"/>
      <use xlink:href="#DejaVuSans-6f" x="44.083984"/>
      <use xlink:href="#DejaVuSans-70" x="105.265625"/>
      <use xlink:href="#DejaVuSans-20" x="168.742188"/>
      <use xlink:href="#DejaVuSans-6b" x="200.529297"/>
     </g>
    </g>
   </g>
   <g id="matplotlib.axis_2">
    <g id="ytick_1">
     <g id="line2d_15">
      <path d="M 43.78125 212.467103 
L 490.18125 212.467103 
" clip-path="url(#p0db1b6f71b)" style="fill: none; stroke: #b0b0b0; stroke-opacity: 0.3; stroke-width: 0.8; stroke-linecap: square"/>
     </g>
     <g id="line2d_16">
      <defs>
       <path id="m02d792b42f" d="M 0 0 
L -3.5 0 
" style="stroke: #000000; stroke-width: 0.8"/>
      </defs>
      <g>
       <use xlink:href="#m02d792b42f" x="43.78125" y="212.467103" style="stroke: #000000; stroke-width: 0.8"/>
      </g>
     </g>
     <g id="text_9">
      <!-- 0.4 -->
      <g transform="translate(20.878125 216.266322) scale(0.1 -0.1)">
       <defs>
        <path id="DejaVuSans-2e" d="M 684 794 
L 1344 794 
L 1344 0 
L 684 0 
L 684 794 
z
" transform="scale(0.015625)"/>
       </defs>
       <use xlink:href="#DejaVuSans-30"/>
       <use xlink:href="#DejaVuSans-2e" x="63.623047"/>
       <use xlink:href="#DejaVuSans-34" x="95.410156"/>
      </g>
     </g>
    </g>
    <g id="ytick_2">
     <g id="line2d_17">
      <path d="M 43.78125 169.530271 
L 490.18125 169.530271 
" clip-path="url(#p0db1b6f71b)" style="fill: none; stroke: #b0b0b0; stroke-opacity: 0.3; stroke-width: 0.8; stroke-linecap: square"/>
     </g>
     <g id="line2d_18">
      <g>
       <use xlink:href="#m02d792b42f" x="43.78125" y="169.530271" style="stroke: #000000; stroke-width: 0.8"/>
      </g>
     </g>
     <g id="text_10">
      <!-- 0.5 -->
      <g transform="translate(20.878125 173.329489) scale(0.1 -0.1)">
       <defs>
        <path id="DejaVuSans-35" d="M 691 4666 
L 3169 4666 
L 3169 4134 
L 1269 4134 
L 1269 2991 
Q 1406 3038 1543 3061 
Q 1681 3084 1819 3084 
Q 2600 3084 3056 2656 
Q 3513 2228 3513 1497 
Q 3513 744 3044 326 
Q 2575 -91 1722 -91 
Q 1428 -91 1123 -41 
Q 819 9 494 109 
L 494 744 
Q 775 591 1075 516 
Q 1375 441 1709 441 
Q 2250 441 2565 725 
Q 2881 1009 2881 1497 
Q 2881 1984 2565 2268 
Q 2250 2553 1709 2553 
Q 1456 2553 1204 2497 
Q 953 2441 691 2322 
L 691 4666 
z
" transform="scale(0.015625)"/>
       </defs>
       <use xlink:href="#DejaVuSans-30"/>
       <use xlink:href="#DejaVuSans-2e" x="63.623047"/>
       <use xlink:href="#DejaVuSans-35" x="95.410156"/>
      </g>
     </g>
    </g>
    <g id="ytick_3">
     <g id="line2d_19">
      <path d="M 43.78125 126.593438 
L 490.18125 126.593438 
" clip-path="url(#p0db1b6f71b)" style="fill: none; stroke: #b0b0b0; stroke-opacity: 0.3; stroke-width: 0.8; stroke-linecap: square"/>
     </g>
     <g id="line2d_20">
      <g>
       <use xlink:href="#m02d792b42f" x="43.78125" y="126.593438" style="stroke: #000000; stroke-width: 0.8"/>
      </g>
     </g>
     <g id="text_11">
      <!-- 0.6 -->
      <g transform="translate(20.878125 130.392657) scale(0.1 -0.1)">
       <use xlink:href="#DejaVuSans-30"/>
       <use xlink:href="#DejaVuSans-2e" x="63.623047"/>
       <use xlink:href="#DejaVuSans-36" x="95.410156"/>
      </g>
     </g>
    </g>
    <g id="ytick_4">
     <g id="line2d_21">
      <path d="M 43.78125 83.656606 
L 490.18125 83.656606 
" clip-path="url(#p0db1b6f71b)" style="fill: none; stroke: #b0b0b0; stroke-opacity: 0.3; stroke-width: 0.8; stroke-linecap: square"/>
     </g>
     <g id="line2d_22">
      <g>
       <use xlink:href="#m02d792b42f" x="43.78125" y="83.656606" style="stroke: #000000; stroke-width: 0.8"/>
      </g>
     </g>
     <g id="text_12">
      <!-- 0.7 -->
      <g transform="translate(20.878125 87.455825) scale(0.1 -0.1)">
       <defs>
        <path id="DejaVuSans-37" d="M 525 4666 
L 3525 4666 
L 3525 4397 
L 1831 0 
L 1172 0 
L 2766 4134 
L 525 4134 
L 525 4666 
z
" transform="scale(0.015625)"/>
       </defs>
       <use xlink:href="#DejaVuSans-30"/>
       <use xlink:href="#DejaVuSans-2e" x="63.623047"/>
       <use xlink:href="#DejaVuSans-37" x="95.410156"/>
      </g>
     </g>
    </g>
    <g id="ytick_5">
     <g id="line2d_23">
      <path d="M 43.78125 40.719774 
L 490.18125 40.719774 
" clip-path="url(#p0db1b6f71b)" style="fill: none; stroke: #b0b0b0; stroke-opacity: 0.3; stroke-width: 0.8; stroke-linecap: square"/>
     </g>
     <g id="line2d_24">
      <g>
       <use xlink:href="#m02d792b42f" x="43.78125" y="40.719774" style="stroke: #000000; stroke-width: 0.8"/>
      </g>
     </g>
     <g id="text_13">
      <!-- 0.8 -->
      <g transform="translate(20.878125 44.518993) scale(0.1 -0.1)">
       <use xlink:href="#DejaVuSans-30"/>
       <use xlink:href="#DejaVuSans-2e" x="63.623047"/>
       <use xlink:href="#DejaVuSans-38" x="95.410156"/>
      </g>
     </g>
    </g>
    <g id="text_14">
     <!-- Precision -->
     <g transform="translate(14.798438 159.103281) rotate(-90) scale(0.1 -0.1)">
      <defs>
       <path id="DejaVuSans-50" d="M 1259 4147 
L 1259 2394 
L 2053 2394 
Q 2494 2394 2734 2622 
Q 2975 2850 2975 3272 
Q 2975 3691 2734 3919 
Q 2494 4147 2053 4147 
L 1259 4147 
z
M 628 4666 
L 2053 4666 
Q 2838 4666 3239 4311 
Q 3641 3956 3641 3272 
Q 3641 2581 3239 2228 
Q 2838 1875 2053 1875 
L 1259 1875 
L 1259 0 
L 628 0 
L 628 4666 
z
" transform="scale(0.015625)"/>
       <path id="DejaVuSans-72" d="M 2631 2963 
Q 2534 3019 2420 3045 
Q 2306 3072 2169 3072 
Q 1681 3072 1420 2755 
Q 1159 2438 1159 1844 
L 1159 0 
L 581 0 
L 581 3500 
L 1159 3500 
L 1159 2956 
Q 1341 3275 1631 3429 
Q 1922 3584 2338 3584 
Q 2397 3584 2469 3576 
Q 2541 3569 2628 3553 
L 2631 2963 
z
" transform="scale(0.015625)"/>
       <path id="DejaVuSans-65" d="M 3597 1894 
L 3597 1613 
L 953 1613 
Q 991 1019 1311 708 
Q 1631 397 2203 397 
Q 2534 397 2845 478 
Q 3156 559 3463 722 
L 3463 178 
Q 3153 47 2828 -22 
Q 2503 -91 2169 -91 
Q 1331 -91 842 396 
Q 353 884 353 1716 
Q 353 2575 817 3079 
Q 1281 3584 2069 3584 
Q 2775 3584 3186 3129 
Q 3597 2675 3597 1894 
z
M 3022 2063 
Q 3016 2534 2758 2815 
Q 2500 3097 2075 3097 
Q 1594 3097 1305 2825 
Q 1016 2553 972 2059 
L 3022 2063 
z
" transform="scale(0.015625)"/>
       <path id="DejaVuSans-63" d="M 3122 3366 
L 3122 2828 
Q 2878 2963 2633 3030 
Q 2388 3097 2138 3097 
Q 1578 3097 1268 2742 
Q 959 2388 959 1747 
Q 959 1106 1268 751 
Q 1578 397 2138 397 
Q 2388 397 2633 464 
Q 2878 531 3122 666 
L 3122 134 
Q 2881 22 2623 -34 
Q 2366 -91 2075 -91 
Q 1284 -91 818 406 
Q 353 903 353 1747 
Q 353 2603 823 3093 
Q 1294 3584 2113 3584 
Q 2378 3584 2631 3529 
Q 2884 3475 3122 3366 
z
" transform="scale(0.015625)"/>
       <path id="DejaVuSans-69" d="M 603 3500 
L 1178 3500 
L 1178 0 
L 603 0 
L 603 3500 
z
M 603 4863 
L 1178 4863 
L 1178 4134 
L 603 4134 
L 603 4863 
z
" transform="scale(0.015625)"/>
       <path id="DejaVuSans-73" d="M 2834 3397 
L 2834 2853 
Q 2591 2978 2328 3040 
Q 2066 3103 1784 3103 
Q 1356 3103 1142 2972 
Q 928 2841 928 2578 
Q 928 2378 1081 2264 
Q 1234 2150 1697 2047 
L 1894 2003 
Q 2506 1872 2764 1633 
Q 3022 1394 3022 966 
Q 3022 478 2636 193 
Q 2250 -91 1575 -91 
Q 1294 -91 989 -36 
Q 684 19 347 128 
L 347 722 
Q 666 556 975 473 
Q 1284 391 1588 391 
Q 1994 391 2212 530 
Q 2431 669 2431 922 
Q 2431 1156 2273 1281 
Q 2116 1406 1581 1522 
L 1381 1569 
Q 847 1681 609 1914 
Q 372 2147 372 2553 
Q 372 3047 722 3315 
Q 1072 3584 1716 3584 
Q 2034 3584 2315 3537 
Q 2597 3491 2834 3397 
z
" transform="scale(0.015625)"/>
       <path id="DejaVuSans-6e" d="M 3513 2113 
L 3513 0 
L 2938 0 
L 2938 2094 
Q 2938 2591 2744 2837 
Q 2550 3084 2163 3084 
Q 1697 3084 1428 2787 
Q 1159 2491 1159 1978 
L 1159 0 
L 581 0 
L 581 3500 
L 1159 3500 
L 1159 2956 
Q 1366 3272 1645 3428 
Q 1925 3584 2291 3584 
Q 2894 3584 3203 3211 
Q 3513 2838 3513 2113 
z
" transform="scale(0.015625)"/>
      </defs>
      <use xlink:href="#DejaVuSans-50"/>
      <use xlink:href="#DejaVuSans-72" x="58.552734"/>
      <use xlink:href="#DejaVuSans-65" x="97.416016"/>
      <use xlink:href="#DejaVuSans-63" x="158.939453"/>
      <use xlink:href="#DejaVuSans-69" x="213.919922"/>
      <use xlink:href="#DejaVuSans-73" x="241.703125"/>
      <use xlink:href="#DejaVuSans-69" x="293.802734"/>
      <use xlink:href="#DejaVuSans-6f" x="321.585938"/>
      <use xlink:href="#DejaVuSans-6e" x="382.767578"/>
     </g>
    </g>
   </g>
   <g id="line2d_25">
    <path d="M 64.072159 237.59625 
L 93.059172 177.985378 
L 122.046185 145.015182 
L 151.033198 127.254732 
L 180.020211 117.996625 
L 209.007224 110.061105 
L 237.994237 105.14864 
L 266.98125 102.503466 
L 295.968263 101.27535 
L 324.955276 100.236175 
L 353.942289 99.952764 
L 382.929302 99.480411 
L 411.916315 99.29147 
L 440.903328 99.29147 
L 469.890341 98.913588 
" clip-path="url(#p0db1b6f71b)" style="fill: none; stroke: #43a3ef; stroke-width: 2; stroke-linecap: square"/>
    <defs>
     <path id="mba165f02f3" d="M 0 2 
C 0.530406 2 1.03916 1.789267 1.414214 1.414214 
C 1.789267 1.03916 2 0.530406 2 0 
C 2 -0.530406 1.789267 -1.03916 1.414214 -1.414214 
C 1.03916 -1.789267 0.530406 -2 0 -2 
C -0.530406 -2 -1.03916 -1.789267 -1.414214 -1.414214 
C -1.789267 -1.03916 -2 -0.530406 -2 0 
C -2 0.530406 -1.789267 1.03916 -1.414214 1.414214 
C -1.03916 1.789267 -0.530406 2 0 2 
z
" style="stroke: #43a3ef"/>
    </defs>
    <g clip-path="url(#p0db1b6f71b)">
     <use xlink:href="#mba165f02f3" x="64.072159" y="237.59625" style="fill: #43a3ef; stroke: #43a3ef"/>
     <use xlink:href="#mba165f02f3" x="93.059172" y="177.985378" style="fill: #43a3ef; stroke: #43a3ef"/>
     <use xlink:href="#mba165f02f3" x="122.046185" y="145.015182" style="fill: #43a3ef; stroke: #43a3ef"/>
     <use xlink:href="#mba165f02f3" x="151.033198" y="127.254732" style="fill: #43a3ef; stroke: #43a3ef"/>
     <use xlink:href="#mba165f02f3" x="180.020211" y="117.996625" style="fill: #43a3ef; stroke: #43a3ef"/>
     <use xlink:href="#mba165f02f3" x="209.007224" y="110.061105" style="fill: #43a3ef; stroke: #43a3ef"/>
     <use xlink:href="#mba165f02f3" x="237.994237" y="105.14864" style="fill: #43a3ef; stroke: #43a3ef"/>
     <use xlink:href="#mba165f02f3" x="266.98125" y="102.503466" style="fill: #43a3ef; stroke: #43a3ef"/>
     <use xlink:href="#mba165f02f3" x="295.968263" y="101.27535" style="fill: #43a3ef; stroke: #43a3ef"/>
     <use xlink:href="#mba165f02f3" x="324.955276" y="100.236175" style="fill: #43a3ef; stroke: #43a3ef"/>
     <use xlink:href="#mba165f02f3" x="353.942289" y="99.952764" style="fill: #43a3ef; stroke: #43a3ef"/>
     <use xlink:href="#mba165f02f3" x="382.929302" y="99.480411" style="fill: #43a3ef; stroke: #43a3ef"/>
     <use xlink:href="#mba165f02f3" x="411.916315" y="99.29147" style="fill: #43a3ef; stroke: #43a3ef"/>
     <use xlink:href="#mba165f02f3" x="440.903328" y="99.29147" style="fill: #43a3ef; stroke: #43a3ef"/>
     <use xlink:href="#mba165f02f3" x="469.890341" y="98.913588" style="fill: #43a3ef; stroke: #43a3ef"/>
    </g>
   </g>
   <g id="line2d_26">
    <path d="M 64.072159 147.093532 
L 93.059172 95.985004 
L 122.046185 69.816681 
L 151.033198 54.795875 
L 180.020211 47.994001 
L 209.007224 42.420243 
L 237.994237 40.247422 
L 266.98125 39.113776 
L 295.968263 37.98013 
L 324.955276 37.224366 
L 353.942289 37.035425 
L 382.929302 36.657543 
L 411.916315 36.09072 
L 440.903328 36.09072 
L 469.890341 35.99625 
" clip-path="url(#p0db1b6f71b)" style="fill: none; stroke: #ef767b; stroke-width: 2; stroke-linecap: square"/>
    <defs>
     <path id="mb54e24c206" d="M 0 2 
C 0.530406 2 1.03916 1.789267 1.414214 1.414214 
C 1.789267 1.03916 2 0.530406 2 0 
C 2 -0.530406 1.789267 -1.03916 1.414214 -1.414214 
C 1.03916 -1.789267 0.530406 -2 0 -2 
C -0.530406 -2 -1.03916 -1.789267 -1.414214 -1.414214 
C -1.789267 -1.03916 -2 -0.530406 -2 0 
C -2 0.530406 -1.789267 1.03916 -1.414214 1.414214 
C -1.03916 1.789267 -0.530406 2 0 2 
z
" style="stroke: #ef767b"/>
    </defs>
    <g clip-path="url(#p0db1b6f71b)">
     <use xlink:href="#mb54e24c206" x="64.072159" y="147.093532" style="fill: #ef767b; stroke: #ef767b"/>
     <use xlink:href="#mb54e24c206" x="93.059172" y="95.985004" style="fill: #ef767b; stroke: #ef767b"/>
     <use xlink:href="#mb54e24c206" x="122.046185" y="69.816681" style="fill: #ef767b; stroke: #ef767b"/>
     <use xlink:href="#mb54e24c206" x="151.033198" y="54.795875" style="fill: #ef767b; stroke: #ef767b"/>
     <use xlink:href="#mb54e24c206" x="180.020211" y="47.994001" style="fill: #ef767b; stroke: #ef767b"/>
     <use xlink:href="#mb54e24c206" x="209.007224" y="42.420243" style="fill: #ef767b; stroke: #ef767b"/>
     <use xlink:href="#mb54e24c206" x="237.994237" y="40.247422" style="fill: #ef767b; stroke: #ef767b"/>
     <use xlink:href="#mb54e24c206" x="266.98125" y="39.113776" style="fill: #ef767b; stroke: #ef767b"/>
     <use xlink:href="#mb54e24c206" x="295.968263" y="37.98013" style="fill: #ef767b; stroke: #ef767b"/>
     <use xlink:href="#mb54e24c206" x="324.955276" y="37.224366" style="fill: #ef767b; stroke: #ef767b"/>
     <use xlink:href="#mb54e24c206" x="353.942289" y="37.035425" style="fill: #ef767b; stroke: #ef767b"/>
     <use xlink:href="#mb54e24c206" x="382.929302" y="36.657543" style="fill: #ef767b; stroke: #ef767b"/>
     <use xlink:href="#mb54e24c206" x="411.916315" y="36.09072" style="fill: #ef767b; stroke: #ef767b"/>
     <use xlink:href="#mb54e24c206" x="440.903328" y="36.09072" style="fill: #ef767b; stroke: #ef767b"/>
     <use xlink:href="#mb54e24c206" x="469.890341" y="35.99625" style="fill: #ef767b; stroke: #ef767b"/>
    </g>
   </g>
   <g id="patch_3">
    <path d="M 43.78125 247.67625 
L 43.78125 25.91625 
" style="fill: none; stroke: #000000; stroke-width: 0.8; stroke-linejoin: miter; stroke-linecap: square"/>
   </g>
   <g id="patch_4">
    <path d="M 490.18125 247.67625 
L 490.18125 25.91625 
" style="fill: none; stroke: #000000; stroke-width: 0.8; stroke-linejoin: miter; stroke-linecap: square"/>
   </g>
   <g id="patch_5">
    <path d="M 43.78125 247.67625 
L 490.18125 247.67625 
" style="fill: none; stroke: #000000; stroke-width: 0.8; stroke-linejoin: miter; stroke-linecap: square"/>
   </g>
   <g id="patch_6">
    <path d="M 43.78125 25.91625 
L 490.18125 25.91625 
" style="fill: none; stroke: #000000; stroke-width: 0.8; stroke-linejoin: miter; stroke-linecap: square"/>
   </g>
   <g id="text_15">
    <!-- 0.341 -->
    <g transform="translate(49.758097 216.398437) scale(0.1 -0.1)">
     <defs>
      <path id="DejaVuSans-33" d="M 2597 2516 
Q 3050 2419 3304 2112 
Q 3559 1806 3559 1356 
Q 3559 666 3084 287 
Q 2609 -91 1734 -91 
Q 1441 -91 1130 -33 
Q 819 25 488 141 
L 488 750 
Q 750 597 1062 519 
Q 1375 441 1716 441 
Q 2309 441 2620 675 
Q 2931 909 2931 1356 
Q 2931 1769 2642 2001 
Q 2353 2234 1838 2234 
L 1294 2234 
L 1294 2753 
L 1863 2753 
Q 2328 2753 2575 2939 
Q 2822 3125 2822 3475 
Q 2822 3834 2567 4026 
Q 2313 4219 1838 4219 
Q 1578 4219 1281 4162 
Q 984 4106 628 3988 
L 628 4550 
Q 988 4650 1302 4700 
Q 1616 4750 1894 4750 
Q 2613 4750 3031 4423 
Q 3450 4097 3450 3541 
Q 3450 3153 3228 2886 
Q 3006 2619 2597 2516 
z
" transform="scale(0.015625)"/>
     </defs>
     <use xlink:href="#DejaVuSans-30"/>
     <use xlink:href="#DejaVuSans-2e" x="63.623047"/>
     <use xlink:href="#DejaVuSans-33" x="95.410156"/>
     <use xlink:href="#DejaVuSans-34" x="159.033203"/>
     <use xlink:href="#DejaVuSans-31" x="222.65625"/>
    </g>
    <!-- (1552/4545) -->
    <g transform="translate(33.036222 227.59625) scale(0.1 -0.1)">
     <defs>
      <path id="DejaVuSans-28" d="M 1984 4856 
Q 1566 4138 1362 3434 
Q 1159 2731 1159 2009 
Q 1159 1288 1364 580 
Q 1569 -128 1984 -844 
L 1484 -844 
Q 1016 -109 783 600 
Q 550 1309 550 2009 
Q 550 2706 781 3412 
Q 1013 4119 1484 4856 
L 1984 4856 
z
" transform="scale(0.015625)"/>
      <path id="DejaVuSans-2f" d="M 1625 4666 
L 2156 4666 
L 531 -594 
L 0 -594 
L 1625 4666 
z
" transform="scale(0.015625)"/>
      <path id="DejaVuSans-29" d="M 513 4856 
L 1013 4856 
Q 1481 4119 1714 3412 
Q 1947 2706 1947 2009 
Q 1947 1309 1714 600 
Q 1481 -109 1013 -844 
L 513 -844 
Q 928 -128 1133 580 
Q 1338 1288 1338 2009 
Q 1338 2731 1133 3434 
Q 928 4138 513 4856 
z
" transform="scale(0.015625)"/>
     </defs>
     <use xlink:href="#DejaVuSans-28"/>
     <use xlink:href="#DejaVuSans-31" x="39.013672"/>
     <use xlink:href="#DejaVuSans-35" x="102.636719"/>
     <use xlink:href="#DejaVuSans-35" x="166.259766"/>
     <use xlink:href="#DejaVuSans-32" x="229.882812"/>
     <use xlink:href="#DejaVuSans-2f" x="293.505859"/>
     <use xlink:href="#DejaVuSans-34" x="327.197266"/>
     <use xlink:href="#DejaVuSans-35" x="390.820312"/>
     <use xlink:href="#DejaVuSans-34" x="454.443359"/>
     <use xlink:href="#DejaVuSans-35" x="518.066406"/>
     <use xlink:href="#DejaVuSans-29" x="581.689453"/>
    </g>
   </g>
   <g id="text_16">
    <!-- 0.557 -->
    <g transform="translate(107.732123 123.817369) scale(0.1 -0.1)">
     <use xlink:href="#DejaVuSans-30"/>
     <use xlink:href="#DejaVuSans-2e" x="63.623047"/>
     <use xlink:href="#DejaVuSans-35" x="95.410156"/>
     <use xlink:href="#DejaVuSans-35" x="159.033203"/>
     <use xlink:href="#DejaVuSans-37" x="222.65625"/>
    </g>
    <!-- (2532/4545) -->
    <g transform="translate(91.010248 135.015182) scale(0.1 -0.1)">
     <use xlink:href="#DejaVuSans-28"/>
     <use xlink:href="#DejaVuSans-32" x="39.013672"/>
     <use xlink:href="#DejaVuSans-35" x="102.636719"/>
     <use xlink:href="#DejaVuSans-33" x="166.259766"/>
     <use xlink:href="#DejaVuSans-32" x="229.882812"/>
     <use xlink:href="#DejaVuSans-2f" x="293.505859"/>
     <use xlink:href="#DejaVuSans-34" x="327.197266"/>
     <use xlink:href="#DejaVuSans-35" x="390.820312"/>
     <use xlink:href="#DejaVuSans-34" x="454.443359"/>
     <use xlink:href="#DejaVuSans-35" x="518.066406"/>
     <use xlink:href="#DejaVuSans-29" x="581.689453"/>
    </g>
   </g>
   <g id="text_17">
    <!-- 0.620 -->
    <g transform="translate(165.706149 96.798812) scale(0.1 -0.1)">
     <use xlink:href="#DejaVuSans-30"/>
     <use xlink:href="#DejaVuSans-2e" x="63.623047"/>
     <use xlink:href="#DejaVuSans-36" x="95.410156"/>
     <use xlink:href="#DejaVuSans-32" x="159.033203"/>
     <use xlink:href="#DejaVuSans-30" x="222.65625"/>
    </g>
    <!-- (2818/4545) -->
    <g transform="translate(148.984274 107.996625) scale(0.1 -0.1)">
     <use xlink:href="#DejaVuSans-28"/>
     <use xlink:href="#DejaVuSans-32" x="39.013672"/>
     <use xlink:href="#DejaVuSans-38" x="102.636719"/>
     <use xlink:href="#DejaVuSans-31" x="166.259766"/>
     <use xlink:href="#DejaVuSans-38" x="229.882812"/>
     <use xlink:href="#DejaVuSans-2f" x="293.505859"/>
     <use xlink:href="#DejaVuSans-34" x="327.197266"/>
     <use xlink:href="#DejaVuSans-35" x="390.820312"/>
     <use xlink:href="#DejaVuSans-34" x="454.443359"/>
     <use xlink:href="#DejaVuSans-35" x="518.066406"/>
     <use xlink:href="#DejaVuSans-29" x="581.689453"/>
    </g>
   </g>
   <g id="text_18">
    <!-- 0.650 -->
    <g transform="translate(223.680175 83.950827) scale(0.1 -0.1)">
     <use xlink:href="#DejaVuSans-30"/>
     <use xlink:href="#DejaVuSans-2e" x="63.623047"/>
     <use xlink:href="#DejaVuSans-36" x="95.410156"/>
     <use xlink:href="#DejaVuSans-35" x="159.033203"/>
     <use xlink:href="#DejaVuSans-30" x="222.65625"/>
    </g>
    <!-- (2954/4545) -->
    <g transform="translate(206.9583 95.14864) scale(0.1 -0.1)">
     <defs>
      <path id="DejaVuSans-39" d="M 703 97 
L 703 672 
Q 941 559 1184 500 
Q 1428 441 1663 441 
Q 2288 441 2617 861 
Q 2947 1281 2994 2138 
Q 2813 1869 2534 1725 
Q 2256 1581 1919 1581 
Q 1219 1581 811 2004 
Q 403 2428 403 3163 
Q 403 3881 828 4315 
Q 1253 4750 1959 4750 
Q 2769 4750 3195 4129 
Q 3622 3509 3622 2328 
Q 3622 1225 3098 567 
Q 2575 -91 1691 -91 
Q 1453 -91 1209 -44 
Q 966 3 703 97 
z
M 1959 2075 
Q 2384 2075 2632 2365 
Q 2881 2656 2881 3163 
Q 2881 3666 2632 3958 
Q 2384 4250 1959 4250 
Q 1534 4250 1286 3958 
Q 1038 3666 1038 3163 
Q 1038 2656 1286 2365 
Q 1534 2075 1959 2075 
z
" transform="scale(0.015625)"/>
     </defs>
     <use xlink:href="#DejaVuSans-28"/>
     <use xlink:href="#DejaVuSans-32" x="39.013672"/>
     <use xlink:href="#DejaVuSans-39" x="102.636719"/>
     <use xlink:href="#DejaVuSans-35" x="166.259766"/>
     <use xlink:href="#DejaVuSans-34" x="229.882812"/>
     <use xlink:href="#DejaVuSans-2f" x="293.505859"/>
     <use xlink:href="#DejaVuSans-34" x="327.197266"/>
     <use xlink:href="#DejaVuSans-35" x="390.820312"/>
     <use xlink:href="#DejaVuSans-34" x="454.443359"/>
     <use xlink:href="#DejaVuSans-35" x="518.066406"/>
     <use xlink:href="#DejaVuSans-29" x="581.689453"/>
    </g>
   </g>
   <g id="text_19">
    <!-- 0.659 -->
    <g transform="translate(281.6542 80.077538) scale(0.1 -0.1)">
     <use xlink:href="#DejaVuSans-30"/>
     <use xlink:href="#DejaVuSans-2e" x="63.623047"/>
     <use xlink:href="#DejaVuSans-36" x="95.410156"/>
     <use xlink:href="#DejaVuSans-35" x="159.033203"/>
     <use xlink:href="#DejaVuSans-39" x="222.65625"/>
    </g>
    <!-- (2995/4545) -->
    <g transform="translate(264.932325 91.27535) scale(0.1 -0.1)">
     <use xlink:href="#DejaVuSans-28"/>
     <use xlink:href="#DejaVuSans-32" x="39.013672"/>
     <use xlink:href="#DejaVuSans-39" x="102.636719"/>
     <use xlink:href="#DejaVuSans-39" x="166.259766"/>
     <use xlink:href="#DejaVuSans-35" x="229.882812"/>
     <use xlink:href="#DejaVuSans-2f" x="293.505859"/>
     <use xlink:href="#DejaVuSans-34" x="327.197266"/>
     <use xlink:href="#DejaVuSans-35" x="390.820312"/>
     <use xlink:href="#DejaVuSans-34" x="454.443359"/>
     <use xlink:href="#DejaVuSans-35" x="518.066406"/>
     <use xlink:href="#DejaVuSans-29" x="581.689453"/>
    </g>
   </g>
   <g id="text_20">
    <!-- 0.662 -->
    <g transform="translate(339.628226 78.754951) scale(0.1 -0.1)">
     <use xlink:href="#DejaVuSans-30"/>
     <use xlink:href="#DejaVuSans-2e" x="63.623047"/>
     <use xlink:href="#DejaVuSans-36" x="95.410156"/>
     <use xlink:href="#DejaVuSans-36" x="159.033203"/>
     <use xlink:href="#DejaVuSans-32" x="222.65625"/>
    </g>
    <!-- (3009/4545) -->
    <g transform="translate(322.906351 89.952764) scale(0.1 -0.1)">
     <use xlink:href="#DejaVuSans-28"/>
     <use xlink:href="#DejaVuSans-33" x="39.013672"/>
     <use xlink:href="#DejaVuSans-30" x="102.636719"/>
     <use xlink:href="#DejaVuSans-30" x="166.259766"/>
     <use xlink:href="#DejaVuSans-39" x="229.882812"/>
     <use xlink:href="#DejaVuSans-2f" x="293.505859"/>
     <use xlink:href="#DejaVuSans-34" x="327.197266"/>
     <use xlink:href="#DejaVuSans-35" x="390.820312"/>
     <use xlink:href="#DejaVuSans-34" x="454.443359"/>
     <use xlink:href="#DejaVuSans-35" x="518.066406"/>
     <use xlink:href="#DejaVuSans-29" x="581.689453"/>
    </g>
   </g>
   <g id="text_21">
    <!-- 0.664 -->
    <g transform="translate(397.602252 78.093658) scale(0.1 -0.1)">
     <use xlink:href="#DejaVuSans-30"/>
     <use xlink:href="#DejaVuSans-2e" x="63.623047"/>
     <use xlink:href="#DejaVuSans-36" x="95.410156"/>
     <use xlink:href="#DejaVuSans-36" x="159.033203"/>
     <use xlink:href="#DejaVuSans-34" x="222.65625"/>
    </g>
    <!-- (3016/4545) -->
    <g transform="translate(380.880377 89.29147) scale(0.1 -0.1)">
     <use xlink:href="#DejaVuSans-28"/>
     <use xlink:href="#DejaVuSans-33" x="39.013672"/>
     <use xlink:href="#DejaVuSans-30" x="102.636719"/>
     <use xlink:href="#DejaVuSans-31" x="166.259766"/>
     <use xlink:href="#DejaVuSans-36" x="229.882812"/>
     <use xlink:href="#DejaVuSans-2f" x="293.505859"/>
     <use xlink:href="#DejaVuSans-34" x="327.197266"/>
     <use xlink:href="#DejaVuSans-35" x="390.820312"/>
     <use xlink:href="#DejaVuSans-34" x="454.443359"/>
     <use xlink:href="#DejaVuSans-35" x="518.066406"/>
     <use xlink:href="#DejaVuSans-29" x="581.689453"/>
    </g>
   </g>
   <g id="text_22">
    <!-- 0.664 -->
    <g transform="translate(455.576278 77.715776) scale(0.1 -0.1)">
     <use xlink:href="#DejaVuSans-30"/>
     <use xlink:href="#DejaVuSans-2e" x="63.623047"/>
     <use xlink:href="#DejaVuSans-36" x="95.410156"/>
     <use xlink:href="#DejaVuSans-36" x="159.033203"/>
     <use xlink:href="#DejaVuSans-34" x="222.65625"/>
    </g>
    <!-- (3020/4545) -->
    <g transform="translate(438.854403 88.913588) scale(0.1 -0.1)">
     <use xlink:href="#DejaVuSans-28"/>
     <use xlink:href="#DejaVuSans-33" x="39.013672"/>
     <use xlink:href="#DejaVuSans-30" x="102.636719"/>
     <use xlink:href="#DejaVuSans-32" x="166.259766"/>
     <use xlink:href="#DejaVuSans-30" x="229.882812"/>
     <use xlink:href="#DejaVuSans-2f" x="293.505859"/>
     <use xlink:href="#DejaVuSans-34" x="327.197266"/>
     <use xlink:href="#DejaVuSans-35" x="390.820312"/>
     <use xlink:href="#DejaVuSans-34" x="454.443359"/>
     <use xlink:href="#DejaVuSans-35" x="518.066406"/>
     <use xlink:href="#DejaVuSans-29" x="581.689453"/>
    </g>
   </g>
   <g id="text_23">
    <!-- 0.552 -->
    <g transform="translate(49.758097 125.89572) scale(0.1 -0.1)">
     <use xlink:href="#DejaVuSans-30"/>
     <use xlink:href="#DejaVuSans-2e" x="63.623047"/>
     <use xlink:href="#DejaVuSans-35" x="95.410156"/>
     <use xlink:href="#DejaVuSans-35" x="159.033203"/>
     <use xlink:href="#DejaVuSans-32" x="222.65625"/>
    </g>
    <!-- (2510/4545) -->
    <g transform="translate(33.036222 137.093532) scale(0.1 -0.1)">
     <use xlink:href="#DejaVuSans-28"/>
     <use xlink:href="#DejaVuSans-32" x="39.013672"/>
     <use xlink:href="#DejaVuSans-35" x="102.636719"/>
     <use xlink:href="#DejaVuSans-31" x="166.259766"/>
     <use xlink:href="#DejaVuSans-30" x="229.882812"/>
     <use xlink:href="#DejaVuSans-2f" x="293.505859"/>
     <use xlink:href="#DejaVuSans-34" x="327.197266"/>
     <use xlink:href="#DejaVuSans-35" x="390.820312"/>
     <use xlink:href="#DejaVuSans-34" x="454.443359"/>
     <use xlink:href="#DejaVuSans-35" x="518.066406"/>
     <use xlink:href="#DejaVuSans-29" x="581.689453"/>
    </g>
   </g>
   <g id="text_24">
    <!-- 0.732 -->
    <g transform="translate(107.732123 48.618869) scale(0.1 -0.1)">
     <use xlink:href="#DejaVuSans-30"/>
     <use xlink:href="#DejaVuSans-2e" x="63.623047"/>
     <use xlink:href="#DejaVuSans-37" x="95.410156"/>
     <use xlink:href="#DejaVuSans-33" x="159.033203"/>
     <use xlink:href="#DejaVuSans-32" x="222.65625"/>
    </g>
    <!-- (3328/4545) -->
    <g transform="translate(91.010248 59.816681) scale(0.1 -0.1)">
     <use xlink:href="#DejaVuSans-28"/>
     <use xlink:href="#DejaVuSans-33" x="39.013672"/>
     <use xlink:href="#DejaVuSans-33" x="102.636719"/>
     <use xlink:href="#DejaVuSans-32" x="166.259766"/>
     <use xlink:href="#DejaVuSans-38" x="229.882812"/>
     <use xlink:href="#DejaVuSans-2f" x="293.505859"/>
     <use xlink:href="#DejaVuSans-34" x="327.197266"/>
     <use xlink:href="#DejaVuSans-35" x="390.820312"/>
     <use xlink:href="#DejaVuSans-34" x="454.443359"/>
     <use xlink:href="#DejaVuSans-35" x="518.066406"/>
     <use xlink:href="#DejaVuSans-29" x="581.689453"/>
    </g>
   </g>
   <g id="text_25">
    <!-- 0.783 -->
    <g transform="translate(165.706149 26.796188) scale(0.1 -0.1)">
     <use xlink:href="#DejaVuSans-30"/>
     <use xlink:href="#DejaVuSans-2e" x="63.623047"/>
     <use xlink:href="#DejaVuSans-37" x="95.410156"/>
     <use xlink:href="#DejaVuSans-38" x="159.033203"/>
     <use xlink:href="#DejaVuSans-33" x="222.65625"/>
    </g>
    <!-- (3559/4545) -->
    <g transform="translate(148.984274 37.994001) scale(0.1 -0.1)">
     <use xlink:href="#DejaVuSans-28"/>
     <use xlink:href="#DejaVuSans-33" x="39.013672"/>
     <use xlink:href="#DejaVuSans-35" x="102.636719"/>
     <use xlink:href="#DejaVuSans-35" x="166.259766"/>
     <use xlink:href="#DejaVuSans-39" x="229.882812"/>
     <use xlink:href="#DejaVuSans-2f" x="293.505859"/>
     <use xlink:href="#DejaVuSans-34" x="327.197266"/>
     <use xlink:href="#DejaVuSans-35" x="390.820312"/>
     <use xlink:href="#DejaVuSans-34" x="454.443359"/>
     <use xlink:href="#DejaVuSans-35" x="518.066406"/>
     <use xlink:href="#DejaVuSans-29" x="581.689453"/>
    </g>
   </g>
   <g id="text_26">
    <!-- 0.801 -->
    <g transform="translate(223.680175 19.049609) scale(0.1 -0.1)">
     <use xlink:href="#DejaVuSans-30"/>
     <use xlink:href="#DejaVuSans-2e" x="63.623047"/>
     <use xlink:href="#DejaVuSans-38" x="95.410156"/>
     <use xlink:href="#DejaVuSans-30" x="159.033203"/>
     <use xlink:href="#DejaVuSans-31" x="222.65625"/>
    </g>
    <!-- (3641/4545) -->
    <g transform="translate(206.9583 30.247422) scale(0.1 -0.1)">
     <use xlink:href="#DejaVuSans-28"/>
     <use xlink:href="#DejaVuSans-33" x="39.013672"/>
     <use xlink:href="#DejaVuSans-36" x="102.636719"/>
     <use xlink:href="#DejaVuSans-34" x="166.259766"/>
     <use xlink:href="#DejaVuSans-31" x="229.882812"/>
     <use xlink:href="#DejaVuSans-2f" x="293.505859"/>
     <use xlink:href="#DejaVuSans-34" x="327.197266"/>
     <use xlink:href="#DejaVuSans-35" x="390.820312"/>
     <use xlink:href="#DejaVuSans-34" x="454.443359"/>
     <use xlink:href="#DejaVuSans-35" x="518.066406"/>
     <use xlink:href="#DejaVuSans-29" x="581.689453"/>
    </g>
   </g>
   <g id="text_27">
    <!-- 0.806 -->
    <g transform="translate(281.6542 16.782318) scale(0.1 -0.1)">
     <use xlink:href="#DejaVuSans-30"/>
     <use xlink:href="#DejaVuSans-2e" x="63.623047"/>
     <use xlink:href="#DejaVuSans-38" x="95.410156"/>
     <use xlink:href="#DejaVuSans-30" x="159.033203"/>
     <use xlink:href="#DejaVuSans-36" x="222.65625"/>
    </g>
    <!-- (3665/4545) -->
    <g transform="translate(264.932325 27.98013) scale(0.1 -0.1)">
     <use xlink:href="#DejaVuSans-28"/>
     <use xlink:href="#DejaVuSans-33" x="39.013672"/>
     <use xlink:href="#DejaVuSans-36" x="102.636719"/>
     <use xlink:href="#DejaVuSans-36" x="166.259766"/>
     <use xlink:href="#DejaVuSans-35" x="229.882812"/>
     <use xlink:href="#DejaVuSans-2f" x="293.505859"/>
     <use xlink:href="#DejaVuSans-34" x="327.197266"/>
     <use xlink:href="#DejaVuSans-35" x="390.820312"/>
     <use xlink:href="#DejaVuSans-34" x="454.443359"/>
     <use xlink:href="#DejaVuSans-35" x="518.066406"/>
     <use xlink:href="#DejaVuSans-29" x="581.689453"/>
    </g>
   </g>
   <g id="text_28">
    <!-- 0.809 -->
    <g transform="translate(339.628226 15.837613) scale(0.1 -0.1)">
     <use xlink:href="#DejaVuSans-30"/>
     <use xlink:href="#DejaVuSans-2e" x="63.623047"/>
     <use xlink:href="#DejaVuSans-38" x="95.410156"/>
     <use xlink:href="#DejaVuSans-30" x="159.033203"/>
     <use xlink:href="#DejaVuSans-39" x="222.65625"/>
    </g>
    <!-- (3675/4545) -->
    <g transform="translate(322.906351 27.035425) scale(0.1 -0.1)">
     <use xlink:href="#DejaVuSans-28"/>
     <use xlink:href="#DejaVuSans-33" x="39.013672"/>
     <use xlink:href="#DejaVuSans-36" x="102.636719"/>
     <use xlink:href="#DejaVuSans-37" x="166.259766"/>
     <use xlink:href="#DejaVuSans-35" x="229.882812"/>
     <use xlink:href="#DejaVuSans-2f" x="293.505859"/>
     <use xlink:href="#DejaVuSans-34" x="327.197266"/>
     <use xlink:href="#DejaVuSans-35" x="390.820312"/>
     <use xlink:href="#DejaVuSans-34" x="454.443359"/>
     <use xlink:href="#DejaVuSans-35" x="518.066406"/>
     <use xlink:href="#DejaVuSans-29" x="581.689453"/>
    </g>
   </g>
   <g id="text_29">
    <!-- 0.811 -->
    <g transform="translate(397.602252 14.892908) scale(0.1 -0.1)">
     <use xlink:href="#DejaVuSans-30"/>
     <use xlink:href="#DejaVuSans-2e" x="63.623047"/>
     <use xlink:href="#DejaVuSans-38" x="95.410156"/>
     <use xlink:href="#DejaVuSans-31" x="159.033203"/>
     <use xlink:href="#DejaVuSans-31" x="222.65625"/>
    </g>
    <!-- (3685/4545) -->
    <g transform="translate(380.880377 26.09072) scale(0.1 -0.1)">
     <use xlink:href="#DejaVuSans-28"/>
     <use xlink:href="#DejaVuSans-33" x="39.013672"/>
     <use xlink:href="#DejaVuSans-36" x="102.636719"/>
     <use xlink:href="#DejaVuSans-38" x="166.259766"/>
     <use xlink:href="#DejaVuSans-35" x="229.882812"/>
     <use xlink:href="#DejaVuSans-2f" x="293.505859"/>
     <use xlink:href="#DejaVuSans-34" x="327.197266"/>
     <use xlink:href="#DejaVuSans-35" x="390.820312"/>
     <use xlink:href="#DejaVuSans-34" x="454.443359"/>
     <use xlink:href="#DejaVuSans-35" x="518.066406"/>
     <use xlink:href="#DejaVuSans-29" x="581.689453"/>
    </g>
   </g>
   <g id="text_30">
    <!-- 0.811 -->
    <g transform="translate(455.576278 14.798437) scale(0.1 -0.1)">
     <use xlink:href="#DejaVuSans-30"/>
     <use xlink:href="#DejaVuSans-2e" x="63.623047"/>
     <use xlink:href="#DejaVuSans-38" x="95.410156"/>
     <use xlink:href="#DejaVuSans-31" x="159.033203"/>
     <use xlink:href="#DejaVuSans-31" x="222.65625"/>
    </g>
    <!-- (3686/4545) -->
    <g transform="translate(438.854403 25.99625) scale(0.1 -0.1)">
     <use xlink:href="#DejaVuSans-28"/>
     <use xlink:href="#DejaVuSans-33" x="39.013672"/>
     <use xlink:href="#DejaVuSans-36" x="102.636719"/>
     <use xlink:href="#DejaVuSans-38" x="166.259766"/>
     <use xlink:href="#DejaVuSans-36" x="229.882812"/>
     <use xlink:href="#DejaVuSans-2f" x="293.505859"/>
     <use xlink:href="#DejaVuSans-34" x="327.197266"/>
     <use xlink:href="#DejaVuSans-35" x="390.820312"/>
     <use xlink:href="#DejaVuSans-34" x="454.443359"/>
     <use xlink:href="#DejaVuSans-35" x="518.066406"/>
     <use xlink:href="#DejaVuSans-29" x="581.689453"/>
    </g>
   </g>
   <g id="legend_1">
    <g id="line2d_27">
     <path d="M 397.820312 217.862187 
L 407.820312 217.862187 
L 417.820312 217.862187 
" style="fill: none; stroke: #43a3ef; stroke-width: 2; stroke-linecap: square"/>
     <g>
      <use xlink:href="#mba165f02f3" x="407.820312" y="217.862187" style="fill: #43a3ef; stroke: #43a3ef"/>
     </g>
    </g>
    <g id="text_31">
     <!-- is_pocket -->
     <g transform="translate(425.820312 221.362187) scale(0.1 -0.1)">
      <defs>
       <path id="DejaVuSans-5f" d="M 3263 -1063 
L 3263 -1509 
L -63 -1509 
L -63 -1063 
L 3263 -1063 
z
" transform="scale(0.015625)"/>
       <path id="DejaVuSans-74" d="M 1172 4494 
L 1172 3500 
L 2356 3500 
L 2356 3053 
L 1172 3053 
L 1172 1153 
Q 1172 725 1289 603 
Q 1406 481 1766 481 
L 2356 481 
L 2356 0 
L 1766 0 
Q 1100 0 847 248 
Q 594 497 594 1153 
L 594 3053 
L 172 3053 
L 172 3500 
L 594 3500 
L 594 4494 
L 1172 4494 
z
" transform="scale(0.015625)"/>
      </defs>
      <use xlink:href="#DejaVuSans-69"/>
      <use xlink:href="#DejaVuSans-73" x="27.783203"/>
      <use xlink:href="#DejaVuSans-5f" x="79.882812"/>
      <use xlink:href="#DejaVuSans-70" x="129.882812"/>
      <use xlink:href="#DejaVuSans-6f" x="193.359375"/>
      <use xlink:href="#DejaVuSans-63" x="254.541016"/>
      <use xlink:href="#DejaVuSans-6b" x="309.521484"/>
      <use xlink:href="#DejaVuSans-65" x="363.806641"/>
      <use xlink:href="#DejaVuSans-74" x="425.330078"/>
     </g>
    </g>
    <g id="line2d_28">
     <path d="M 397.820312 232.818437 
L 407.820312 232.818437 
L 417.820312 232.818437 
" style="fill: none; stroke: #ef767b; stroke-width: 2; stroke-linecap: square"/>
     <g>
      <use xlink:href="#mb54e24c206" x="407.820312" y="232.818437" style="fill: #ef767b; stroke: #ef767b"/>
     </g>
    </g>
    <g id="text_32">
     <!-- all_pockets -->
     <g transform="translate(425.820312 236.318437) scale(0.1 -0.1)">
      <defs>
       <path id="DejaVuSans-61" d="M 2194 1759 
Q 1497 1759 1228 1600 
Q 959 1441 959 1056 
Q 959 750 1161 570 
Q 1363 391 1709 391 
Q 2188 391 2477 730 
Q 2766 1069 2766 1631 
L 2766 1759 
L 2194 1759 
z
M 3341 1997 
L 3341 0 
L 2766 0 
L 2766 531 
Q 2569 213 2275 61 
Q 1981 -91 1556 -91 
Q 1019 -91 701 211 
Q 384 513 384 1019 
Q 384 1609 779 1909 
Q 1175 2209 1959 2209 
L 2766 2209 
L 2766 2266 
Q 2766 2663 2505 2880 
Q 2244 3097 1772 3097 
Q 1472 3097 1187 3025 
Q 903 2953 641 2809 
L 641 3341 
Q 956 3463 1253 3523 
Q 1550 3584 1831 3584 
Q 2591 3584 2966 3190 
Q 3341 2797 3341 1997 
z
" transform="scale(0.015625)"/>
       <path id="DejaVuSans-6c" d="M 603 4863 
L 1178 4863 
L 1178 0 
L 603 0 
L 603 4863 
z
" transform="scale(0.015625)"/>
      </defs>
      <use xlink:href="#DejaVuSans-61"/>
      <use xlink:href="#DejaVuSans-6c" x="61.279297"/>
      <use xlink:href="#DejaVuSans-6c" x="89.0625"/>
      <use xlink:href="#DejaVuSans-5f" x="116.845703"/>
      <use xlink:href="#DejaVuSans-70" x="166.845703"/>
      <use xlink:href="#DejaVuSans-6f" x="230.322266"/>
      <use xlink:href="#DejaVuSans-63" x="291.503906"/>
      <use xlink:href="#DejaVuSans-6b" x="346.484375"/>
      <use xlink:href="#DejaVuSans-65" x="400.769531"/>
      <use xlink:href="#DejaVuSans-74" x="462.292969"/>
      <use xlink:href="#DejaVuSans-73" x="501.501953"/>
     </g>
    </g>
   </g>
  </g>
 </g>
 <defs>
  <clipPath id="p0db1b6f71b">
   <rect x="43.78125" y="25.91625" width="446.4" height="221.76"/>
  </clipPath>
 </defs>
</svg>
