<?xml version="1.0" encoding="utf-8" standalone="no"?>
<!DOCTYPE svg PUBLIC "-//W3C//DTD SVG 1.1//EN"
  "http://www.w3.org/Graphics/SVG/1.1/DTD/svg11.dtd">
<svg xmlns:xlink="http://www.w3.org/1999/xlink" width="244.357812pt" height="171.99625pt" viewBox="0 0 244.357812 171.99625" xmlns="http://www.w3.org/2000/svg" version="1.1">
 <metadata>
  <rdf:RDF xmlns:dc="http://purl.org/dc/elements/1.1/" xmlns:cc="http://creativecommons.org/ns#" xmlns:rdf="http://www.w3.org/1999/02/22-rdf-syntax-ns#">
   <cc:Work>
    <dc:type rdf:resource="http://purl.org/dc/dcmitype/StillImage"/>
    <dc:date>2025-08-16T16:32:51.918025</dc:date>
    <dc:format>image/svg+xml</dc:format>
    <dc:creator>
     <cc:Agent>
      <dc:title>Matplotlib v3.10.3, https://matplotlib.org/</dc:title>
     </cc:Agent>
    </dc:creator>
   </cc:Work>
  </rdf:RDF>
 </metadata>
 <defs>
  <style type="text/css">*{stroke-linejoin: round; stroke-linecap: butt}</style>
 </defs>
 <g id="figure_1">
  <g id="patch_1">
   <path d="M 0 171.99625 
L 244.357812 171.99625 
L 244.357812 -0 
L 0 -0 
z
" style="fill: #ffffff"/>
  </g>
  <g id="axes_1">
   <g id="patch_2">
    <path d="M 43.78125 134.44 
L 229.20625 134.44 
L 229.20625 7.2 
L 43.78125 7.2 
z
" style="fill: #ffffff"/>
   </g>
   <g id="matplotlib.axis_1">
    <g id="xtick_1">
     <g id="line2d_1">
      <path d="M 43.78125 134.44 
L 43.78125 7.2 
" clip-path="url(#p35ca6189a8)" style="fill: none; stroke: #b0b0b0; stroke-opacity: 0.3; stroke-width: 0.8; stroke-linecap: square"/>
     </g>
     <g id="line2d_2">
      <defs>
       <path id="m77f0566bed" d="M 0 0 
L 0 3.5 
" style="stroke: #000000; stroke-width: 0.8"/>
      </defs>
      <g>
       <use xlink:href="#m77f0566bed" x="43.78125" y="134.44" style="stroke: #000000; stroke-width: 0.8"/>
      </g>
     </g>
     <g id="text_1">
      <!-- 0.0 -->
      <g transform="translate(35.829688 149.038437) scale(0.1 -0.1)">
       <defs>
        <path id="DejaVuSans-30" d="M 2034 4250 
Q 1547 4250 1301 3770 
Q 1056 3291 1056 2328 
Q 1056 1369 1301 889 
Q 1547 409 2034 409 
Q 2525 409 2770 889 
Q 3016 1369 3016 2328 
Q 3016 3291 2770 3770 
Q 2525 4250 2034 4250 
z
M 2034 4750 
Q 2819 4750 3233 4129 
Q 3647 3509 3647 2328 
Q 3647 1150 3233 529 
Q 2819 -91 2034 -91 
Q 1250 -91 836 529 
Q 422 1150 422 2328 
Q 422 3509 836 4129 
Q 1250 4750 2034 4750 
z
" transform="scale(0.015625)"/>
        <path id="DejaVuSans-2e" d="M 684 794 
L 1344 794 
L 1344 0 
L 684 0 
L 684 794 
z
" transform="scale(0.015625)"/>
       </defs>
       <use xlink:href="#DejaVuSans-30"/>
       <use xlink:href="#DejaVuSans-2e" transform="translate(63.623047 0)"/>
       <use xlink:href="#DejaVuSans-30" transform="translate(95.410156 0)"/>
      </g>
     </g>
    </g>
    <g id="xtick_2">
     <g id="line2d_3">
      <path d="M 80.86625 134.44 
L 80.86625 7.2 
" clip-path="url(#p35ca6189a8)" style="fill: none; stroke: #b0b0b0; stroke-opacity: 0.3; stroke-width: 0.8; stroke-linecap: square"/>
     </g>
     <g id="line2d_4">
      <g>
       <use xlink:href="#m77f0566bed" x="80.86625" y="134.44" style="stroke: #000000; stroke-width: 0.8"/>
      </g>
     </g>
     <g id="text_2">
      <!-- 0.2 -->
      <g transform="translate(72.914688 149.038437) scale(0.1 -0.1)">
       <defs>
        <path id="DejaVuSans-32" d="M 1228 531 
L 3431 531 
L 3431 0 
L 469 0 
L 469 531 
Q 828 903 1448 1529 
Q 2069 2156 2228 2338 
Q 2531 2678 2651 2914 
Q 2772 3150 2772 3378 
Q 2772 3750 2511 3984 
Q 2250 4219 1831 4219 
Q 1534 4219 1204 4116 
Q 875 4013 500 3803 
L 500 4441 
Q 881 4594 1212 4672 
Q 1544 4750 1819 4750 
Q 2544 4750 2975 4387 
Q 3406 4025 3406 3419 
Q 3406 3131 3298 2873 
Q 3191 2616 2906 2266 
Q 2828 2175 2409 1742 
Q 1991 1309 1228 531 
z
" transform="scale(0.015625)"/>
       </defs>
       <use xlink:href="#DejaVuSans-30"/>
       <use xlink:href="#DejaVuSans-2e" transform="translate(63.623047 0)"/>
       <use xlink:href="#DejaVuSans-32" transform="translate(95.410156 0)"/>
      </g>
     </g>
    </g>
    <g id="xtick_3">
     <g id="line2d_5">
      <path d="M 117.95125 134.44 
L 117.95125 7.2 
" clip-path="url(#p35ca6189a8)" style="fill: none; stroke: #b0b0b0; stroke-opacity: 0.3; stroke-width: 0.8; stroke-linecap: square"/>
     </g>
     <g id="line2d_6">
      <g>
       <use xlink:href="#m77f0566bed" x="117.95125" y="134.44" style="stroke: #000000; stroke-width: 0.8"/>
      </g>
     </g>
     <g id="text_3">
      <!-- 0.4 -->
      <g transform="translate(109.999688 149.038437) scale(0.1 -0.1)">
       <defs>
        <path id="DejaVuSans-34" d="M 2419 4116 
L 825 1625 
L 2419 1625 
L 2419 4116 
z
M 2253 4666 
L 3047 4666 
L 3047 1625 
L 3713 1625 
L 3713 1100 
L 3047 1100 
L 3047 0 
L 2419 0 
L 2419 1100 
L 313 1100 
L 313 1709 
L 2253 4666 
z
" transform="scale(0.015625)"/>
       </defs>
       <use xlink:href="#DejaVuSans-30"/>
       <use xlink:href="#DejaVuSans-2e" transform="translate(63.623047 0)"/>
       <use xlink:href="#DejaVuSans-34" transform="translate(95.410156 0)"/>
      </g>
     </g>
    </g>
    <g id="xtick_4">
     <g id="line2d_7">
      <path d="M 155.03625 134.44 
L 155.03625 7.2 
" clip-path="url(#p35ca6189a8)" style="fill: none; stroke: #b0b0b0; stroke-opacity: 0.3; stroke-width: 0.8; stroke-linecap: square"/>
     </g>
     <g id="line2d_8">
      <g>
       <use xlink:href="#m77f0566bed" x="155.03625" y="134.44" style="stroke: #000000; stroke-width: 0.8"/>
      </g>
     </g>
     <g id="text_4">
      <!-- 0.6 -->
      <g transform="translate(147.084688 149.038437) scale(0.1 -0.1)">
       <defs>
        <path id="DejaVuSans-36" d="M 2113 2584 
Q 1688 2584 1439 2293 
Q 1191 2003 1191 1497 
Q 1191 994 1439 701 
Q 1688 409 2113 409 
Q 2538 409 2786 701 
Q 3034 994 3034 1497 
Q 3034 2003 2786 2293 
Q 2538 2584 2113 2584 
z
M 3366 4563 
L 3366 3988 
Q 3128 4100 2886 4159 
Q 2644 4219 2406 4219 
Q 1781 4219 1451 3797 
Q 1122 3375 1075 2522 
Q 1259 2794 1537 2939 
Q 1816 3084 2150 3084 
Q 2853 3084 3261 2657 
Q 3669 2231 3669 1497 
Q 3669 778 3244 343 
Q 2819 -91 2113 -91 
Q 1303 -91 875 529 
Q 447 1150 447 2328 
Q 447 3434 972 4092 
Q 1497 4750 2381 4750 
Q 2619 4750 2861 4703 
Q 3103 4656 3366 4563 
z
" transform="scale(0.015625)"/>
       </defs>
       <use xlink:href="#DejaVuSans-30"/>
       <use xlink:href="#DejaVuSans-2e" transform="translate(63.623047 0)"/>
       <use xlink:href="#DejaVuSans-36" transform="translate(95.410156 0)"/>
      </g>
     </g>
    </g>
    <g id="xtick_5">
     <g id="line2d_9">
      <path d="M 192.12125 134.44 
L 192.12125 7.2 
" clip-path="url(#p35ca6189a8)" style="fill: none; stroke: #b0b0b0; stroke-opacity: 0.3; stroke-width: 0.8; stroke-linecap: square"/>
     </g>
     <g id="line2d_10">
      <g>
       <use xlink:href="#m77f0566bed" x="192.12125" y="134.44" style="stroke: #000000; stroke-width: 0.8"/>
      </g>
     </g>
     <g id="text_5">
      <!-- 0.8 -->
      <g transform="translate(184.169688 149.038437) scale(0.1 -0.1)">
       <defs>
        <path id="DejaVuSans-38" d="M 2034 2216 
Q 1584 2216 1326 1975 
Q 1069 1734 1069 1313 
Q 1069 891 1326 650 
Q 1584 409 2034 409 
Q 2484 409 2743 651 
Q 3003 894 3003 1313 
Q 3003 1734 2745 1975 
Q 2488 2216 2034 2216 
z
M 1403 2484 
Q 997 2584 770 2862 
Q 544 3141 544 3541 
Q 544 4100 942 4425 
Q 1341 4750 2034 4750 
Q 2731 4750 3128 4425 
Q 3525 4100 3525 3541 
Q 3525 3141 3298 2862 
Q 3072 2584 2669 2484 
Q 3125 2378 3379 2068 
Q 3634 1759 3634 1313 
Q 3634 634 3220 271 
Q 2806 -91 2034 -91 
Q 1263 -91 848 271 
Q 434 634 434 1313 
Q 434 1759 690 2068 
Q 947 2378 1403 2484 
z
M 1172 3481 
Q 1172 3119 1398 2916 
Q 1625 2713 2034 2713 
Q 2441 2713 2670 2916 
Q 2900 3119 2900 3481 
Q 2900 3844 2670 4047 
Q 2441 4250 2034 4250 
Q 1625 4250 1398 4047 
Q 1172 3844 1172 3481 
z
" transform="scale(0.015625)"/>
       </defs>
       <use xlink:href="#DejaVuSans-30"/>
       <use xlink:href="#DejaVuSans-2e" transform="translate(63.623047 0)"/>
       <use xlink:href="#DejaVuSans-38" transform="translate(95.410156 0)"/>
      </g>
     </g>
    </g>
    <g id="xtick_6">
     <g id="line2d_11">
      <path d="M 229.20625 134.44 
L 229.20625 7.2 
" clip-path="url(#p35ca6189a8)" style="fill: none; stroke: #b0b0b0; stroke-opacity: 0.3; stroke-width: 0.8; stroke-linecap: square"/>
     </g>
     <g id="line2d_12">
      <g>
       <use xlink:href="#m77f0566bed" x="229.20625" y="134.44" style="stroke: #000000; stroke-width: 0.8"/>
      </g>
     </g>
     <g id="text_6">
      <!-- 1.0 -->
      <g transform="translate(221.254688 149.038437) scale(0.1 -0.1)">
       <defs>
        <path id="DejaVuSans-31" d="M 794 531 
L 1825 531 
L 1825 4091 
L 703 3866 
L 703 4441 
L 1819 4666 
L 2450 4666 
L 2450 531 
L 3481 531 
L 3481 0 
L 794 0 
L 794 531 
z
" transform="scale(0.015625)"/>
       </defs>
       <use xlink:href="#DejaVuSans-31"/>
       <use xlink:href="#DejaVuSans-2e" transform="translate(63.623047 0)"/>
       <use xlink:href="#DejaVuSans-30" transform="translate(95.410156 0)"/>
      </g>
     </g>
    </g>
    <g id="text_7">
     <!-- False Positive Rate -->
     <g transform="translate(90.027344 162.716563) scale(0.1 -0.1)">
      <defs>
       <path id="DejaVuSans-46" d="M 628 4666 
L 3309 4666 
L 3309 4134 
L 1259 4134 
L 1259 2759 
L 3109 2759 
L 3109 2228 
L 1259 2228 
L 1259 0 
L 628 0 
L 628 4666 
z
" transform="scale(0.015625)"/>
       <path id="DejaVuSans-61" d="M 2194 1759 
Q 1497 1759 1228 1600 
Q 959 1441 959 1056 
Q 959 750 1161 570 
Q 1363 391 1709 391 
Q 2188 391 2477 730 
Q 2766 1069 2766 1631 
L 2766 1759 
L 2194 1759 
z
M 3341 1997 
L 3341 0 
L 2766 0 
L 2766 531 
Q 2569 213 2275 61 
Q 1981 -91 1556 -91 
Q 1019 -91 701 211 
Q 384 513 384 1019 
Q 384 1609 779 1909 
Q 1175 2209 1959 2209 
L 2766 2209 
L 2766 2266 
Q 2766 2663 2505 2880 
Q 2244 3097 1772 3097 
Q 1472 3097 1187 3025 
Q 903 2953 641 2809 
L 641 3341 
Q 956 3463 1253 3523 
Q 1550 3584 1831 3584 
Q 2591 3584 2966 3190 
Q 3341 2797 3341 1997 
z
" transform="scale(0.015625)"/>
       <path id="DejaVuSans-6c" d="M 603 4863 
L 1178 4863 
L 1178 0 
L 603 0 
L 603 4863 
z
" transform="scale(0.015625)"/>
       <path id="DejaVuSans-73" d="M 2834 3397 
L 2834 2853 
Q 2591 2978 2328 3040 
Q 2066 3103 1784 3103 
Q 1356 3103 1142 2972 
Q 928 2841 928 2578 
Q 928 2378 1081 2264 
Q 1234 2150 1697 2047 
L 1894 2003 
Q 2506 1872 2764 1633 
Q 3022 1394 3022 966 
Q 3022 478 2636 193 
Q 2250 -91 1575 -91 
Q 1294 -91 989 -36 
Q 684 19 347 128 
L 347 722 
Q 666 556 975 473 
Q 1284 391 1588 391 
Q 1994 391 2212 530 
Q 2431 669 2431 922 
Q 2431 1156 2273 1281 
Q 2116 1406 1581 1522 
L 1381 1569 
Q 847 1681 609 1914 
Q 372 2147 372 2553 
Q 372 3047 722 3315 
Q 1072 3584 1716 3584 
Q 2034 3584 2315 3537 
Q 2597 3491 2834 3397 
z
" transform="scale(0.015625)"/>
       <path id="DejaVuSans-65" d="M 3597 1894 
L 3597 1613 
L 953 1613 
Q 991 1019 1311 708 
Q 1631 397 2203 397 
Q 2534 397 2845 478 
Q 3156 559 3463 722 
L 3463 178 
Q 3153 47 2828 -22 
Q 2503 -91 2169 -91 
Q 1331 -91 842 396 
Q 353 884 353 1716 
Q 353 2575 817 3079 
Q 1281 3584 2069 3584 
Q 2775 3584 3186 3129 
Q 3597 2675 3597 1894 
z
M 3022 2063 
Q 3016 2534 2758 2815 
Q 2500 3097 2075 3097 
Q 1594 3097 1305 2825 
Q 1016 2553 972 2059 
L 3022 2063 
z
" transform="scale(0.015625)"/>
       <path id="DejaVuSans-20" transform="scale(0.015625)"/>
       <path id="DejaVuSans-50" d="M 1259 4147 
L 1259 2394 
L 2053 2394 
Q 2494 2394 2734 2622 
Q 2975 2850 2975 3272 
Q 2975 3691 2734 3919 
Q 2494 4147 2053 4147 
L 1259 4147 
z
M 628 4666 
L 2053 4666 
Q 2838 4666 3239 4311 
Q 3641 3956 3641 3272 
Q 3641 2581 3239 2228 
Q 2838 1875 2053 1875 
L 1259 1875 
L 1259 0 
L 628 0 
L 628 4666 
z
" transform="scale(0.015625)"/>
       <path id="DejaVuSans-6f" d="M 1959 3097 
Q 1497 3097 1228 2736 
Q 959 2375 959 1747 
Q 959 1119 1226 758 
Q 1494 397 1959 397 
Q 2419 397 2687 759 
Q 2956 1122 2956 1747 
Q 2956 2369 2687 2733 
Q 2419 3097 1959 3097 
z
M 1959 3584 
Q 2709 3584 3137 3096 
Q 3566 2609 3566 1747 
Q 3566 888 3137 398 
Q 2709 -91 1959 -91 
Q 1206 -91 779 398 
Q 353 888 353 1747 
Q 353 2609 779 3096 
Q 1206 3584 1959 3584 
z
" transform="scale(0.015625)"/>
       <path id="DejaVuSans-69" d="M 603 3500 
L 1178 3500 
L 1178 0 
L 603 0 
L 603 3500 
z
M 603 4863 
L 1178 4863 
L 1178 4134 
L 603 4134 
L 603 4863 
z
" transform="scale(0.015625)"/>
       <path id="DejaVuSans-74" d="M 1172 4494 
L 1172 3500 
L 2356 3500 
L 2356 3053 
L 1172 3053 
L 1172 1153 
Q 1172 725 1289 603 
Q 1406 481 1766 481 
L 2356 481 
L 2356 0 
L 1766 0 
Q 1100 0 847 248 
Q 594 497 594 1153 
L 594 3053 
L 172 3053 
L 172 3500 
L 594 3500 
L 594 4494 
L 1172 4494 
z
" transform="scale(0.015625)"/>
       <path id="DejaVuSans-76" d="M 191 3500 
L 800 3500 
L 1894 563 
L 2988 3500 
L 3597 3500 
L 2284 0 
L 1503 0 
L 191 3500 
z
" transform="scale(0.015625)"/>
       <path id="DejaVuSans-52" d="M 2841 2188 
Q 3044 2119 3236 1894 
Q 3428 1669 3622 1275 
L 4263 0 
L 3584 0 
L 2988 1197 
Q 2756 1666 2539 1819 
Q 2322 1972 1947 1972 
L 1259 1972 
L 1259 0 
L 628 0 
L 628 4666 
L 2053 4666 
Q 2853 4666 3247 4331 
Q 3641 3997 3641 3322 
Q 3641 2881 3436 2590 
Q 3231 2300 2841 2188 
z
M 1259 4147 
L 1259 2491 
L 2053 2491 
Q 2509 2491 2742 2702 
Q 2975 2913 2975 3322 
Q 2975 3731 2742 3939 
Q 2509 4147 2053 4147 
L 1259 4147 
z
" transform="scale(0.015625)"/>
      </defs>
      <use xlink:href="#DejaVuSans-46"/>
      <use xlink:href="#DejaVuSans-61" transform="translate(48.394531 0)"/>
      <use xlink:href="#DejaVuSans-6c" transform="translate(109.673828 0)"/>
      <use xlink:href="#DejaVuSans-73" transform="translate(137.457031 0)"/>
      <use xlink:href="#DejaVuSans-65" transform="translate(189.556641 0)"/>
      <use xlink:href="#DejaVuSans-20" transform="translate(251.080078 0)"/>
      <use xlink:href="#DejaVuSans-50" transform="translate(282.867188 0)"/>
      <use xlink:href="#DejaVuSans-6f" transform="translate(339.544922 0)"/>
      <use xlink:href="#DejaVuSans-73" transform="translate(400.726562 0)"/>
      <use xlink:href="#DejaVuSans-69" transform="translate(452.826172 0)"/>
      <use xlink:href="#DejaVuSans-74" transform="translate(480.609375 0)"/>
      <use xlink:href="#DejaVuSans-69" transform="translate(519.818359 0)"/>
      <use xlink:href="#DejaVuSans-76" transform="translate(547.601562 0)"/>
      <use xlink:href="#DejaVuSans-65" transform="translate(606.78125 0)"/>
      <use xlink:href="#DejaVuSans-20" transform="translate(668.304688 0)"/>
      <use xlink:href="#DejaVuSans-52" transform="translate(700.091797 0)"/>
      <use xlink:href="#DejaVuSans-61" transform="translate(767.324219 0)"/>
      <use xlink:href="#DejaVuSans-74" transform="translate(828.603516 0)"/>
      <use xlink:href="#DejaVuSans-65" transform="translate(867.8125 0)"/>
     </g>
    </g>
   </g>
   <g id="matplotlib.axis_2">
    <g id="ytick_1">
     <g id="line2d_13">
      <path d="M 43.78125 134.44 
L 229.20625 134.44 
" clip-path="url(#p35ca6189a8)" style="fill: none; stroke: #b0b0b0; stroke-opacity: 0.3; stroke-width: 0.8; stroke-linecap: square"/>
     </g>
     <g id="line2d_14">
      <defs>
       <path id="medb224bd6a" d="M 0 0 
L -3.5 0 
" style="stroke: #000000; stroke-width: 0.8"/>
      </defs>
      <g>
       <use xlink:href="#medb224bd6a" x="43.78125" y="134.44" style="stroke: #000000; stroke-width: 0.8"/>
      </g>
     </g>
     <g id="text_8">
      <!-- 0.0 -->
      <g transform="translate(20.878125 138.239219) scale(0.1 -0.1)">
       <use xlink:href="#DejaVuSans-30"/>
       <use xlink:href="#DejaVuSans-2e" transform="translate(63.623047 0)"/>
       <use xlink:href="#DejaVuSans-30" transform="translate(95.410156 0)"/>
      </g>
     </g>
    </g>
    <g id="ytick_2">
     <g id="line2d_15">
      <path d="M 43.78125 110.20381 
L 229.20625 110.20381 
" clip-path="url(#p35ca6189a8)" style="fill: none; stroke: #b0b0b0; stroke-opacity: 0.3; stroke-width: 0.8; stroke-linecap: square"/>
     </g>
     <g id="line2d_16">
      <g>
       <use xlink:href="#medb224bd6a" x="43.78125" y="110.20381" style="stroke: #000000; stroke-width: 0.8"/>
      </g>
     </g>
     <g id="text_9">
      <!-- 0.2 -->
      <g transform="translate(20.878125 114.003028) scale(0.1 -0.1)">
       <use xlink:href="#DejaVuSans-30"/>
       <use xlink:href="#DejaVuSans-2e" transform="translate(63.623047 0)"/>
       <use xlink:href="#DejaVuSans-32" transform="translate(95.410156 0)"/>
      </g>
     </g>
    </g>
    <g id="ytick_3">
     <g id="line2d_17">
      <path d="M 43.78125 85.967619 
L 229.20625 85.967619 
" clip-path="url(#p35ca6189a8)" style="fill: none; stroke: #b0b0b0; stroke-opacity: 0.3; stroke-width: 0.8; stroke-linecap: square"/>
     </g>
     <g id="line2d_18">
      <g>
       <use xlink:href="#medb224bd6a" x="43.78125" y="85.967619" style="stroke: #000000; stroke-width: 0.8"/>
      </g>
     </g>
     <g id="text_10">
      <!-- 0.4 -->
      <g transform="translate(20.878125 89.766838) scale(0.1 -0.1)">
       <use xlink:href="#DejaVuSans-30"/>
       <use xlink:href="#DejaVuSans-2e" transform="translate(63.623047 0)"/>
       <use xlink:href="#DejaVuSans-34" transform="translate(95.410156 0)"/>
      </g>
     </g>
    </g>
    <g id="ytick_4">
     <g id="line2d_19">
      <path d="M 43.78125 61.731429 
L 229.20625 61.731429 
" clip-path="url(#p35ca6189a8)" style="fill: none; stroke: #b0b0b0; stroke-opacity: 0.3; stroke-width: 0.8; stroke-linecap: square"/>
     </g>
     <g id="line2d_20">
      <g>
       <use xlink:href="#medb224bd6a" x="43.78125" y="61.731429" style="stroke: #000000; stroke-width: 0.8"/>
      </g>
     </g>
     <g id="text_11">
      <!-- 0.6 -->
      <g transform="translate(20.878125 65.530647) scale(0.1 -0.1)">
       <use xlink:href="#DejaVuSans-30"/>
       <use xlink:href="#DejaVuSans-2e" transform="translate(63.623047 0)"/>
       <use xlink:href="#DejaVuSans-36" transform="translate(95.410156 0)"/>
      </g>
     </g>
    </g>
    <g id="ytick_5">
     <g id="line2d_21">
      <path d="M 43.78125 37.495238 
L 229.20625 37.495238 
" clip-path="url(#p35ca6189a8)" style="fill: none; stroke: #b0b0b0; stroke-opacity: 0.3; stroke-width: 0.8; stroke-linecap: square"/>
     </g>
     <g id="line2d_22">
      <g>
       <use xlink:href="#medb224bd6a" x="43.78125" y="37.495238" style="stroke: #000000; stroke-width: 0.8"/>
      </g>
     </g>
     <g id="text_12">
      <!-- 0.8 -->
      <g transform="translate(20.878125 41.294457) scale(0.1 -0.1)">
       <use xlink:href="#DejaVuSans-30"/>
       <use xlink:href="#DejaVuSans-2e" transform="translate(63.623047 0)"/>
       <use xlink:href="#DejaVuSans-38" transform="translate(95.410156 0)"/>
      </g>
     </g>
    </g>
    <g id="ytick_6">
     <g id="line2d_23">
      <path d="M 43.78125 13.259048 
L 229.20625 13.259048 
" clip-path="url(#p35ca6189a8)" style="fill: none; stroke: #b0b0b0; stroke-opacity: 0.3; stroke-width: 0.8; stroke-linecap: square"/>
     </g>
     <g id="line2d_24">
      <g>
       <use xlink:href="#medb224bd6a" x="43.78125" y="13.259048" style="stroke: #000000; stroke-width: 0.8"/>
      </g>
     </g>
     <g id="text_13">
      <!-- 1.0 -->
      <g transform="translate(20.878125 17.058266) scale(0.1 -0.1)">
       <use xlink:href="#DejaVuSans-31"/>
       <use xlink:href="#DejaVuSans-2e" transform="translate(63.623047 0)"/>
       <use xlink:href="#DejaVuSans-30" transform="translate(95.410156 0)"/>
      </g>
     </g>
    </g>
    <g id="text_14">
     <!-- True Positive Rate -->
     <g transform="translate(14.798438 115.349687) rotate(-90) scale(0.1 -0.1)">
      <defs>
       <path id="DejaVuSans-54" d="M -19 4666 
L 3928 4666 
L 3928 4134 
L 2272 4134 
L 2272 0 
L 1638 0 
L 1638 4134 
L -19 4134 
L -19 4666 
z
" transform="scale(0.015625)"/>
       <path id="DejaVuSans-72" d="M 2631 2963 
Q 2534 3019 2420 3045 
Q 2306 3072 2169 3072 
Q 1681 3072 1420 2755 
Q 1159 2438 1159 1844 
L 1159 0 
L 581 0 
L 581 3500 
L 1159 3500 
L 1159 2956 
Q 1341 3275 1631 3429 
Q 1922 3584 2338 3584 
Q 2397 3584 2469 3576 
Q 2541 3569 2628 3553 
L 2631 2963 
z
" transform="scale(0.015625)"/>
       <path id="DejaVuSans-75" d="M 544 1381 
L 544 3500 
L 1119 3500 
L 1119 1403 
Q 1119 906 1312 657 
Q 1506 409 1894 409 
Q 2359 409 2629 706 
Q 2900 1003 2900 1516 
L 2900 3500 
L 3475 3500 
L 3475 0 
L 2900 0 
L 2900 538 
Q 2691 219 2414 64 
Q 2138 -91 1772 -91 
Q 1169 -91 856 284 
Q 544 659 544 1381 
z
M 1991 3584 
L 1991 3584 
z
" transform="scale(0.015625)"/>
      </defs>
      <use xlink:href="#DejaVuSans-54"/>
      <use xlink:href="#DejaVuSans-72" transform="translate(46.333984 0)"/>
      <use xlink:href="#DejaVuSans-75" transform="translate(87.447266 0)"/>
      <use xlink:href="#DejaVuSans-65" transform="translate(150.826172 0)"/>
      <use xlink:href="#DejaVuSans-20" transform="translate(212.349609 0)"/>
      <use xlink:href="#DejaVuSans-50" transform="translate(244.136719 0)"/>
      <use xlink:href="#DejaVuSans-6f" transform="translate(300.814453 0)"/>
      <use xlink:href="#DejaVuSans-73" transform="translate(361.996094 0)"/>
      <use xlink:href="#DejaVuSans-69" transform="translate(414.095703 0)"/>
      <use xlink:href="#DejaVuSans-74" transform="translate(441.878906 0)"/>
      <use xlink:href="#DejaVuSans-69" transform="translate(481.087891 0)"/>
      <use xlink:href="#DejaVuSans-76" transform="translate(508.871094 0)"/>
      <use xlink:href="#DejaVuSans-65" transform="translate(568.050781 0)"/>
      <use xlink:href="#DejaVuSans-20" transform="translate(629.574219 0)"/>
      <use xlink:href="#DejaVuSans-52" transform="translate(661.361328 0)"/>
      <use xlink:href="#DejaVuSans-61" transform="translate(728.59375 0)"/>
      <use xlink:href="#DejaVuSans-74" transform="translate(789.873047 0)"/>
      <use xlink:href="#DejaVuSans-65" transform="translate(829.082031 0)"/>
     </g>
    </g>
   </g>
   <g id="line2d_25">
    <path d="M 43.78125 134.44 
L 43.891102 122.961554 
L 43.89819 122.866691 
L 44.009223 119.885276 
L 44.018673 119.803965 
L 44.128525 117.866045 
L 44.13325 117.838941 
L 44.244284 116.158508 
L 44.256096 116.050093 
L 44.36713 114.88463 
L 44.373036 114.789767 
L 44.484069 113.380371 
L 44.499425 113.271956 
L 44.608096 112.431739 
L 44.62109 112.323324 
L 44.732123 111.496659 
L 44.743935 111.401796 
L 44.854969 110.507372 
L 44.871506 110.398957 
L 44.98254 109.423221 
L 45.001439 109.314806 
L 45.104204 108.569452 
L 45.106566 108.569452 
L 45.131372 108.461037 
L 45.238862 107.607268 
L 45.258942 107.512405 
L 45.368795 106.821259 
L 45.384151 106.726396 
L 45.495184 106.008146 
L 45.511721 105.899731 
L 45.622755 105.140825 
L 45.640473 105.03241 
L 45.747963 104.31416 
L 45.779856 104.205745 
L 45.890889 103.528151 
L 45.907426 103.419736 
L 46.016097 102.958972 
L 46.040903 102.850557 
L 46.14603 102.186515 
L 46.179104 102.091651 
L 46.286594 101.630887 
L 46.313762 101.522472 
L 46.424796 100.926189 
L 46.442514 100.844878 
L 46.553547 100.275699 
L 46.57599 100.180836 
L 46.68348 99.63876 
L 46.685843 99.63876 
L 46.709467 99.530345 
L 46.820501 99.069581 
L 46.845306 98.961166 
L 46.950434 98.527506 
L 46.990595 98.419091 
L 47.101628 97.944775 
L 47.142971 97.83636 
L 47.250461 97.470459 
L 47.281172 97.362044 
L 47.391025 96.847072 
L 47.420555 96.738657 
L 47.531588 96.223685 
L 47.58238 96.11527 
L 47.692233 95.546091 
L 47.7383 95.437676 
L 47.848152 94.909153 
L 47.887132 94.800737 
L 47.996985 94.407733 
L 48.03124 94.299318 
L 48.128099 93.838554 
L 48.171804 93.730139 
L 48.281656 93.228719 
L 48.322998 93.120304 
L 48.43167 92.65954 
L 48.47065 92.564676 
L 48.566327 92.185224 
L 48.606489 92.076809 
L 48.713979 91.765115 
L 48.758865 91.6567 
L 48.868717 91.22304 
L 48.898247 91.114625 
L 49.052986 90.518342 
L 49.103778 90.409927 
L 49.214811 90.111785 
L 49.245523 90.016922 
L 49.356556 89.623918 
L 49.404986 89.515502 
L 49.514838 88.932771 
L 49.542006 88.824356 
L 49.651858 88.485559 
L 49.727456 88.377144 
L 49.83849 88.092555 
L 49.877469 87.984139 
L 49.987322 87.591135 
L 50.003859 87.496272 
L 50.114892 87.008404 
L 50.175134 86.913541 
L 50.286168 86.493432 
L 50.313336 86.385017 
L 50.412557 86.086876 
L 50.422007 86.086876 
L 50.457443 85.978461 
L 50.598007 85.599008 
L 50.641712 85.490593 
L 50.785819 85.097588 
L 50.830705 84.989173 
L 50.935833 84.772343 
L 50.993712 84.663928 
L 51.101202 84.298027 
L 51.146088 84.189612 
L 51.245309 83.945678 
L 51.257121 83.945678 
L 51.41186 83.362947 
L 51.462652 83.254532 
L 51.571323 82.726008 
L 51.629202 82.617593 
L 51.740236 82.251692 
L 51.804021 82.143277 
L 51.91033 81.885791 
L 51.946947 81.790928 
L 52.057981 81.533442 
L 52.113498 81.425027 
L 52.224532 81.167542 
L 52.280048 81.059126 
L 52.38872 80.8694 
L 52.464317 80.760985 
L 52.574169 80.43574 
L 52.607243 80.327325 
L 52.697015 80.069839 
L 52.758438 79.961424 
L 52.869472 79.771697 
L 52.979324 79.663282 
L 53.087995 79.378693 
L 53.128156 79.270278 
L 53.232103 78.99924 
L 53.297069 78.890825 
L 53.403378 78.538476 
L 53.449445 78.430061 
L 53.546304 78.172575 
L 53.601821 78.06416 
L 53.710492 77.793122 
L 53.802627 77.684707 
L 53.904211 77.454325 
L 53.911298 77.454325 
L 53.966815 77.34591 
L 54.064855 77.183287 
L 54.121553 77.088424 
L 54.214869 76.885146 
L 54.232587 76.885146 
L 54.289285 76.776731 
L 54.400318 76.451486 
L 54.458198 76.343071 
L 54.566869 76.058481 
L 54.630654 75.950066 
L 54.735782 75.679028 
L 54.864534 75.570613 
L 54.96848 75.407991 
L 55.026359 75.299575 
L 55.137393 75.055642 
L 55.244883 74.947226 
L 55.355917 74.676189 
L 55.431514 74.567774 
L 55.533098 74.310288 
L 55.588615 74.201873 
L 55.696105 74.03925 
L 55.756346 73.930835 
L 55.861474 73.741109 
L 55.894548 73.659797 
L 55.997313 73.361656 
L 56.003219 73.361656 
L 56.115434 73.253241 
L 56.225286 73.090618 
L 56.322145 72.982203 
L 56.431998 72.738269 
L 56.517045 72.629854 
L 56.624535 72.413024 
L 56.662334 72.318161 
L 56.767461 72.087779 
L 56.859596 71.979364 
L 56.969448 71.748982 
L 57.073394 71.640567 
L 57.173797 71.383081 
L 57.232858 71.274666 
L 57.339166 71.044284 
L 57.415945 70.935869 
L 57.523435 70.746142 
L 57.526979 70.746142 
L 57.593126 70.651279 
L 57.699435 70.393793 
L 57.784482 70.285378 
L 57.888429 70.204067 
L 57.965207 70.095652 
L 58.072697 69.79751 
L 58.166013 69.689095 
L 58.274684 69.458713 
L 58.355006 69.350298 
L 58.464858 69.14702 
L 58.56408 69.038605 
L 58.675114 68.86243 
L 58.734174 68.754015 
L 58.838121 68.442322 
L 58.900725 68.347459 
L 59.008215 68.076421 
L 59.090899 67.968006 
L 59.191302 67.859591 
L 59.268081 67.751176 
L 59.367302 67.656313 
L 59.455893 67.547897 
L 59.562202 67.385275 
L 59.564564 67.385275 
L 59.641343 67.27686 
L 59.751195 67.06003 
L 59.832698 66.951615 
L 59.939007 66.667025 
L 59.994524 66.55861 
L 60.093746 66.395987 
L 60.169343 66.301124 
L 60.280377 66.12495 
L 60.409128 66.016534 
L 60.501263 65.881016 
L 60.667813 65.772601 
L 60.775303 65.62353 
L 60.852082 65.515115 
L 60.956028 65.244077 
L 61.068243 65.135662 
L 61.169827 64.986591 
L 61.247787 64.878176 
L 61.354096 64.68845 
L 61.430874 64.580035 
L 61.531277 64.485172 
L 61.611599 64.376756 
L 61.715546 64.254789 
L 61.791143 64.146374 
L 61.895089 64.010856 
L 62.025022 63.90244 
L 62.102982 63.834681 
L 62.131331 63.834681 
L 62.217559 63.726266 
L 62.310875 63.644955 
L 62.314418 63.644955 
L 62.440808 63.53654 
L 62.531761 63.401021 
L 62.544754 63.401021 
L 62.664056 63.292606 
L 62.772728 63.170639 
L 62.83415 63.062224 
L 62.901479 62.953809 
L 62.944003 62.953809 
L 63.052674 62.845393 
L 63.160164 62.628563 
L 63.235761 62.520148 
L 63.344433 62.371078 
L 63.477909 62.262662 
L 63.58658 62.167799 
L 63.753131 62.059384 
L 63.855896 61.896762 
L 63.972836 61.788346 
L 64.075601 61.707035 
L 64.193722 61.59862 
L 64.294125 61.435997 
L 64.422876 61.327582 
L 64.53391 61.232719 
L 64.647306 61.137856 
L 64.75834 61.015889 
L 64.85638 60.907474 
L 64.966233 60.785507 
L 65.033561 60.677092 
L 65.13987 60.514469 
L 65.28634 60.406054 
L 65.385562 60.256984 
L 65.47179 60.148568 
L 65.572193 60.040153 
L 65.697401 59.931738 
L 65.808435 59.823323 
L 65.871039 59.714908 
L 65.977347 59.660701 
L 66.16516 59.552286 
L 66.271468 59.335455 
L 66.390771 59.22704 
L 66.492355 59.07797 
L 66.618744 58.969554 
L 66.684892 58.861139 
L 66.72269 58.861139 
L 66.837268 58.752724 
L 66.927039 58.644309 
L 66.999093 58.535894 
L 67.106583 58.35972 
L 67.192811 58.251305 
L 67.284946 58.129338 
L 67.426691 58.020923 
L 67.505832 57.912507 
L 67.65112 57.804092 
L 67.751523 57.709229 
L 67.863738 57.600814 
L 67.96296 57.411088 
L 68.131873 57.302673 
L 68.193295 57.194258 
L 68.219282 57.194258 
L 68.338584 57.099394 
L 68.427175 56.950324 
L 68.548839 56.841909 
L 68.651604 56.719942 
L 68.773269 56.611527 
L 68.88194 56.48956 
L 68.884303 56.48956 
L 68.997699 56.381145 
L 69.095739 56.259178 
L 69.278826 56.150762 
L 69.388679 56.001692 
L 69.510343 55.893277 
L 69.607203 55.811965 
L 69.786746 55.70355 
L 69.872975 55.608687 
L 69.985189 55.500272 
L 70.079686 55.324098 
L 70.096223 55.324098 
L 70.25923 55.215682 
L 70.356089 55.093715 
L 70.481297 54.9853 
L 70.59115 54.809126 
L 70.800224 54.700711 
L 70.884089 54.592296 
L 71.009298 54.483881 
L 71.081351 54.348362 
L 71.106157 54.348362 
L 71.273888 54.239947 
L 71.38256 54.145084 
L 71.530211 54.036668 
L 71.638882 53.928253 
L 71.702667 53.819838 
L 71.813701 53.670768 
L 71.956627 53.562353 
L 72.067661 53.453937 
L 72.347607 53.345522 
L 72.45746 53.223555 
L 72.615742 53.11514 
L 72.722051 53.033829 
L 72.790561 52.925414 
L 72.900413 52.789895 
L 73.058695 52.68148 
L 73.163823 52.532409 
L 73.310293 52.423994 
L 73.417783 52.302027 
L 73.421326 52.302027 
L 73.565434 52.193612 
L 73.654024 52.085197 
L 73.793407 51.976782 
L 73.894991 51.909023 
L 73.987125 51.800608 
L 74.065085 51.719296 
L 74.093434 51.719296 
L 74.172575 51.610881 
L 74.259985 51.46181 
L 74.269434 51.46181 
L 74.437166 51.353395 
L 74.539931 51.217876 
L 74.652146 51.109461 
L 74.736012 51.001046 
L 74.875394 50.892631 
L 74.981703 50.757112 
L 74.984066 50.757112 
L 75.098643 50.648697 
L 75.170697 50.580938 
L 75.312442 50.472523 
L 75.417569 50.391212 
L 75.523878 50.282796 
L 75.616012 50.160829 
L 75.618375 50.160829 
L 75.696335 50.052414 
L 75.796737 49.984655 
L 75.899503 49.87624 
L 76.010536 49.700065 
L 76.119207 49.605202 
L 76.230241 49.469683 
L 76.318832 49.361268 
L 76.41451 49.266405 
L 76.425141 49.266405 
L 76.518456 49.15799 
L 76.62949 49.063127 
L 76.68855 48.954712 
L 76.799584 48.846297 
L 76.967315 48.737882 
L 77.073624 48.629467 
L 77.272067 48.521051 
L 77.365383 48.385533 
L 77.378376 48.385533 
L 77.510672 48.277118 
L 77.588631 48.168702 
L 77.765813 48.060287 
L 77.854403 47.93832 
L 77.868578 47.93832 
L 78.096551 47.829905 
L 78.191048 47.707938 
L 78.403666 47.599523 
L 78.507612 47.464004 
L 78.512337 47.464004 
L 78.631639 47.355589 
L 78.708417 47.233622 
L 78.74031 47.233622 
L 78.83835 47.125207 
L 78.937572 47.057448 
L 79.068686 46.949033 
L 79.147827 46.85417 
L 79.15019 46.85417 
L 79.295478 46.745755 
L 79.397062 46.664443 
L 79.40415 46.664443 
L 79.681734 46.556028 
L 79.727801 46.501821 
L 79.766781 46.501821 
L 79.97113 46.393406 
L 80.042002 46.230783 
L 80.076257 46.230783 
L 80.305412 46.122368 
L 80.394003 46.027505 
L 80.409358 46.027505 
L 80.506218 45.932641 
L 80.607801 45.824226 
L 80.89956 45.715811 
L 81.004688 45.593844 
L 81.200768 45.485429 
L 81.248017 45.444774 
L 81.310621 45.444774 
L 81.51497 45.336359 
L 81.603561 45.268599 
L 81.833896 45.160184 
L 81.895319 45.092425 
L 81.94493 45.092425 
L 82.064232 44.98401 
L 82.132742 44.929802 
L 82.327642 44.821387 
L 82.438675 44.69942 
L 82.596957 44.604557 
L 82.690273 44.441934 
L 82.702085 44.441934 
L 82.924152 44.333519 
L 83.032823 44.252208 
L 83.035186 44.252208 
L 83.21473 44.143793 
L 83.299777 44.089585 
L 83.523025 43.98117 
L 83.621066 43.832099 
L 83.891562 43.723684 
L 84.002596 43.655925 
L 84.082918 43.54751 
L 84.111267 43.506854 
L 84.193952 43.506854 
L 84.457361 43.398439 
L 84.561308 43.33068 
L 84.789281 43.222265 
L 84.884959 43.181609 
L 85.10112 43.073194 
L 85.209792 42.991883 
L 85.375161 42.883467 
L 85.486194 42.815708 
L 85.79449 42.707293 
L 85.903161 42.598878 
L 86.161846 42.490463 
L 86.25398 42.422703 
L 86.47841 42.314288 
L 86.582356 42.205873 
L 86.885927 42.097458 
L 86.994598 41.989043 
L 87.144612 41.880628 
L 87.184773 41.82642 
L 87.248558 41.82642 
L 87.488344 41.718005 
L 87.56276 41.596038 
L 87.803726 41.501175 
L 87.912398 41.419864 
L 88.286841 41.311449 
L 88.332908 41.270793 
L 88.576237 41.162378 
L 88.675459 41.081067 
L 88.937687 40.972652 
L 89.047539 40.877788 
L 89.210546 40.782925 
L 89.301499 40.688062 
L 89.310949 40.688062 
L 89.667674 40.579647 
L 89.777527 40.525439 
L 90.040936 40.417024 
L 90.13307 40.362817 
L 90.403567 40.254402 
L 90.427191 40.227298 
L 90.488614 40.227298 
L 90.708319 40.118883 
L 90.756749 40.078227 
L 91.018977 39.969812 
L 91.056776 39.942708 
L 91.122924 39.942708 
L 91.341447 39.834293 
L 91.443031 39.766534 
L 91.624937 39.658119 
L 91.692266 39.617463 
L 91.952132 39.509048 
L 92.04781 39.481944 
L 92.304133 39.373529 
L 92.404535 39.319322 
L 92.40926 39.319322 
L 92.690388 39.210907 
L 92.737636 39.143147 
L 92.756536 39.143147 
L 93.06365 39.034732 
L 93.172321 38.926317 
L 93.39557 38.817902 
L 93.504241 38.709487 
L 93.713315 38.601072 
L 93.826711 38.492657 
L 94.155087 38.384242 
L 94.259033 38.30293 
L 94.472832 38.194515 
L 94.472832 38.180963 
L 94.570872 38.180963 
L 94.771678 38.072548 
L 94.876806 38.004789 
L 95.172108 37.896374 
L 95.279598 37.842166 
L 95.473316 37.733751 
L 95.578444 37.598232 
L 95.580806 37.598232 
L 95.929263 37.489817 
L 96.010766 37.43561 
L 96.029666 37.43561 
L 96.225746 37.327195 
L 96.295438 37.245883 
L 96.332055 37.245883 
L 96.616726 37.137468 
L 96.721854 37.083261 
L 97.013613 36.974846 
L 97.104566 36.920638 
L 97.271116 36.812223 
L 97.338445 36.758016 
L 97.38215 36.758016 
L 97.706982 36.6496 
L 97.774311 36.595393 
L 97.809747 36.595393 
L 97.982204 36.486978 
L 98.029452 36.446322 
L 98.081426 36.446322 
L 98.295224 36.337907 
L 98.348379 36.2837 
L 98.396808 36.2837 
L 98.690929 36.175285 
L 98.752352 36.148181 
L 98.768889 36.148181 
L 98.976782 36.039766 
L 99.073641 35.944902 
L 99.087816 35.944902 
L 99.3654 35.836487 
L 99.461078 35.78228 
L 99.699682 35.673865 
L 99.782366 35.619657 
L 99.797722 35.619657 
L 100.132004 35.511242 
L 100.183977 35.470587 
L 100.243038 35.470587 
L 100.482823 35.362171 
L 100.600944 35.267308 
L 100.854904 35.158893 
L 100.934045 35.118238 
L 101.457321 35.009822 
L 101.492757 34.969167 
L 101.542368 34.969167 
L 101.822314 34.860752 
L 101.925079 34.765889 
L 101.930985 34.765889 
L 102.265268 34.657473 
L 102.313697 34.589714 
L 102.373939 34.589714 
L 102.656248 34.481299 
L 102.763738 34.399988 
L 103.116919 34.291573 
L 103.184248 34.223813 
L 103.223228 34.223813 
L 103.556329 34.115398 
L 103.64492 34.074742 
L 103.663819 34.074742 
L 103.962665 33.966327 
L 103.962665 33.952775 
L 104.040625 33.952775 
L 104.557994 33.84436 
L 104.607605 33.817257 
L 104.659578 33.817257 
L 104.950156 33.708842 
L 104.999766 33.613978 
L 105.048196 33.613978 
L 105.308062 33.505563 
L 105.308062 33.492011 
L 105.39429 33.492011 
L 105.6577 33.383596 
L 105.768733 33.315837 
L 105.962452 33.207422 
L 105.994344 33.139662 
L 106.062854 33.139662 
L 106.28374 33.031247 
L 106.359338 32.990592 
L 106.39123 32.990592 
L 106.594398 32.882177 
L 106.658184 32.841521 
L 106.965298 32.733106 
L 107.059795 32.678898 
L 107.566533 32.570483 
L 107.66103 32.529828 
L 107.677567 32.529828 
L 107.833487 32.421412 
L 107.935071 32.340101 
L 107.943339 32.340101 
L 108.067366 32.231686 
L 108.157138 32.204582 
L 108.165406 32.204582 
L 108.431178 32.096167 
L 108.497326 32.055512 
L 108.531581 32.055512 
L 108.992253 31.947097 
L 109.069031 31.865785 
L 109.083206 31.865785 
L 109.365515 31.75737 
L 109.365515 31.743818 
L 109.46828 31.743818 
L 109.695072 31.635403 
L 109.735233 31.608299 
L 109.764763 31.608299 
L 110.212441 31.499884 
L 110.319931 31.472781 
L 110.618777 31.364365 
L 110.644764 31.337262 
L 110.705006 31.337262 
L 111.267261 31.228847 
L 111.332228 31.201743 
L 111.377113 31.201743 
L 111.720845 31.093328 
L 111.828335 30.984913 
L 112.140174 30.876498 
L 112.192148 30.795186 
L 112.235852 30.795186 
L 112.522886 30.686771 
L 112.525249 30.646116 
L 112.622108 30.646116 
L 113.030806 30.537701 
L 113.112309 30.415734 
L 113.13239 30.415734 
L 113.358001 30.307318 
L 113.450135 30.239559 
L 113.954511 30.131144 
L 114.012391 30.10404 
L 114.059639 30.10404 
L 114.439988 29.995625 
L 114.503774 29.941418 
L 114.549841 29.941418 
L 114.93019 29.833003 
L 114.992794 29.751691 
L 115.012875 29.751691 
L 115.46764 29.643276 
L 115.46764 29.629724 
L 115.578674 29.629724 
L 116.079506 29.521309 
L 116.186996 29.467102 
L 116.403158 29.358687 
L 116.507104 29.318031 
L 116.739802 29.209616 
L 116.803587 29.128305 
L 116.850836 29.128305 
L 117.293789 29.019889 
L 117.401279 28.925026 
L 117.795803 28.816611 
L 117.898568 28.748852 
L 118.119454 28.640437 
L 118.234031 28.572677 
L 118.607293 28.464262 
L 118.622649 28.423607 
L 118.663991 28.423607 
L 118.909683 28.315191 
L 119.010086 28.247432 
L 119.461308 28.139017 
L 119.514462 28.098361 
L 119.57116 28.098361 
L 119.949147 27.989946 
L 120.03065 27.922187 
L 120.047187 27.922187 
L 120.601174 27.813772 
L 120.707483 27.773116 
L 121.148074 27.664701 
L 121.244933 27.624045 
L 121.699698 27.51563 
L 121.724504 27.488526 
L 121.775296 27.488526 
L 122.324558 27.380111 
L 122.433229 27.353008 
L 122.79586 27.244593 
L 122.902169 27.176833 
L 122.906894 27.176833 
L 123.132505 27.068418 
L 123.177391 27.014211 
L 123.241176 27.014211 
L 123.731378 26.905795 
L 123.790438 26.878692 
L 123.803432 26.878692 
L 124.157794 26.770277 
L 124.249929 26.702517 
L 124.730681 26.594102 
L 124.826359 26.539895 
L 124.838171 26.539895 
L 125.36499 26.431479 
L 125.444131 26.404376 
L 125.935514 26.295961 
L 126.00993 26.241753 
L 126.037098 26.241753 
L 126.237903 26.133338 
L 126.324132 26.065579 
L 126.326494 26.065579 
L 126.76236 25.957164 
L 126.76236 25.943612 
L 126.835595 25.943612 
L 127.168696 25.835197 
L 127.271461 25.767437 
L 127.681341 25.659022 
L 127.754576 25.591263 
L 127.782925 25.591263 
L 127.991999 25.496399 
L 127.991999 25.455744 
L 128.098307 25.455744 
L 128.53063 25.347329 
L 128.649932 25.293121 
L 129.109422 25.184706 
L 129.236993 25.076291 
L 129.873664 24.967876 
L 129.961074 24.92722 
L 130.376859 24.818805 
L 130.376859 24.805253 
L 130.4749 24.805253 
L 131.210793 24.696838 
L 131.210793 24.683286 
L 131.320645 24.683286 
L 131.691545 24.574871 
L 131.777773 24.534216 
L 132.417989 24.425801 
L 132.50776 24.398697 
L 133.26964 24.290282 
L 133.373587 24.249626 
L 133.378311 24.249626 
L 133.779922 24.141211 
L 133.779922 24.127659 
L 133.873238 24.127659 
L 134.297292 24.019244 
L 134.40242 23.924381 
L 134.856004 23.815966 
L 134.956407 23.734654 
L 134.967037 23.734654 
L 135.306044 23.626239 
L 135.347387 23.585584 
L 135.404085 23.585584 
L 135.942716 23.477169 
L 136.037213 23.436513 
L 136.33724 23.328098 
L 136.33724 23.314546 
L 136.445911 23.314546 
L 136.803817 23.206131 
L 136.886502 23.151923 
L 136.911307 23.151923 
L 137.245589 23.043508 
L 137.328274 23.002853 
L 137.356623 23.002853 
L 137.886986 22.894438 
L 137.942503 22.867334 
L 137.990932 22.867334 
L 138.511845 22.758919 
L 138.606342 22.745367 
L 139.401296 22.636952 
L 139.492249 22.596296 
L 139.85488 22.487881 
L 139.93284 22.447225 
L 139.936383 22.447225 
L 140.391149 22.33881 
L 140.511632 22.311707 
L 141.07625 22.203291 
L 141.07625 22.18974 
L 141.18374 22.18974 
L 141.669217 22.081325 
L 141.669217 22.067773 
L 141.777888 22.067773 
L 142.314157 21.959358 
L 142.314157 21.945806 
L 142.425191 21.945806 
L 142.871688 21.837391 
L 142.973272 21.769631 
L 143.689084 21.661216 
L 143.777675 21.607009 
L 143.79185 21.607009 
L 144.411984 21.498593 
L 144.468682 21.47149 
L 144.488763 21.47149 
L 145.301435 21.363075 
L 145.387663 21.322419 
L 145.403019 21.322419 
L 145.929838 21.214004 
L 145.929838 21.200452 
L 146.03969 21.200452 
L 146.707073 21.092037 
L 146.80157 21.051381 
L 146.814563 21.051381 
L 147.400443 20.942966 
L 147.420523 20.902311 
L 147.492577 20.902311 
L 148.142242 20.793895 
L 148.23792 20.75324 
L 148.791907 20.644825 
L 148.797813 20.617721 
L 148.891129 20.617721 
L 149.286834 20.522858 
L 149.286834 20.495754 
L 149.374243 20.495754 
L 149.749867 20.387339 
L 149.749867 20.373787 
L 149.852633 20.373787 
L 150.810593 20.265372 
L 150.873197 20.238268 
L 150.888553 20.238268 
L 151.730755 20.129853 
L 151.730755 20.116301 
L 151.75556 20.116301 
L 152.893064 20.007886 
L 153.002917 19.940127 
L 153.613602 19.831712 
L 153.723454 19.777504 
L 154.621173 19.669089 
L 154.719214 19.60133 
L 155.269657 19.492915 
L 155.378328 19.452259 
L 156.226436 19.343844 
L 156.33747 19.31674 
L 156.993041 19.208325 
L 156.993041 19.194773 
L 157.102893 19.194773 
L 157.906115 19.086358 
L 158.012424 19.059254 
L 158.017149 19.059254 
L 158.606572 18.950839 
L 158.717606 18.923735 
L 159.466492 18.81532 
L 159.564533 18.788217 
L 160.522493 18.679801 
L 160.559111 18.639146 
L 160.627621 18.639146 
L 161.036319 18.530731 
L 161.096561 18.503627 
L 161.147353 18.503627 
L 161.752132 18.395212 
L 161.851353 18.368108 
L 162.432508 18.259693 
L 162.462038 18.232589 
L 162.537636 18.232589 
L 162.927435 18.124174 
L 162.927435 18.110622 
L 163.025475 18.110622 
L 163.733019 18.002207 
L 163.84169 17.975103 
L 164.640188 17.866688 
L 164.696886 17.812481 
L 164.734684 17.812481 
L 165.240242 17.704066 
L 165.33592 17.690514 
L 166.298605 17.582099 
L 166.328135 17.554995 
L 166.409639 17.554995 
L 167.301451 17.44658 
L 167.301451 17.433028 
L 167.411304 17.433028 
L 168.236969 17.324613 
L 168.244056 17.297509 
L 168.346821 17.297509 
L 169.57646 17.189094 
L 169.639064 17.148439 
L 169.642607 17.148439 
L 170.586393 17.040023 
L 170.666716 17.01292 
L 170.697427 17.01292 
L 171.831388 16.904505 
L 171.831388 16.890953 
L 171.942421 16.890953 
L 172.7232 16.782538 
L 172.834234 16.72833 
L 173.486261 16.619915 
L 173.561859 16.579259 
L 173.590208 16.579259 
L 174.51037 16.470844 
L 174.615497 16.443741 
L 175.846317 16.335325 
L 175.846317 16.321774 
L 175.93727 16.321774 
L 176.710962 16.22691 
L 176.710962 16.213358 
L 176.823177 16.172703 
L 177.992573 16.064288 
L 177.992573 16.050736 
L 178.103607 16.050736 
L 179.674615 15.942321 
L 179.74785 15.915217 
L 179.780924 15.915217 
L 181.099153 15.806802 
L 181.217274 15.79325 
L 182.392577 15.684835 
L 182.392577 15.671283 
L 182.406751 15.671283 
L 185.266458 15.562868 
L 185.266458 15.549316 
L 185.343237 15.549316 
L 186.783131 15.440901 
L 186.859909 15.413797 
L 186.891802 15.413797 
L 188.367132 15.305382 
L 188.367132 15.29183 
L 188.478165 15.29183 
L 189.581415 15.183415 
L 189.693629 15.169863 
L 190.561818 15.061448 
L 190.655133 15.034345 
L 191.568208 14.925929 
L 191.626087 14.898826 
L 191.644987 14.898826 
L 192.513175 14.790411 
L 192.600585 14.776859 
L 194.751566 14.668444 
L 194.764559 14.627788 
L 194.848425 14.627788 
L 196.245795 14.519373 
L 196.245795 14.505821 
L 196.355648 14.505821 
L 198.630656 14.397406 
L 198.744052 14.370302 
L 200.638712 14.261887 
L 200.746202 14.248335 
L 202.124672 14.13992 
L 202.183733 14.112816 
L 202.187276 14.112816 
L 204.803654 14.004401 
L 204.803654 13.990849 
L 204.879252 13.990849 
L 207.586583 13.882434 
L 207.673992 13.868882 
L 210.296276 13.760467 
L 210.296276 13.746915 
L 210.404947 13.746915 
L 212.376385 13.6385 
L 212.481512 13.624949 
L 216.326348 13.516533 
L 216.326348 13.502982 
L 216.388952 13.502982 
L 219.696337 13.394566 
L 219.696337 13.381015 
L 219.80737 13.381015 
L 227.820692 13.2726 
L 227.820692 13.259048 
L 227.908101 13.259048 
L 229.20625 13.259048 
L 229.20625 13.259048 
" clip-path="url(#p35ca6189a8)" style="fill: none; stroke: #43a3ef; stroke-width: 2; stroke-linecap: square"/>
   </g>
   <g id="line2d_26">
    <path d="M 43.78125 134.44 
L 43.892288 123.662791 
L 43.894831 123.552783 
L 44.005869 118.615826 
L 44.008413 118.516818 
L 44.119255 115.231218 
L 44.12444 115.122431 
L 44.235282 112.73646 
L 44.241152 112.626451 
L 44.35219 110.74652 
L 44.360603 110.636511 
L 44.471641 108.909371 
L 44.48025 108.799362 
L 44.591092 107.261682 
L 44.599995 107.154117 
L 44.711033 105.69711 
L 45.349573 99.100241 
L 45.364346 98.990232 
L 45.666642 96.400133 
L 45.777582 95.52984 
L 45.788931 95.422276 
L 45.899871 94.6241 
L 45.912687 94.514091 
L 46.023529 93.700025 
L 46.041236 93.590016 
L 46.151687 92.790618 
L 46.166753 92.681831 
L 46.277791 91.963106 
L 46.300781 91.854319 
L 46.411819 91.120926 
L 46.431776 91.010918 
L 46.542716 90.300749 
L 46.560325 90.193184 
L 46.671363 89.525797 
L 46.688484 89.415788 
L 46.799521 88.819295 
L 46.813805 88.709286 
L 46.924843 88.098125 
L 46.947441 87.988116 
L 47.058088 87.446628 
L 47.0801 87.336619 
L 47.191138 86.740126 
L 47.212758 86.630117 
L 47.323796 86.029957 
L 47.342873 85.919949 
L 47.453617 85.368682 
L 47.480129 85.258673 
L 47.590678 84.729407 
L 47.618462 84.619398 
L 47.729011 84.118247 
L 47.753077 84.00946 
L 47.863626 83.509531 
L 47.889844 83.399522 
L 48.000491 82.913038 
L 48.02397 82.803029 
L 48.13491 82.287209 
L 48.157607 82.1772 
L 48.268547 81.691938 
L 48.293298 81.584374 
L 48.404336 81.133338 
L 48.432609 81.024551 
L 48.543549 80.573514 
L 48.568789 80.464728 
L 48.679533 80.034471 
L 48.707708 79.925684 
L 48.818257 79.436755 
L 48.852987 79.326746 
L 48.963829 78.947827 
L 48.990733 78.840262 
L 49.101575 78.441786 
L 49.130728 78.331777 
L 49.241472 77.962636 
L 49.273952 77.852627 
L 49.384892 77.472485 
L 49.413557 77.363698 
L 49.524105 77.000669 
L 49.524497 77.000669 
L 49.558542 76.89066 
L 49.669579 76.516629 
L 49.707831 76.40662 
L 49.818673 75.997143 
L 49.854773 75.887134 
L 49.965419 75.509436 
L 49.965811 75.509436 
L 49.995453 75.399427 
L 50.1061 75.0584 
L 50.138482 74.948391 
L 50.24952 74.608585 
L 50.291587 74.498577 
L 50.402233 74.141659 
L 50.445181 74.03165 
L 50.556219 73.724847 
L 50.592416 73.614838 
L 50.703356 73.284811 
L 50.740043 73.174802 
L 50.850102 72.856999 
L 50.887962 72.74699 
L 50.998902 72.425519 
L 51.040578 72.31551 
L 51.150833 72.039266 
L 51.187813 71.929257 
L 51.298851 71.632233 
L 51.346006 71.522224 
L 51.455967 71.227644 
L 51.503513 71.117635 
L 51.613964 70.80961 
L 51.65339 70.699601 
L 51.764427 70.4148 
L 51.800918 70.307236 
L 51.911271 70.023658 
L 51.959208 69.913649 
L 52.069463 69.590956 
L 52.120433 69.480947 
L 52.231373 69.223037 
L 52.281854 69.113028 
L 52.392891 68.822116 
L 52.433883 68.712107 
L 52.544235 68.448085 
L 52.544431 68.448085 
L 52.584933 68.338076 
L 52.695286 68.070388 
L 52.742147 67.960379 
L 52.852793 67.703691 
L 52.907481 67.593682 
L 53.018421 67.332106 
L 53.068021 67.222097 
L 53.204495 66.909182 
L 53.262215 66.799173 
L 53.372959 66.537597 
L 53.414635 66.427588 
L 53.525183 66.178234 
L 53.572827 66.068225 
L 53.683376 65.794425 
L 53.742661 65.685639 
L 53.852721 65.41795 
L 53.90643 65.307941 
L 54.017467 65.067144 
L 54.066578 64.957135 
L 54.176834 64.702892 
L 54.220857 64.592883 
L 54.331797 64.363087 
L 54.386876 64.253078 
L 54.49762 64.037949 
L 54.555145 63.92794 
L 54.666085 63.718923 
L 54.717544 63.608914 
L 54.828386 63.388897 
L 54.877692 63.278888 
L 54.986774 63.045424 
L 55.039602 62.935415 
L 55.148683 62.714175 
L 55.150249 62.714175 
L 55.200925 62.605388 
L 55.311278 62.407372 
L 55.375846 62.297363 
L 55.486493 62.059011 
L 55.545484 61.949002 
L 55.656424 61.741207 
L 55.711014 61.631198 
L 55.822052 61.427071 
L 55.880457 61.317062 
L 55.99081 61.12149 
L 56.050682 61.011481 
L 56.16172 60.813465 
L 56.225505 60.703456 
L 56.334489 60.516441 
L 56.335663 60.516441 
L 56.404829 60.406432 
L 56.515378 60.212083 
L 56.587674 60.102074 
L 56.697245 59.922393 
L 56.698712 59.922393 
L 56.757215 59.812384 
L 56.866394 59.626591 
L 56.92519 59.516582 
L 57.035347 59.319788 
L 57.035934 59.319788 
L 57.09972 59.209779 
L 57.210562 59.022764 
L 57.279141 58.912755 
L 57.389397 58.718406 
L 57.468248 58.609619 
L 57.578895 58.421382 
L 57.650115 58.313818 
L 57.758707 58.139026 
L 57.827384 58.029017 
L 57.937248 57.845669 
L 57.938422 57.845669 
L 58.012578 57.73566 
L 58.121953 57.569424 
L 58.123518 57.569424 
L 58.197967 57.459415 
L 58.308809 57.295624 
L 58.405955 57.185615 
L 58.51533 57.023046 
L 58.516895 57.023046 
L 58.585866 56.913037 
L 58.695925 56.716244 
L 58.770668 56.606235 
L 58.881314 56.453444 
L 58.945295 56.343435 
L 59.056138 56.171088 
L 59.132543 56.061079 
L 59.243483 55.878953 
L 59.329183 55.768944 
L 59.439536 55.636934 
L 59.523181 55.526925 
L 59.634219 55.370468 
L 59.708766 55.260459 
L 59.819021 55.086889 
L 59.900807 54.97688 
L 60.011845 54.819201 
L 60.092556 54.709192 
L 60.20193 54.558846 
L 60.203202 54.558846 
L 60.278532 54.448837 
L 60.387515 54.320493 
L 60.388689 54.320493 
L 60.487302 54.210484 
L 60.59834 54.038137 
L 60.67592 53.928128 
L 60.78686 53.779005 
L 60.871483 53.668996 
L 60.98213 53.512539 
L 61.063231 53.40253 
L 61.173878 53.254629 
L 61.174073 53.254629 
L 61.256936 53.14462 
L 61.365626 52.990608 
L 61.366702 52.990608 
L 61.455826 52.880599 
L 61.577821 52.738809 
L 61.672325 52.6288 
L 61.783363 52.4809 
L 61.862214 52.370891 
L 61.973252 52.221767 
L 62.065409 52.111758 
L 62.188088 51.968747 
L 62.304115 51.858738 
L 62.413099 51.726727 
L 62.414077 51.726727 
L 62.508973 51.616718 
L 62.620011 51.492041 
L 62.713928 51.383255 
L 62.823792 51.234132 
L 62.926025 51.124123 
L 63.033639 50.999446 
L 63.036476 50.999446 
L 63.143209 50.889437 
L 63.253953 50.747648 
L 63.353936 50.637639 
L 63.491486 50.473848 
L 63.602426 50.363839 
L 63.712975 50.226939 
L 63.819023 50.11693 
L 63.928593 49.992253 
L 63.929963 49.992253 
L 64.024468 49.882244 
L 64.134918 49.768568 
L 64.135114 49.768568 
L 64.245565 49.658559 
L 64.355624 49.524104 
L 64.452183 49.414095 
L 64.562243 49.299197 
L 64.562536 49.299197 
L 64.674944 49.189188 
L 64.783536 49.064511 
L 64.785394 49.064511 
L 64.87354 48.954502 
L 64.984578 48.840826 
L 65.094637 48.730817 
L 65.202349 48.62692 
L 65.309571 48.516911 
L 65.420022 48.420348 
L 65.516776 48.310339 
L 65.624586 48.19544 
L 65.627521 48.19544 
L 65.734352 48.085431 
L 65.844411 47.975423 
L 65.966113 47.865414 
L 66.07715 47.750515 
L 66.191417 47.640506 
L 66.300204 47.519497 
L 66.395393 47.409488 
L 66.505746 47.323925 
L 66.629502 47.213916 
L 66.73692 47.123464 
L 66.74054 47.123464 
L 66.84923 47.013456 
L 66.96017 46.896113 
L 67.067099 46.786104 
L 67.176278 46.687096 
L 67.294653 46.577087 
L 67.412832 46.467078 
L 67.53649 46.357069 
L 67.643811 46.259283 
L 67.647528 46.259283 
L 67.769914 46.149274 
L 67.880854 46.061267 
L 68.017817 45.951258 
L 68.134725 45.862029 
L 68.240088 45.75202 
L 68.3478 45.659123 
L 68.348093 45.659123 
L 68.465295 45.549114 
L 68.573593 45.45744 
L 68.575158 45.45744 
L 68.722394 45.347431 
L 68.830301 45.261869 
L 68.833236 45.261869 
L 68.976851 45.15186 
L 69.087204 45.06263 
L 69.231896 44.952621 
L 69.342346 44.85728 
L 69.503767 44.747271 
L 69.613533 44.648263 
L 69.614707 44.648263 
L 69.752746 44.538255 
L 69.861436 44.452692 
L 69.977854 44.342683 
L 70.088892 44.242453 
L 70.218811 44.132444 
L 70.329164 44.052993 
L 70.329751 44.052993 
L 70.489313 43.942984 
L 70.600155 43.841531 
L 70.74201 43.731522 
L 70.85295 43.633737 
L 70.969759 43.523728 
L 71.078645 43.435721 
L 71.080406 43.435721 
L 71.232043 43.325712 
L 71.342788 43.216925 
L 71.342983 43.216925 
L 71.489729 43.106916 
L 71.597832 43.006686 
L 71.600571 43.006686 
L 71.734697 42.896677 
L 71.844952 42.801336 
L 72.002166 42.691327 
L 72.112911 42.608209 
L 72.248602 42.4982 
L 72.358955 42.415082 
L 72.491417 42.305073 
L 72.598249 42.219511 
L 72.602357 42.219511 
L 72.7628 42.109502 
L 72.871196 42.026384 
L 73.018333 41.916375 
L 73.127415 41.840591 
L 73.297249 41.730582 
L 73.406134 41.648687 
L 73.407406 41.648687 
L 73.569022 41.538678 
L 73.676538 41.458004 
L 73.679375 41.458004 
L 73.840991 41.347995 
L 73.949486 41.286879 
L 73.951736 41.286879 
L 74.108363 41.17687 
L 74.216857 41.109643 
L 74.219107 41.109643 
L 74.365951 40.999634 
L 74.481489 40.926295 
L 74.61581 40.816286 
L 74.725967 40.758836 
L 74.889443 40.648828 
L 74.999991 40.591378 
L 75.132943 40.481369 
L 75.24222 40.39214 
L 75.243981 40.39214 
L 75.387498 40.282131 
L 75.498341 40.206347 
L 75.705155 40.096338 
L 75.813062 40.01811 
L 75.815508 40.01811 
L 75.966069 39.908101 
L 76.073878 39.827427 
L 76.074857 39.827427 
L 76.240288 39.717419 
L 76.350543 39.631856 
L 76.351228 39.631856 
L 76.496702 39.521847 
L 76.600892 39.447286 
L 76.607349 39.447286 
L 76.757225 39.337277 
L 76.868165 39.246825 
L 76.987127 39.138038 
L 77.09748 39.053698 
L 77.246672 38.943689 
L 77.356927 38.878906 
L 77.528229 38.768897 
L 77.637995 38.685779 
L 77.81184 38.57577 
L 77.92728 38.509765 
L 78.139768 38.400978 
L 78.247089 38.330084 
L 78.250023 38.330084 
L 78.442358 38.220075 
L 78.552124 38.150402 
L 78.553005 38.150402 
L 78.759525 38.041616 
L 78.869291 37.970721 
L 78.870172 37.970721 
L 79.052724 37.860712 
L 79.161512 37.789818 
L 79.163273 37.789818 
L 79.366467 37.681031 
L 79.474765 37.605247 
L 79.476135 37.605247 
L 79.63824 37.495238 
L 79.746245 37.414565 
L 79.747615 37.414565 
L 79.972626 37.304556 
L 80.078185 37.253218 
L 80.083566 37.253218 
L 80.305837 37.14321 
L 80.414233 37.06987 
L 80.632689 36.959861 
L 80.743042 36.897523 
L 80.743727 36.897523 
L 80.967466 36.787514 
L 81.077427 36.72762 
L 81.313982 36.617611 
L 81.423846 36.547939 
L 81.424335 36.547939 
L 81.635845 36.43793 
L 81.745219 36.356034 
L 81.746002 36.356034 
L 81.927674 36.246026 
L 82.038222 36.18002 
L 82.257558 36.070011 
L 82.366933 36.018674 
L 82.368498 36.018674 
L 82.567877 35.908665 
L 82.677545 35.852438 
L 82.678328 35.852438 
L 82.860391 35.742429 
L 82.966635 35.678868 
L 82.967907 35.678868 
L 83.172764 35.568859 
L 83.283215 35.524856 
L 83.495703 35.414847 
L 83.606545 35.365954 
L 83.872058 35.255945 
L 83.980259 35.194829 
L 83.981237 35.194829 
L 84.182083 35.08482 
L 84.290577 35.027371 
L 84.292338 35.027371 
L 84.51187 34.917362 
L 84.622517 34.859913 
L 84.838038 34.749904 
L 84.94888 34.686343 
L 84.949076 34.686343 
L 85.129573 34.576334 
L 85.240611 34.504217 
L 85.481568 34.394208 
L 85.598671 34.318425 
L 85.822508 34.208416 
L 85.93335 34.165634 
L 86.168828 34.055625 
L 86.27292 34.016511 
L 86.273311 34.016511 
L 86.513681 33.906502 
L 86.62423 33.864943 
L 86.838968 33.754934 
L 86.948245 33.717042 
L 87.177658 33.607033 
L 87.288011 33.56303 
L 87.538457 33.453021 
L 87.649397 33.390683 
L 87.870592 33.280674 
L 87.98163 33.228114 
L 88.232762 33.118105 
L 88.353876 33.058211 
L 88.610388 32.948202 
L 88.720545 32.904199 
L 88.984199 32.79419 
L 89.094063 32.744074 
L 89.338346 32.634066 
L 89.448014 32.58395 
L 89.448307 32.58395 
L 89.67459 32.473941 
L 89.784747 32.417715 
L 90.043901 32.307706 
L 90.158754 32.258813 
L 90.446474 32.148804 
L 90.554674 32.102356 
L 90.82048 31.992347 
L 90.930735 31.945899 
L 91.162496 31.83589 
L 91.270893 31.786997 
L 91.273241 31.786997 
L 91.546188 31.676988 
L 91.653019 31.63054 
L 91.65615 31.63054 
L 91.909629 31.520531 
L 92.013623 31.481416 
L 92.019199 31.481416 
L 92.269254 31.371407 
L 92.377944 31.334738 
L 92.379803 31.334738 
L 92.610488 31.224729 
L 92.732287 31.16239 
L 93.044171 31.052382 
L 93.151589 31.019379 
L 93.153057 31.019379 
L 93.424439 30.90937 
L 93.533324 30.8727 
L 93.534988 30.8727 
L 93.879449 30.762691 
L 93.993129 30.721132 
L 94.307556 30.611123 
L 94.41742 30.56712 
L 94.418203 30.56712 
L 94.695161 30.457111 
L 94.804829 30.402106 
L 95.17101 30.292098 
L 95.28195 30.252983 
L 95.537875 30.142974 
L 95.647445 30.100193 
L 95.648815 30.100193 
L 95.925284 29.990184 
L 96.036224 29.947403 
L 96.3079 29.837394 
L 96.417764 29.787279 
L 96.694429 29.67727 
L 96.801847 29.630822 
L 96.805173 29.630822 
L 97.038108 29.520813 
L 97.148265 29.476809 
L 97.453399 29.3668 
L 97.56111 29.328908 
L 97.562871 29.328908 
L 97.847363 29.218899 
L 97.955564 29.168784 
L 98.26872 29.058775 
L 98.376235 29.02455 
L 98.377996 29.02455 
L 98.742416 28.914541 
L 98.845823 28.883983 
L 98.853062 28.883983 
L 99.145282 28.773974 
L 99.249374 28.743416 
L 99.25632 28.743416 
L 99.55353 28.633407 
L 99.663883 28.596738 
L 99.664274 28.596738 
L 99.947787 28.486729 
L 100.058434 28.446392 
L 100.380786 28.336383 
L 100.482236 28.298491 
L 100.491726 28.298491 
L 100.811632 28.188482 
L 100.927463 28.131033 
L 101.246098 28.021024 
L 101.349309 27.974576 
L 101.355179 27.974576 
L 101.736816 27.864567 
L 101.846974 27.82912 
L 102.140368 27.719111 
L 102.247982 27.688553 
L 102.251308 27.688553 
L 102.567986 27.578544 
L 102.675795 27.535763 
L 102.678926 27.535763 
L 102.979853 27.425754 
L 103.086782 27.393973 
L 103.090891 27.393973 
L 103.45981 27.283964 
L 103.574565 27.241183 
L 103.970682 27.131174 
L 104.072034 27.104283 
L 104.081622 27.104283 
L 104.399767 26.994274 
L 104.513348 26.966161 
L 104.924139 26.856152 
L 105.038308 26.808481 
L 105.360757 26.698472 
L 105.478154 26.667914 
L 105.870064 26.557905 
L 105.978949 26.526125 
L 105.980417 26.526125 
L 106.351782 26.416116 
L 106.46145 26.379446 
L 106.462135 26.379446 
L 106.860795 26.269438 
L 106.967724 26.230323 
L 106.968996 26.230323 
L 107.378613 26.120314 
L 107.480748 26.087312 
L 107.489259 26.087312 
L 107.8166 25.977303 
L 107.923138 25.945522 
L 107.927638 25.945522 
L 108.318863 25.835513 
L 108.425498 25.800066 
L 108.429803 25.800066 
L 108.743546 25.690057 
L 108.850377 25.650943 
L 108.853703 25.650943 
L 109.206481 25.540934 
L 109.313312 25.514043 
L 109.316442 25.514043 
L 109.663545 25.404034 
L 109.770181 25.369809 
L 109.774485 25.369809 
L 110.213256 25.2598 
L 110.326935 25.22802 
L 110.869895 25.118011 
L 110.972813 25.097231 
L 110.978292 25.097231 
L 111.474489 24.987222 
L 111.580439 24.948108 
L 111.585331 24.948108 
L 112.079473 24.838099 
L 112.185522 24.807541 
L 112.189435 24.807541 
L 112.577236 24.697532 
L 112.691991 24.653529 
L 113.136729 24.544742 
L 113.136729 24.54352 
L 113.248061 24.514184 
L 113.655428 24.404175 
L 113.764802 24.380951 
L 113.765976 24.380951 
L 114.184985 24.270942 
L 114.277631 24.245273 
L 114.294947 24.245273 
L 114.757783 24.136487 
L 114.865495 24.108373 
L 114.867843 24.108373 
L 115.289395 23.998364 
L 115.402683 23.973918 
L 115.886945 23.863909 
L 115.993776 23.837018 
L 115.997494 23.837018 
L 116.456319 23.727009 
L 116.559726 23.695228 
L 116.567161 23.695228 
L 117.077348 23.58522 
L 117.183103 23.566885 
L 117.18819 23.566885 
L 117.668343 23.456876 
L 117.773413 23.432429 
L 117.77899 23.432429 
L 118.192324 23.32242 
L 118.298373 23.293085 
L 118.303069 23.293085 
L 118.818147 23.183076 
L 118.928793 23.157407 
L 118.929185 23.157407 
L 119.406403 23.047398 
L 119.495624 23.022952 
L 119.517245 23.022952 
L 120.046998 22.912943 
L 120.160481 22.883607 
L 120.711757 22.773598 
L 120.820349 22.751596 
L 120.822502 22.751596 
L 121.40205 22.641587 
L 121.505164 22.609807 
L 121.512892 22.609807 
L 122.087648 22.499798 
L 122.201229 22.46924 
L 122.7347 22.359231 
L 122.84564 22.333562 
L 123.423427 22.223553 
L 123.52615 22.203996 
L 123.531628 22.203996 
L 124.161364 22.093987 
L 124.26164 22.080542 
L 124.271913 22.080542 
L 124.777795 21.970533 
L 124.88443 21.950976 
L 124.888441 21.950976 
L 125.565919 21.840967 
L 125.662184 21.818965 
L 125.676859 21.818965 
L 126.181274 21.708956 
L 126.291529 21.680843 
L 126.291822 21.680843 
L 127.02477 21.570834 
L 127.133068 21.551277 
L 127.135807 21.551277 
L 127.759967 21.441268 
L 127.865428 21.413154 
L 127.869146 21.413154 
L 128.48362 21.303145 
L 128.585658 21.288477 
L 128.594267 21.288477 
L 129.236819 21.178469 
L 129.344139 21.158911 
L 129.346878 21.158911 
L 129.891795 21.048902 
L 130.002148 21.023234 
L 130.002735 21.023234 
L 130.705452 20.913225 
L 130.821382 20.890001 
L 131.375495 20.779992 
L 131.474891 20.764102 
L 131.486337 20.764102 
L 132.126736 20.654093 
L 132.226034 20.63698 
L 132.237578 20.63698 
L 133.027072 20.526971 
L 133.136642 20.496413 
L 133.138012 20.496413 
L 133.817641 20.386404 
L 133.923396 20.365625 
L 133.928581 20.365625 
L 134.657322 20.255616 
L 134.762196 20.237281 
L 134.76836 20.237281 
L 135.441532 20.127272 
L 135.539363 20.112604 
L 135.552277 20.112604 
L 136.260571 20.002595 
L 136.367989 19.986705 
L 136.371119 19.986705 
L 137.017389 19.877918 
L 137.130872 19.85225 
L 137.868222 19.742241 
L 137.975836 19.725128 
L 137.978868 19.725128 
L 138.82843 19.615119 
L 138.933598 19.602896 
L 138.939174 19.602896 
L 139.58877 19.49411 
L 139.695796 19.474552 
L 139.699807 19.474552 
L 140.389514 19.364543 
L 140.496149 19.344986 
L 140.499964 19.344986 
L 141.107493 19.234977 
L 141.212465 19.22031 
L 141.214715 19.22031 
L 141.981121 19.110301 
L 142.086875 19.098077 
L 142.08981 19.098077 
L 142.790865 18.988068 
L 142.901218 18.974623 
L 143.669286 18.864614 
L 143.772204 18.847501 
L 143.780324 18.847501 
L 144.5571 18.737493 
L 144.660213 18.726492 
L 144.668137 18.726492 
L 145.464283 18.616483 
L 145.57219 18.592036 
L 145.575125 18.592036 
L 146.414317 18.482027 
L 146.520072 18.472249 
L 146.525355 18.472249 
L 147.536434 18.36224 
L 147.643559 18.34146 
L 147.647374 18.34146 
L 148.54908 18.231451 
L 148.655128 18.213117 
L 148.65953 18.213117 
L 149.557029 18.103108 
L 149.645272 18.08844 
L 149.667675 18.08844 
L 150.577598 17.978431 
L 150.674744 17.963763 
L 150.686582 17.963763 
L 151.426084 17.853754 
L 151.525284 17.837864 
L 151.537121 17.837864 
L 152.460838 17.727855 
L 152.5708 17.715632 
L 152.571778 17.715632 
L 153.401187 17.605623 
L 153.525725 17.590955 
L 154.323534 17.480946 
L 154.414321 17.466278 
L 154.434474 17.466278 
L 155.507774 17.356269 
L 155.619986 17.344046 
L 156.431002 17.234037 
L 156.541942 17.225481 
L 157.530717 17.115472 
L 157.635787 17.10936 
L 157.640385 17.10936 
L 158.662617 16.999351 
L 158.749784 16.981017 
L 158.771111 16.981017 
L 159.866423 16.871008 
L 159.975798 16.85634 
L 159.977266 16.85634 
L 160.975236 16.746331 
L 161.089307 16.731663 
L 162.088745 16.621654 
L 162.201348 16.605764 
L 163.387251 16.495755 
L 163.499169 16.485976 
L 164.648973 16.375967 
L 164.761576 16.367411 
L 165.937109 16.257402 
L 166.040418 16.245179 
L 166.048049 16.245179 
L 167.247453 16.13517 
L 167.338436 16.121725 
L 167.357806 16.121725 
L 168.651519 16.011716 
L 168.763241 16.001937 
L 169.96108 15.891928 
L 170.054802 15.87726 
L 170.071824 15.87726 
L 171.251564 15.767251 
L 171.351743 15.751361 
L 171.362406 15.751361 
L 172.774494 15.641352 
L 172.885923 15.635241 
L 174.222681 15.525232 
L 174.32873 15.510564 
L 174.333523 15.510564 
L 175.87465 15.400555 
L 175.98559 15.393221 
L 177.504606 15.283212 
L 177.586882 15.278323 
L 177.615546 15.278323 
L 179.174184 15.168314 
L 179.28669 15.154868 
L 180.727344 15.044859 
L 180.790934 15.035081 
L 180.837697 15.035081 
L 182.804191 14.925072 
L 182.892238 14.910404 
L 182.915229 14.910404 
L 184.350502 14.800395 
L 184.457725 14.788172 
L 184.461442 14.788172 
L 186.423632 14.678163 
L 186.520973 14.664717 
L 186.534572 14.664717 
L 188.520045 14.554708 
L 188.609266 14.54493 
L 188.631083 14.54493 
L 190.858784 14.434921 
L 190.941451 14.431254 
L 190.969724 14.431254 
L 193.073768 14.321245 
L 193.171599 14.315133 
L 193.18285 14.315133 
L 195.563363 14.205124 
L 195.563363 14.203902 
L 195.674303 14.203902 
L 198.505424 14.093893 
L 198.606288 14.08167 
L 198.614212 14.08167 
L 200.892395 13.971661 
L 201.002063 13.966772 
L 203.72557 13.856763 
L 203.774192 13.854318 
L 203.836608 13.854318 
L 206.39126 13.744309 
L 206.477645 13.740642 
L 206.501613 13.740642 
L 209.473513 13.630633 
L 209.536027 13.628189 
L 209.581224 13.628189 
L 213.960809 13.51818 
L 214.035454 13.514513 
L 214.070478 13.514513 
L 218.267706 13.404504 
L 218.344797 13.398392 
L 218.378548 13.398392 
L 225.099808 13.288383 
L 225.207618 13.285939 
L 225.210063 13.285939 
L 229.20625 13.259048 
L 229.20625 13.259048 
" clip-path="url(#p35ca6189a8)" style="fill: none; stroke: #ef767b; stroke-width: 2; stroke-linecap: square"/>
   </g>
   <g id="line2d_27">
    <path d="M 43.78125 134.44 
L 229.20625 13.259048 
" clip-path="url(#p35ca6189a8)" style="fill: none; stroke-dasharray: 5.55,2.4; stroke-dashoffset: 0; stroke: #000000; stroke-opacity: 0.3; stroke-width: 1.5"/>
   </g>
   <g id="patch_3">
    <path d="M 43.78125 134.44 
L 43.78125 7.2 
" style="fill: none; stroke: #000000; stroke-width: 0.8; stroke-linejoin: miter; stroke-linecap: square"/>
   </g>
   <g id="patch_4">
    <path d="M 229.20625 134.44 
L 229.20625 7.2 
" style="fill: none; stroke: #000000; stroke-width: 0.8; stroke-linejoin: miter; stroke-linecap: square"/>
   </g>
   <g id="patch_5">
    <path d="M 43.78125 134.44 
L 229.20625 134.44 
" style="fill: none; stroke: #000000; stroke-width: 0.8; stroke-linejoin: miter; stroke-linecap: square"/>
   </g>
   <g id="patch_6">
    <path d="M 43.78125 7.2 
L 229.20625 7.2 
" style="fill: none; stroke: #000000; stroke-width: 0.8; stroke-linejoin: miter; stroke-linecap: square"/>
   </g>
   <g id="legend_1">
    <g id="line2d_28">
     <path d="M 137.270313 105.182187 
L 147.270313 105.182187 
L 157.270313 105.182187 
" style="fill: none; stroke: #43a3ef; stroke-width: 2; stroke-linecap: square"/>
    </g>
    <g id="text_15">
     <!-- COACH420 -->
     <g transform="translate(165.270313 108.682187) scale(0.1 -0.1)">
      <defs>
       <path id="DejaVuSans-43" d="M 4122 4306 
L 4122 3641 
Q 3803 3938 3442 4084 
Q 3081 4231 2675 4231 
Q 1875 4231 1450 3742 
Q 1025 3253 1025 2328 
Q 1025 1406 1450 917 
Q 1875 428 2675 428 
Q 3081 428 3442 575 
Q 3803 722 4122 1019 
L 4122 359 
Q 3791 134 3420 21 
Q 3050 -91 2638 -91 
Q 1578 -91 968 557 
Q 359 1206 359 2328 
Q 359 3453 968 4101 
Q 1578 4750 2638 4750 
Q 3056 4750 3426 4639 
Q 3797 4528 4122 4306 
z
" transform="scale(0.015625)"/>
       <path id="DejaVuSans-4f" d="M 2522 4238 
Q 1834 4238 1429 3725 
Q 1025 3213 1025 2328 
Q 1025 1447 1429 934 
Q 1834 422 2522 422 
Q 3209 422 3611 934 
Q 4013 1447 4013 2328 
Q 4013 3213 3611 3725 
Q 3209 4238 2522 4238 
z
M 2522 4750 
Q 3503 4750 4090 4092 
Q 4678 3434 4678 2328 
Q 4678 1225 4090 567 
Q 3503 -91 2522 -91 
Q 1538 -91 948 565 
Q 359 1222 359 2328 
Q 359 3434 948 4092 
Q 1538 4750 2522 4750 
z
" transform="scale(0.015625)"/>
       <path id="DejaVuSans-41" d="M 2188 4044 
L 1331 1722 
L 3047 1722 
L 2188 4044 
z
M 1831 4666 
L 2547 4666 
L 4325 0 
L 3669 0 
L 3244 1197 
L 1141 1197 
L 716 0 
L 50 0 
L 1831 4666 
z
" transform="scale(0.015625)"/>
       <path id="DejaVuSans-48" d="M 628 4666 
L 1259 4666 
L 1259 2753 
L 3553 2753 
L 3553 4666 
L 4184 4666 
L 4184 0 
L 3553 0 
L 3553 2222 
L 1259 2222 
L 1259 0 
L 628 0 
L 628 4666 
z
" transform="scale(0.015625)"/>
      </defs>
      <use xlink:href="#DejaVuSans-43"/>
      <use xlink:href="#DejaVuSans-4f" transform="translate(69.824219 0)"/>
      <use xlink:href="#DejaVuSans-41" transform="translate(146.785156 0)"/>
      <use xlink:href="#DejaVuSans-43" transform="translate(213.443359 0)"/>
      <use xlink:href="#DejaVuSans-48" transform="translate(283.267578 0)"/>
      <use xlink:href="#DejaVuSans-34" transform="translate(358.462891 0)"/>
      <use xlink:href="#DejaVuSans-32" transform="translate(422.085938 0)"/>
      <use xlink:href="#DejaVuSans-30" transform="translate(485.708984 0)"/>
     </g>
    </g>
    <g id="line2d_29">
     <path d="M 137.270313 119.860312 
L 147.270313 119.860312 
L 157.270313 119.860312 
" style="fill: none; stroke: #ef767b; stroke-width: 2; stroke-linecap: square"/>
    </g>
    <g id="text_16">
     <!-- Holo4K -->
     <g transform="translate(165.270313 123.360312) scale(0.1 -0.1)">
      <defs>
       <path id="DejaVuSans-4b" d="M 628 4666 
L 1259 4666 
L 1259 2694 
L 3353 4666 
L 4166 4666 
L 1850 2491 
L 4331 0 
L 3500 0 
L 1259 2247 
L 1259 0 
L 628 0 
L 628 4666 
z
" transform="scale(0.015625)"/>
      </defs>
      <use xlink:href="#DejaVuSans-48"/>
      <use xlink:href="#DejaVuSans-6f" transform="translate(75.195312 0)"/>
      <use xlink:href="#DejaVuSans-6c" transform="translate(136.376953 0)"/>
      <use xlink:href="#DejaVuSans-6f" transform="translate(164.160156 0)"/>
      <use xlink:href="#DejaVuSans-34" transform="translate(225.341797 0)"/>
      <use xlink:href="#DejaVuSans-4b" transform="translate(288.964844 0)"/>
     </g>
    </g>
   </g>
  </g>
 </g>
 <defs>
  <clipPath id="p35ca6189a8">
   <rect x="43.78125" y="7.2" width="185.425" height="127.24"/>
  </clipPath>
 </defs>
</svg>
