<?xml version="1.0" encoding="utf-8" standalone="no"?>
<!DOCTYPE svg PUBLIC "-//W3C//DTD SVG 1.1//EN"
  "http://www.w3.org/Graphics/SVG/1.1/DTD/svg11.dtd">
<svg xmlns:xlink="http://www.w3.org/1999/xlink" width="246.28125pt" height="156.5pt" viewBox="0 0 246.28125 156.5" xmlns="http://www.w3.org/2000/svg" version="1.1">
 <metadata>
  <rdf:RDF xmlns:dc="http://purl.org/dc/elements/1.1/" xmlns:cc="http://creativecommons.org/ns#" xmlns:rdf="http://www.w3.org/1999/02/22-rdf-syntax-ns#">
   <cc:Work>
    <dc:type rdf:resource="http://purl.org/dc/dcmitype/StillImage"/>
    <dc:date>2025-07-23T11:08:03.769398</dc:date>
    <dc:format>image/svg+xml</dc:format>
    <dc:creator>
     <cc:Agent>
      <dc:title>Matplotlib v3.10.3, https://matplotlib.org/</dc:title>
     </cc:Agent>
    </dc:creator>
   </cc:Work>
  </rdf:RDF>
 </metadata>
 <defs>
  <style type="text/css">*{stroke-linejoin: round; stroke-linecap: butt}</style>
 </defs>
 <g id="figure_1">
  <g id="patch_1">
   <path d="M 0 156.5 
L 246.28125 156.5 
L 246.28125 0 
L 0 0 
z
" style="fill: #ffffff"/>
  </g>
  <g id="axes_1">
   <g id="patch_2">
    <path d="M 43.78125 145.8 
L 239.08125 145.8 
L 239.08125 7.2 
L 43.78125 7.2 
z
" style="fill: #ffffff"/>
   </g>
   <g id="matplotlib.axis_1">
    <g id="xtick_1">
     <g id="line2d_1">
      <defs>
       <path id="m5585a638c8" d="M 0 0 
L 0 3.5 
" style="stroke: #000000; stroke-width: 0.8"/>
      </defs>
      <g>
       <use xlink:href="#m5585a638c8" x="141.43125" y="145.8" style="stroke: #000000; stroke-width: 0.8"/>
      </g>
     </g>
    </g>
   </g>
   <g id="matplotlib.axis_2">
    <g id="ytick_1">
     <g id="line2d_2">
      <defs>
       <path id="m12739d258c" d="M 0 0 
L -3.5 0 
" style="stroke: #000000; stroke-width: 0.8"/>
      </defs>
      <g>
       <use xlink:href="#m12739d258c" x="43.78125" y="139.502286" style="stroke: #000000; stroke-width: 0.8"/>
      </g>
     </g>
     <g id="text_1">
      <!-- 0.0 -->
      <g transform="translate(20.878125 143.301505) scale(0.1 -0.1)">
       <defs>
        <path id="DejaVuSans-30" d="M 2034 4250 
Q 1547 4250 1301 3770 
Q 1056 3291 1056 2328 
Q 1056 1369 1301 889 
Q 1547 409 2034 409 
Q 2525 409 2770 889 
Q 3016 1369 3016 2328 
Q 3016 3291 2770 3770 
Q 2525 4250 2034 4250 
z
M 2034 4750 
Q 2819 4750 3233 4129 
Q 3647 3509 3647 2328 
Q 3647 1150 3233 529 
Q 2819 -91 2034 -91 
Q 1250 -91 836 529 
Q 422 1150 422 2328 
Q 422 3509 836 4129 
Q 1250 4750 2034 4750 
z
" transform="scale(0.015625)"/>
        <path id="DejaVuSans-2e" d="M 684 794 
L 1344 794 
L 1344 0 
L 684 0 
L 684 794 
z
" transform="scale(0.015625)"/>
       </defs>
       <use xlink:href="#DejaVuSans-30"/>
       <use xlink:href="#DejaVuSans-2e" transform="translate(63.623047 0)"/>
       <use xlink:href="#DejaVuSans-30" transform="translate(95.410156 0)"/>
      </g>
     </g>
    </g>
    <g id="ytick_2">
     <g id="line2d_3">
      <g>
       <use xlink:href="#m12739d258c" x="43.78125" y="97.494185" style="stroke: #000000; stroke-width: 0.8"/>
      </g>
     </g>
     <g id="text_2">
      <!-- 0.2 -->
      <g transform="translate(20.878125 101.293404) scale(0.1 -0.1)">
       <defs>
        <path id="DejaVuSans-32" d="M 1228 531 
L 3431 531 
L 3431 0 
L 469 0 
L 469 531 
Q 828 903 1448 1529 
Q 2069 2156 2228 2338 
Q 2531 2678 2651 2914 
Q 2772 3150 2772 3378 
Q 2772 3750 2511 3984 
Q 2250 4219 1831 4219 
Q 1534 4219 1204 4116 
Q 875 4013 500 3803 
L 500 4441 
Q 881 4594 1212 4672 
Q 1544 4750 1819 4750 
Q 2544 4750 2975 4387 
Q 3406 4025 3406 3419 
Q 3406 3131 3298 2873 
Q 3191 2616 2906 2266 
Q 2828 2175 2409 1742 
Q 1991 1309 1228 531 
z
" transform="scale(0.015625)"/>
       </defs>
       <use xlink:href="#DejaVuSans-30"/>
       <use xlink:href="#DejaVuSans-2e" transform="translate(63.623047 0)"/>
       <use xlink:href="#DejaVuSans-32" transform="translate(95.410156 0)"/>
      </g>
     </g>
    </g>
    <g id="ytick_3">
     <g id="line2d_4">
      <g>
       <use xlink:href="#m12739d258c" x="43.78125" y="55.486084" style="stroke: #000000; stroke-width: 0.8"/>
      </g>
     </g>
     <g id="text_3">
      <!-- 0.4 -->
      <g transform="translate(20.878125 59.285303) scale(0.1 -0.1)">
       <defs>
        <path id="DejaVuSans-34" d="M 2419 4116 
L 825 1625 
L 2419 1625 
L 2419 4116 
z
M 2253 4666 
L 3047 4666 
L 3047 1625 
L 3713 1625 
L 3713 1100 
L 3047 1100 
L 3047 0 
L 2419 0 
L 2419 1100 
L 313 1100 
L 313 1709 
L 2253 4666 
z
" transform="scale(0.015625)"/>
       </defs>
       <use xlink:href="#DejaVuSans-30"/>
       <use xlink:href="#DejaVuSans-2e" transform="translate(63.623047 0)"/>
       <use xlink:href="#DejaVuSans-34" transform="translate(95.410156 0)"/>
      </g>
     </g>
    </g>
    <g id="ytick_4">
     <g id="line2d_5">
      <g>
       <use xlink:href="#m12739d258c" x="43.78125" y="13.477983" style="stroke: #000000; stroke-width: 0.8"/>
      </g>
     </g>
     <g id="text_4">
      <!-- 0.6 -->
      <g transform="translate(20.878125 17.277202) scale(0.1 -0.1)">
       <defs>
        <path id="DejaVuSans-36" d="M 2113 2584 
Q 1688 2584 1439 2293 
Q 1191 2003 1191 1497 
Q 1191 994 1439 701 
Q 1688 409 2113 409 
Q 2538 409 2786 701 
Q 3034 994 3034 1497 
Q 3034 2003 2786 2293 
Q 2538 2584 2113 2584 
z
M 3366 4563 
L 3366 3988 
Q 3128 4100 2886 4159 
Q 2644 4219 2406 4219 
Q 1781 4219 1451 3797 
Q 1122 3375 1075 2522 
Q 1259 2794 1537 2939 
Q 1816 3084 2150 3084 
Q 2853 3084 3261 2657 
Q 3669 2231 3669 1497 
Q 3669 778 3244 343 
Q 2819 -91 2113 -91 
Q 1303 -91 875 529 
Q 447 1150 447 2328 
Q 447 3434 972 4092 
Q 1497 4750 2381 4750 
Q 2619 4750 2861 4703 
Q 3103 4656 3366 4563 
z
" transform="scale(0.015625)"/>
       </defs>
       <use xlink:href="#DejaVuSans-30"/>
       <use xlink:href="#DejaVuSans-2e" transform="translate(63.623047 0)"/>
       <use xlink:href="#DejaVuSans-36" transform="translate(95.410156 0)"/>
      </g>
     </g>
    </g>
    <g id="text_5">
     <!-- Prediction Value -->
     <g transform="translate(14.798438 116.657031) rotate(-90) scale(0.1 -0.1)">
      <defs>
       <path id="DejaVuSans-50" d="M 1259 4147 
L 1259 2394 
L 2053 2394 
Q 2494 2394 2734 2622 
Q 2975 2850 2975 3272 
Q 2975 3691 2734 3919 
Q 2494 4147 2053 4147 
L 1259 4147 
z
M 628 4666 
L 2053 4666 
Q 2838 4666 3239 4311 
Q 3641 3956 3641 3272 
Q 3641 2581 3239 2228 
Q 2838 1875 2053 1875 
L 1259 1875 
L 1259 0 
L 628 0 
L 628 4666 
z
" transform="scale(0.015625)"/>
       <path id="DejaVuSans-72" d="M 2631 2963 
Q 2534 3019 2420 3045 
Q 2306 3072 2169 3072 
Q 1681 3072 1420 2755 
Q 1159 2438 1159 1844 
L 1159 0 
L 581 0 
L 581 3500 
L 1159 3500 
L 1159 2956 
Q 1341 3275 1631 3429 
Q 1922 3584 2338 3584 
Q 2397 3584 2469 3576 
Q 2541 3569 2628 3553 
L 2631 2963 
z
" transform="scale(0.015625)"/>
       <path id="DejaVuSans-65" d="M 3597 1894 
L 3597 1613 
L 953 1613 
Q 991 1019 1311 708 
Q 1631 397 2203 397 
Q 2534 397 2845 478 
Q 3156 559 3463 722 
L 3463 178 
Q 3153 47 2828 -22 
Q 2503 -91 2169 -91 
Q 1331 -91 842 396 
Q 353 884 353 1716 
Q 353 2575 817 3079 
Q 1281 3584 2069 3584 
Q 2775 3584 3186 3129 
Q 3597 2675 3597 1894 
z
M 3022 2063 
Q 3016 2534 2758 2815 
Q 2500 3097 2075 3097 
Q 1594 3097 1305 2825 
Q 1016 2553 972 2059 
L 3022 2063 
z
" transform="scale(0.015625)"/>
       <path id="DejaVuSans-64" d="M 2906 2969 
L 2906 4863 
L 3481 4863 
L 3481 0 
L 2906 0 
L 2906 525 
Q 2725 213 2448 61 
Q 2172 -91 1784 -91 
Q 1150 -91 751 415 
Q 353 922 353 1747 
Q 353 2572 751 3078 
Q 1150 3584 1784 3584 
Q 2172 3584 2448 3432 
Q 2725 3281 2906 2969 
z
M 947 1747 
Q 947 1113 1208 752 
Q 1469 391 1925 391 
Q 2381 391 2643 752 
Q 2906 1113 2906 1747 
Q 2906 2381 2643 2742 
Q 2381 3103 1925 3103 
Q 1469 3103 1208 2742 
Q 947 2381 947 1747 
z
" transform="scale(0.015625)"/>
       <path id="DejaVuSans-69" d="M 603 3500 
L 1178 3500 
L 1178 0 
L 603 0 
L 603 3500 
z
M 603 4863 
L 1178 4863 
L 1178 4134 
L 603 4134 
L 603 4863 
z
" transform="scale(0.015625)"/>
       <path id="DejaVuSans-63" d="M 3122 3366 
L 3122 2828 
Q 2878 2963 2633 3030 
Q 2388 3097 2138 3097 
Q 1578 3097 1268 2742 
Q 959 2388 959 1747 
Q 959 1106 1268 751 
Q 1578 397 2138 397 
Q 2388 397 2633 464 
Q 2878 531 3122 666 
L 3122 134 
Q 2881 22 2623 -34 
Q 2366 -91 2075 -91 
Q 1284 -91 818 406 
Q 353 903 353 1747 
Q 353 2603 823 3093 
Q 1294 3584 2113 3584 
Q 2378 3584 2631 3529 
Q 2884 3475 3122 3366 
z
" transform="scale(0.015625)"/>
       <path id="DejaVuSans-74" d="M 1172 4494 
L 1172 3500 
L 2356 3500 
L 2356 3053 
L 1172 3053 
L 1172 1153 
Q 1172 725 1289 603 
Q 1406 481 1766 481 
L 2356 481 
L 2356 0 
L 1766 0 
Q 1100 0 847 248 
Q 594 497 594 1153 
L 594 3053 
L 172 3053 
L 172 3500 
L 594 3500 
L 594 4494 
L 1172 4494 
z
" transform="scale(0.015625)"/>
       <path id="DejaVuSans-6f" d="M 1959 3097 
Q 1497 3097 1228 2736 
Q 959 2375 959 1747 
Q 959 1119 1226 758 
Q 1494 397 1959 397 
Q 2419 397 2687 759 
Q 2956 1122 2956 1747 
Q 2956 2369 2687 2733 
Q 2419 3097 1959 3097 
z
M 1959 3584 
Q 2709 3584 3137 3096 
Q 3566 2609 3566 1747 
Q 3566 888 3137 398 
Q 2709 -91 1959 -91 
Q 1206 -91 779 398 
Q 353 888 353 1747 
Q 353 2609 779 3096 
Q 1206 3584 1959 3584 
z
" transform="scale(0.015625)"/>
       <path id="DejaVuSans-6e" d="M 3513 2113 
L 3513 0 
L 2938 0 
L 2938 2094 
Q 2938 2591 2744 2837 
Q 2550 3084 2163 3084 
Q 1697 3084 1428 2787 
Q 1159 2491 1159 1978 
L 1159 0 
L 581 0 
L 581 3500 
L 1159 3500 
L 1159 2956 
Q 1366 3272 1645 3428 
Q 1925 3584 2291 3584 
Q 2894 3584 3203 3211 
Q 3513 2838 3513 2113 
z
" transform="scale(0.015625)"/>
       <path id="DejaVuSans-20" transform="scale(0.015625)"/>
       <path id="DejaVuSans-56" d="M 1831 0 
L 50 4666 
L 709 4666 
L 2188 738 
L 3669 4666 
L 4325 4666 
L 2547 0 
L 1831 0 
z
" transform="scale(0.015625)"/>
       <path id="DejaVuSans-61" d="M 2194 1759 
Q 1497 1759 1228 1600 
Q 959 1441 959 1056 
Q 959 750 1161 570 
Q 1363 391 1709 391 
Q 2188 391 2477 730 
Q 2766 1069 2766 1631 
L 2766 1759 
L 2194 1759 
z
M 3341 1997 
L 3341 0 
L 2766 0 
L 2766 531 
Q 2569 213 2275 61 
Q 1981 -91 1556 -91 
Q 1019 -91 701 211 
Q 384 513 384 1019 
Q 384 1609 779 1909 
Q 1175 2209 1959 2209 
L 2766 2209 
L 2766 2266 
Q 2766 2663 2505 2880 
Q 2244 3097 1772 3097 
Q 1472 3097 1187 3025 
Q 903 2953 641 2809 
L 641 3341 
Q 956 3463 1253 3523 
Q 1550 3584 1831 3584 
Q 2591 3584 2966 3190 
Q 3341 2797 3341 1997 
z
" transform="scale(0.015625)"/>
       <path id="DejaVuSans-6c" d="M 603 4863 
L 1178 4863 
L 1178 0 
L 603 0 
L 603 4863 
z
" transform="scale(0.015625)"/>
       <path id="DejaVuSans-75" d="M 544 1381 
L 544 3500 
L 1119 3500 
L 1119 1403 
Q 1119 906 1312 657 
Q 1506 409 1894 409 
Q 2359 409 2629 706 
Q 2900 1003 2900 1516 
L 2900 3500 
L 3475 3500 
L 3475 0 
L 2900 0 
L 2900 538 
Q 2691 219 2414 64 
Q 2138 -91 1772 -91 
Q 1169 -91 856 284 
Q 544 659 544 1381 
z
M 1991 3584 
L 1991 3584 
z
" transform="scale(0.015625)"/>
      </defs>
      <use xlink:href="#DejaVuSans-50"/>
      <use xlink:href="#DejaVuSans-72" transform="translate(58.552734 0)"/>
      <use xlink:href="#DejaVuSans-65" transform="translate(97.416016 0)"/>
      <use xlink:href="#DejaVuSans-64" transform="translate(158.939453 0)"/>
      <use xlink:href="#DejaVuSans-69" transform="translate(222.416016 0)"/>
      <use xlink:href="#DejaVuSans-63" transform="translate(250.199219 0)"/>
      <use xlink:href="#DejaVuSans-74" transform="translate(305.179688 0)"/>
      <use xlink:href="#DejaVuSans-69" transform="translate(344.388672 0)"/>
      <use xlink:href="#DejaVuSans-6f" transform="translate(372.171875 0)"/>
      <use xlink:href="#DejaVuSans-6e" transform="translate(433.353516 0)"/>
      <use xlink:href="#DejaVuSans-20" transform="translate(496.732422 0)"/>
      <use xlink:href="#DejaVuSans-56" transform="translate(528.519531 0)"/>
      <use xlink:href="#DejaVuSans-61" transform="translate(589.177734 0)"/>
      <use xlink:href="#DejaVuSans-6c" transform="translate(650.457031 0)"/>
      <use xlink:href="#DejaVuSans-75" transform="translate(678.240234 0)"/>
      <use xlink:href="#DejaVuSans-65" transform="translate(741.619141 0)"/>
     </g>
    </g>
   </g>
   <g id="patch_3">
    <path d="M 63.31125 139.486433 
L 219.55125 139.486433 
L 219.55125 139.403382 
L 63.31125 139.403382 
L 63.31125 139.486433 
z
" clip-path="url(#p657071518b)" style="fill: #ffffff; stroke: #000000; stroke-linejoin: miter"/>
   </g>
   <g id="line2d_6">
    <path d="M 141.43125 139.486433 
L 141.43125 139.5 
" clip-path="url(#p657071518b)" style="fill: none; stroke: #000000"/>
   </g>
   <g id="line2d_7">
    <path d="M 141.43125 139.403382 
L 141.43125 139.280324 
" clip-path="url(#p657071518b)" style="fill: none; stroke: #000000"/>
   </g>
   <g id="line2d_8">
    <path d="M 102.37125 139.5 
L 180.49125 139.5 
" clip-path="url(#p657071518b)" style="fill: none; stroke: #000000; stroke-linecap: square"/>
   </g>
   <g id="line2d_9">
    <path d="M 102.37125 139.280324 
L 180.49125 139.280324 
" clip-path="url(#p657071518b)" style="fill: none; stroke: #000000; stroke-linecap: square"/>
   </g>
   <g id="line2d_10">
    <defs>
     <path id="m5b1cc39085" d="M 0 3 
C 0.795609 3 1.55874 2.683901 2.12132 2.12132 
C 2.683901 1.55874 3 0.795609 3 0 
C 3 -0.795609 2.683901 -1.55874 2.12132 -2.12132 
C 1.55874 -2.683901 0.795609 -3 0 -3 
C -0.795609 -3 -1.55874 -2.683901 -2.12132 -2.12132 
C -2.683901 -1.55874 -3 -0.795609 -3 0 
C -3 0.795609 -2.683901 1.55874 -2.12132 2.12132 
C -1.55874 2.683901 -0.795609 3 0 3 
z
" style="stroke: #000000; stroke-opacity: 0"/>
    </defs>
    <g clip-path="url(#p657071518b)">
     <use xlink:href="#m5b1cc39085" x="141.43125" y="139.080396" style="fill: #ef767b; fill-opacity: 0.5; stroke: #000000; stroke-opacity: 0"/>
     <use xlink:href="#m5b1cc39085" x="141.43125" y="138.974496" style="fill: #ef767b; fill-opacity: 0.5; stroke: #000000; stroke-opacity: 0"/>
     <use xlink:href="#m5b1cc39085" x="141.43125" y="19.358348" style="fill: #ef767b; fill-opacity: 0.5; stroke: #000000; stroke-opacity: 0"/>
     <use xlink:href="#m5b1cc39085" x="141.43125" y="139.094144" style="fill: #ef767b; fill-opacity: 0.5; stroke: #000000; stroke-opacity: 0"/>
     <use xlink:href="#m5b1cc39085" x="141.43125" y="56.457005" style="fill: #ef767b; fill-opacity: 0.5; stroke: #000000; stroke-opacity: 0"/>
     <use xlink:href="#m5b1cc39085" x="141.43125" y="139.098694" style="fill: #ef767b; fill-opacity: 0.5; stroke: #000000; stroke-opacity: 0"/>
     <use xlink:href="#m5b1cc39085" x="141.43125" y="139.184313" style="fill: #ef767b; fill-opacity: 0.5; stroke: #000000; stroke-opacity: 0"/>
     <use xlink:href="#m5b1cc39085" x="141.43125" y="31.747223" style="fill: #ef767b; fill-opacity: 0.5; stroke: #000000; stroke-opacity: 0"/>
     <use xlink:href="#m5b1cc39085" x="141.43125" y="23.886148" style="fill: #ef767b; fill-opacity: 0.5; stroke: #000000; stroke-opacity: 0"/>
     <use xlink:href="#m5b1cc39085" x="141.43125" y="48.153414" style="fill: #ef767b; fill-opacity: 0.5; stroke: #000000; stroke-opacity: 0"/>
     <use xlink:href="#m5b1cc39085" x="141.43125" y="13.5" style="fill: #ef767b; fill-opacity: 0.5; stroke: #000000; stroke-opacity: 0"/>
     <use xlink:href="#m5b1cc39085" x="141.43125" y="139.167466" style="fill: #ef767b; fill-opacity: 0.5; stroke: #000000; stroke-opacity: 0"/>
     <use xlink:href="#m5b1cc39085" x="141.43125" y="139.216877" style="fill: #ef767b; fill-opacity: 0.5; stroke: #000000; stroke-opacity: 0"/>
     <use xlink:href="#m5b1cc39085" x="141.43125" y="60.839843" style="fill: #ef767b; fill-opacity: 0.5; stroke: #000000; stroke-opacity: 0"/>
     <use xlink:href="#m5b1cc39085" x="141.43125" y="139.249254" style="fill: #ef767b; fill-opacity: 0.5; stroke: #000000; stroke-opacity: 0"/>
     <use xlink:href="#m5b1cc39085" x="141.43125" y="138.858085" style="fill: #ef767b; fill-opacity: 0.5; stroke: #000000; stroke-opacity: 0"/>
     <use xlink:href="#m5b1cc39085" x="141.43125" y="139.00988" style="fill: #ef767b; fill-opacity: 0.5; stroke: #000000; stroke-opacity: 0"/>
     <use xlink:href="#m5b1cc39085" x="141.43125" y="137.558595" style="fill: #ef767b; fill-opacity: 0.5; stroke: #000000; stroke-opacity: 0"/>
     <use xlink:href="#m5b1cc39085" x="141.43125" y="139.183685" style="fill: #ef767b; fill-opacity: 0.5; stroke: #000000; stroke-opacity: 0"/>
     <use xlink:href="#m5b1cc39085" x="141.43125" y="138.363119" style="fill: #ef767b; fill-opacity: 0.5; stroke: #000000; stroke-opacity: 0"/>
     <use xlink:href="#m5b1cc39085" x="141.43125" y="135.59639" style="fill: #ef767b; fill-opacity: 0.5; stroke: #000000; stroke-opacity: 0"/>
     <use xlink:href="#m5b1cc39085" x="141.43125" y="136.916524" style="fill: #ef767b; fill-opacity: 0.5; stroke: #000000; stroke-opacity: 0"/>
     <use xlink:href="#m5b1cc39085" x="141.43125" y="138.125556" style="fill: #ef767b; fill-opacity: 0.5; stroke: #000000; stroke-opacity: 0"/>
     <use xlink:href="#m5b1cc39085" x="141.43125" y="138.736928" style="fill: #ef767b; fill-opacity: 0.5; stroke: #000000; stroke-opacity: 0"/>
     <use xlink:href="#m5b1cc39085" x="141.43125" y="130.92258" style="fill: #ef767b; fill-opacity: 0.5; stroke: #000000; stroke-opacity: 0"/>
     <use xlink:href="#m5b1cc39085" x="141.43125" y="137.853077" style="fill: #ef767b; fill-opacity: 0.5; stroke: #000000; stroke-opacity: 0"/>
     <use xlink:href="#m5b1cc39085" x="141.43125" y="59.285229" style="fill: #ef767b; fill-opacity: 0.5; stroke: #000000; stroke-opacity: 0"/>
     <use xlink:href="#m5b1cc39085" x="141.43125" y="139.245658" style="fill: #ef767b; fill-opacity: 0.5; stroke: #000000; stroke-opacity: 0"/>
     <use xlink:href="#m5b1cc39085" x="141.43125" y="138.76591" style="fill: #ef767b; fill-opacity: 0.5; stroke: #000000; stroke-opacity: 0"/>
     <use xlink:href="#m5b1cc39085" x="141.43125" y="135.148035" style="fill: #ef767b; fill-opacity: 0.5; stroke: #000000; stroke-opacity: 0"/>
     <use xlink:href="#m5b1cc39085" x="141.43125" y="60.395393" style="fill: #ef767b; fill-opacity: 0.5; stroke: #000000; stroke-opacity: 0"/>
     <use xlink:href="#m5b1cc39085" x="141.43125" y="37.204031" style="fill: #ef767b; fill-opacity: 0.5; stroke: #000000; stroke-opacity: 0"/>
     <use xlink:href="#m5b1cc39085" x="141.43125" y="51.350753" style="fill: #ef767b; fill-opacity: 0.5; stroke: #000000; stroke-opacity: 0"/>
     <use xlink:href="#m5b1cc39085" x="141.43125" y="74.434405" style="fill: #ef767b; fill-opacity: 0.5; stroke: #000000; stroke-opacity: 0"/>
     <use xlink:href="#m5b1cc39085" x="141.43125" y="39.802286" style="fill: #ef767b; fill-opacity: 0.5; stroke: #000000; stroke-opacity: 0"/>
     <use xlink:href="#m5b1cc39085" x="141.43125" y="138.689837" style="fill: #ef767b; fill-opacity: 0.5; stroke: #000000; stroke-opacity: 0"/>
     <use xlink:href="#m5b1cc39085" x="141.43125" y="101.643032" style="fill: #ef767b; fill-opacity: 0.5; stroke: #000000; stroke-opacity: 0"/>
     <use xlink:href="#m5b1cc39085" x="141.43125" y="138.46772" style="fill: #ef767b; fill-opacity: 0.5; stroke: #000000; stroke-opacity: 0"/>
     <use xlink:href="#m5b1cc39085" x="141.43125" y="139.209814" style="fill: #ef767b; fill-opacity: 0.5; stroke: #000000; stroke-opacity: 0"/>
     <use xlink:href="#m5b1cc39085" x="141.43125" y="139.033654" style="fill: #ef767b; fill-opacity: 0.5; stroke: #000000; stroke-opacity: 0"/>
     <use xlink:href="#m5b1cc39085" x="141.43125" y="55.509344" style="fill: #ef767b; fill-opacity: 0.5; stroke: #000000; stroke-opacity: 0"/>
     <use xlink:href="#m5b1cc39085" x="141.43125" y="40.336908" style="fill: #ef767b; fill-opacity: 0.5; stroke: #000000; stroke-opacity: 0"/>
     <use xlink:href="#m5b1cc39085" x="141.43125" y="16.513755" style="fill: #ef767b; fill-opacity: 0.5; stroke: #000000; stroke-opacity: 0"/>
     <use xlink:href="#m5b1cc39085" x="141.43125" y="39.131266" style="fill: #ef767b; fill-opacity: 0.5; stroke: #000000; stroke-opacity: 0"/>
     <use xlink:href="#m5b1cc39085" x="141.43125" y="38.535067" style="fill: #ef767b; fill-opacity: 0.5; stroke: #000000; stroke-opacity: 0"/>
     <use xlink:href="#m5b1cc39085" x="141.43125" y="94.985687" style="fill: #ef767b; fill-opacity: 0.5; stroke: #000000; stroke-opacity: 0"/>
     <use xlink:href="#m5b1cc39085" x="141.43125" y="139.066178" style="fill: #ef767b; fill-opacity: 0.5; stroke: #000000; stroke-opacity: 0"/>
     <use xlink:href="#m5b1cc39085" x="141.43125" y="139.2061" style="fill: #ef767b; fill-opacity: 0.5; stroke: #000000; stroke-opacity: 0"/>
     <use xlink:href="#m5b1cc39085" x="141.43125" y="139.25311" style="fill: #ef767b; fill-opacity: 0.5; stroke: #000000; stroke-opacity: 0"/>
     <use xlink:href="#m5b1cc39085" x="141.43125" y="139.105782" style="fill: #ef767b; fill-opacity: 0.5; stroke: #000000; stroke-opacity: 0"/>
     <use xlink:href="#m5b1cc39085" x="141.43125" y="138.501052" style="fill: #ef767b; fill-opacity: 0.5; stroke: #000000; stroke-opacity: 0"/>
     <use xlink:href="#m5b1cc39085" x="141.43125" y="138.241507" style="fill: #ef767b; fill-opacity: 0.5; stroke: #000000; stroke-opacity: 0"/>
     <use xlink:href="#m5b1cc39085" x="141.43125" y="138.438791" style="fill: #ef767b; fill-opacity: 0.5; stroke: #000000; stroke-opacity: 0"/>
     <use xlink:href="#m5b1cc39085" x="141.43125" y="138.793264" style="fill: #ef767b; fill-opacity: 0.5; stroke: #000000; stroke-opacity: 0"/>
     <use xlink:href="#m5b1cc39085" x="141.43125" y="139.128165" style="fill: #ef767b; fill-opacity: 0.5; stroke: #000000; stroke-opacity: 0"/>
     <use xlink:href="#m5b1cc39085" x="141.43125" y="138.328551" style="fill: #ef767b; fill-opacity: 0.5; stroke: #000000; stroke-opacity: 0"/>
     <use xlink:href="#m5b1cc39085" x="141.43125" y="41.363097" style="fill: #ef767b; fill-opacity: 0.5; stroke: #000000; stroke-opacity: 0"/>
     <use xlink:href="#m5b1cc39085" x="141.43125" y="139.188337" style="fill: #ef767b; fill-opacity: 0.5; stroke: #000000; stroke-opacity: 0"/>
     <use xlink:href="#m5b1cc39085" x="141.43125" y="59.963386" style="fill: #ef767b; fill-opacity: 0.5; stroke: #000000; stroke-opacity: 0"/>
     <use xlink:href="#m5b1cc39085" x="141.43125" y="138.992" style="fill: #ef767b; fill-opacity: 0.5; stroke: #000000; stroke-opacity: 0"/>
     <use xlink:href="#m5b1cc39085" x="141.43125" y="139.056213" style="fill: #ef767b; fill-opacity: 0.5; stroke: #000000; stroke-opacity: 0"/>
     <use xlink:href="#m5b1cc39085" x="141.43125" y="138.682736" style="fill: #ef767b; fill-opacity: 0.5; stroke: #000000; stroke-opacity: 0"/>
     <use xlink:href="#m5b1cc39085" x="141.43125" y="117.095718" style="fill: #ef767b; fill-opacity: 0.5; stroke: #000000; stroke-opacity: 0"/>
     <use xlink:href="#m5b1cc39085" x="141.43125" y="121.141194" style="fill: #ef767b; fill-opacity: 0.5; stroke: #000000; stroke-opacity: 0"/>
     <use xlink:href="#m5b1cc39085" x="141.43125" y="34.458285" style="fill: #ef767b; fill-opacity: 0.5; stroke: #000000; stroke-opacity: 0"/>
     <use xlink:href="#m5b1cc39085" x="141.43125" y="46.822765" style="fill: #ef767b; fill-opacity: 0.5; stroke: #000000; stroke-opacity: 0"/>
     <use xlink:href="#m5b1cc39085" x="141.43125" y="58.949328" style="fill: #ef767b; fill-opacity: 0.5; stroke: #000000; stroke-opacity: 0"/>
     <use xlink:href="#m5b1cc39085" x="141.43125" y="48.976244" style="fill: #ef767b; fill-opacity: 0.5; stroke: #000000; stroke-opacity: 0"/>
     <use xlink:href="#m5b1cc39085" x="141.43125" y="138.982644" style="fill: #ef767b; fill-opacity: 0.5; stroke: #000000; stroke-opacity: 0"/>
     <use xlink:href="#m5b1cc39085" x="141.43125" y="139.190006" style="fill: #ef767b; fill-opacity: 0.5; stroke: #000000; stroke-opacity: 0"/>
     <use xlink:href="#m5b1cc39085" x="141.43125" y="138.652065" style="fill: #ef767b; fill-opacity: 0.5; stroke: #000000; stroke-opacity: 0"/>
     <use xlink:href="#m5b1cc39085" x="141.43125" y="139.013515" style="fill: #ef767b; fill-opacity: 0.5; stroke: #000000; stroke-opacity: 0"/>
     <use xlink:href="#m5b1cc39085" x="141.43125" y="138.78589" style="fill: #ef767b; fill-opacity: 0.5; stroke: #000000; stroke-opacity: 0"/>
     <use xlink:href="#m5b1cc39085" x="141.43125" y="139.227454" style="fill: #ef767b; fill-opacity: 0.5; stroke: #000000; stroke-opacity: 0"/>
     <use xlink:href="#m5b1cc39085" x="141.43125" y="139.202101" style="fill: #ef767b; fill-opacity: 0.5; stroke: #000000; stroke-opacity: 0"/>
     <use xlink:href="#m5b1cc39085" x="141.43125" y="139.241046" style="fill: #ef767b; fill-opacity: 0.5; stroke: #000000; stroke-opacity: 0"/>
     <use xlink:href="#m5b1cc39085" x="141.43125" y="33.665745" style="fill: #ef767b; fill-opacity: 0.5; stroke: #000000; stroke-opacity: 0"/>
     <use xlink:href="#m5b1cc39085" x="141.43125" y="139.195689" style="fill: #ef767b; fill-opacity: 0.5; stroke: #000000; stroke-opacity: 0"/>
     <use xlink:href="#m5b1cc39085" x="141.43125" y="139.091088" style="fill: #ef767b; fill-opacity: 0.5; stroke: #000000; stroke-opacity: 0"/>
     <use xlink:href="#m5b1cc39085" x="141.43125" y="138.600483" style="fill: #ef767b; fill-opacity: 0.5; stroke: #000000; stroke-opacity: 0"/>
     <use xlink:href="#m5b1cc39085" x="141.43125" y="139.184208" style="fill: #ef767b; fill-opacity: 0.5; stroke: #000000; stroke-opacity: 0"/>
     <use xlink:href="#m5b1cc39085" x="141.43125" y="134.737179" style="fill: #ef767b; fill-opacity: 0.5; stroke: #000000; stroke-opacity: 0"/>
     <use xlink:href="#m5b1cc39085" x="141.43125" y="138.803779" style="fill: #ef767b; fill-opacity: 0.5; stroke: #000000; stroke-opacity: 0"/>
     <use xlink:href="#m5b1cc39085" x="141.43125" y="139.103034" style="fill: #ef767b; fill-opacity: 0.5; stroke: #000000; stroke-opacity: 0"/>
     <use xlink:href="#m5b1cc39085" x="141.43125" y="139.269902" style="fill: #ef767b; fill-opacity: 0.5; stroke: #000000; stroke-opacity: 0"/>
     <use xlink:href="#m5b1cc39085" x="141.43125" y="138.118588" style="fill: #ef767b; fill-opacity: 0.5; stroke: #000000; stroke-opacity: 0"/>
     <use xlink:href="#m5b1cc39085" x="141.43125" y="134.860865" style="fill: #ef767b; fill-opacity: 0.5; stroke: #000000; stroke-opacity: 0"/>
     <use xlink:href="#m5b1cc39085" x="141.43125" y="135.598565" style="fill: #ef767b; fill-opacity: 0.5; stroke: #000000; stroke-opacity: 0"/>
     <use xlink:href="#m5b1cc39085" x="141.43125" y="139.267029" style="fill: #ef767b; fill-opacity: 0.5; stroke: #000000; stroke-opacity: 0"/>
     <use xlink:href="#m5b1cc39085" x="141.43125" y="138.173169" style="fill: #ef767b; fill-opacity: 0.5; stroke: #000000; stroke-opacity: 0"/>
     <use xlink:href="#m5b1cc39085" x="141.43125" y="51.746591" style="fill: #ef767b; fill-opacity: 0.5; stroke: #000000; stroke-opacity: 0"/>
     <use xlink:href="#m5b1cc39085" x="141.43125" y="139.159966" style="fill: #ef767b; fill-opacity: 0.5; stroke: #000000; stroke-opacity: 0"/>
     <use xlink:href="#m5b1cc39085" x="141.43125" y="138.898977" style="fill: #ef767b; fill-opacity: 0.5; stroke: #000000; stroke-opacity: 0"/>
     <use xlink:href="#m5b1cc39085" x="141.43125" y="139.054837" style="fill: #ef767b; fill-opacity: 0.5; stroke: #000000; stroke-opacity: 0"/>
     <use xlink:href="#m5b1cc39085" x="141.43125" y="139.177124" style="fill: #ef767b; fill-opacity: 0.5; stroke: #000000; stroke-opacity: 0"/>
     <use xlink:href="#m5b1cc39085" x="141.43125" y="138.408323" style="fill: #ef767b; fill-opacity: 0.5; stroke: #000000; stroke-opacity: 0"/>
     <use xlink:href="#m5b1cc39085" x="141.43125" y="133.881171" style="fill: #ef767b; fill-opacity: 0.5; stroke: #000000; stroke-opacity: 0"/>
     <use xlink:href="#m5b1cc39085" x="141.43125" y="53.999643" style="fill: #ef767b; fill-opacity: 0.5; stroke: #000000; stroke-opacity: 0"/>
     <use xlink:href="#m5b1cc39085" x="141.43125" y="63.436233" style="fill: #ef767b; fill-opacity: 0.5; stroke: #000000; stroke-opacity: 0"/>
     <use xlink:href="#m5b1cc39085" x="141.43125" y="40.075284" style="fill: #ef767b; fill-opacity: 0.5; stroke: #000000; stroke-opacity: 0"/>
     <use xlink:href="#m5b1cc39085" x="141.43125" y="49.743608" style="fill: #ef767b; fill-opacity: 0.5; stroke: #000000; stroke-opacity: 0"/>
     <use xlink:href="#m5b1cc39085" x="141.43125" y="67.049849" style="fill: #ef767b; fill-opacity: 0.5; stroke: #000000; stroke-opacity: 0"/>
     <use xlink:href="#m5b1cc39085" x="141.43125" y="139.114709" style="fill: #ef767b; fill-opacity: 0.5; stroke: #000000; stroke-opacity: 0"/>
     <use xlink:href="#m5b1cc39085" x="141.43125" y="98.665448" style="fill: #ef767b; fill-opacity: 0.5; stroke: #000000; stroke-opacity: 0"/>
     <use xlink:href="#m5b1cc39085" x="141.43125" y="139.128827" style="fill: #ef767b; fill-opacity: 0.5; stroke: #000000; stroke-opacity: 0"/>
     <use xlink:href="#m5b1cc39085" x="141.43125" y="139.068662" style="fill: #ef767b; fill-opacity: 0.5; stroke: #000000; stroke-opacity: 0"/>
     <use xlink:href="#m5b1cc39085" x="141.43125" y="60.992248" style="fill: #ef767b; fill-opacity: 0.5; stroke: #000000; stroke-opacity: 0"/>
     <use xlink:href="#m5b1cc39085" x="141.43125" y="38.748861" style="fill: #ef767b; fill-opacity: 0.5; stroke: #000000; stroke-opacity: 0"/>
     <use xlink:href="#m5b1cc39085" x="141.43125" y="29.093138" style="fill: #ef767b; fill-opacity: 0.5; stroke: #000000; stroke-opacity: 0"/>
     <use xlink:href="#m5b1cc39085" x="141.43125" y="44.962021" style="fill: #ef767b; fill-opacity: 0.5; stroke: #000000; stroke-opacity: 0"/>
     <use xlink:href="#m5b1cc39085" x="141.43125" y="43.624331" style="fill: #ef767b; fill-opacity: 0.5; stroke: #000000; stroke-opacity: 0"/>
     <use xlink:href="#m5b1cc39085" x="141.43125" y="39.237205" style="fill: #ef767b; fill-opacity: 0.5; stroke: #000000; stroke-opacity: 0"/>
     <use xlink:href="#m5b1cc39085" x="141.43125" y="139.19528" style="fill: #ef767b; fill-opacity: 0.5; stroke: #000000; stroke-opacity: 0"/>
     <use xlink:href="#m5b1cc39085" x="141.43125" y="139.247473" style="fill: #ef767b; fill-opacity: 0.5; stroke: #000000; stroke-opacity: 0"/>
     <use xlink:href="#m5b1cc39085" x="141.43125" y="139.077344" style="fill: #ef767b; fill-opacity: 0.5; stroke: #000000; stroke-opacity: 0"/>
     <use xlink:href="#m5b1cc39085" x="141.43125" y="138.493377" style="fill: #ef767b; fill-opacity: 0.5; stroke: #000000; stroke-opacity: 0"/>
     <use xlink:href="#m5b1cc39085" x="141.43125" y="138.228062" style="fill: #ef767b; fill-opacity: 0.5; stroke: #000000; stroke-opacity: 0"/>
     <use xlink:href="#m5b1cc39085" x="141.43125" y="138.486913" style="fill: #ef767b; fill-opacity: 0.5; stroke: #000000; stroke-opacity: 0"/>
     <use xlink:href="#m5b1cc39085" x="141.43125" y="138.797512" style="fill: #ef767b; fill-opacity: 0.5; stroke: #000000; stroke-opacity: 0"/>
     <use xlink:href="#m5b1cc39085" x="141.43125" y="139.128429" style="fill: #ef767b; fill-opacity: 0.5; stroke: #000000; stroke-opacity: 0"/>
     <use xlink:href="#m5b1cc39085" x="141.43125" y="138.328551" style="fill: #ef767b; fill-opacity: 0.5; stroke: #000000; stroke-opacity: 0"/>
    </g>
   </g>
   <g id="line2d_11">
    <path d="M 63.31125 139.46874 
L 219.55125 139.46874 
" clip-path="url(#p657071518b)" style="fill: none; stroke: #000000"/>
   </g>
   <g id="patch_4">
    <path d="M 43.78125 145.8 
L 43.78125 7.2 
" style="fill: none; stroke: #000000; stroke-width: 0.8; stroke-linejoin: miter; stroke-linecap: square"/>
   </g>
   <g id="patch_5">
    <path d="M 239.08125 145.8 
L 239.08125 7.2 
" style="fill: none; stroke: #000000; stroke-width: 0.8; stroke-linejoin: miter; stroke-linecap: square"/>
   </g>
   <g id="patch_6">
    <path d="M 43.78125 145.8 
L 239.08125 145.8 
" style="fill: none; stroke: #000000; stroke-width: 0.8; stroke-linejoin: miter; stroke-linecap: square"/>
   </g>
   <g id="patch_7">
    <path d="M 43.78125 7.2 
L 239.08125 7.2 
" style="fill: none; stroke: #000000; stroke-width: 0.8; stroke-linejoin: miter; stroke-linecap: square"/>
   </g>
  </g>
 </g>
 <defs>
  <clipPath id="p657071518b">
   <rect x="43.78125" y="7.2" width="195.3" height="138.6"/>
  </clipPath>
 </defs>
</svg>
